<svg version="1.2" xmlns="http://www.w3.org/2000/svg" viewBox="0 0 1024 1024" width="100" height="100">
	<style>
		.s0 { opacity: .99;fill: #3c4957 } 
	</style>
	<path id="Path 0" fill-rule="evenodd" class="s0" d="m746.5 148.5l7.5 2.13c4.13 1.17 10.88 3.58 15 5.37 4.13 1.78 10.65 5.3 14.5 7.83 3.85 2.52 9.72 7.3 13.05 10.63 3.33 3.32 8.13 8.97 10.66 12.54 2.54 3.57 6.22 9.65 8.18 13.5 1.95 3.85 4.51 10.6 5.67 15 1.51 5.7 2.3 12.67 3.44 40.51l-49.5-0.01-0.01-7.25c-0.01-3.99-0.71-10.18-1.56-13.75-0.85-3.57-2.84-8.75-4.42-11.5-1.58-2.75-5.26-7.39-8.19-10.31-3.22-3.21-8.27-6.77-20.22-12.69h-458.1l-6.5 3.06c-3.98 1.88-8.86 5.36-12.59 9-4.02 3.93-7.12 8.14-9.14 12.44-1.68 3.57-3.56 8.86-4.16 11.75-0.69 3.23-1.11 18.13-1.11 72.25l30.25-0.01c24.2 0 31.45 0.31 36.25 1.56 3.3 0.86 8.92 3 12.49 4.76 3.71 1.82 9.45 5.98 13.39 9.69 3.79 3.57 8.55 8.98 10.58 12 2.03 3.02 5.76 10 8.29 15.5 2.53 5.5 6.57 14.27 8.97 19.5 2.41 5.23 6.2 11.98 8.42 15 2.22 3.02 6.47 7.68 9.45 10.34 2.97 2.67 8.56 6.39 12.41 8.27 3.85 1.88 10.38 4.11 14.5 4.95 6.49 1.33 20.15 1.49 101.5 1.23 93.73-0.3 94.02-0.31 100-2.48 3.3-1.2 8.25-3.45 10.99-5 2.75-1.54 7.63-5.29 10.85-8.31 3.23-3.02 7.49-7.98 9.48-11 1.98-3.02 7.24-13.6 11.68-23.5 4.44-9.9 9.91-20.7 12.15-24 2.25-3.3 6.29-8.13 8.97-10.74 2.68-2.6 6.68-5.95 8.88-7.43 2.2-1.49 6.48-3.83 9.5-5.2 3.02-1.37 8.2-3.07 11.5-3.78 4.44-0.95 19.88-1.29 59.5-1.32 33.33-0.03 55.76 0.36 59.5 1.01 3.3 0.59 8.92 1.99 12.5 3.13 3.58 1.14 11 4.23 16.5 6.87 5.5 2.64 13.6 7.28 18 10.31 4.4 3.04 11.83 9.04 16.51 13.34 4.68 4.29 11.04 10.74 14.14 14.31 3.09 3.57 8.55 10.77 12.13 16 3.59 5.23 8.55 13.55 11.03 18.5 2.49 4.95 5.93 13.05 7.65 18 1.72 4.95 4.1 13.27 5.28 18.5 2.13 9.36 2.17 11.28 3.26 247.83l3 4.27c1.82 2.59 4.96 5.29 7.97 6.84 4.39 2.26 6.36 2.59 28.53 3.06v53h-13.5c-8.22 0-16.24-0.59-20.5-1.5-3.85-0.83-10.04-2.88-13.75-4.56-3.71-1.68-10.01-5.5-14-8.5-3.99-2.99-9.73-8.48-12.77-12.19-3.03-3.71-6.82-9.23-8.42-12.25-1.6-3.02-4.18-9.1-8.56-21.5l-1.03-239-2.73-9.75c-1.51-5.36-4.44-13.69-6.51-18.5-2.08-4.81-6.24-12.35-9.25-16.75-3.02-4.4-8.85-11.32-12.98-15.39-4.12-4.06-10.2-9.22-13.5-11.47-3.3-2.25-8.48-5.27-11.5-6.72-3.02-1.44-6.96-2.92-12-3.92l-0.02 208.75c-0.02 203.64-0.07 208.97-1.99 217.75-1.2 5.51-3.76 12.69-6.61 18.5-4.01 8.19-5.97 10.81-14.26 19.02-7.35 7.27-11.39 10.4-17.12 13.25-4.12 2.05-10.42 4.51-14 5.48-6.11 1.65-21.43 1.75-510.5 1.75l-8.5-2.71c-4.67-1.49-11.2-4.34-14.5-6.33-3.3-2-8.25-5.54-11-7.88-2.75-2.33-7.19-7.13-9.86-10.66-2.67-3.53-6.78-10.47-9.13-15.42-2.34-4.95-4.88-11.48-5.64-14.5-1.14-4.59-1.37-51.44-1.37-563.5l2.27-8.5c1.25-4.68 3.65-11.43 5.34-15 1.68-3.57 4.71-8.97 6.73-12 2.01-3.02 6.81-8.81 10.66-12.86 3.85-4.05 9.7-9.4 13-11.89 3.3-2.49 9.15-6.05 13-7.91 3.85-1.86 9.93-4.27 13.5-5.35 3.58-1.08 9.2-2.37 12.5-2.86 3.45-0.52 104.75-0.85 470-0.63zm-261.5 322.49c-4.12 0.64-11.32 2.3-16 3.69-4.67 1.39-13 4.64-18.5 7.22-5.5 2.59-13.37 6.88-17.5 9.53-4.12 2.66-11.03 7.81-15.34 11.45-4.32 3.64-10.76 9.99-14.32 14.12-3.56 4.12-9 11.33-12.08 16-3.09 4.67-7.3 12.1-9.37 16.5-2.07 4.4-5.1 12.05-6.75 17-1.65 4.95-3.73 12.37-4.63 16.5-0.91 4.22-1.88 14.73-2.2 24-0.44 12.99-0.19 18.84 1.18 27.5 0.96 6.05 3.25 15.72 5.08 21.5 1.84 5.77 5.5 14.67 8.14 19.77 2.63 5.1 7.7 13.42 11.26 18.5 3.56 5.08 10.8 13.5 16.09 18.73 5.29 5.22 13.41 12.05 18.03 15.17 4.63 3.12 13.14 7.93 18.91 10.7 5.77 2.76 14.55 6.37 19.5 8.01 4.95 1.65 13.05 3.72 18 4.62 4.95 0.89 14.63 1.87 21.5 2.17 8.65 0.38 16.28 0.05 24.75-1.06 6.77-0.89 17.5-3.21 24-5.19 6.46-1.97 15.8-5.51 20.75-7.88 4.95-2.37 13.27-7.16 18.5-10.64 5.84-3.9 13.74-10.58 20.51-17.37 6.05-6.06 13.75-15.08 17.12-20.03 3.36-4.95 7.97-12.71 10.24-17.25 2.27-4.54 5.53-12.41 7.24-17.5 1.71-5.09 3.94-13.53 4.95-18.75 1-5.23 2.14-13.55 2.51-18.5 0.4-5.26 0.2-13.36-0.49-19.5-0.65-5.78-2.24-15-3.54-20.5-1.29-5.5-3.76-13.6-5.49-18-1.72-4.4-5.02-11.72-7.34-16.26-2.32-4.55-6.99-12.2-10.39-17-3.39-4.81-10.14-12.69-15-17.51-4.85-4.82-12.87-11.67-17.82-15.23-4.95-3.55-13.95-8.91-20-11.9-6.05-3-14.83-6.64-19.5-8.09-4.67-1.45-11.42-3.32-15-4.14-4.21-0.98-13.54-1.64-26.5-1.88-11-0.21-20.67-0.22-21.5-0.03-0.82 0.2-4.87 0.89-9 1.53zm26 88.07c4.13-0.04 10.2 0.64 13.5 1.5 3.3 0.86 8.25 2.77 11 4.23 2.75 1.47 8.16 5.83 12.03 9.69 3.94 3.93 8.42 9.66 10.19 13.02 1.74 3.3 3.86 8.92 4.71 12.5 0.85 3.58 1.55 8.75 1.56 11.5 0.01 2.75-0.68 7.7-1.54 11-0.85 3.3-2.77 8.47-4.25 11.5-1.61 3.27-5.74 8.55-10.2 13.02-4.5 4.52-9.7 8.6-13 10.23-3.02 1.48-8.42 3.44-12 4.35-4.63 1.18-8.65 1.48-14 1.07-4.12-0.32-10.2-1.52-13.5-2.66-3.3-1.14-8.25-3.56-11-5.38-2.75-1.83-7.17-5.53-9.83-8.23-2.65-2.69-6.1-7.15-7.66-9.9-1.56-2.75-3.78-7.81-4.93-11.25-1.34-4.02-2.08-8.83-2.09-13.5 0-3.99 0.68-9.84 1.5-13 0.83-3.16 2.46-7.66 3.62-10 1.17-2.34 3.98-6.69 6.25-9.68 2.28-2.98 6.84-7.42 10.14-9.85 3.3-2.42 7.58-5.11 9.5-5.96 1.93-0.84 5.52-2.12 8-2.83 2.48-0.71 7.88-1.33 12-1.37z"/>
</svg>