<svg width="42" height="30" viewBox="0 0 42 30" fill="none" xmlns="http://www.w3.org/2000/svg">
<path d="M20.5356 25.0653C20.2551 24.6581 19.5626 21.4491 19.5688 20.5855C19.5697 20.4536 19.7594 20.3553 19.9902 20.3671C20.2947 20.3826 20.3782 20.7602 20.2943 21.7424C20.1636 23.2733 20.7093 25.2871 21.2138 25.1357C22.1671 24.8497 22.5421 22.9144 22.0462 20.8397C21.8957 20.2098 21.9573 20.1027 22.403 20.2196C22.8616 20.3399 22.9161 20.6216 22.7692 22.1103C22.4929 24.9113 21.4132 26.3397 20.5356 25.0653Z" fill="black"/>
<path d="M7.38838 26.7021C6.97131 26.5472 6.4925 25.9112 6.30121 25.2581C6.20748 24.9381 6.15567 24.1094 6.15581 22.9325C6.15601 21.2903 6.09002 20.0786 5.95972 19.3321C5.91568 19.0798 5.89436 19.0885 5.33251 19.5897C4.67957 20.172 4.34114 20.3147 3.6925 20.281C2.4869 20.2184 1.70385 18.7385 1.88477 16.8647C1.98557 15.8206 2.43584 14.9718 3.14968 14.4801C3.88211 13.9757 4.03518 13.9799 4.98506 14.5309C5.44412 14.7972 5.86619 15.0174 5.923 15.0203C5.98646 15.0235 6.07235 14.1236 6.14572 12.6864C6.31621 9.34735 6.53005 8.63143 7.47717 8.22887C8.18878 7.92642 8.74628 7.88371 12.9913 7.80645C18.7712 7.70126 19.6642 7.62353 19.6846 7.22388C19.7006 6.9112 18.9092 6.00702 18.386 5.74008C18.0785 5.58319 17.8173 5.52435 17.5749 5.55736C17.0554 5.62813 17.0233 5.42194 17.4915 5.02132C18.0481 4.54516 18.5303 4.4946 19.3192 4.82972C20.0142 5.12494 20.1101 5.08549 20.1433 4.49062C20.1672 4.0642 20.6904 2.7968 20.9339 2.57587C21.172 2.35984 21.2658 2.52794 21.3142 3.25729C21.3471 3.75349 21.7703 5.50942 21.8581 5.5139C21.8783 5.51494 22.0253 5.2641 22.1849 4.95648C22.5512 4.25 23.0211 3.93692 23.7503 3.91346C24.2436 3.89759 24.332 3.93011 24.6259 4.23574C25.1498 4.78067 25.0734 4.94826 24.2583 5.04213C23.4625 5.13376 22.6373 6.0894 22.5868 6.97779C22.5471 7.67549 22.5278 7.67309 27.5628 7.5982C30.0142 7.56174 32.5609 7.56084 33.222 7.5962L34.4242 7.6605L34.8869 8.13542C35.6761 8.94535 35.7322 9.19233 35.8371 12.3245C35.8732 13.4032 35.9273 14.3614 35.9572 14.4537C36.0443 14.7223 36.2146 14.6639 36.9048 14.1287C37.4521 13.7044 37.6219 13.6288 37.9861 13.6474C39.8459 13.7423 40.7528 17.3766 39.3363 19.058C38.7302 19.7776 37.4856 20.0264 37.0301 19.5192C36.663 19.1105 36.4014 19.008 36.1974 19.193C36.0392 19.3365 35.9848 19.7856 35.7982 22.4888C35.5741 25.7339 35.554 25.8359 35.057 26.2563C34.321 26.8787 33.3946 26.9242 19.6366 27.0132C13.5274 27.0527 7.95085 26.911 7.38838 26.7021ZM21.7539 25.3068C22.1901 24.9108 22.5709 23.8097 22.7646 22.3839C22.9425 21.0747 22.9032 20.211 22.6579 20.0374C22.4084 19.8608 21.8743 20.2081 21.9389 20.505C22.163 21.5342 22.2394 22.5399 22.15 23.2865C22.0274 24.3113 21.768 24.7669 21.263 24.8441C20.9391 24.8936 20.8985 24.8666 20.7305 24.4889C20.4223 23.7961 20.2647 22.3762 20.3857 21.3819C20.4719 20.6735 20.4627 20.4649 20.3393 20.3274C20.0289 19.9818 19.557 20.1942 19.5318 20.6908C19.5111 21.1004 19.831 22.852 20.1528 24.0904C20.5147 25.4832 21.0834 25.9153 21.7539 25.3068ZM15.2534 21.5193C17.1899 21.3012 18.8815 19.8225 19.5206 17.789C19.7664 17.0069 19.8403 15.5177 19.6736 14.7056C19.3585 13.171 18.2909 11.6819 16.9835 10.9535C16.2853 10.5645 16.2112 10.5468 15.029 10.4865C13.8198 10.4247 13.7865 10.4296 12.9377 10.794C12.2618 11.0842 11.8184 11.3881 10.8877 12.199C9.63309 13.292 9.2005 13.5734 8.49726 13.7542C7.8348 13.9244 7.82589 14.0089 8.45849 14.1213C9.36426 14.2824 9.40075 14.342 9.42071 15.6946C9.43022 16.3389 9.48486 17.0845 9.54214 17.3517C9.84053 18.7432 10.887 20.321 11.9421 20.9703C12.7013 21.4375 14.0274 21.6574 15.2534 21.5193ZM29.0214 21.6837C31.077 21.1587 32.6948 19.3729 33.2114 17.0586C33.3463 16.454 33.3428 16.2423 33.1835 15.3632C32.9589 14.1247 33.0176 13.9823 33.7802 13.9162C34.0781 13.8904 34.4018 13.7967 34.4995 13.708C34.6617 13.5608 34.6611 13.5335 34.4923 13.3956C34.3905 13.3125 34.0641 13.2321 33.767 13.2169C32.9061 13.173 32.5933 13.0084 31.9135 12.2415C30.7662 10.9473 29.0353 10.2246 27.5278 10.4105C24.9665 10.7262 22.9244 13.0362 22.778 15.7831C22.7285 16.7125 22.9992 18.0195 23.4176 18.8712C24.0346 20.1271 25.3536 21.3158 26.4996 21.6488C27.2184 21.8577 28.2827 21.8724 29.0214 21.6837Z" fill="white"/>
<path d="M27.625 16.6479C27.532 16.5664 27.4922 16.4473 27.483 16.2233C27.4721 15.9595 27.5332 15.7459 27.6497 15.6401C27.7299 15.5673 27.7595 15.5574 27.8786 15.5635C28.1263 15.5761 28.3356 15.7212 28.4343 15.9487C28.5046 16.1108 28.5062 16.202 28.441 16.3388C28.2951 16.6453 27.825 16.8234 27.625 16.6479Z" fill="white"/>
<path d="M14.4755 16.7038C14.151 16.6368 13.9038 16.2839 13.9683 15.9797C14.0513 15.5877 14.4502 15.3611 14.75 15.5355C14.8622 15.6009 14.9358 15.685 14.9984 15.8196C15.065 15.9627 15.0406 16.3037 14.9523 16.4656C14.8318 16.6863 14.703 16.7507 14.4755 16.7038Z" fill="white"/>
<path d="M13.829 21.1162C13.5921 21.0784 13.261 20.9883 12.9853 20.8866C11.9168 20.4925 11.0668 19.7268 10.503 18.6505C10.0248 17.7376 9.98385 17.2806 10.1905 15.1643L10.2917 14.128L10.3606 14.1311C10.3984 14.1329 11.2292 14.1337 12.2067 14.133C13.1842 14.1323 13.9856 14.1341 13.9877 14.137C13.9897 14.1399 13.9291 14.4051 13.853 14.7264C13.7178 15.2974 13.714 15.3243 13.6835 15.9137C13.6596 16.3678 13.6603 16.5835 13.6849 16.787C13.8194 17.8976 14.1475 18.6518 14.5042 18.67C14.7508 18.6826 15.0312 18.4853 15.194 18.1847C15.4185 17.7703 15.5279 17.2804 15.5657 16.5204C15.5916 16 15.5749 15.51 15.4817 14.047L15.4725 13.9021L16.8557 13.9872C18.5367 14.0906 18.7231 14.1226 18.9607 14.3491C19.1395 14.5196 19.3121 15.0197 19.4163 15.6689C19.4666 15.9824 19.4349 16.6115 19.3521 16.9422C19.2352 17.4093 18.9606 18.0602 18.6384 18.6341C18.3277 19.1873 18.0627 19.5345 17.6599 19.9163C16.8998 20.6365 15.8835 21.0754 14.7901 21.1557C14.5764 21.1713 14.0353 21.1491 13.829 21.1162Z" fill="white"/>
<path d="M10.4134 13.6271C10.515 13.4577 11.0354 12.7212 11.1422 12.5957C12.1008 11.4693 13.574 10.8699 15.0128 11.021C15.6336 11.0861 16.3831 11.2684 16.7731 11.449C17.1601 11.6282 17.6148 12.0057 18.1167 12.5644C18.5069 12.9988 18.7254 13.3335 18.7056 13.4662C18.6945 13.5405 18.6823 13.5493 18.5723 13.5626C18.2955 13.5959 17.1914 13.6351 16.0146 13.6534C15.2098 13.666 10.6492 13.6894 10.4997 13.6818C10.395 13.6764 10.3869 13.6713 10.4134 13.6271Z" fill="white"/>
<path d="M27.1005 21.1909C26.442 21.0932 25.7365 20.7826 25.1938 20.3516C24.9427 20.1521 24.4738 19.6398 24.2969 19.3717C23.755 18.5501 23.4602 17.5912 23.3946 16.4364C23.3686 15.9796 23.4254 14.986 23.4909 14.7528C23.5656 14.4866 23.6682 14.2993 23.8196 14.1523C23.9763 14.0003 24.1479 13.9149 24.4128 13.8572C24.7576 13.782 25.0333 13.7788 26.1701 13.8369L27.2707 13.8931L27.2177 14.9318C27.1623 16.0209 27.1577 16.6407 27.2016 17.1145C27.2546 17.6862 27.3963 18.1791 27.5715 18.4017C27.79 18.6793 28.1142 18.6676 28.4398 18.3704C28.6852 18.1464 28.7897 17.8805 28.8633 17.2934C28.9128 16.8983 28.9176 16.7184 28.9261 14.9464C28.929 14.3338 28.9408 13.8254 28.9522 13.8166C28.9709 13.8022 31.9889 13.7808 32.1814 13.7937L32.2613 13.7991L32.3701 14.2411C32.584 15.1109 32.6245 15.2961 32.6534 15.5357C32.8496 17.1645 32.2787 18.7538 31.0997 19.861C30.2185 20.6885 29.0599 21.1808 27.8717 21.2327C27.5424 21.2471 27.442 21.2416 27.1005 21.1909Z" fill="white"/>
<path d="M24.0321 13.443C24.0335 13.416 24.6093 12.5889 24.7294 12.4415C25.0368 12.0639 25.5801 11.6724 26.1009 11.4531C27.8383 10.7216 30.0098 11.0704 31.1593 12.2655C31.5566 12.6787 31.8349 13.2278 31.6669 13.2675C31.3473 13.3431 29.567 13.3932 26.038 13.426C25.0598 13.4351 24.2081 13.4447 24.1455 13.4474C24.0829 13.4501 24.0319 13.4481 24.0321 13.443Z" fill="white"/>
<path d="M37.0739 24.107C36.8589 23.9386 36.8058 23.3038 36.974 22.9139C37.0447 22.75 37.1303 22.6883 37.2438 22.7196C37.3456 22.7475 37.5144 22.9362 37.5959 23.1131C37.6521 23.2352 37.6583 23.2827 37.6469 23.5066C37.6354 23.7314 37.6246 23.7769 37.555 23.8948C37.412 24.1369 37.22 24.2215 37.0739 24.107Z" fill="white"/>
<path d="M21.7211 1.1059C21.2459 1.08164 19.9319 2.58741 19.7924 3.31621C19.6986 3.80572 19.4168 3.97402 18.6496 3.99882C17.6065 4.03254 16.821 4.72745 16.7734 5.65847C16.7531 6.05693 16.9578 6.15778 17.6384 6.08499C18.1346 6.03192 18.5226 6.13481 18.5133 6.31695C18.4912 6.75073 17.0555 6.88414 12.4251 6.88245C6.31733 6.88023 5.45282 7.39304 5.26192 11.1319L5.15289 13.2674L4.30929 13.0889C2.38381 12.6814 1.11412 14.4141 1.1608 17.3856C1.18479 18.9123 1.33995 19.4451 2.00544 20.2858C2.73617 21.2089 2.95165 21.3034 4.08301 21.1975L5.34523 21.0794L5.25022 22.9403C5.07391 26.3934 5.52906 27.5032 8.26517 27.8665C8.47141 27.8642 8.67798 27.8738 8.88399 27.8852C9.19921 27.9048 9.51437 27.9243 9.82967 27.9425C10.1802 27.9628 10.5309 27.9812 10.8815 27.9995C11.137 28.0073 11.3916 28.0258 11.6459 28.0489L13.7773 28.1081C13.7945 28.0955 13.8203 28.0878 13.8546 28.0896L13.8612 28.0899C13.8732 28.0905 13.8851 28.0911 13.8971 28.0918C13.9105 28.0925 13.9239 28.0932 13.9373 28.0939C13.956 28.095 13.9747 28.096 13.9934 28.0974C14.0138 28.0989 14.0342 28.1006 14.0542 28.105C14.0648 28.1079 14.0754 28.1113 14.0857 28.1154C14.0948 28.116 14.1111 28.1175 14.1125 28.1178C14.1279 28.1196 14.1432 28.1221 14.1582 28.1258C14.171 28.1286 14.1804 28.1318 14.1936 28.1295C14.2219 28.1278 14.2501 28.1249 14.2784 28.1232C14.2965 28.1232 14.3147 28.1237 14.3327 28.121C14.3504 28.1176 14.368 28.1138 14.3859 28.1124C14.4032 28.1095 14.42 28.1036 14.4377 28.1037C14.4489 28.1032 14.4601 28.1025 14.4711 28.0997C14.4884 28.0961 14.5057 28.0954 14.5232 28.0971L14.55 28.0985C14.8128 28.0494 15.8496 27.9822 17.0399 27.94L19.4252 27.8553C19.4398 27.8531 19.4548 27.8532 19.4695 27.8533C19.4726 27.8534 19.4756 27.8534 19.4786 27.8534L19.4793 27.8534L19.4829 27.8532L19.4829 27.8534C19.4916 27.8536 19.5003 27.8541 19.5091 27.8543C19.5226 27.8549 19.5362 27.8556 19.5497 27.8563C19.5654 27.857 19.5811 27.8579 19.5968 27.8587C19.618 27.8585 19.6385 27.8621 19.6587 27.8685C19.6706 27.872 19.6829 27.8737 19.6952 27.8753C19.7097 27.8771 19.7242 27.878 19.7388 27.879C19.7527 27.8799 19.7667 27.8806 19.7806 27.8813C19.7975 27.8822 19.8144 27.8832 19.8314 27.884C19.8461 27.8863 19.8601 27.8832 19.8746 27.8812C19.8968 27.8783 19.9192 27.8778 19.9416 27.8779C19.9701 27.877 19.998 27.881 20.026 27.8859C20.0555 27.8908 20.0853 27.8938 20.1151 27.8965C20.1375 27.8985 20.1599 27.9001 20.1823 27.9017C20.1985 27.9038 20.2144 27.9005 20.2307 27.8989C20.2485 27.8968 20.2664 27.896 20.2843 27.8955C20.2992 27.8952 20.3142 27.8958 20.3291 27.8963C20.3453 27.897 20.3614 27.8977 20.3775 27.8986C20.4143 27.9024 20.4511 27.9076 20.4876 27.9133C20.5245 27.9199 20.5611 27.9264 20.5986 27.9274C20.6168 27.9275 20.6351 27.9273 20.6534 27.9273C20.6556 27.9272 20.6573 27.9271 20.6588 27.927C20.6601 27.9264 20.6624 27.9255 20.6659 27.9245C20.6796 27.9202 20.6938 27.9184 20.7081 27.9175C20.7195 27.9168 20.731 27.9172 20.7425 27.9175C20.7435 27.9176 20.7696 27.9138 20.7835 27.9131C20.8006 27.914 20.8172 27.9179 20.8342 27.9198C20.8582 27.921 20.8816 27.925 20.9048 27.9312C20.907 27.933 20.9145 27.9344 20.9206 27.9354C20.9328 27.9334 20.945 27.932 20.9572 27.9311C20.9739 27.9301 20.9906 27.9306 21.0073 27.9313C21.0292 27.9322 21.051 27.9331 21.0729 27.9342C21.0995 27.9355 21.1262 27.9369 21.1529 27.9383C21.1783 27.9396 21.2037 27.9409 21.2291 27.9422L21.2852 27.945C21.3085 27.9477 21.3316 27.9461 21.3549 27.9444C21.3842 27.9423 21.4136 27.9419 21.443 27.9418C21.4637 27.9418 21.4842 27.9424 21.5049 27.9431C21.5305 27.9443 21.5556 27.9502 21.5808 27.9547C21.5976 27.958 21.6147 27.9599 21.6317 27.9614C21.6624 27.9638 21.6932 27.9653 21.7239 27.9671C21.7609 27.9691 21.7978 27.9711 21.8348 27.973C21.8557 27.9741 21.8765 27.9751 21.8974 27.9762C21.9272 27.9777 21.9571 27.9792 21.9869 27.9808C22.0191 27.9811 22.0508 27.9847 22.0824 27.9909C22.107 27.996 22.1322 27.9983 22.1572 28.0008C22.1845 28.0024 22.2112 28.0075 22.2382 28.0115C22.2706 28.0161 22.303 28.0199 22.3356 28.0233C22.3441 28.0241 22.3525 28.025 22.361 28.0259C22.4076 28.0301 22.4362 28.0495 22.4479 28.0723L24.5278 27.9825C25.6476 27.9341 26.6223 27.9286 26.9193 27.9648C26.9247 27.9644 26.9304 27.9645 26.9364 27.965C26.9437 27.9655 26.9513 27.9666 26.9594 27.9683C26.9844 27.9734 27.0096 27.9777 27.0345 27.9834C27.0635 27.9905 27.093 27.9943 27.1226 27.9977C27.1509 28 27.1784 28.0078 27.2063 28.013C27.2272 28.017 27.2484 28.019 27.2696 28.0207C27.2709 28.0208 27.272 28.0209 27.2732 28.021C27.3256 28.0038 27.3784 27.9877 27.4316 27.973C27.5217 27.948 27.6044 27.9374 27.6787 27.9384C27.8144 27.9402 27.9221 27.9805 27.9959 28.0423C28.019 28.0458 28.0419 28.0506 28.065 28.0548C28.0899 28.0596 28.1151 28.0623 28.1403 28.0647C28.161 28.0681 28.1812 28.0669 28.2019 28.0653C28.2272 28.0631 28.2526 28.0622 28.278 28.0621C28.2996 28.0622 28.3212 28.0629 28.3428 28.0637C28.3679 28.0648 28.3931 28.0661 28.4182 28.0672C28.4422 28.0684 28.4661 28.0695 28.4901 28.0707C28.5086 28.0725 28.5268 28.0762 28.545 28.0799C29.1211 28.0302 29.9104 27.9916 30.7883 27.9753C34.6044 27.9042 35.9034 27.5148 36.468 26.2722C37.0875 24.9089 37.6671 24.3701 38.2882 24.5807C38.6992 24.72 38.8598 24.6101 38.8787 24.1762C38.9137 23.3698 38.6495 22.9852 37.7136 22.48C37.2515 22.2306 36.9353 21.8017 36.9534 21.4488C36.9789 20.9484 37.1921 20.8611 38.193 20.9408C39.1972 21.0207 39.5266 20.8845 40.1393 20.1359C41.5977 18.354 41.5692 14.9895 40.0816 13.3341C39.4587 12.641 39.1179 12.5145 38.0709 12.5878L36.8102 12.6761L36.8904 11.1039C36.988 9.19414 36.448 7.78729 35.3533 7.09895C34.6508 6.65725 33.7729 6.59556 29.167 6.66422C26.2148 6.70823 23.7215 6.65073 23.6264 6.53655C23.3465 6.2007 24.2003 5.39176 24.8023 5.42249C25.4758 5.45688 25.5409 4.88396 24.9748 3.90277C24.5196 3.11385 23.4569 2.89746 22.4855 3.39584C21.9502 3.67053 21.9042 3.58349 21.9642 2.40923C22.0004 1.70098 21.891 1.11458 21.7211 1.1059ZM21.1277 2.35533C21.2638 2.36228 21.3609 2.64586 21.3436 2.98547C21.3262 3.32509 21.4385 4.01481 21.5931 4.5181L21.8741 5.4331L22.2218 4.72403C22.6199 3.91215 23.8514 3.53252 24.4963 4.02291C25.2378 4.58672 25.1798 5.122 24.3817 5.08125C23.5684 5.03973 22.666 6.03194 22.6154 7.02324C22.5862 7.59445 22.765 7.62852 25.5427 7.58144C35.1663 7.4183 34.2301 7.35452 35.0599 8.22915C35.7357 8.94143 35.8195 9.31723 35.8627 11.8267C35.8892 13.3678 35.9823 14.6324 36.0695 14.6369C36.1567 14.6413 36.5434 14.3555 36.9287 14.0017C39.0282 12.0739 41.3122 16.7381 39.4174 19.0841C38.7482 19.9126 37.2447 20.1491 36.9062 19.479C36.8149 19.2983 36.569 19.1418 36.3597 19.1311C36.0708 19.1163 35.9444 19.9288 35.8354 22.5035C35.6971 25.7714 35.6639 25.9152 34.9253 26.4362C34.2564 26.908 32.6711 26.9855 22.4799 27.0442C7.1373 27.1327 7.30505 27.1431 6.59091 26.0469C6.17573 25.4096 6.0429 24.6923 6.09735 23.382C6.13833 22.396 6.1083 21.0307 6.0306 20.3479L5.88928 19.1066L5.29334 19.7504C4.44489 20.6669 2.86981 20.5379 2.31527 19.5065C1.32306 17.6609 1.72188 15.2911 3.18073 14.3644C3.92259 13.8932 4.04459 13.8979 4.96397 14.4335L5.95075 15.0084L6.09787 12.127C6.30106 8.14742 6.60364 7.85747 10.6237 7.78954C12.2407 7.76222 14.9282 7.71633 16.5959 7.68771C18.2637 7.65909 19.635 7.50405 19.6432 7.34316C19.6773 6.67584 18.3162 5.45599 17.6959 5.59786C16.8061 5.80138 16.9328 5.08878 17.8574 4.69001C18.4226 4.44624 18.7941 4.4652 19.3315 4.76528C19.9629 5.11779 20.0538 5.09151 20.0814 4.54983C20.1214 3.76669 20.8023 2.33872 21.1277 2.35533ZM28.0657 10.4301C24.5852 10.3824 21.678 14.3139 23.2444 18.3581C23.815 19.8314 24.9228 20.9895 26.2484 21.4982C28.1425 22.2251 30.3214 21.5923 31.791 19.8887C32.6588 18.8827 33.4493 16.8245 33.2664 16.0478C32.829 14.191 32.8873 13.8345 33.6224 13.872C34.0213 13.8924 34.437 13.7696 34.5462 13.5992C34.666 13.4123 34.2742 13.2654 33.5584 13.2288C32.6941 13.1847 32.2991 12.9993 32.1029 12.5458C31.9549 12.2034 31.242 11.5736 30.5189 11.1463C29.7026 10.664 28.8689 10.4411 28.0657 10.4301ZM28.5159 11.0779C29.7102 11.1863 30.8435 11.7025 31.4819 12.6294C31.6816 12.9195 31.7902 13.2074 31.7233 13.2693C31.6563 13.3312 29.8906 13.3998 27.7995 13.4217L23.9976 13.4614L24.5296 12.6758C25.3442 11.4731 26.9805 10.9385 28.5159 11.0779ZM15.1111 10.447C13.6855 10.3562 12.19 10.9506 10.9704 12.2157C10.2838 12.928 9.31776 13.6128 8.82369 13.7375L7.92536 13.9641L8.73005 14.1243C9.47172 14.2719 9.52903 14.3962 9.46185 15.712C9.34417 18.0168 10.604 20.343 12.4331 21.1981C12.6713 21.3095 13.5172 21.4452 14.3129 21.4997C19.114 21.8286 21.6193 15.5635 18.1479 11.9096C17.2864 11.0028 16.2199 10.5176 15.1111 10.447ZM14.7861 10.9905C15.5809 11.0311 16.5795 11.2833 17.0052 11.551C17.8189 12.0626 18.9254 13.3625 18.7086 13.552C18.6388 13.6131 16.728 13.6715 14.4626 13.682L10.3438 13.7009L10.8343 12.9772C11.7263 11.6609 13.2191 10.9105 14.7861 10.9905ZM32.2655 13.7725L32.5581 14.9434C33.1381 17.2643 32.0178 19.6869 29.8832 20.7274C26.6441 22.3063 23.4774 20.1692 23.3799 16.3385C23.3224 14.0801 23.6831 13.6845 25.7054 13.7877L27.2908 13.8687L27.1961 15.7224C27.0818 17.9614 27.5695 19.0682 28.3809 18.4109C28.7952 18.0752 28.9038 17.5593 28.9111 15.8904L28.9203 13.7918L32.2655 13.7725ZM15.4605 13.9046L17.2392 13.9954C18.8773 14.079 19.0375 14.1521 19.2637 14.9195C19.6382 16.1894 19.5068 17.04 18.7011 18.5603C18.2162 19.4753 17.5504 20.1721 16.7494 20.6029C14.4699 21.829 11.7938 21.044 10.5541 18.7854C10.0523 17.8713 9.96353 17.2967 10.1053 15.8829L10.282 14.1202L14.009 14.1189L13.7597 15.2209C13.4645 16.525 13.9152 18.6251 14.4967 18.6547C15.2233 18.6918 15.6625 17.4361 15.5586 15.6192L15.4605 13.9046ZM27.8917 15.5435C27.9305 15.5469 27.9721 15.5547 28.0168 15.5665C28.2976 15.6401 28.5165 15.9118 28.5033 16.1703C28.4901 16.4288 28.2446 16.6767 27.9579 16.7214C27.592 16.7784 27.4469 16.5983 27.4715 16.1176C27.493 15.697 27.6203 15.5186 27.8917 15.5435ZM14.5679 15.4576C14.8382 15.4816 15.0768 15.7314 15.0568 16.1237C15.0389 16.4747 14.8331 16.7522 14.5994 16.7402C14.0786 16.7136 13.7724 16.1715 14.0413 15.7519C14.1832 15.5304 14.383 15.4411 14.5679 15.4576ZM22.5601 20.0263C22.162 20.006 21.8563 20.5736 22.0543 20.9655C22.147 21.1491 22.3506 21.2231 22.5067 21.1298C22.877 20.9085 22.9186 20.0446 22.5601 20.0263ZM20.0205 20.2166C19.5764 20.1939 19.38 20.8594 19.7129 21.2587C19.9728 21.5706 20.412 21.2321 20.4392 20.6989C20.4521 20.446 20.2637 20.229 20.0205 20.2166ZM22.5898 21.8961C22.5459 21.8978 22.5028 22.149 22.4807 22.5819C22.4494 23.1963 22.4972 23.4506 22.587 23.1473C22.6769 22.8439 22.7025 22.3413 22.6441 22.0304C22.6272 21.9405 22.609 21.8973 22.5909 21.8962C22.5905 21.8962 22.5903 21.8961 22.5898 21.8961ZM37.1947 22.6933C37.3619 22.7018 37.567 22.9379 37.6505 23.218C37.8166 23.7753 37.327 24.4431 37.0213 24.0762C36.7246 23.7202 36.8555 22.676 37.1947 22.6933ZM21.2582 24.9192C20.8838 24.9 20.6335 24.9953 20.702 25.1308C20.7704 25.2663 21.0097 25.3865 21.2338 25.3979C21.4579 25.4093 21.7083 25.3142 21.7902 25.1864C21.872 25.0586 21.6326 24.9383 21.2582 24.9192ZM37.9292 28.3222C37.8777 28.3549 37.8705 28.3851 37.9059 28.4107C37.9144 28.3815 37.9219 28.3519 37.9292 28.3222ZM19.5277 28.0304C19.5097 28.0284 19.4918 28.028 19.4738 28.0286L19.4708 28.0889C19.4896 28.0726 19.5095 28.0568 19.5304 28.0413C19.536 28.038 19.5416 28.0348 19.5471 28.0317C19.5407 28.0313 19.5342 28.0307 19.5277 28.0304Z" fill="black"/>
</svg>
