<svg width="288" height="365" viewBox="0 0 288 365" fill="none" xmlns="http://www.w3.org/2000/svg">
<path d="M117.753 363.389C116.121 362.474 111.12 361.363 106.64 360.92C102.161 360.476 96.45 359.605 93.9497 358.983C91.4494 358.361 87.0477 357.305 84.1681 356.636C80.1563 355.704 77.9229 354.354 74.6133 350.862C69.7839 345.765 68.1041 345.36 64.3779 348.396C60.864 351.259 58.1329 351.021 55.5558 347.628C53.762 345.266 53.5002 343.956 54.0552 340.123L54.7276 335.479L43.2747 323.86C34.7266 315.189 30.7164 311.869 27.4642 310.773C19.1477 307.97 15.6567 299.557 20.1175 293.068C21.181 291.521 22.3715 288.487 22.763 286.325C23.6951 281.18 21.6255 278.78 14.3715 276.596L8.89431 274.947L9.54373 271.127C9.90091 269.026 10.1513 263.776 10.1002 259.46C10.0202 252.707 9.69688 251.349 7.78171 249.724C3.34559 245.96 0 242.525 0 241.735C0 241.291 1.70474 238.623 3.7883 235.807C6.65442 231.933 7.59225 229.668 7.64093 226.501C7.83284 214.017 8.08057 212.831 11.6903 207.109C14.9985 201.866 15.2501 200.932 14.7119 195.895C14.2056 191.156 14.4173 190.148 16.2496 188.571C17.4182 187.565 20.1007 184.135 22.2108 180.949C27.5971 172.817 33.6461 167.385 37.3161 167.385C39.7132 167.385 40.7062 166.598 42.5148 163.265C45.4611 157.836 51.9562 153.111 57.7006 152.219C60.2297 151.826 62.7369 151.193 63.2723 150.813C64.8615 149.683 69.072 143.116 70.9175 138.888C73.1591 133.752 76.7724 131.962 81.1407 133.821C87.4151 136.493 89.5138 136.377 94.123 133.107C96.528 131.401 99.6321 129.645 101.021 129.205C102.41 128.765 105.498 127.231 107.884 125.797C111.418 123.671 113.198 123.272 117.504 123.642C120.409 123.892 124.14 124.832 125.794 125.73C136.568 131.584 135.033 131.293 141.192 128.65C146.44 126.397 147.165 126.335 153.444 127.612C157.115 128.358 162.478 130.04 165.361 131.35C170.099 133.503 170.663 134.118 171.224 137.741C172.307 144.738 175.026 147.183 178.451 144.239C180.563 142.423 188.352 129.976 190.185 125.486C191.683 121.817 195.577 117.442 196.497 118.394C196.774 118.681 194.958 123.112 192.462 128.241C188.852 135.661 187.87 138.833 187.659 143.771L187.394 149.977L195.476 156.585C207.001 166.009 207.184 166.081 212.913 163.395C215.546 162.161 219.974 160.28 222.752 159.215C229.227 156.733 242.769 146.277 245.329 141.783C247.886 137.294 253.286 135.232 257.248 137.232C260.917 139.085 261.165 140.478 258.409 143.756C256.668 145.826 254.577 146.765 250.033 147.52C246.666 148.079 242.853 149.477 241.446 150.668C240.054 151.847 236.943 154.09 234.533 155.651C217.565 166.647 214.668 168.973 214.348 171.854C213.955 175.4 217.247 181.184 221.404 184.249C224.164 186.285 225.256 186.434 232.697 185.793C238.099 185.327 242.803 184.198 246.361 182.512C252.524 179.591 254.573 179.31 254.573 181.382C254.573 183.419 252.61 184.812 248.512 185.68C246.567 186.092 241.025 187.794 236.197 189.463C231.368 191.131 226.224 192.496 224.765 192.496C221.368 192.496 218.542 194.076 217.163 196.745C215.273 200.403 216.907 202.79 222.476 204.503C231.867 207.391 233.758 211.862 228.308 218.291C224.148 223.198 224.145 227.973 228.299 230.516C234.343 234.214 234.626 239.232 229.154 245.687C225.936 249.483 225.835 250.806 228.088 259.636C228.87 262.705 228.687 264.354 227.171 267.859C226.129 270.271 225.276 272.793 225.276 273.465C225.276 274.136 223.926 277.498 222.277 280.936C220.628 284.374 219.264 288.219 219.246 289.48C219.229 290.741 218.753 292.068 218.189 292.429C217.625 292.79 216.498 294.583 215.684 296.414C214.87 298.245 213.756 300.449 213.207 301.312C212.659 302.176 211.234 305.343 210.042 308.351C208.469 312.317 206.126 315.41 201.517 319.601C198.021 322.78 193.79 327.896 192.115 330.971C188.002 338.519 184.168 341.667 178.068 342.505C171.929 343.349 164.285 348.213 161.548 353.018C158.105 359.061 156.183 359.77 143.797 359.565C133.079 359.388 132.626 359.473 129.425 362.26C125.697 365.505 122.141 365.85 117.753 363.389ZM271.102 222.316C270.199 219.878 271.44 217.677 274.37 216.523C276.254 215.781 277.455 215.824 278.436 216.667C280.319 218.286 280.192 219.324 277.808 221.793C275.424 224.263 271.924 224.536 271.102 222.316ZM261.887 181.434C263.463 179.801 283.656 170.524 285.634 170.524C290.604 170.524 287.38 175.751 279.366 180.688C277.361 181.924 260.729 182.633 261.887 181.434ZM260.635 128.344C260.635 123.623 271.812 116.116 278.843 116.116C283.244 116.116 283.171 117.468 278.522 122.052C273.059 127.438 267.365 130.764 263.608 130.764C261.174 130.764 260.635 130.325 260.635 128.344ZM207.093 95.5078C207.093 94.5316 208.157 92.0597 209.457 90.0146C210.757 87.9696 213.371 83.5328 215.266 80.1551C219.032 73.4421 222.063 70.7162 224.63 71.7362C228.347 73.2137 225.077 81.1963 218.686 86.2451C216.745 87.7786 214.242 90.8894 213.125 93.1579C211 97.4727 207.093 98.9945 207.093 95.5078ZM122.935 70.3418C121.484 68.0201 120.788 54.384 122.121 54.384C122.774 54.384 123.545 55.0192 123.832 55.7956C124.683 58.0924 123.838 71.7875 122.935 70.3418ZM37.5934 29.011C33.7222 24.1522 30.9832 6.62395 33.3725 1.99986C34.8503 -0.860055 38.98 -0.602394 40.6059 2.45117C47.5217 15.44 47.7062 15.9696 47.2593 21.5517C47.017 24.5775 46.23 27.7879 45.5103 28.686C43.9427 30.6425 39.0531 30.8432 37.5934 29.011Z" fill="#FAA004"/>
<path d="M79.4453 282.72C79.1809 282.277 80.0175 277.403 81.3044 271.89C82.5913 266.377 83.8035 258.853 83.9984 255.17L84.3526 248.474L80.8169 247.951C78.1844 247.561 77.203 246.861 76.9753 245.208C76.7176 243.337 78.313 242.145 87.1211 237.622C98.4697 231.796 100.086 231.398 102.119 233.935C103.282 235.386 102.989 236.021 99.9699 238.602C98.0478 240.245 95.2192 242.138 93.6842 242.81C90.4484 244.225 90.2167 245.094 89.5073 258.484C89.2156 263.99 88.6834 269.286 88.3246 270.255C86.7374 274.539 90.3673 271.138 99.5667 259.722C106.54 251.068 110.503 245.058 112.949 239.427L116.424 231.426L126.911 225.504C132.679 222.248 137.851 219.873 138.404 220.227C141.51 222.215 137.865 226.602 129.834 230.54C123.295 233.746 118.395 239.578 115.375 247.749C112.593 255.275 104.718 265.267 93.2144 275.867C85.4298 283.039 80.9627 285.263 79.4453 282.72ZM145.723 281.786C143.794 280.98 144.261 274.954 146.481 272.016C149.007 268.671 149.135 266.284 146.733 267.33C142.641 269.112 140.419 269.141 140.419 267.414C140.419 265.148 146.356 261.436 149.409 261.793C153.454 262.265 154.239 264.909 152.135 270.97C150.032 277.025 150.425 278.105 154.101 276.371C160.487 273.357 161.886 277.05 155.613 280.365C151.753 282.404 148.367 282.891 145.723 281.786ZM166.78 281.54C162.413 280.321 162.139 278.222 165.461 271.443C170.318 261.535 177.47 255.882 181.393 258.853C183.992 260.821 182.549 263.645 178.944 263.645C176.499 263.645 175.423 264.557 172.721 268.917C170.925 271.816 169.742 274.484 170.091 274.846C170.762 275.541 180.096 273.914 183.101 272.578C184.44 271.983 184.869 272.287 184.869 273.834C184.869 276.458 182.261 278.791 177.797 280.16C172.056 281.921 169.357 282.259 166.78 281.54ZM112.113 279.3C110.747 276.657 111.52 273.929 115.421 267.628C118.631 262.443 120.264 261.236 122.741 262.221C124.681 262.992 124.661 264.087 122.674 265.795C120.927 267.297 118.195 272.336 118.195 274.056C118.195 276.57 121.395 274.764 128.297 268.354C135.829 261.359 137.376 260.585 139.224 262.891C140.719 264.757 132.536 281.433 130.125 281.433C127.32 281.433 127.018 279.515 129.236 275.797C132.498 270.331 131.793 270.385 125.178 276.111C118.351 282.019 114.059 283.067 112.113 279.3ZM192.873 278.374C189.011 274.374 188.963 269.21 192.721 262.089C195.753 256.346 198.281 255.044 199.987 258.346C200.883 260.08 200.684 261.079 198.964 263.489C197.636 265.349 196.955 267.625 197.163 269.509C197.496 272.539 197.497 272.539 204.772 272.539C210.35 272.539 212.464 272.966 213.828 274.37C215.386 275.973 215.424 276.379 214.129 277.633C212.312 279.392 204.454 281.433 199.497 281.433C196.786 281.433 195.053 280.632 192.873 278.374ZM21.2144 261.647C21.2144 260.411 22.5734 256.612 24.2345 253.204C28.0904 245.292 31.4748 232.553 31.1651 227.116C31.0329 224.795 31.2382 222.572 31.6214 222.175C33.6156 220.109 46.6029 230.559 49.5974 236.638C53.6895 244.946 50.4321 255.747 42.4461 260.35C40.1297 261.686 35.8166 262.659 30.0537 263.146C21.4623 263.872 21.2144 263.83 21.2144 261.647ZM38.4063 255.668C45.2129 252.848 47.5357 244.689 43.4893 237.816C41.785 234.921 37.5793 231.428 37.0077 232.433C36.1836 233.881 30.3063 254.191 30.3063 255.59C30.3063 257.851 33.074 257.878 38.4063 255.668ZM53.6623 260.975C49.4922 257.34 49.4222 253.102 53.4634 248.917C56.5482 245.722 59.3991 245.112 62.6995 246.941C64.1402 247.74 64.6535 249.143 64.6535 252.285C64.6535 255.752 64.9529 256.426 66.2626 255.906C70.7733 254.113 72.7352 254.028 72.7352 255.625C72.7352 258.013 68.7315 260.506 64.8983 260.506C63.0577 260.506 60.4858 261.23 59.183 262.114C56.9698 263.616 56.6071 263.541 53.6623 260.975ZM59.0307 255.056C61.1222 251.963 59.1607 249.578 57.0089 252.598C55.3583 254.914 55.104 257.367 56.5145 257.367C57.0386 257.367 58.1709 256.327 59.0307 255.056ZM125.736 251.03C124.723 249.333 126.142 244.812 127.687 244.812C129.841 244.812 131.56 247.637 130.838 249.993C130.147 252.247 126.861 252.915 125.736 251.03ZM202.418 247.266C201.088 241.779 205.729 238.762 207.495 243.965C208.179 245.977 208.078 247.244 207.143 248.411C205.177 250.865 203.172 250.379 202.418 247.266ZM133.201 213.753C133.837 212.496 134.358 207.67 134.358 203.028C134.358 196.976 134.715 194.588 135.621 194.587C136.557 194.585 136.8 196.862 136.559 203.385C136.289 210.718 135.886 212.507 134.139 214.112C132.079 216.006 132.063 216 133.201 213.753ZM73.7454 202.96C73.7454 194.671 73.7709 194.589 76.3373 194.589C82.2387 194.589 84.7548 198.745 80.9899 202.274C78.6381 204.479 77.1123 204.554 79.2294 202.362C81.2325 200.287 81.2487 198.355 79.2771 196.661C76.9659 194.674 76.5419 195.855 76.6608 203.947C76.7476 209.855 76.4672 211.33 75.2573 211.33C74.0409 211.33 73.7454 209.694 73.7454 202.96ZM90.919 202.96V194.589H93.7565C95.3172 194.589 97.4764 195.257 98.5548 196.074C100.302 197.397 100.379 197.935 99.2606 201.002C98.0767 204.251 98.1879 204.64 101.227 207.888C102.999 209.781 103.852 211.33 103.123 211.33C102.395 211.33 100.341 209.682 98.5601 207.668C96.7789 205.654 95.0128 204.006 94.6355 204.006C94.2583 204.006 93.9496 205.654 93.9496 207.668C93.9496 210.226 93.4926 211.33 92.4343 211.33C91.2136 211.33 90.919 209.702 90.919 202.96ZM97.6778 201.248C98.3711 199.377 97.0238 196.522 95.1402 195.872C94.3739 195.608 93.9496 196.797 93.9496 199.21C93.9496 203.208 96.4462 204.572 97.6778 201.248ZM111.58 208.561C108.36 204.963 108.361 200.494 111.582 197.157C116.509 192.055 125.266 195.64 125.266 202.759C125.266 206.984 121.168 211.33 117.184 211.33C115.101 211.33 113.231 210.406 111.58 208.561ZM120.165 209.265C124.173 207.043 123.4 197.538 119.096 196.123C112.27 193.879 108.449 204.353 114.494 208.739C117.002 210.558 117.714 210.624 120.165 209.265ZM146.986 194.584L150.774 194.587C152.858 194.588 154.562 195.069 154.562 195.655C154.562 196.27 153.493 196.444 152.037 196.065C149.749 195.47 149.511 195.714 149.511 198.661C149.511 201.453 149.877 201.913 152.096 201.913C153.518 201.913 154.427 202.34 154.116 202.861C153.805 203.383 152.608 203.554 151.456 203.242C149.602 202.74 149.4 203.08 149.69 206.218C149.966 209.214 150.367 209.71 152.289 209.433C153.539 209.253 154.562 209.606 154.562 210.218C154.562 210.83 153.006 211.33 151.104 211.33H147.645L146.986 194.584ZM166.685 203.369V195.409L164.159 196.065C162.703 196.444 161.634 196.27 161.634 195.655C161.634 194.167 173.459 194.291 174.353 195.788C174.856 196.632 174.275 196.781 172.392 196.291C169.871 195.636 169.705 195.824 169.539 199.539C169.441 201.708 169.472 205.248 169.607 207.406C169.792 210.379 169.468 211.33 168.268 211.33C166.969 211.33 166.685 209.9 166.685 203.369ZM183.024 208.908C178.304 203.704 181.355 194.589 187.817 194.589C192.154 194.589 193.861 195.541 195.535 198.892C197.419 202.666 196.551 206.528 193.206 209.254C189.802 212.027 185.728 211.889 183.024 208.908ZM192.388 207.958C194.555 204.754 194.357 200.231 191.94 197.728C189.509 195.21 188.061 195.112 185.093 197.264C182.054 199.469 182.036 205.233 185.059 208.15C187.93 210.92 190.429 210.855 192.388 207.958Z" fill="black"/>
</svg>
