<svg width="433" height="393" viewBox="0 0 433 393" fill="none" xmlns="http://www.w3.org/2000/svg">
<path d="M-5.99279 281.829L-0.815952 275.829C3.8083 270.47 4.96632 269.829 10.0329 269.829C15.8585 269.829 16.2762 269.479 19.1498 262.19C19.9388 260.189 24.2689 255.838 28.7722 252.523C35.5052 247.567 37.9846 246.496 42.7265 246.496C51.2248 246.496 54.8944 244.583 57.9726 238.55C59.4841 235.587 61.2604 233.163 61.9199 233.163C62.5794 233.163 64.123 230.14 65.3501 226.445C67.7947 219.085 71.1683 216.121 78.4437 214.94C82.0396 214.357 84.0292 214.85 86.7646 217.001C92.5816 221.577 98.9052 220.774 106.503 214.496C110.145 211.486 114.378 209.163 116.218 209.163C118.012 209.163 123.459 206.763 128.322 203.829C133.186 200.896 138.824 198.496 140.851 198.496C147.872 198.496 159.909 202.512 164.894 206.518C172.299 212.469 175.993 212.726 184.975 207.919C193.492 203.36 196.464 202.966 201.742 205.696C203.727 206.722 207.565 207.562 210.271 207.562C212.977 207.562 217.016 208.474 219.248 209.587C221.48 210.7 225.05 211.994 227.182 212.463C232.81 213.699 235.306 217.201 236.252 225.19C237.25 233.615 240.67 237.968 244.628 235.85C248.061 234.012 265.339 208.036 266.422 203.083C267.314 199.006 276.305 188.356 277.687 189.739C279.07 191.122 274.008 204.948 270.663 208.924C266.533 213.832 263.836 222.189 262.791 233.32L261.962 242.143L267.648 246.779C270.775 249.328 276.033 253.088 279.333 255.134C282.633 257.18 287.236 260.897 289.561 263.393C294.28 268.461 297.28 268.494 305.91 263.574C308.427 262.139 315.027 259.526 320.577 257.767C326.834 255.784 333.058 252.656 336.962 249.533C340.425 246.762 346.324 242.108 350.073 239.189C353.821 236.269 357.702 231.933 358.697 229.551C362.523 220.394 376.317 216.692 382.727 223.102C386.71 227.085 386.75 227.849 383.216 232.343C379.298 237.324 373.482 239.989 365.515 240.456C361.748 240.676 358.065 240.925 357.329 241.01C356.593 241.094 352.896 244.084 349.112 247.656C345.329 251.227 340.639 254.549 338.69 255.038C333.388 256.368 311.872 270.057 308.656 274.146C305.219 278.514 305.889 282.05 311.683 290.117C318.14 299.108 323.218 301.67 332.414 300.58C336.586 300.085 343.944 299.264 348.765 298.755C355.061 298.09 359.125 296.774 363.19 294.083C369.566 289.863 375.688 289.638 376.439 293.597C377.11 297.132 373.025 299.553 364.667 300.574C360.633 301.067 355.462 302.601 353.176 303.983C350.889 305.365 347.41 306.496 345.443 306.496C343.476 306.496 339.947 307.512 337.6 308.754C335.254 309.996 329.564 311.42 324.957 311.919C315.647 312.928 311.333 315.737 311.333 320.79C311.333 326.915 313.491 328.765 322.655 330.494C329.204 331.729 332.045 332.98 334.026 335.498C337.798 340.294 337.407 345.961 333 350.368C330.983 352.385 328.183 356.172 326.777 358.784C324.547 362.926 324.44 364.063 325.938 367.681C326.949 370.12 328.632 371.829 330.024 371.829C331.325 371.829 334.31 374.016 336.657 376.688C340.12 380.633 340.772 382.303 340.12 385.561C339.679 387.769 338.648 390.382 337.829 391.369C336.596 392.855 306.947 393.163 165.17 393.163H-6L-5.99279 281.829ZM383.333 294.66C383.333 292.882 387.718 290.496 390.985 290.496C392.356 290.496 396.43 288.624 400.037 286.336C407.951 281.317 425.362 274.174 428.28 274.749C429.435 274.976 431.045 276.268 431.857 277.62C433.078 279.652 432.757 280.46 430 282.287C428.167 283.502 424.142 286.799 421.056 289.614C416.107 294.128 414.612 294.75 408.389 294.876C404.508 294.955 399.833 294.804 398 294.539C396.167 294.275 392.117 294.509 389 295.061C385.287 295.718 383.333 295.58 383.333 294.66ZM384.222 212.274C382.599 210.651 383.3 206.704 386.036 202.068C388.872 197.26 400.889 190.876 413.398 187.53C418.582 186.144 419.64 186.231 421.619 188.21C423.757 190.349 423.583 190.797 418.611 195.931C415.708 198.929 410.633 202.945 407.333 204.856C404.033 206.767 399.902 209.418 398.153 210.747C395.073 213.087 386.027 214.079 384.222 212.274ZM294.889 158.94C292.667 156.718 294.349 151.099 298.667 146.32C301.233 143.479 303.358 140.107 303.387 138.825C303.418 137.544 306.579 131.996 310.413 126.496C317.108 116.894 317.597 116.496 322.693 116.496C327.936 116.496 327.998 116.555 327.86 121.359C327.662 128.229 322.955 135.052 314.577 140.614C308.856 144.411 307.087 146.459 305.982 150.563C304.215 157.123 297.866 161.918 294.889 158.94ZM11.4759 49.4959C7.59188 46.2816 0.723787 26.0979 0.700392 17.8292C0.662596 4.51008 4.41158 -1.81484 11 0.452458C13.5042 1.31423 23.3147 16.2677 26.715 24.4059C27.9424 27.3434 28.3933 30.539 27.8234 32.2604C27.295 33.8565 26.7601 37.714 26.6349 40.8325C26.2426 50.6063 18.3016 55.1446 11.4759 49.4959Z" fill="#F7A100"/>
<path d="M3.32329 376.128C2.4433 375.248 1.72327 372.788 1.72327 370.663C1.72327 359.961 30.2566 346.339 58.3903 343.609C63.5236 343.111 68.4737 342.11 69.3903 341.385C72.0015 339.321 71.4878 333.728 68.687 333.728C60.3864 333.728 57.0901 321.85 63.9034 316.491C66.4801 314.464 69.3508 313.728 74.6727 313.728C80.9148 313.728 82.4735 314.272 85.8263 317.625C90.4009 322.2 90.8872 327.376 87.0571 330.728C85.5905 332.011 83.094 334.207 81.5095 335.609L78.6286 338.156L81.4313 340.426C82.9728 341.674 86.5913 343.072 89.4724 343.533C92.3536 343.994 95.4563 345.269 96.3675 346.367C99.0715 349.625 94.5937 350.349 83.1961 348.499C61.6774 345.004 28.0206 353.618 14.7477 366.016C11.6049 368.952 10.881 370.593 11.3423 373.736C11.8661 377.305 11.5574 377.728 8.42573 377.728C6.49942 377.728 4.20332 377.008 3.32329 376.128ZM76.9237 322.845C76.4679 322.108 75.3902 322.231 74.2863 323.147C73.2597 323.999 72.7665 325.257 73.1904 325.943C73.6462 326.681 74.7239 326.557 75.8278 325.641C76.8544 324.789 77.3475 323.531 76.9237 322.845ZM56.6569 369.461C54.2571 367.061 54.7282 363.331 57.627 361.779C60.8836 360.037 64.0499 361.221 65.1164 364.582C66.6973 369.563 60.3943 373.198 56.6569 369.461ZM62.3903 365.709C62.3903 362.851 58.5161 363.264 57.9541 366.182C57.6109 367.964 58.154 368.507 59.9359 368.164C61.2858 367.904 62.3903 366.799 62.3903 365.709ZM67.057 365.728C67.057 361.35 67.5173 360.395 69.6284 360.395C71.0427 360.395 73.1428 361.338 74.2951 362.49C76.1999 364.395 76.5869 364.389 78.5522 362.424C81.151 359.825 84.238 360.215 86.2407 363.395C89.2634 368.195 81.6606 373.76 78.3207 369.192C76.9169 367.272 76.5557 367.256 75.0693 369.047C74.1496 370.155 71.9706 371.062 70.2271 371.062C67.4175 371.062 67.057 370.455 67.057 365.728ZM73.057 365.821C73.057 362.771 70.1251 362.716 69.3313 365.751C68.78 367.859 69.1495 368.444 70.8282 368.121C72.054 367.885 73.057 366.85 73.057 365.821ZM84.3905 366.474C84.3905 365.417 83.7381 364.149 82.9409 363.657C81.0582 362.493 78.4884 365.063 79.6519 366.946C80.9589 369.06 84.3905 368.719 84.3905 366.474ZM88.3904 366.395C88.3904 361.142 89.0948 360.746 92.6762 363.987C95.0216 366.11 95.1197 366.11 94.3052 363.987C93.8123 362.703 94.075 361.729 94.9145 361.729C95.7391 361.729 96.3709 363.935 96.3461 366.729L96.3019 371.729L93.6796 368.581C91.1167 365.504 91.0573 365.497 91.0573 368.248C91.0573 369.795 90.4573 371.062 89.7239 371.062C88.9906 371.062 88.3904 368.962 88.3904 366.395ZM100.39 367.838C100.39 366.064 100.026 363.664 99.5812 362.504C98.9707 360.913 99.6262 360.395 102.248 360.395C104.16 360.395 105.724 360.995 105.724 361.729C105.724 362.462 105.124 363.062 104.391 363.062C103.657 363.062 103.057 364.862 103.057 367.062C103.057 369.262 102.457 371.062 101.724 371.062C100.99 371.062 100.39 369.611 100.39 367.838ZM107.11 369.126C105.176 366.795 106.368 362.278 109.205 361.19C112.067 360.091 116.391 362.69 116.391 365.509C116.391 370.524 110.255 372.915 107.11 369.126ZM113.724 366.474C113.724 365.417 113.072 364.149 112.274 363.657C110.392 362.493 107.822 365.063 108.985 366.946C110.292 369.06 113.724 368.719 113.724 366.474ZM117.724 366.395C117.724 363.829 118.324 361.729 119.057 361.729C119.791 361.729 120.391 363.229 120.391 365.062C120.391 367.136 121.146 368.395 122.391 368.395C123.491 368.395 124.391 368.995 124.391 369.729C124.391 370.462 122.891 371.062 121.057 371.062C118.137 371.062 117.724 370.484 117.724 366.395ZM125.991 369.462C123.588 367.059 124.063 363.331 126.97 361.776C130.305 359.991 130.483 360.012 132.962 362.491C134.867 364.395 135.254 364.389 137.219 362.424C139.899 359.745 143.788 360.374 143.539 363.446C143.437 364.702 143.887 365.729 144.539 365.729C145.191 365.729 145.724 366.929 145.724 368.395C145.724 370.459 144.835 371.062 141.79 371.062C139.609 371.062 137.337 370.133 136.69 368.978C135.632 367.088 135.363 367.088 133.794 368.978C131.733 371.461 128.209 371.68 125.991 369.462ZM131.724 365.71C131.724 362.852 127.85 363.265 127.288 366.183C126.945 367.965 127.488 368.508 129.27 368.165C130.62 367.905 131.724 366.8 131.724 365.71ZM142.132 367.537C141.257 367.181 140.871 366.028 141.275 364.976C142.101 362.822 139.666 362.332 138.391 364.395C137.199 366.323 138.85 368.412 141.469 368.29C142.732 368.231 143.024 367.9 142.132 367.537ZM147.057 366.474C147.057 363.864 147.657 361.729 148.391 361.729C149.124 361.729 149.724 363.493 149.724 365.65C149.724 367.807 149.124 369.942 148.391 370.395C147.597 370.886 147.057 369.298 147.057 366.474ZM151.057 369.979C151.057 367.198 153.685 361.729 155.021 361.729C156.372 361.729 160.421 369.914 159.567 370.919C159.322 371.207 158.207 370.683 157.09 369.755C155.467 368.409 154.655 368.403 153.057 369.729C151.809 370.765 151.057 370.858 151.057 369.979ZM165.28 370.173C163.875 368.768 164.246 361.729 165.724 361.729C166.458 361.729 167.058 363.829 167.058 366.395C167.058 371.191 166.815 371.708 165.28 370.173ZM169.385 370.278C167.846 368.739 168.212 363.33 169.926 362.27C170.771 361.748 172.271 362.428 173.26 363.78C174.868 365.979 175.058 366 175.058 363.984C175.058 362.743 175.658 361.729 176.391 361.729C177.124 361.729 177.724 363.829 177.724 366.395C177.724 371.729 175.906 372.449 173.52 368.062L171.888 365.062L171.133 368.167C170.718 369.875 169.931 370.825 169.385 370.278ZM181.724 367.329C181.724 364.982 181.124 363.062 180.391 363.062C179.658 363.062 179.058 362.462 179.058 361.729C179.058 360.995 180.543 360.395 182.358 360.395C185.358 360.395 185.584 360.789 184.848 364.729C183.704 370.852 181.724 372.499 181.724 367.329ZM187.539 369.059C186.188 365.54 188.246 360.395 191.004 360.395C194.727 360.395 195.786 363.033 192.136 363.217C189.877 363.33 189.679 363.534 191.391 363.981C192.674 364.316 193.724 365.103 193.724 365.729C193.724 366.354 192.674 367.141 191.391 367.476C189.635 367.935 189.8 368.124 192.058 368.241C196.202 368.454 195.856 371.062 191.682 371.062C189.826 371.062 187.961 370.161 187.539 369.059ZM196.391 366.474C196.391 361.45 197.683 359.951 200.937 361.2C202.319 361.731 203.058 363.647 203.058 366.701C203.058 370.717 202.771 371.151 201.058 369.729C199.676 368.582 199.058 368.531 199.058 369.565C199.058 370.389 198.458 371.062 197.724 371.062C196.991 371.062 196.391 368.997 196.391 366.474ZM205.058 368.395C202.979 361.846 208.325 357.853 212.963 362.491C215.441 364.969 215.463 365.148 213.678 368.483C211.828 371.939 206.164 371.882 205.058 368.395ZM211.724 365.728C211.724 364.648 210.674 363.562 209.391 363.315C207.754 363 207.058 363.72 207.058 365.728C207.058 367.736 207.754 368.456 209.391 368.141C210.674 367.893 211.724 366.808 211.724 365.728ZM216.245 370.728C215.409 368.822 215.648 361.728 216.547 361.728C217.195 361.728 217.724 363.828 217.724 366.394C217.724 370.193 216.974 372.391 216.245 370.728ZM220.003 370.228C218.033 368.259 219.175 366.918 222.058 367.815L225.058 368.749L221.921 366.182C219.21 363.963 219.051 363.393 220.752 361.982C222.835 360.253 227.058 361.132 227.058 363.294C227.058 363.998 225.708 364.23 224.058 363.81L221.058 363.047L224.112 364.615C225.791 365.478 226.985 367.131 226.765 368.289C226.344 370.498 221.626 371.851 220.003 370.228ZM228.477 368.061C227.064 364.413 230.961 359.56 234.28 360.834C237.329 362.004 236.915 364.74 233.837 363.763C230.9 362.831 228.766 365.302 230.773 367.31C232.824 369.36 237.725 367.241 237.725 364.305C237.725 362.887 238.325 361.728 239.058 361.728C239.791 361.728 240.391 363.901 240.391 366.558C240.391 370.564 240.071 371.121 238.51 369.826C237.224 368.759 236.355 368.707 235.765 369.663C234.219 372.164 229.679 371.166 228.477 368.061ZM243.058 366.473C243.058 361.449 244.35 359.95 247.604 361.199C250.488 362.306 250.269 365.183 247.058 368.394C243.458 371.994 243.058 371.802 243.058 366.473ZM251.058 366.394C251.058 363.828 251.658 361.728 252.391 361.728C253.125 361.728 253.725 363.228 253.725 365.061C253.725 367.135 254.48 368.394 255.725 368.394C256.825 368.394 257.725 368.994 257.725 369.728C257.725 370.461 256.225 371.061 254.391 371.061C251.471 371.061 251.058 370.483 251.058 366.394ZM259.058 366.394C259.058 363.828 259.658 361.728 260.391 361.728C261.125 361.728 261.725 363.828 261.725 366.394C261.725 368.961 261.125 371.061 260.391 371.061C259.658 371.061 259.058 368.961 259.058 366.394ZM263.058 366.394C263.058 361.16 263.766 360.748 267.287 363.934C269.555 365.988 269.725 365.988 269.725 363.934C269.725 362.721 270.325 361.728 271.058 361.728C272.683 361.728 272.785 367.042 271.209 369.53C270.314 370.942 269.596 370.662 267.896 368.234L265.725 365.134V368.098C265.725 369.728 265.125 371.061 264.392 371.061C263.658 371.061 263.058 368.961 263.058 366.394ZM272.392 370.328C272.392 368.657 276.544 361.728 277.545 361.728C278.684 361.728 281.725 367.601 281.725 369.802C281.725 370.507 280.446 370.329 278.884 369.406C276.614 368.065 275.922 368.063 275.44 369.394C274.849 371.025 272.392 371.778 272.392 370.328ZM283.058 366.473C283.058 361.449 284.35 359.95 287.605 361.199C288.986 361.73 289.725 363.646 289.725 366.7C289.725 370.716 289.438 371.15 287.725 369.728C286.343 368.581 285.725 368.531 285.725 369.565C285.725 370.388 285.125 371.061 284.392 371.061C283.658 371.061 283.058 368.996 283.058 366.473ZM93.785 338.509C91.5742 334.378 92.7258 320.859 95.794 314.925C97.7412 311.16 98.2823 310.921 103.045 311.726C106.078 312.238 109.364 311.968 111.047 311.067C113.313 309.854 114.572 309.977 117.147 311.664C121.495 314.513 121.234 316.784 116.057 321.123C113.674 323.121 109.319 328.425 106.379 332.908C100.345 342.111 96.6035 343.775 93.785 338.509ZM124.493 338.276C117.766 332.616 119.308 324.695 129.288 313.648C137.409 304.659 144.553 307.476 148.226 321.115C149.02 324.064 150.563 327.658 151.654 329.102C152.746 330.546 153.658 332.815 153.682 334.143C153.72 336.239 152.962 336.444 147.955 335.693C143.099 334.965 141.382 335.373 137.103 338.278C130.778 342.57 129.596 342.57 124.493 338.276ZM136.124 326.795C138.014 324.905 138.285 317.728 136.467 317.728C134.652 317.728 131.057 323.241 131.057 326.025C131.057 328.74 133.767 329.152 136.124 326.795ZM167.575 340.421C166.026 339.795 163.417 337.583 161.777 335.506C156.945 329.384 158.433 320.503 167.177 303.275C172.775 292.246 175.064 288.966 177.397 288.634C181.259 288.086 182.637 291.524 180.658 296.769C179.461 299.941 179.552 301.316 181.106 303.535C183.821 307.411 183.663 307.803 178.376 310.312C172.127 313.278 169.22 318.07 169.131 325.557C169.067 330.907 169.444 331.783 171.961 332.141C173.558 332.368 175.638 333.487 176.584 334.627C178.029 336.369 177.808 337.102 175.2 339.214C171.753 342.005 171.568 342.034 167.575 340.421ZM188.908 340.387C184.927 338.825 180.391 332.629 180.391 328.753C180.391 321.287 187.942 314.248 199.511 310.93C206.098 309.041 215.058 315.901 215.058 322.833C215.058 326.309 210.611 331.663 203.957 336.197C197.44 340.638 192.824 341.923 188.908 340.387ZM199.085 325.028C200.012 323.91 200.411 322.636 199.972 322.196C198.606 320.831 195.058 322.869 195.058 325.018C195.058 327.63 196.921 327.632 199.085 325.028ZM219.131 338.184C217.599 336.235 216.608 333.685 216.93 332.517C222.843 311.073 223.282 310.656 235.229 315.124C247.98 319.892 251.405 327.561 245.088 337.201C242.322 341.422 238.568 341.241 235.262 336.727L232.577 333.06L228.087 337.393C225.618 339.777 223.22 341.727 222.758 341.727C222.296 341.727 220.664 340.132 219.131 338.184ZM264.789 340.723C261.273 340.126 253.723 331.904 253.73 328.68C253.745 321.862 265.59 311.361 274.635 310.148C278.633 309.611 280.269 310.048 282.182 312.162C285.71 316.06 284.526 319.086 277.412 324.352C273.958 326.909 271.565 329.386 272.095 329.857C272.625 330.329 276.531 330.308 280.775 329.811C292.905 328.392 294.163 332.724 283.012 337.512C276.594 340.268 269.486 341.52 264.789 340.723ZM272.492 320.027C272.327 318.432 270.498 318.741 269.925 320.46C269.632 321.34 270.111 321.82 270.991 321.527C271.871 321.233 272.547 320.558 272.492 320.027Z" fill="black"/>
</svg>
