<svg width="310" height="475" viewBox="0 0 310 475" fill="none" xmlns="http://www.w3.org/2000/svg">
<g clip-path="url(#clip0_667_398)">
<g opacity="0.99">
<path d="M153.162 184.938C150.83 181.913 144.202 157.478 143.909 150.827C143.864 149.81 145.293 148.979 147.084 148.979C149.447 148.979 150.242 151.853 149.981 159.449C149.575 171.287 154.594 186.577 158.439 185.213C165.704 182.636 167.842 167.588 163.184 151.81C161.77 147.019 162.205 146.17 165.701 146.895C169.297 147.641 169.831 149.788 169.283 161.308C168.251 182.983 160.458 194.405 153.162 184.938Z" fill="black"/>
<path d="M234.194 472.867C202.737 471.956 172.471 471.056 166.936 470.867L156.873 470.523L158.509 411.4C159.652 370.075 159.41 352.277 157.705 352.277C154.676 352.277 155.125 346.147 153.346 411.811C152.515 442.522 151.202 468.33 150.429 469.163C149.656 469.995 118.259 469.81 80.6593 468.752L12.2954 466.828L13.0592 448.352C13.9754 426.188 16.6332 422.247 38.469 410.678C52.2453 403.379 55.1239 402.778 76.2977 402.784C100.234 402.791 99.4763 402.55 132.96 420.733C135.827 422.289 134.874 402.745 131.929 399.574C129.854 397.34 129.804 394.658 131.725 388.611C133.123 384.209 134.943 374.272 135.77 366.53C137.231 352.838 137.109 352.41 131.274 350.833C127.975 349.941 121.898 349.802 117.769 350.524C113.64 351.245 108.863 350.905 107.153 349.767C105.194 348.463 101.791 349.425 97.9566 352.365C87.3234 360.518 72.5671 363.461 59.1032 360.115C44.2498 356.423 34.4217 349.002 30.2929 338.361C27.5272 331.234 25.9991 330.105 19.1129 330.105C14.7258 330.105 11.1364 328.997 11.1364 327.642C11.1364 326.173 19.9062 325.178 32.8702 325.178H54.604V316.313C54.604 304.777 60.5287 291.585 68.5922 285.165C72.1243 282.353 74.4792 279.12 73.8252 277.981C72.4277 275.546 89.8051 275.637 98.0485 278.107C101.935 279.272 102.842 280.416 100.902 281.707C98.8743 283.056 98.7169 284.922 100.353 288.214C104.195 295.944 103.045 311.652 98.1465 318.358C95.6712 321.746 94.2985 325.221 95.0962 326.08C97.1474 328.289 116.379 328.03 116.347 325.794C116.332 324.778 114.8 317.85 112.942 310.398C111.085 302.946 109.552 296.017 109.538 295.001C109.523 293.985 131.13 293.153 157.554 293.153C210.472 293.153 208.499 292.462 202.165 308.786C200.278 313.65 198.733 318.22 198.733 318.941C198.733 319.662 203.678 320.252 209.721 320.252H220.709L220.173 304.277C219.879 295.492 219.08 287.332 218.399 286.145C216.384 282.635 219.557 280.852 228.284 280.59C232.792 280.455 239.055 279.386 242.201 278.214C246.003 276.798 242.168 276.435 230.762 277.13L213.604 278.176L230.731 273.562C240.151 271.024 248.548 269.407 249.391 269.968C250.233 270.528 250.434 272.997 249.838 275.454C249.128 278.378 251.968 283.383 258.06 289.943C266.221 298.731 267.366 301.346 267.366 311.194C267.366 317.371 266.235 323.177 264.851 324.098C263.453 325.029 256.342 319.385 248.837 311.387C241.412 303.476 235.35 297.522 235.365 298.157C235.38 298.792 236.912 305.409 238.769 312.861C243.405 331.457 243.238 333.241 237.053 331.212C234.222 330.283 230.104 327.819 227.902 325.737C224.212 322.248 223.899 322.463 223.899 328.492C223.899 332.089 224.928 335.032 226.187 335.032C229.896 335.032 228.862 349.808 225.043 351.386C222.894 352.274 221.611 356.037 221.611 361.45C221.611 369.214 221.086 369.944 216.464 368.61C213.632 367.793 207.97 367.11 203.881 367.091C196.598 367.058 196.446 366.83 196.446 355.972C196.446 347.659 195.569 344.886 192.942 344.886C191.015 344.886 188.846 346.549 188.122 348.582C187.398 350.614 184.856 352.277 182.474 352.277C178.673 352.277 178.143 354.218 178.143 368.144C178.143 376.871 179.173 384.696 180.431 385.534C183.935 387.866 183.149 400.558 179.287 404.01C175.927 407.013 174.362 421.254 177.392 421.254C178.237 421.254 185.701 418.241 193.978 414.559C206.86 408.829 212.331 407.853 231.954 407.785C253.301 407.71 255.927 408.26 270.078 415.762C288.552 425.555 299.405 437.891 299.37 449.054C299.327 462.566 296.629 475.472 293.948 474.987C292.54 474.732 265.651 473.778 234.194 472.867ZM290.244 443.425L251.924 443.182C230.848 443.049 211.545 442.699 209.028 442.405C206.512 442.112 196.474 441.667 186.723 441.416L168.992 440.962V423.717C168.992 413.864 168.012 406.473 166.705 406.473C165.313 406.473 164.417 417.523 164.417 434.695V462.917L181.003 463.767C190.126 464.235 218.437 464.838 243.917 465.107L290.244 465.596V443.425ZM145.618 434.187C146.016 417.125 145.397 406.473 144.006 406.473C142.764 406.473 141.444 413.956 141.072 423.102L140.395 439.73L17.9997 437.797V460.513L44.881 461.322C59.6657 461.767 88.2342 462.08 108.367 462.016L144.971 461.901L145.618 434.187ZM285.668 436.922C285.668 434.463 278.701 429.118 266.222 422.006C244.709 409.744 205.529 411.914 183.291 426.6C179.202 429.3 175.856 432.497 175.856 433.705C175.856 434.912 190.526 436.24 208.456 436.656C226.387 437.072 251.095 437.657 263.363 437.956C275.631 438.254 285.668 437.789 285.668 436.922ZM134.676 430.978C134.676 426.65 106.45 413.854 90.9247 411.143C68.5535 407.237 47.7293 411.495 30.5825 423.48L21.4313 429.876L37.4457 431.289C67.5589 433.945 134.676 433.731 134.676 430.978ZM145.711 393.336C146.138 390.96 144.99 389.229 142.986 389.229C138.736 389.229 136.171 393.245 138.182 396.749C140.251 400.355 144.819 398.284 145.711 393.336ZM174.835 396.405C177.193 392.297 171.89 387.586 168.734 390.985C166.094 393.828 167.746 399.083 171.28 399.083C172.39 399.083 173.99 397.878 174.835 396.405ZM148.402 367.203C148.402 350.43 145.093 345.466 143 359.1C140.61 374.67 141.231 381.838 144.971 381.838C147.636 381.838 148.402 378.57 148.402 367.203ZM171.28 366.852C171.28 346.971 165.869 347.833 164.853 367.876C164.279 379.206 164.818 381.838 167.713 381.838C170.553 381.838 171.28 378.784 171.28 366.852ZM207.884 359.667C207.884 358.312 206.34 357.204 204.453 357.204C202.565 357.204 201.021 358.312 201.021 359.667C201.021 361.022 202.565 362.131 204.453 362.131C206.34 362.131 207.884 361.022 207.884 359.667ZM217.035 359.667C217.035 358.312 215.491 357.204 213.604 357.204C211.716 357.204 210.172 358.312 210.172 359.667C210.172 361.022 211.716 362.131 213.604 362.131C215.491 362.131 217.035 361.022 217.035 359.667ZM89.6634 348.621C97.1167 344.813 104.497 336.144 102.26 333.825C101.844 333.393 86.8322 332.656 68.901 332.188C33.5186 331.265 30.9111 332.351 41.9879 343.405C53.6222 355.016 73.0001 357.136 89.6634 348.621ZM207.884 351.045C207.884 349.013 206.34 347.35 204.453 347.35C200.88 347.35 199.914 350.263 202.546 353.098C205.179 355.932 207.884 354.892 207.884 351.045ZM217.035 351.045C217.035 349.013 216.006 347.35 214.748 347.35C213.489 347.35 212.46 349.013 212.46 351.045C212.46 353.077 213.489 354.74 214.748 354.74C216.006 354.74 217.035 353.077 217.035 351.045ZM226.187 342.277C226.187 339.488 225.157 337.89 223.899 338.728C222.641 339.565 221.611 341.847 221.611 343.8C221.611 345.752 222.641 347.35 223.899 347.35C225.157 347.35 226.187 345.067 226.187 342.277ZM118.423 342.634C122.311 339.983 120.111 332.569 115.437 332.569C111.135 332.569 108.74 336.708 110.38 341.309C111.838 345.4 113.874 345.735 118.423 342.634ZM190.105 326.41C193.786 316.926 197.354 307.226 198.033 304.855C199.176 300.862 196.293 300.544 158.964 300.544C136.798 300.544 118.661 301.304 118.661 302.234C118.661 304.539 128.093 340.782 129.226 342.831C129.724 343.734 142.12 344.288 156.772 344.063L183.411 343.655L190.105 326.41ZM207.884 341.191C207.884 339.159 206.916 337.496 205.732 337.496C202.847 337.496 200.781 341.343 202.608 343.311C205.185 346.085 207.884 345.001 207.884 341.191ZM217.035 341.191C217.035 339.159 216.006 337.496 214.748 337.496C213.489 337.496 212.46 339.159 212.46 341.191C212.46 343.223 213.489 344.886 214.748 344.886C216.006 344.886 217.035 343.223 217.035 341.191ZM198.733 332.569C198.733 329.859 197.824 327.642 196.712 327.642C195.601 327.642 194.153 329.859 193.495 332.569C192.717 335.771 193.425 337.496 195.516 337.496C197.285 337.496 198.733 335.279 198.733 332.569ZM207.884 331.337C207.884 329.305 206.855 327.642 205.597 327.642C204.338 327.642 203.309 329.305 203.309 331.337C203.309 333.37 204.338 335.032 205.597 335.032C206.855 335.032 207.884 333.37 207.884 331.337ZM217.379 331.337C217.379 330.05 216.272 328.6 214.919 328.114C213.567 327.629 212.46 329.079 212.46 331.337C212.46 333.595 213.567 335.046 214.919 334.56C216.272 334.075 217.379 332.624 217.379 331.337ZM84.3826 311.434C85.84 303.875 86.6852 297.46 86.2607 297.179C85.8362 296.898 79.6448 303.083 72.502 310.924L59.5152 325.178H81.7328L84.3826 311.434ZM94.4731 318.848C101.135 311.673 102.443 290.979 96.3698 288.832C92.9674 287.629 89.8905 295.592 87.7114 311.239C86.0102 323.454 88.0564 325.757 94.4731 318.848ZM234.299 313.83C232.097 301.191 228.965 293.153 226.243 293.153C222.584 293.153 223.492 311.14 227.46 317.24C232.929 325.648 236.084 324.075 234.299 313.83ZM78.3172 299.473C81.578 294.114 81.1272 283.299 77.6429 283.299C75.3486 283.299 64.7655 295.902 61.7468 302.229C60.3348 305.189 59.1795 309.957 59.1795 312.825C59.1795 317.897 59.3931 317.863 67.0164 311.602C71.3267 308.062 76.412 302.604 78.3172 299.473ZM260.566 304.445C256.943 292.622 239.913 279.687 239.913 288.758C239.913 292.069 260.813 315.812 262.309 314.201C262.825 313.646 262.041 309.256 260.566 304.445ZM235.338 289.458C235.338 287.426 234.308 285.763 233.05 285.763C231.792 285.763 230.762 287.426 230.762 289.458C230.762 291.49 231.792 293.153 233.05 293.153C234.308 293.153 235.338 291.49 235.338 289.458ZM91.2083 285.763C91.2083 284.408 90.2395 283.299 89.0555 283.299C87.8715 283.299 86.2665 284.408 85.4889 285.763C84.7112 287.118 85.6799 288.226 87.6416 288.226C89.6033 288.226 91.2083 287.118 91.2083 285.763ZM242.382 348.376C242.491 345.506 243.033 344.923 243.764 346.888C244.425 348.666 244.343 350.791 243.583 351.609C242.823 352.428 242.282 350.973 242.382 348.376ZM246.957 348.376C247.067 345.506 247.609 344.923 248.339 346.888C249 348.666 248.919 350.791 248.159 351.609C247.398 352.428 246.858 350.973 246.957 348.376ZM251.533 348.376C251.642 345.506 252.184 344.923 252.915 346.888C253.576 348.666 253.494 350.791 252.734 351.609C251.974 352.428 251.433 350.973 251.533 348.376ZM255.928 348.436C255.928 346.324 256.957 345.281 258.215 346.118C259.474 346.955 260.503 348.684 260.503 349.959C260.503 351.233 259.474 352.277 258.215 352.277C256.957 352.277 255.928 350.548 255.928 348.436ZM237.806 345.913C237.916 343.043 238.458 342.459 239.188 344.424C239.849 346.203 239.768 348.327 239.008 349.146C238.247 349.965 237.707 348.51 237.806 345.913ZM261.964 346.118C261.239 344.086 261.534 342.423 262.618 342.423C263.702 342.423 265.182 344.086 265.906 346.118C266.63 348.15 266.336 349.813 265.252 349.813C264.167 349.813 262.688 348.15 261.964 346.118ZM230.943 343.449C231.052 340.579 231.595 339.996 232.325 341.961C232.986 343.739 232.904 345.864 232.144 346.682C231.384 347.501 230.843 346.046 230.943 343.449ZM268.416 344.722C267.587 343.277 267.458 341.503 268.129 340.78C269.768 339.016 274.23 342.125 274.23 345.032C274.23 348.18 270.28 347.97 268.416 344.722ZM273.475 338.931C272.791 337.011 273.803 334.79 275.724 333.996C279.78 332.321 283.381 334.177 283.381 337.943C283.381 339.577 282.07 339.392 279.897 337.449C276.984 334.846 276.649 334.998 277.854 338.379C278.646 340.603 278.265 342.423 277.007 342.423C275.749 342.423 274.159 340.852 273.475 338.931ZM282.237 330.105C281.459 328.75 281.852 327.642 283.111 327.642C284.369 327.642 286.035 328.75 286.812 330.105C287.59 331.46 287.197 332.569 285.939 332.569C284.68 332.569 283.014 331.46 282.237 330.105ZM285.668 325.178C282.736 323.138 282.819 322.785 286.24 322.753C288.442 322.732 290.244 323.823 290.244 325.178C290.244 328.183 289.986 328.183 285.668 325.178ZM285.668 317.865C285.668 316.553 287.213 316.117 289.1 316.897C290.988 317.677 292.532 318.751 292.532 319.283C292.532 319.816 290.988 320.251 289.1 320.251C287.213 320.251 285.668 319.178 285.668 317.865ZM286.812 312.861C286.035 311.506 287.518 310.398 290.109 310.398C292.7 310.398 294.82 311.506 294.82 312.861C294.82 314.216 293.336 315.325 291.523 315.325C289.71 315.325 287.59 314.216 286.812 312.861ZM289.1 305.471C288.322 304.116 288.776 303.007 290.109 303.007C291.442 303.007 292.532 304.116 292.532 305.471C292.532 306.826 292.078 307.934 291.523 307.934C290.968 307.934 289.878 306.826 289.1 305.471ZM287.956 298.08C287.956 296.725 288.925 295.617 290.109 295.617C291.293 295.617 292.898 296.725 293.676 298.08C294.453 299.435 293.485 300.544 291.523 300.544C289.561 300.544 287.956 299.435 287.956 298.08ZM287.956 290.69C287.956 289.335 288.925 288.226 290.109 288.226C291.293 288.226 292.898 289.335 293.676 290.69C294.453 292.045 293.485 293.153 291.523 293.153C289.561 293.153 287.956 292.045 287.956 290.69ZM107.238 290.074C107.246 289.735 111.275 278.979 116.192 266.171C123.312 247.622 124.53 242.36 122.178 240.305C120.554 238.886 115.539 231.713 111.034 224.365L102.842 211.004L76.6091 211.611C39.9733 212.458 34.0141 207.278 34.0141 174.586V160.22L24.2911 161.626C15.5763 162.886 13.8715 162.243 7.85093 155.423C2.3678 149.211 0.956173 145.17 0.167199 133.425C-1.36842 110.565 7.77383 96.7252 22.838 99.1059L29.4385 100.149V83.6637C29.4385 54.802 35.9269 50.5136 83.2011 48.1297C119.041 46.3224 130.1 44.7315 130.1 41.3829C130.1 39.9769 127.056 39.3374 123.237 39.9411C117.998 40.769 116.374 40.0722 116.374 36.9963C116.374 29.8093 122.179 24.1512 130.239 23.4815C136.167 22.989 138.282 21.582 138.814 17.7762C139.606 12.1101 149.181 0 152.869 0C154.187 0 155.266 4.47326 155.266 9.94057C155.266 19.0051 155.656 19.6564 159.691 17.331C167.012 13.112 175.323 14.3607 179.158 20.2559C183.927 27.588 183.65 32.0252 178.424 32.0252C173.752 32.0252 167.462 38.5892 169.762 41.065C170.543 41.9067 189.864 41.3686 212.696 39.8692C248.319 37.5299 255.138 37.6598 260.749 40.7845C269.494 45.6539 274.23 56.2739 274.23 71.0158V83.1529L283.953 81.9776C292.027 81.0015 294.716 81.8416 299.81 86.9331C311.978 99.0935 313.529 124.986 302.945 139.279C298.498 145.284 296.003 146.462 288.199 146.242C280.42 146.022 278.805 146.778 278.805 150.64C278.805 153.365 281.422 156.542 285.097 158.281C292.54 161.803 294.737 164.66 294.785 170.883C294.81 174.231 293.61 175.141 290.374 174.229C285.484 172.852 281.211 177.228 276.955 187.968C273.076 197.757 263.175 201.266 233.667 203.314C219.536 204.294 208.417 205.867 208.959 206.81C209.5 207.753 206.264 215.095 201.769 223.125C197.273 231.155 193.596 239.942 193.599 242.652C193.602 246.86 195.411 254.004 204.672 286.379C205.82 290.392 202.5 290.69 156.564 290.69C129.426 290.69 107.229 290.413 107.238 290.074ZM194.158 280.726C194.158 273.643 186.311 245.812 184.107 245.077C182.714 244.613 170.379 243.775 156.695 243.217L131.815 242.201L126.254 255.742C123.195 263.19 120.107 272.437 119.391 276.291L118.09 283.299H156.124C181.034 283.299 194.158 282.412 194.158 280.726ZM136.007 236.493C140.308 236.493 143.827 235.536 143.827 234.366C143.827 230.565 131.818 219.189 126.204 217.672C118.672 215.636 117.725 217.543 121.924 226.288C127.665 238.241 126.049 238.745 119.532 227.034C115.52 219.827 114.336 215.531 115.895 213.852C119.644 209.815 131.853 214.125 139.259 222.1L146.115 229.482V206.816L127.241 208.444C116.86 209.34 108.005 210.402 107.562 210.805C107.12 211.208 110.208 217.682 114.425 225.191C119.099 233.512 123.283 238.384 125.14 237.668C126.816 237.022 131.706 236.493 136.007 236.493ZM161.666 222.133C162.277 208.498 161.892 206.932 157.926 206.932C154.27 206.932 153.226 209.334 151.894 220.816C150.685 231.237 151.047 235.221 153.346 236.788C159.083 240.699 160.984 237.349 161.666 222.133ZM187.75 229.103C193.024 217.444 192.805 214.308 186.723 214.401C180.142 214.501 174.553 219.105 170.302 227.928C166.024 236.807 167.595 239.426 176.636 238.48C182.291 237.888 184.692 235.862 187.75 229.103ZM204.432 204.895C204.041 204.453 195.392 204.873 185.213 205.829L166.705 207.568V222.571L172.282 216.93C177.513 211.638 198.733 206.403 198.733 210.405C198.733 211.312 196.674 216.401 194.158 221.713C191.641 227.024 189.632 232.8 189.693 234.548C189.754 236.295 193.255 230.52 197.473 221.713C201.691 212.906 204.822 205.338 204.432 204.895ZM168.992 199.41C247.848 194.951 260.088 193.732 265.079 189.836C270.589 185.534 270.79 184.415 270.569 159.199C270.395 139.334 271.052 133.028 273.294 133.028C274.918 133.028 276.884 134.136 277.661 135.491C280.546 140.517 292.089 138.106 296.941 131.464C310.68 112.656 291.16 77.6425 275.671 93.3107C272.829 96.1862 269.949 98.5389 269.272 98.5389C268.595 98.5389 267.375 88.839 266.561 76.9835C265.235 57.6793 264.438 54.8196 258.926 49.6012C252.157 43.1933 259.428 43.3159 185.007 48.3551C163.526 49.8096 162.129 49.6174 162.129 45.208C162.129 37.5557 168.722 29.5617 175.032 29.5617C181.226 29.5617 181.464 25.4181 175.502 21.3686C170.316 17.8464 160.934 21.2531 158.174 27.6605L155.763 33.2569L153.227 26.322C151.832 22.5078 150.69 17.2421 150.69 14.6205C150.69 11.9989 149.826 9.8539 148.77 9.8539C146.244 9.8539 141.539 21.1159 141.539 27.1613C141.539 31.3427 140.846 31.5794 135.82 29.1134C131.541 27.0143 128.659 27.0143 124.381 29.1134C117.382 32.5472 116.682 38.0841 123.489 36.1673C128.234 34.8311 139.251 43.6888 139.251 48.8401C139.251 50.0821 128.699 51.815 115.802 52.691C102.905 53.567 82.1215 54.9759 69.6173 55.8219C38.529 57.9253 36.3018 60.2767 36.3018 90.9967V113.24L28.4365 109.201C21.1089 105.439 20.1635 105.45 14.6078 109.37C3.68257 117.078 1.53164 135.481 9.94067 149.301C14.6404 157.024 26.8829 157.398 33.0876 150.008L37.4457 144.817L39.0297 154.319C39.9009 159.545 40.673 170.046 40.7455 177.654C40.8419 187.763 42.1536 193.234 45.6189 197.977C51.5796 206.137 50.2765 206.122 168.992 199.41ZM154.475 185.376C153.892 184.36 155.792 183.529 158.697 183.529C161.603 183.529 163.503 184.36 162.919 185.376C162.336 186.393 160.436 187.224 158.697 187.224C156.959 187.224 155.059 186.393 154.475 185.376ZM167.235 165.053C167.235 160.311 167.706 158.371 168.282 160.742C168.857 163.113 168.857 166.993 168.282 169.364C167.706 171.735 167.235 169.795 167.235 165.053ZM88.9205 158.348C74.4253 152.483 63.755 135.069 63.755 117.277C63.755 107.119 63.2625 106.185 57.4637 105.34L51.1723 104.423L58.0356 102.325C61.8104 101.171 69.0169 95.5188 74.05 89.7645C89.9416 71.5959 113.423 69.4022 129.482 84.5857C157.795 111.354 140.88 160.577 103.59 159.931C97.4092 159.824 90.8079 159.112 88.9205 158.348ZM122.093 152.069C128.123 148.437 133 142.811 136.392 135.575C142.027 123.553 142.708 116.952 139.308 107.321C137.253 101.502 135.985 101.002 123.274 101.002H109.47L110.907 114.165C112.43 128.113 109.526 137.954 103.888 137.954C99.3754 137.954 95.0563 121.963 96.8258 111.806L98.3211 103.224L69.4745 104.698L68.8029 118.339C68.2642 129.28 69.1791 133.669 73.424 140.51C83.9116 157.412 104.934 162.405 122.093 152.069ZM107.223 118.247C107.223 113.147 101.703 111.449 99.2154 115.783C97.3005 119.12 99.8845 123.174 103.926 123.174C105.739 123.174 107.223 120.957 107.223 118.247ZM134.471 97.0106C136.074 95.466 126.997 85.8938 120.496 82.2741C117.096 80.3805 109.267 78.8311 103.099 78.8311C90.9384 78.8311 79.6808 85.1963 73.2966 95.6816L69.7865 101.446L101.659 99.681C119.189 98.71 133.955 97.5083 134.471 97.0106ZM145.29 155.953C142.556 153.009 143.813 147.808 147.259 147.808C149.146 147.808 150.69 149.406 150.69 151.358C150.69 155.474 147.425 158.252 145.29 155.953ZM195.968 155.227C185.508 151.832 176.475 143.351 171.476 132.233C154.588 94.6666 190.217 55.7507 224.931 73.8463C230.697 76.8519 236.463 81.4202 237.745 83.9981C239.442 87.4129 242.573 88.685 249.28 88.685C254.834 88.685 257.925 89.6621 257.071 91.1485C256.294 92.5034 253.125 93.612 250.029 93.612C244.325 93.612 244.014 96.3801 248.134 110.504C249.857 116.413 244.551 132.57 238.232 140.657C227.53 154.351 210.916 160.079 195.968 155.227ZM223.797 147.864C239.907 139.014 247.622 119.92 242.215 102.279L239.487 93.3798L213.604 94.8437L214.362 111.004C214.964 123.856 214.328 127.872 211.254 130.619C205.234 135.999 201.021 127.669 201.021 110.385V96.0755H188.718C173.025 96.0755 170.39 99.2633 171.727 116.629C173.996 146.084 199.35 161.294 223.797 147.864ZM211.316 113.32C211.316 111.325 209.514 109.318 207.312 108.862C204.503 108.279 203.309 109.609 203.309 113.32C203.309 117.03 204.503 118.36 207.312 117.778C209.514 117.321 211.316 115.315 211.316 113.32ZM235.092 89.7189C235.586 89.2158 234.631 87.0414 232.971 84.8869C220.84 69.1477 189.543 70.9455 179.179 87.9769L175.371 94.2347L204.782 92.4342C220.959 91.4439 234.598 90.222 235.092 89.7189ZM163.296 152.776C161.609 149.836 163.75 145.345 166.84 145.345C169.623 145.345 169.641 152.013 166.863 153.862C165.691 154.641 164.086 154.153 163.296 152.776ZM284.9 163.987C284.143 161.863 282.463 160.126 281.165 160.126C278.533 160.126 277.931 168.218 280.368 170.842C282.88 173.546 286.406 168.212 284.9 163.987ZM289.815 284.08C291.467 283.368 293.44 283.456 294.2 284.275C294.96 285.093 293.609 285.675 291.197 285.568C288.532 285.45 287.99 284.866 289.815 284.08ZM287.956 278.372C287.956 277.018 288.986 275.909 290.244 275.909C291.502 275.909 292.532 277.018 292.532 278.372C292.532 279.727 291.502 280.836 290.244 280.836C288.986 280.836 287.956 279.727 287.956 278.372ZM83.6738 272.834C75.517 271.331 70.7881 269.32 71.3771 267.607C71.9035 266.076 73.7497 265.234 75.4799 265.736C96.3055 271.78 101.019 273.335 102.121 274.522C103.712 276.235 100.562 275.946 83.6738 272.834ZM289.815 271.763C291.467 271.051 293.44 271.139 294.2 271.957C294.96 272.776 293.609 273.358 291.197 273.251C288.532 273.133 287.99 272.549 289.815 271.763ZM88.9205 265.403C72.5502 259.961 71.4786 259.381 73.5942 257.103C74.3921 256.243 81.2889 258.055 88.9205 261.128C96.5521 264.201 103.265 266.211 103.839 265.593C104.412 264.975 98.7166 261.297 91.1817 257.419C83.6467 253.541 77.4817 249.371 77.4817 248.153C77.4817 245.603 76.9621 245.391 93.496 254.664C108.862 263.282 108.047 262.473 105.717 266.785C104.064 269.842 101.683 269.646 88.9205 265.403ZM229.618 265.889C248.006 260.552 249.064 260.404 249.064 263.166C249.064 265.134 223.217 271.212 216.772 270.76C215.029 270.637 220.81 268.446 229.618 265.889ZM287.956 266.055C287.956 264.7 289.561 263.592 291.523 263.592C293.485 263.592 294.453 264.7 293.676 266.055C292.898 267.41 291.293 268.519 290.109 268.519C288.925 268.519 287.956 267.41 287.956 266.055ZM210.172 265.215C210.172 263.716 239.723 253.738 244.163 253.738C245.601 253.738 246.776 254.702 246.776 255.881C246.776 257.059 240.857 259.293 233.622 260.843C226.387 262.394 218.151 264.331 215.32 265.146C212.489 265.962 210.172 265.993 210.172 265.215ZM209.143 258.881C212.374 255.539 240.501 243.696 241.823 245.12C243.756 247.201 241.028 248.815 224.985 255.08C207.974 261.724 205.915 262.218 209.143 258.881ZM289.815 259.445C291.467 258.734 293.44 258.821 294.2 259.64C294.96 260.458 293.609 261.041 291.197 260.934C288.532 260.815 287.99 260.232 289.815 259.445ZM92.5135 249.508C85.0526 244.545 80.1643 240.047 81.6505 239.513C83.1368 238.98 89.5469 242.649 95.8952 247.667C111.748 260.198 112.98 256.603 97.3075 243.545C90.3521 237.75 85.1815 232.102 85.8174 230.994C87.0162 228.905 100.626 239.566 108.019 248.384C111.846 252.949 111.641 258.765 107.66 258.599C106.79 258.562 99.9744 254.472 92.5135 249.508ZM205.616 254.331C205.646 251.462 235.06 235.373 236.816 237.264C238.709 239.303 239.92 238.464 221.039 248.196C212.546 252.573 205.605 255.334 205.616 254.331ZM287.956 253.738C287.956 252.383 288.925 251.274 290.109 251.274C291.293 251.274 292.898 252.383 293.676 253.738C294.453 255.093 293.485 256.201 291.523 256.201C289.561 256.201 287.956 255.093 287.956 253.738ZM101.451 236.437C95.2831 229.693 91.2702 224.176 92.5338 224.176C95.5072 224.176 115.305 245.856 113.805 247.471C113.179 248.145 107.62 243.18 101.451 236.437ZM204.453 247.148C212.216 239.415 228.489 226.64 230.575 226.64C235.892 226.64 232.371 230.698 219.889 238.957C206.032 248.126 200.551 251.034 204.453 247.148ZM289.815 247.128C291.467 246.416 293.44 246.504 294.2 247.322C294.96 248.141 293.609 248.723 291.197 248.616C288.532 248.498 287.99 247.914 289.815 247.128ZM107.613 232.185C102.166 224.833 98.3611 218.116 99.1584 217.258C99.9557 216.399 101.324 216.826 102.2 218.207C103.075 219.588 107.236 226.008 111.447 232.474C121.96 248.618 119.662 248.445 107.613 232.185ZM208.898 233.414C215.112 225.623 221.723 219.249 223.59 219.249C227.729 219.249 220.312 228.306 206.746 239.818L197.6 247.579L208.898 233.414ZM287.956 241.42C287.956 240.065 289.561 238.957 291.523 238.957C293.485 238.957 294.453 240.065 293.676 241.42C292.898 242.775 291.293 243.884 290.109 243.884C288.925 243.884 287.956 242.775 287.956 241.42ZM199.927 235.474C202.115 231.527 205.932 224.598 208.408 220.078C210.885 215.557 213.84 211.859 214.974 211.859C218.603 211.859 217.193 216.635 211.513 223.581C208.476 227.296 203.731 233.106 200.97 236.493L195.948 242.652L199.927 235.474ZM289.815 234.811C291.467 234.099 293.44 234.186 294.2 235.005C294.96 235.824 293.609 236.406 291.197 236.299C288.532 236.181 287.99 235.597 289.815 234.811ZM287.956 229.103C287.956 227.748 289.561 226.639 291.523 226.639C293.485 226.639 294.453 227.748 293.676 229.103C292.898 230.458 291.293 231.566 290.109 231.566C288.925 231.566 287.956 230.458 287.956 229.103ZM289.815 222.493C291.467 221.782 293.44 221.869 294.2 222.688C294.96 223.506 293.609 224.088 291.197 223.982C288.532 223.863 287.99 223.28 289.815 222.493ZM289.815 215.103C291.467 214.391 293.44 214.479 294.2 215.297C294.96 216.116 293.609 216.698 291.197 216.591C288.532 216.473 287.99 215.889 289.815 215.103ZM289.815 210.176C291.467 209.464 293.44 209.552 294.2 210.37C294.96 211.189 293.609 211.771 291.197 211.664C288.532 211.546 287.99 210.962 289.815 210.176ZM289.815 202.785C291.467 202.074 293.44 202.161 294.2 202.98C294.96 203.798 293.609 204.381 291.197 204.274C288.532 204.156 287.99 203.572 289.815 202.785ZM289.815 197.858C291.467 197.147 293.44 197.234 294.2 198.053C294.96 198.872 293.609 199.454 291.197 199.347C288.532 199.229 287.99 198.645 289.815 197.858ZM289.815 190.468C291.467 189.756 293.44 189.844 294.2 190.663C294.96 191.481 293.609 192.063 291.197 191.956C288.532 191.838 287.99 191.254 289.815 190.468ZM289.815 185.541C291.467 184.829 293.44 184.917 294.2 185.736C294.96 186.554 293.609 187.136 291.197 187.029C288.532 186.911 287.99 186.327 289.815 185.541ZM289.815 178.151C291.467 177.439 293.44 177.527 294.2 178.345C294.96 179.164 293.609 179.746 291.197 179.639C288.532 179.521 287.99 178.937 289.815 178.151Z" fill="black"/>
<path d="M65.0343 353.615C58.358 353.047 52.0423 350.866 46.8813 347.345C45.0262 346.08 43.8349 345.095 42.0297 343.333C37.7849 339.192 35.9393 336.523 36.2723 335.007C36.3118 334.827 36.4891 334.514 36.6662 334.313C38.6757 332.024 46.0954 331.601 71.7074 332.316C85.0215 332.688 97.6439 333.268 101.141 333.668C102.186 333.788 102.472 333.978 102.595 334.633C102.745 335.434 102.015 337.301 100.967 338.797C99.0552 341.526 95.6793 344.738 92.5027 346.851C87.0253 350.494 79.3316 353.021 71.8828 353.624C70.35 353.748 66.5413 353.743 65.0343 353.615Z" fill="white"/>
<path d="M112.972 344.559C111.899 344.229 111.037 343.101 110.39 341.178C109.89 339.696 109.776 337.995 110.094 336.773C110.513 335.164 111.568 333.833 112.945 333.178C115.381 332.018 117.838 332.67 119.274 334.858C119.981 335.934 120.367 337.221 120.369 338.506C120.369 339.42 120.211 340.124 119.827 340.906C119.321 341.935 118.692 342.502 116.922 343.523C115.2 344.516 113.921 344.852 112.972 344.559Z" fill="white"/>
<path d="M88.8029 322.573C88.3189 322.476 87.8765 321.96 87.6006 321.169C87.2034 320.032 87.2478 315.091 87.6836 311.936C89.3746 299.693 91.615 291.892 94.0896 289.631C95.0306 288.771 95.576 288.618 96.4544 288.97C97.9135 289.553 99.0844 291.516 99.7266 294.455C100.026 295.826 100.062 296.38 100.064 299.719C100.068 303.988 99.8868 305.542 98.9694 309.166C97.6819 314.251 95.9401 317.468 92.9769 320.232C91.1184 321.966 89.7118 322.755 88.8029 322.573Z" fill="white"/>
<path d="M59.5172 315.854C59.1339 314.936 59.3075 310.667 59.8193 308.424C60.3975 305.891 61.2436 303.452 62.1791 301.623C64.2204 297.633 69.0711 291.201 73.3666 286.789C77.1814 282.871 78.2621 282.547 79.4712 284.954C80.1271 286.26 80.3901 287.753 80.3891 290.165C80.3891 294.543 79.4545 297.817 77.399 300.66C75.4995 303.288 71.7226 307.346 68.6117 310.102C66.2995 312.15 62.4362 315.21 61.353 315.85C60.1484 316.562 59.8135 316.563 59.5172 315.854Z" fill="white"/>
<path d="M126.489 237.442C126.489 236.459 125.868 234.959 125.196 234.959L126.489 237.442Z" fill="white"/>
<path d="M126.467 236.924C126.34 236.194 125.967 235.4 125.611 235.1C125.475 234.985 125.432 234.897 125.379 234.623C125.172 233.541 124.013 230.653 122.493 227.433C120.56 223.337 119.929 221.748 119.607 220.162C119.494 219.608 119.475 219.398 119.495 218.949C119.523 218.318 119.576 218.118 119.804 217.776C120.345 216.967 121.582 216.77 123.773 217.143C124.688 217.299 126.401 217.737 126.992 217.966C129.987 219.124 134.696 222.661 138.654 226.724C141.757 229.91 143.655 232.674 143.776 234.184C143.805 234.536 143.8 234.553 143.631 234.773C143.067 235.504 141.103 236.103 138.444 236.355C137.957 236.401 136.57 236.459 135.314 236.486C132.57 236.544 131.396 236.615 129.308 236.849C128.451 236.946 126.934 237.167 126.655 237.237C126.532 237.268 126.524 237.256 126.467 236.924Z" fill="white"/>
<path d="M86.6049 288.041C85.8056 287.798 85.2606 287.249 85.2619 286.689C85.2619 285.827 86.4827 284.385 87.7431 283.755C88.9821 283.135 89.9685 283.295 90.6421 284.225C91.2282 285.034 91.3053 286.046 90.834 286.745C90.5093 287.226 89.6883 287.775 88.9921 287.975C88.4121 288.143 87.0616 288.18 86.6049 288.041Z" fill="white"/>
<path d="M156.182 238.125C155.077 237.852 153.424 236.914 152.768 236.188C152.237 235.599 151.811 234.641 151.549 233.439C151.353 232.539 151.328 232.108 151.331 229.631C151.334 226.76 151.432 225.369 151.949 220.837C153.007 211.563 153.97 208.364 156.004 207.368C156.518 207.117 156.744 207.073 157.727 207.04C159.723 206.971 160.554 207.334 161.106 208.515C161.711 209.807 161.763 210.341 161.762 215.198C161.76 222.332 161.294 229.245 160.572 232.832C159.938 235.985 158.98 237.72 157.655 238.113C157.04 238.296 156.879 238.297 156.182 238.125Z" fill="white"/>
<path d="M171.247 238.43C170.253 238.241 169.27 237.752 168.814 237.219C167.598 235.799 167.969 233.13 169.995 228.727C171.835 224.728 173.879 221.65 176.302 219.233C178.74 216.8 181.242 215.368 184.176 214.724C184.598 214.631 185.642 214.533 186.495 214.505C189.404 214.41 190.767 214.972 191.266 216.475C191.525 217.256 191.417 218.961 191.011 220.499C190.132 223.822 187.04 230.934 185.417 233.365C182.869 237.181 180.193 238.412 174.183 238.532C172.591 238.564 171.807 238.537 171.247 238.43Z" fill="white"/>
<path d="M232.581 293.038C231.875 292.786 231.28 291.986 230.97 290.872C230.841 290.404 230.829 290.287 230.83 289.457C230.83 288.391 230.915 287.984 231.303 287.182C231.577 286.613 232.03 286.113 232.44 285.926C232.799 285.763 233.325 285.767 233.672 285.936C234.088 286.138 234.536 286.633 234.807 287.192C235.172 287.944 235.273 288.435 235.273 289.457C235.273 290.479 235.172 290.969 234.807 291.721C234.532 292.287 234.064 292.807 233.671 292.98C233.326 293.133 232.908 293.155 232.581 293.038Z" fill="white"/>
<path d="M232.105 322.281C231.299 321.878 230.406 321.06 229.382 319.788C227.271 317.163 226.28 315.228 225.449 312.109C223.744 305.707 223.5 297.302 224.935 294.375C225.585 293.048 226.454 292.868 227.552 293.835C229.665 295.695 231.895 301.889 233.676 310.847C234.39 314.44 234.642 316.179 234.716 318.038C234.833 320.954 234.232 322.588 233.042 322.589C232.866 322.59 232.445 322.451 232.105 322.281Z" fill="white"/>
<path d="M261.48 313.977C258.967 312.626 250.261 303.372 244.411 295.834C242.063 292.807 240.441 290.343 240.078 289.248C239.768 288.317 240.155 286.835 240.861 286.241C242.042 285.247 244.476 285.857 247.555 287.918C253.065 291.608 258.506 298.434 260.348 303.971C261.27 306.74 262.236 310.943 262.347 312.669C262.45 314.258 262.333 314.435 261.48 313.977Z" fill="white"/>
<path d="M167.263 381.762C166.643 381.682 166.276 381.496 165.881 381.064C165.288 380.415 164.947 379.239 164.779 377.265C164.578 374.901 164.782 368.078 165.182 363.804C165.724 358.006 166.775 353.82 167.963 352.724C168.389 352.332 168.681 352.321 169.083 352.685C170.137 353.637 170.862 357.122 171.146 362.607C171.247 364.54 171.195 372.975 171.073 374.558C170.792 378.212 170.385 379.966 169.586 380.982C169.309 381.333 168.716 381.675 168.288 381.73C168.107 381.753 167.892 381.782 167.812 381.794C167.732 381.805 167.485 381.791 167.263 381.762Z" fill="white"/>
<path d="M144.621 381.757C144.121 381.693 143.78 381.537 143.41 381.205C141.197 379.212 141.049 372.432 142.944 359.744C143.643 355.065 144.439 352.315 145.327 351.513C145.64 351.23 145.741 351.209 146.039 351.363C146.993 351.856 147.809 355.41 148.168 360.631C148.472 365.069 148.419 372.355 148.054 376.095C147.637 380.379 146.643 382.018 144.621 381.757Z" fill="white"/>
<path d="M170.555 398.977C170.455 398.959 170.131 398.83 169.837 398.689C167.752 397.695 166.832 394.457 167.985 392.172C169.09 389.984 171.213 389.271 173.152 390.435C174.051 390.974 174.844 391.969 175.17 392.967C175.424 393.742 175.415 394.902 175.149 395.609C174.885 396.311 174.544 396.846 173.964 397.471C173.005 398.503 172.063 399.033 171.214 399.018C170.952 399.013 170.656 398.995 170.555 398.977Z" fill="white"/>
<path d="M140.116 398.379C139.1 398.054 138.223 397.065 137.784 395.75C136.682 392.448 139.356 389.17 143.033 389.314C143.962 389.351 144.353 389.503 144.889 390.037C145.532 390.678 145.797 391.506 145.731 392.665C145.528 396.228 142.625 399.182 140.116 398.379Z" fill="white"/>
<path d="M82.2085 432.995C70.7837 432.884 56.161 432.394 45.8944 431.778C40.8633 431.477 22.0958 429.892 21.9612 429.757C21.9013 429.697 30.2043 423.862 32.962 422.026C40.2168 417.196 49.9542 413.248 59.1372 411.414C71.6024 408.925 85.632 409.455 97.7875 412.875C112.883 417.122 132.454 426.449 134.31 430.281C134.629 430.939 134.625 430.972 134.18 431.205C132.52 432.075 124.301 432.615 107.97 432.928C98.2848 433.114 95.2023 433.122 82.2085 432.995Z" fill="white"/>
<path d="M74.0353 461.755C64.0975 461.657 45.8091 461.259 33.0655 460.864C25.8389 460.64 19.5305 460.455 19.0468 460.454L18.1674 460.45V437.896L18.633 437.897C18.889 437.897 30.6446 438.081 44.7564 438.306C58.8682 438.531 76.4665 438.811 83.8638 438.928C91.2611 439.046 102.854 439.232 109.625 439.341C116.397 439.451 126.094 439.604 131.175 439.681L140.413 439.822L140.538 438.083C140.606 437.126 140.805 432.713 140.98 428.274C141.388 417.89 141.776 413.575 142.645 409.775C143.002 408.211 143.656 406.651 143.955 406.651C144.927 406.651 145.62 413.738 145.633 423.825C145.64 429.449 145.049 458.17 144.88 460.398L144.766 461.899L111.832 461.851C93.7181 461.825 76.7097 461.782 74.0353 461.755Z" fill="white"/>
<path d="M258.916 465.193C224.542 464.806 193.57 464.215 183.184 463.747C180.453 463.625 175.146 463.368 171.39 463.177L164.562 462.83L164.575 443.069C164.588 423.123 164.735 417.554 165.409 411.636C165.736 408.762 166.232 406.843 166.686 406.698C167.098 406.566 167.725 408.244 168.067 410.392C168.663 414.135 168.804 417.76 168.804 429.319V440.96L170.925 441.079C172.091 441.144 177.189 441.296 182.253 441.416C192.444 441.657 200.092 441.937 205.118 442.253C214.943 442.871 230.512 443.152 268.693 443.4L290.057 443.538V465.416L281.419 465.382C276.667 465.364 266.541 465.278 258.916 465.193Z" fill="white"/>
<path d="M237.19 437.281C200.429 436.372 194.143 436.142 185.874 435.404C181.032 434.972 176.474 434.255 176.084 433.864C175.795 433.575 176.451 432.535 177.759 431.21C182.203 426.708 190.282 422.184 199.324 419.135C219.961 412.177 245.304 412.553 262.092 420.068C267.363 422.428 278.145 429.183 282.281 432.717C283.96 434.151 285.505 436.049 285.505 436.676C285.505 436.904 285.315 437.106 285.04 437.172C281.625 437.991 267.208 438.023 237.19 437.281Z" fill="white"/>
<path d="M194.824 337.393C193.396 337.03 192.917 335.583 193.408 333.117C193.802 331.139 194.617 329.346 195.59 328.321C196.537 327.325 197.321 327.497 197.981 328.847C198.642 330.197 198.896 332.561 198.545 334.1C198.187 335.668 197.312 336.919 196.298 337.315C195.95 337.451 195.205 337.49 194.824 337.393Z" fill="white"/>
<path d="M205.357 334.972C204.989 334.904 204.702 334.734 204.383 334.392C203.208 333.137 202.993 330.64 203.912 328.916C204.159 328.452 204.571 328.029 204.965 327.835C205.257 327.691 205.334 327.676 205.646 327.694C206.343 327.734 206.924 328.198 207.343 329.048C207.736 329.847 207.803 330.183 207.802 331.358C207.801 332.31 207.793 332.393 207.659 332.83C207.209 334.298 206.299 335.146 205.357 334.972Z" fill="white"/>
<path d="M205.079 344.803C204.112 344.662 202.686 343.608 202.235 342.703C201.42 341.066 202.468 338.694 204.391 337.822C204.812 337.631 205.498 337.492 205.83 337.532C206.715 337.637 207.439 338.581 207.735 340.016C207.88 340.72 207.854 342.072 207.683 342.713C207.282 344.215 206.322 344.985 205.079 344.803Z" fill="white"/>
<path d="M204.885 354.609C204.209 354.421 203.557 354.023 202.902 353.4C201.881 352.428 201.248 351.343 201.106 350.318C200.957 349.25 201.479 348.276 202.457 347.797C203.091 347.486 203.401 347.424 204.342 347.423C205.128 347.421 205.188 347.429 205.532 347.565C206.543 347.968 207.275 348.747 207.67 349.842C207.795 350.191 207.804 350.272 207.804 351.171C207.805 352.009 207.79 352.182 207.686 352.565C207.327 353.888 206.595 354.614 205.568 354.667C205.308 354.681 205.07 354.66 204.885 354.609Z" fill="white"/>
<path d="M203.54 362.012C202.471 361.774 201.587 361.176 201.234 360.452C201.104 360.184 201.085 360.087 201.084 359.68C201.083 359.281 201.103 359.172 201.222 358.917C201.553 358.212 202.427 357.582 203.393 357.353C205.12 356.945 207.057 357.634 207.666 358.874C207.792 359.131 207.808 359.22 207.807 359.68C207.807 360.147 207.792 360.225 207.66 360.476C207.274 361.214 206.408 361.793 205.374 362.007C204.922 362.1 203.95 362.103 203.54 362.012Z" fill="white"/>
<path d="M212.67 362.012C211.589 361.764 210.756 361.188 210.38 360.43C210.256 360.181 210.239 360.085 210.239 359.654C210.239 359.193 210.25 359.143 210.416 358.836C210.774 358.176 211.559 357.617 212.479 357.368C213.056 357.212 214.161 357.213 214.736 357.37C215.807 357.662 216.629 358.319 216.904 359.099C217.046 359.504 217.009 360.053 216.812 360.456C216.511 361.072 215.847 361.586 214.969 361.885C214.523 362.036 214.415 362.052 213.731 362.067C213.223 362.078 212.88 362.06 212.67 362.012Z" fill="white"/>
<path d="M214.533 354.688C213.75 354.577 212.989 353.656 212.656 352.415C212.539 351.98 212.523 351.818 212.521 351.067C212.519 350.046 212.619 349.554 212.982 348.808C214.059 346.589 216.127 347.053 216.843 349.675C216.947 350.053 216.962 350.232 216.963 351.041C216.964 352.129 216.883 352.528 216.499 353.321C216.033 354.285 215.298 354.796 214.533 354.688Z" fill="white"/>
<path d="M214.3 344.778C213.05 344.381 212.241 342.279 212.566 340.274C212.763 339.064 213.344 338.081 214.095 337.69C214.458 337.501 214.975 337.484 215.334 337.65C216.316 338.102 216.988 339.539 216.988 341.187C216.988 343.504 215.701 345.224 214.3 344.778Z" fill="white"/>
<path d="M223.556 347.274C222.772 347.055 222.103 346.228 221.793 345.092C221.624 344.473 221.623 343.186 221.792 342.428C221.997 341.51 222.352 340.649 222.826 339.92C223.129 339.456 223.775 338.807 224.08 338.661C225.255 338.101 226.147 339.661 226.144 342.273C226.142 344.977 225.215 347.153 223.996 347.313C223.884 347.328 223.686 347.31 223.556 347.274Z" fill="white"/>
<path d="M213.86 334.498C213.33 334.243 212.882 333.576 212.637 332.677C212.54 332.323 212.524 332.128 212.524 331.332C212.524 330.54 212.54 330.339 212.635 329.987C212.81 329.341 213.112 328.775 213.445 328.471C213.968 327.993 214.492 327.933 215.197 328.269C216.393 328.838 217.355 330.213 217.351 331.348C217.348 332.213 216.716 333.351 215.897 333.967C215.084 334.578 214.398 334.757 213.86 334.498Z" fill="white"/>
<path d="M52.0503 202.708C48.7611 201.68 44.8038 196.971 43.0651 192.018C42.2131 189.591 41.4846 183.23 41.0206 174.169C40.3732 161.525 39.3835 152.222 38.0801 146.525C37.6395 144.6 37.478 144.676 33.3273 148.755C28.5037 153.496 25.9407 154.727 20.9069 154.723C11.5509 154.715 4.90541 143.629 5.56515 129.13C5.93278 121.052 9.08235 114.339 14.4131 110.273C19.8827 106.101 21.0692 106.074 28.6389 109.943C32.2972 111.812 35.6511 113.342 36.0919 113.342C36.5844 113.342 36.8935 106.379 36.8935 95.2851C36.8935 69.5096 38.2657 63.9134 45.4373 60.4417C50.8255 57.8332 55.1237 57.2852 87.9494 55.0216C132.644 51.9395 139.525 50.9901 139.525 47.905C139.525 45.4913 133.043 38.8408 128.887 36.9912C126.445 35.9041 124.4 35.5538 122.537 35.9032C118.544 36.6523 118.215 35.0774 121.68 31.8088C125.799 27.9239 129.512 27.3451 135.751 29.6151C141.247 31.6149 141.973 31.2735 141.995 26.6803C142.011 23.3878 145.56 13.4239 147.357 11.6273C149.115 9.87035 149.907 11.1277 150.57 16.7243C151.021 20.5317 154.991 33.8849 155.672 33.8849C155.829 33.8849 156.867 31.8958 157.98 29.4646C160.537 23.8812 164.05 21.286 169.685 20.8187C173.497 20.5025 174.193 20.7182 176.589 22.9558C180.86 26.9455 180.335 28.2658 174.062 29.309C167.939 30.3273 161.93 38.0095 161.89 44.8694C161.859 50.2568 161.709 50.2459 200.649 47.69C219.609 46.4456 239.319 45.4375 244.451 45.4499L253.78 45.4724L257.55 48.9471C263.979 54.8727 264.51 56.7523 266.56 80.8264C267.266 89.1181 268.063 96.4741 268.331 97.1731C269.111 99.2064 270.406 98.6898 275.537 94.2981C279.605 90.8159 280.89 90.167 283.716 90.167C298.148 90.167 306.603 117.792 296.304 131.295C291.897 137.073 282.363 139.478 278.636 135.752C275.634 132.749 273.568 132.063 272.063 133.568C270.895 134.735 270.651 138.214 270.275 159.1C269.823 184.174 269.708 184.967 266.028 188.399C260.577 193.481 253.424 194.195 146.974 200.288C99.7042 202.994 56.4864 204.096 52.0503 202.708ZM162.687 186.318C165.907 183.098 168.419 174.47 169.355 163.417C170.215 153.267 169.569 146.632 167.601 145.392C165.6 144.13 161.604 147.014 162.222 149.274C164.363 157.111 165.351 164.824 164.955 170.608C164.411 178.546 162.583 182.155 158.705 182.949C156.217 183.457 155.893 183.265 154.443 180.423C151.783 175.21 150.003 164.34 150.546 156.637C150.934 151.148 150.78 149.546 149.77 148.536C147.231 145.997 143.663 147.818 143.664 151.651C143.665 154.814 146.834 168.174 149.814 177.582C153.165 188.163 157.738 191.267 162.687 186.318ZM110.877 159.712C125.779 157.272 138.287 145.222 142.431 129.314C144.024 123.196 144.007 111.701 142.396 105.514C139.351 93.8219 130.499 82.777 120.092 77.6826C114.534 74.9621 113.954 74.855 104.78 74.855C95.3963 74.855 95.1403 74.9058 88.7152 78.0451C83.598 80.5452 80.2866 83.0589 73.4032 89.668C64.1247 98.5768 60.8876 100.914 55.5161 102.582C50.456 104.153 50.4203 104.807 55.3612 105.424C62.4354 106.308 62.7413 106.753 63.4304 117.159C63.7586 122.116 64.4762 127.835 65.0251 129.869C67.8845 140.466 76.6077 152.203 85.0308 156.787C91.0912 160.086 101.442 161.257 110.877 159.712ZM217.505 155.566C233.208 150.716 245.024 136.33 248.108 118.308C248.913 113.6 248.803 111.972 247.222 105.266C244.994 95.8187 245.392 94.6987 251.269 93.8905C253.564 93.5748 256.032 92.7262 256.754 92.0047C257.951 90.8074 257.935 90.5977 256.574 89.6023C255.754 89.0025 253.196 88.5117 250.89 88.5117C244.209 88.5117 241.723 87.3674 236.159 81.7301C226.767 72.2163 213.084 67.3326 201.49 69.3563C181.791 72.7945 166.898 91.3821 166.85 112.589C166.834 119.765 169.446 129.721 173.021 136.114C178.293 145.541 188.972 154.175 197.973 156.288C203.619 157.614 211.862 157.309 217.505 155.566Z" fill="white"/>
<path d="M204.707 117.342C203.955 116.751 203.6 115.85 203.44 114.129C203.252 112.102 203.64 110.433 204.5 109.573C205.092 108.981 205.317 108.893 206.242 108.893C208.164 108.893 209.841 109.928 210.694 111.641C211.303 112.861 211.351 113.563 210.901 114.642C209.893 117.059 206.324 118.615 204.707 117.342Z" fill="white"/>
<path d="M102.953 122.942C100.415 122.554 98.3622 119.934 98.7408 117.566C99.2285 114.516 102.226 112.614 104.616 113.839C105.51 114.298 106.113 114.917 106.651 115.929C107.223 117.005 107.169 119.639 106.549 120.92C105.704 122.667 104.732 123.214 102.953 122.942Z" fill="white"/>
<path d="M99.6931 157.169C97.8444 156.971 95.2461 156.407 93.0717 155.733C84.6461 153.118 77.7642 147.557 72.9755 139.492C68.9134 132.651 68.4158 129.149 69.179 112.773L69.5528 104.755L70.0869 104.752C70.3807 104.75 76.8111 104.43 84.3766 104.04C91.9422 103.651 98.146 103.349 98.1629 103.371C98.1798 103.392 97.8157 105.458 97.3537 107.962C96.5329 112.411 96.5138 112.62 96.5104 117.17C96.5061 120.676 96.5959 122.337 96.867 123.894C98.3463 132.392 101.184 138.069 103.952 138.069C105.866 138.069 107.958 136.44 109.1 134.061C110.673 130.783 111.326 126.968 111.318 121.102C111.313 117.085 110.991 113.319 109.691 102.091L109.562 100.979L120.302 101.09C133.353 101.225 134.809 101.399 136.737 103.049C138.189 104.291 139.723 108.074 140.785 113.032C141.299 115.426 141.302 120.282 140.792 122.86C140.072 126.503 138.204 131.622 135.936 136.167C133.75 140.549 131.836 143.327 128.869 146.424C123.272 152.268 115.578 156.047 107.148 157.095C105.5 157.299 101.302 157.341 99.6931 157.169Z" fill="white"/>
<path d="M70.2965 100.85C71.0158 99.5059 74.753 93.631 75.5301 92.6226C82.504 83.5735 93.6701 78.3794 104.866 78.9767C109.696 79.2344 115.57 80.343 118.66 81.5802C121.726 82.808 125.394 85.5355 129.5 89.64C132.691 92.831 134.515 95.322 134.414 96.3516C134.357 96.9284 134.267 97.0008 133.421 97.146C131.291 97.5111 122.761 98.2472 113.66 98.851C107.436 99.2639 72.1467 101.237 70.9861 101.237C70.1739 101.237 70.1088 101.201 70.2965 100.85Z" fill="white"/>
<path d="M202.443 152.527C197.308 152.033 191.724 149.919 187.353 146.814C185.331 145.377 181.499 141.617 180.024 139.622C175.505 133.509 172.845 126.242 171.88 117.377C171.499 113.87 171.546 106.197 171.961 104.377C172.434 102.298 173.153 100.815 174.268 99.6241C175.42 98.3917 176.715 97.6667 178.742 97.1182C181.381 96.4041 183.514 96.2712 192.335 96.2712H200.876L200.877 104.289C200.878 112.697 201.087 117.471 201.614 121.102C202.251 125.482 203.542 129.222 204.986 130.866C206.787 132.918 209.292 132.7 211.694 130.284C213.505 128.463 214.209 126.375 214.546 121.826C214.773 118.764 214.739 117.377 214.105 103.73C213.886 99.0126 213.776 95.0938 213.861 95.0216C214 94.9036 237.35 93.5524 238.846 93.5758L239.466 93.5856L240.482 96.9458C242.482 103.559 242.869 104.969 243.187 106.802C245.349 119.266 241.559 131.727 232.871 140.715C226.378 147.432 217.605 151.679 208.429 152.545C205.885 152.785 205.106 152.783 202.443 152.527Z" fill="white"/>
<path d="M175.632 94.0794C175.632 93.871 179.762 87.2766 180.633 86.0938C182.863 83.066 186.913 79.8383 190.858 77.945C204.016 71.6298 220.961 73.4614 230.33 82.2115C233.569 85.2361 235.939 89.355 234.655 89.7267C232.211 90.4341 218.452 91.5198 191.151 93.1594C183.583 93.614 176.995 94.023 176.511 94.0685C176.028 94.114 175.632 94.1189 175.632 94.0794Z" fill="white"/>
<path d="M280.788 171.058C279.058 169.846 278.396 164.979 279.544 161.911C280.026 160.621 280.664 160.113 281.555 160.309C282.354 160.484 283.735 161.871 284.436 163.2C284.92 164.118 284.986 164.482 284.986 166.21C284.986 167.945 284.921 168.3 284.428 169.235C283.417 171.155 281.965 171.882 280.788 171.058Z" fill="white"/>
<path d="M118.227 282.929C118.261 282.788 118.615 280.928 119.013 278.796C120.413 271.306 122.501 265.093 128.668 250.075L131.865 242.29L132.939 242.331C139.964 242.601 159.905 243.418 162.325 243.535C173.58 244.081 182.94 244.776 183.885 245.135C184.586 245.402 185.283 246.672 186.416 249.752C186.771 250.718 187.123 251.654 187.198 251.832C187.273 252.011 187.798 253.647 188.366 255.469C190.834 263.392 192.983 272.171 193.774 277.563C194.147 280.099 194.155 280.727 193.818 281.032C193.235 281.559 190.337 282.091 186.101 282.446C179.042 283.039 170.736 283.182 143.209 283.184C119.432 283.185 118.169 283.172 118.227 282.929Z" fill="#CB4843"/>
<path d="M142.28 343.952C136.914 343.835 131.162 343.406 129.811 343.024C129.266 342.87 129.265 342.869 128.671 341.01C127.197 336.399 123.191 321.358 120.577 310.619C119.169 304.837 118.655 302.363 118.825 302.193C119.315 301.703 126.115 301.221 137.672 300.859C145.593 300.611 181.614 300.613 186.686 300.862C195.554 301.298 197.842 301.837 198.121 303.559C198.296 304.634 195.079 313.419 185.29 338.602L183.342 343.613L181.649 343.616C180.718 343.618 174.261 343.715 167.3 343.832C156.039 344.021 147.325 344.063 142.28 343.952Z" fill="#CB4843"/>
<path d="M99.9228 278.719C99.4281 278.489 97.4354 277.88 96.3746 277.635C92.3945 276.713 87.2652 276.198 82.0828 276.199C78.0463 276.201 75.5124 276.472 74.3498 277.029C74.0365 277.179 73.9875 277.186 73.9597 277.083C73.8769 276.78 72.9434 269.831 72.9804 269.794C73.0034 269.771 73.2811 269.881 73.5972 270.039C74.7266 270.605 76.8639 271.319 79.1097 271.881C80.8842 272.325 82.4464 272.645 86.0862 273.308C93.8486 274.723 97.7366 275.342 100.101 275.54C100.601 275.582 101.025 275.63 101.042 275.648C101.103 275.709 100.292 278.832 100.217 278.826C100.176 278.823 100.043 278.775 99.9228 278.719Z" fill="white"/>
<path d="M101.093 273.779C99.7655 273.022 95.0167 271.448 86.023 268.786C75.4139 265.645 75.4046 265.642 74.6106 265.611C74.1257 265.592 73.7495 265.617 73.4949 265.686C73.2837 265.742 73.1109 265.769 73.1108 265.745C73.1106 265.581 74.1624 260.202 74.2033 260.158C74.2315 260.127 74.5817 260.254 74.9813 260.441C76.9051 261.341 79.8213 262.394 87.2301 264.864C94.626 267.329 97.6521 268.228 100.032 268.666C101.02 268.848 102.703 268.931 103.176 268.821C103.356 268.779 103.516 268.758 103.532 268.773C103.582 268.824 101.608 273.955 101.532 273.971C101.492 273.98 101.294 273.893 101.093 273.779Z" fill="white"/>
<path d="M102.042 265.487C99.3706 264.931 94.8491 263.422 89.2053 261.201C85.4825 259.736 83.4324 259.002 81.0118 258.266C78.8475 257.608 76.1493 256.958 75.5821 256.958C75.4635 256.958 75.3775 256.928 75.3909 256.892C75.5805 256.373 78.4234 249.569 78.4505 249.569C78.4709 249.57 78.7348 249.772 79.0365 250.019C79.8286 250.667 80.4637 251.128 81.719 251.967C84.6153 253.904 86.7935 255.153 92.7168 258.274C96.7621 260.405 100.369 262.555 102.264 263.963C103.153 264.624 103.837 265.279 103.837 265.47C103.837 265.718 103.185 265.724 102.042 265.487Z" fill="white"/>
<path d="M106.141 262.21C105.153 261.221 103.548 260.25 94.8018 255.347C84.5997 249.629 82.619 248.538 80.7557 247.614C80.1522 247.314 79.6621 247.028 79.6667 246.977C79.6715 246.926 80.1813 245.581 80.7999 243.989L81.9248 241.093L82.7302 241.917C84.9276 244.162 88.4682 246.892 93.3605 250.111C99.7876 254.341 105.174 257.616 107.001 258.406C107.553 258.645 107.623 258.658 108.133 258.615L108.676 258.569L108.534 258.806C108.456 258.936 107.973 259.842 107.46 260.817C106.948 261.793 106.524 262.588 106.518 262.584C106.512 262.579 106.342 262.411 106.141 262.21Z" fill="white"/>
<path d="M107.165 255.174C104.995 254.329 101.598 252.05 95.8271 247.566C93.5707 245.813 92.383 244.949 90.4855 243.679C87.3799 241.601 84.5933 240.083 83.0785 239.643C82.8271 239.57 82.6214 239.485 82.6213 239.455C82.6213 239.425 83.4157 237.812 84.3867 235.87C85.8941 232.857 86.1643 232.361 86.234 232.479C86.2789 232.556 86.5103 232.885 86.7483 233.211C88.5786 235.72 92.4421 239.506 97.6183 243.861C100.662 246.422 102.566 248.143 104.574 250.15C107.17 252.744 108.416 254.358 108.358 255.052C108.336 255.31 108.333 255.312 107.97 255.329C107.728 255.34 107.456 255.287 107.165 255.174Z" fill="white"/>
<path d="M110.362 252.475C109.984 251.256 109.245 249.889 108.339 248.731C106.546 246.439 102.658 242.472 99.1546 239.361C94.6033 235.319 89.7382 231.793 87.6492 231.022L87.3002 230.893L87.7242 230.447C88.2649 229.877 89.1256 228.875 90.8118 226.854C91.5504 225.969 92.2124 225.182 92.2832 225.106C92.4078 224.973 92.4191 224.983 92.6407 225.422C93.9723 228.059 99.5336 234.688 105.373 240.597C108.674 243.937 110.947 245.992 112.477 247.018L112.954 247.338L111.799 250.045C111.164 251.534 110.618 252.811 110.587 252.883C110.544 252.981 110.487 252.878 110.362 252.475Z" fill="white"/>
<path d="M113.177 245.485C110.647 241.237 101.022 230.568 95.697 226.108C94.8594 225.407 93.5152 224.458 93.2315 224.368C93.1452 224.34 93.0846 224.291 93.0969 224.257C93.162 224.082 99.0815 217.913 99.0815 218.021C99.0815 218.499 100.107 220.739 101.166 222.574C103.047 225.833 105.108 228.879 108.539 233.471C111.772 237.797 113.889 240.453 115.928 242.743L116.07 242.902L114.884 244.553C114.231 245.461 113.676 246.203 113.65 246.202C113.624 246.201 113.411 245.878 113.177 245.485Z" fill="white"/>
<path d="M116.602 240.77C115.284 238.384 113.785 235.996 108.252 227.476C106.202 224.317 103.959 220.858 103.268 219.789C102.055 217.911 101.553 217.28 101.063 217.018C100.903 216.932 101.056 216.857 103.076 216.024C104.747 215.335 105.283 215.143 105.347 215.209C105.393 215.256 106.894 217.682 108.682 220.599C110.47 223.516 112.404 226.644 112.98 227.549C115.212 231.056 117.99 235.144 119.506 237.151C119.863 237.624 120.17 238.052 120.189 238.102C120.207 238.152 119.671 238.805 118.998 239.553C118.324 240.301 117.621 241.082 117.434 241.288L117.096 241.664L116.602 240.77Z" fill="white"/>
<path d="M196.083 238.998C195.391 238.545 194.824 238.128 194.824 238.073C194.824 237.885 196.339 234.193 197.207 232.269C198.329 229.779 200.343 225.81 202.053 222.719C204.577 218.154 206.967 213.312 207.973 210.723C208.239 210.039 208.363 209.832 208.48 209.877C208.565 209.91 209.869 210.406 211.377 210.979C212.885 211.553 214.139 212.039 214.163 212.06C214.188 212.081 213.947 212.331 213.627 212.616C212.549 213.577 210.72 216.033 209.279 218.457C208.907 219.083 207.234 222.086 205.561 225.131C200.051 235.16 197.463 239.82 197.403 239.821C197.37 239.821 196.776 239.451 196.083 238.998Z" fill="white"/>
<path d="M199.042 242.294L197.829 240.435L201.521 235.912C203.552 233.425 206.697 229.574 208.51 227.355C212.197 222.843 213.273 221.46 214.386 219.802C215.779 217.726 216.964 215.114 216.964 214.117C216.964 213.972 217.005 213.853 217.054 213.853C217.104 213.853 218.378 215.122 219.886 216.673L222.627 219.492L222.083 219.827C221.095 220.437 219.424 221.847 217.7 223.526C214.045 227.087 211.849 229.623 205.288 237.856C202.59 241.242 200.354 244.044 200.319 244.083C200.284 244.122 199.709 243.317 199.042 242.294Z" fill="white"/>
<path d="M203.095 246.579C202.557 246.141 201.854 245.566 201.531 245.3L200.945 244.818L204.48 241.816C210.024 237.107 211.967 235.376 215.352 232.127C219.744 227.912 223.212 223.883 224.309 221.719L224.544 221.256L226.18 224.512C227.08 226.303 227.818 227.815 227.821 227.872C227.824 227.929 227.606 228.114 227.335 228.284C222.41 231.374 209.377 242.06 204.759 246.795C204.448 247.114 204.166 247.374 204.133 247.374C204.1 247.374 203.633 247.016 203.095 246.579Z" fill="white"/>
<path d="M206.458 252.499C206.373 252.296 205.955 251.332 205.529 250.356C205.104 249.381 204.756 248.547 204.756 248.504C204.756 248.461 205.163 248.205 205.661 247.935C207.945 246.696 211.82 244.297 216.912 240.971C222.702 237.189 225.999 234.886 228.531 232.855C229.232 232.293 229.818 231.85 229.834 231.87C230.022 232.112 232.889 237.888 232.851 237.949C232.823 237.995 232.577 238.116 232.305 238.219C232.033 238.321 231.194 238.676 230.442 239.007C222.868 242.342 210.99 249.163 207.261 252.319L206.612 252.868L206.458 252.499Z" fill="white"/>
<path d="M208.966 258.784C208.94 258.739 208.655 257.772 208.333 256.634C208.01 255.496 207.724 254.49 207.697 254.399C207.659 254.271 207.811 254.178 208.349 253.999C210.71 253.212 215.041 251.275 219.809 248.871C223.705 246.907 231.346 242.955 233.228 241.93C233.895 241.567 234.477 241.27 234.523 241.27C234.657 241.27 236.953 245.946 236.86 246.031C236.814 246.073 236.38 246.236 235.897 246.394C233.603 247.141 227.684 249.489 223.615 251.265C216.47 254.385 211.505 256.944 209.29 258.651C209.138 258.768 208.992 258.828 208.966 258.784Z" fill="white"/>
<path d="M210.67 262.516C210.205 261.585 209.825 260.776 209.825 260.72C209.825 260.663 209.907 260.617 210.006 260.617C211.143 260.617 232.022 252.526 237.485 249.969C238.103 249.68 238.626 249.444 238.649 249.444C238.671 249.444 239.225 250.514 239.879 251.821L241.069 254.199L240.785 254.261C239.865 254.462 235.171 255.781 232.861 256.488C225.488 258.744 215.665 262.247 212.455 263.765L211.515 264.209L210.67 262.516Z" fill="white"/>
<path d="M214.877 267.855C212.769 265.816 212.655 265.687 212.963 265.684C213.372 265.681 214.116 265.508 218.205 264.465C221.748 263.562 225.065 262.788 231.862 261.281C236.576 260.236 239.069 259.586 241.531 258.758C242.383 258.472 243.093 258.238 243.109 258.238C243.158 258.238 244.794 261.54 244.794 261.639C244.794 261.69 244.583 261.764 244.324 261.802C243.195 261.972 233.769 264.585 227.465 266.476C224.206 267.454 220.065 268.837 218.516 269.466C217.861 269.731 217.279 269.965 217.222 269.986C217.165 270.006 216.11 269.047 214.877 267.855Z" fill="white"/>
<path d="M217.819 273.892C217.58 272.259 217.394 270.914 217.407 270.903C217.419 270.892 218.151 270.828 219.033 270.762C221.05 270.609 222.445 270.43 225.189 269.971C231.912 268.847 240.443 266.818 245.087 265.239L246.415 264.787L248.917 269.795L247.916 269.861C246.109 269.98 242.596 270.628 237.966 271.697C235.097 272.359 232.74 272.969 224.793 275.11C221.219 276.073 218.285 276.861 218.274 276.861C218.263 276.861 218.058 275.525 217.819 273.892Z" fill="white"/>
<path d="M218.679 282.244C218.614 282.004 218.374 278.002 218.422 277.96C218.468 277.919 231.494 277.132 235.117 276.95C238.023 276.805 242.511 276.877 243.087 277.079C243.321 277.161 243.501 277.291 243.501 277.378C243.501 277.601 242.353 278.131 240.966 278.55C237.81 279.503 233.196 280.257 229.172 280.479C223.296 280.802 221.383 281.101 219.589 281.979C218.883 282.325 218.715 282.374 218.679 282.244Z" fill="white"/>
</g>
</g>
<defs>
<clipPath id="clip0_667_398">
<rect width="310" height="475" fill="white"/>
</clipPath>
</defs>
</svg>
