<svg width="311" height="365" viewBox="0 0 311 365" fill="none" xmlns="http://www.w3.org/2000/svg">
<g clip-path="url(#clip0_668_846)">
<path d="M153.619 0C153.624 0.0180852 153.628 0.0369039 153.632 0.0549891L153.788 0.00516472L153.619 0ZM123.233 3.43657C123.198 3.44486 123.165 3.44816 123.13 3.45712C123.166 3.4538 123.205 3.45052 123.239 3.4472C123.238 3.44554 123.235 3.44221 123.233 3.43889L123.233 3.43657ZM122.752 11.8451C122.645 11.8755 122.53 11.9001 122.406 11.9189C122.128 11.9612 121.855 12.028 121.578 12.0783C121.581 12.0787 121.584 12.0787 121.586 12.0792L121.588 12.08L121.589 12.0817C121.558 12.099 121.08 12.1449 121.061 12.1529C121.063 12.1535 121.072 12.1544 121.09 12.1538C120.972 12.1775 120.861 12.2075 120.749 12.2498C120.573 12.3036 120.518 12.3324 120.338 12.4008C120.084 12.474 119.999 12.4976 119.791 12.5543C119.585 12.6164 119.385 12.6935 119.184 12.7703C119.121 12.7853 119.087 12.8026 119.05 12.8253C119.047 12.8286 119.028 12.8436 118.995 12.8708C118.951 12.9242 118.857 13.0359 118.851 13.0432C118.784 13.1371 118.867 13.0182 118.746 13.224C118.794 13.1508 118.748 13.2207 118.697 13.3004C118.683 13.337 118.668 13.38 118.649 13.4298C118.552 13.6986 118.456 13.8435 118.363 13.8971C119.334 15.6983 121.442 16.1485 122.927 14.7107C123.992 13.6799 124.055 13.163 123.215 12.3495C123.05 12.1897 122.892 12.0174 122.752 11.8451ZM119.033 12.8354C119.027 12.8388 119.021 12.8421 119.014 12.8471C119.022 12.8421 119.028 12.8371 119.033 12.8354ZM96.1912 13.9724C95.9863 13.9725 95.782 13.9729 95.5771 13.9733C95.3359 13.9733 95.0942 13.9749 94.8531 13.9765C94.6413 13.9782 94.4299 13.9816 94.2183 13.9915C94.0039 14.0048 93.7902 14.0239 93.5775 14.0541C93.3337 14.0866 93.0901 14.1212 92.8441 14.1312C92.5787 14.1539 92.3136 14.1815 92.0498 14.2187C91.8398 14.2394 91.6296 14.2438 91.4202 14.2684C91.2318 14.2958 91.0444 14.3347 90.8617 14.3886C90.6431 14.4571 90.4224 14.517 90.2081 14.5986C90.0338 14.6589 89.871 14.7039 89.6994 14.7727C89.5747 14.8193 89.4251 14.9066 89.2945 14.9116C89.2972 14.91 89.3033 14.9057 89.3056 14.9041C89.1155 14.9734 88.9216 15.0245 88.7223 15.0592C88.4734 15.1173 88.2222 15.1521 87.9675 15.1707C87.859 15.1856 87.762 15.2003 87.6621 15.2617C87.5762 15.2963 87.4928 15.3429 87.3953 15.4314C87.2589 15.5286 87.1259 15.6295 86.9964 15.7349C87.1606 15.979 87.0922 16.3163 86.939 16.7835C86.5754 17.892 87.7269 20.7504 90.3282 25.1956C98.2218 38.6849 103.899 50.4807 102.498 50.4807C102.042 50.4807 100.807 48.8304 99.7528 46.8135C97.0659 41.6727 82.3225 22.304 80.6127 21.669C75.3936 19.7308 76.7395 23.4901 85.6943 35.8678C90.1667 42.0496 93.5673 47.3576 93.2515 47.6632C92.9358 47.9688 92.0164 47.3065 91.2091 46.191C88.8666 42.9543 76.8494 30.3693 75.2995 29.5299C73.4839 28.5465 71.3219 29.3498 71.3219 31.008C71.3219 31.7174 73.6508 34.7391 76.4978 37.7224C82.8442 44.3726 93.1316 57.271 92.543 57.8406C92.306 58.07 88.1905 54.1646 83.398 49.1628C78.6054 44.161 73.4906 39.4714 72.0313 38.741C66.882 36.1639 64.8546 39.4867 69.5865 42.7477C72.8767 45.0151 91.2243 65.1564 90.5735 65.7863C90.3203 66.0314 88.0288 64.4179 85.4816 62.2015C77.8904 55.596 66.8777 47.8922 65.0265 47.8922C61.6858 47.8922 63.1108 51.1545 67.9781 54.6485C74.0536 59.0098 85.7862 69.5561 85.1968 70.1265C84.9455 70.3697 83.0248 69.2363 80.9284 67.6074C75.4305 63.3358 68.4183 58.6216 65.0694 56.9455C62.6826 55.751 62.0353 55.6992 61.41 56.6541C60.1621 58.5597 60.4091 58.9026 65.7496 62.6782C73.0266 67.8228 84.7761 77.437 84.3227 77.8758C84.1126 78.0792 81.6025 76.7124 78.7453 74.8389C66.255 66.6485 59.7321 64.1615 59.7321 67.5903C59.7321 68.6258 61.7681 70.3223 65.6441 72.5161C71.9378 76.0784 80.5612 82.3786 79.9513 82.9688C79.7498 83.1639 75.8205 81.5494 71.2189 79.3815C62.8043 75.4171 59.5134 74.8341 59.0579 77.2276C58.8954 78.0817 61.3209 79.759 66.1896 82.1595C74.5198 86.2666 80.4217 90.1703 78.3009 90.1703C77.5358 90.1703 73.0261 88.3899 68.2801 86.2141C61.2846 83.007 59.4038 82.4574 58.3433 83.3092C56.4498 84.8301 57.8492 86.105 66.3243 90.5818C74.9248 95.1249 77.3127 96.7394 76.5381 97.4891C76.2214 97.7956 73.0763 96.6408 69.5497 94.922C63.0676 91.7628 59.2861 91.2741 59.2861 93.5964C59.2861 94.5936 71.4864 102.053 75.2446 103.353C75.6854 103.506 75.8859 104.058 75.6898 104.58C75.4604 105.19 72.9934 104.626 68.7725 102.999C63.687 101.038 61.9329 100.694 60.9716 101.466C60.2896 102.014 59.7321 102.798 59.7321 103.21C59.7321 103.621 63.3429 105.714 67.756 107.859C72.169 110.004 75.779 111.943 75.779 112.169C75.779 112.395 73.5747 111.781 70.8801 110.806C60.7626 107.142 58.2816 110.392 67.8984 114.712L74.4417 117.651L69.7615 117.165C65.5702 116.729 65.0814 116.85 65.0814 118.329C65.0814 119.238 63.2898 121.613 61.1003 123.607C55.9918 128.259 53.9791 134.301 54.5853 143.166C55.5683 157.542 63.8065 166.092 76.6711 166.089C79.1811 166.088 81.6844 165.447 83.3577 164.374C84.8287 163.431 86.2986 162.657 86.6242 162.654C86.9497 162.651 88.64 165.113 90.3805 168.125C92.121 171.137 94.1614 174.096 94.9148 174.702C97.1575 176.503 96.4908 177.981 92.941 179.08C77.307 183.917 64.5764 195.907 55.2449 214.582C50.9825 223.113 50.6112 227.33 53.9368 229.439C56.0624 230.787 56.1654 231.242 56.1654 239.281V247.71L50.594 250.84C47.5293 252.561 41.419 255.57 37.0158 257.526C26.5406 262.18 24.9567 263.652 24.9817 268.712C25.0193 276.288 30.599 283.901 36.8305 284.88C41.5642 285.623 47.5545 283.399 59.2809 276.545C74.9933 267.361 74.0012 267.726 78.8774 269.334C81.4802 270.192 84.7028 270.555 87.4528 270.299C92.3718 269.842 92.1263 269.52 93.1023 277.712C93.7669 283.29 97.4218 289.563 103.475 295.513C109.557 301.491 116.747 304.545 126.897 305.463L133.885 306.095L133.326 308.975C132.56 312.928 128.459 321.409 127.313 321.409C126.799 321.409 123.879 319.147 120.825 316.382C114.119 310.311 103.569 304.279 92.4684 300.171C84.9776 297.398 83.4184 297.126 74.8877 297.104C67.7155 297.085 63.5277 297.584 56.9777 299.237C47.113 301.726 41.7827 304.172 31.1691 311.078C22.4005 316.784 16.7981 321.806 12.5737 327.75C8.58195 333.365 0 351.105 0 353.74C0 355.312 0.965445 356.393 3.78893 357.982C10.4079 361.707 20.3831 363.022 45.436 363.474C78.5047 364.071 93.2428 362.577 129.367 354.967L142.39 352.224L147.198 354.472C158.266 359.646 177.625 363.282 201.038 364.585C217.607 365.507 264.061 364.797 278.633 363.4C290.191 362.291 290.289 362.263 296.701 358.249C300.247 356.028 303.619 353.214 304.193 351.995C306.517 347.057 299.915 328.87 292.591 320.036C287.436 313.819 277.332 307.655 267.24 304.569C256.734 301.357 240.601 299.561 227.339 300.126C214.11 300.69 205.205 302.655 193.201 307.659C188.41 309.656 184.253 311.061 183.965 310.781C183.676 310.502 184.192 309.028 185.111 307.505C186.624 304.997 187.861 304.423 198.242 301.401C213.97 296.824 220.371 292.372 227.027 281.38C233.661 270.425 234.195 260.041 229.113 240.835C227.519 234.812 226.382 229.724 226.586 229.526C226.79 229.329 228.816 229.815 231.089 230.606C234.446 231.774 236.065 231.876 239.718 231.152L244.216 230.26L244.654 233.771C244.895 235.703 245.336 239.419 245.635 242.029C246.783 252.066 250.853 256.697 258.526 256.697C265.962 256.697 269.201 254.223 271.515 246.774C272.56 243.413 272.683 243.33 276.204 243.59C280.792 243.93 284.894 241.911 287.157 238.199C288.492 236.008 289.688 235.217 292.272 234.817C296.412 234.176 298.731 231.858 301.642 225.451C303.334 221.728 304.451 220.384 306.206 219.957C310.944 218.806 312.233 212.536 309.791 202.512C308.154 195.789 306.845 193.302 301.767 187.269C298.259 183.1 297.768 182.006 297.768 178.348C297.768 173.373 295.854 166.811 293.189 162.648L291.254 159.628L290.426 162.001C289.346 165.09 287.962 165.044 287.962 161.919C287.962 158.61 285.718 156.864 279.912 155.659C273.778 154.386 256.289 155.072 242.722 157.119C237.208 157.95 232.466 158.408 232.184 158.135C231.902 157.862 232.515 156.037 233.547 154.081C234.578 152.124 236.043 147.863 236.802 144.611L238.181 138.697L241.783 138.23C246.313 137.642 250.796 133.615 252.959 128.192C255.387 122.104 255.07 107.732 252.362 101.059C248.443 91.4022 240.99 86.1155 234.421 88.3319C232.831 88.8684 231.077 89.3077 230.523 89.3077C229.969 89.3077 228.794 86.5918 227.91 83.2723C225.975 76.0036 219.716 66.2934 213.616 61.0962C211.287 59.1127 206.395 56.0098 202.745 54.2009C195.139 50.4321 195.409 51.7397 199.477 38.4006C202.895 27.193 202.884 27.5434 199.868 24.6237C198.38 23.1842 196.732 22.0069 196.204 22.0069C194.774 22.0069 195.044 24.6766 196.646 26.39C197.926 27.7595 197.845 28.5094 195.707 35.0575C194.42 39 191.794 48.2149 189.869 55.536C187.945 62.857 186.115 69.0825 185.803 69.3703C185.096 70.0242 185.776 56.4246 187.242 40.6324C188.296 29.2626 188.268 28.5658 186.709 27.4625C183.949 25.5096 183.232 26.608 182.619 33.7242C182.295 37.4827 181.392 46.7354 180.613 54.2859C179.833 61.8364 179.196 70.2554 179.196 72.9945C179.196 77.2744 179.456 78.0545 181.043 78.5421C182.188 78.8938 183.485 78.5874 184.456 77.7369C185.318 76.9823 186.703 76.3651 187.535 76.3651C189.306 76.3651 190.153 74.4323 192.717 64.5379C193.758 60.5204 195.134 57.0379 195.775 56.7998C197.748 56.0671 205.623 60.8254 210.864 65.9166C217.605 72.4659 221.577 80.4675 223.332 91.0336C224.081 95.5419 224.909 100.516 225.174 102.087C225.59 104.55 225.971 104.907 227.931 104.676C229.733 104.463 230.54 103.547 231.825 100.259C232.716 97.9781 233.926 95.5509 234.513 94.8662C235.629 93.5649 238.651 93.2421 241.122 94.1598C245.516 95.7916 249.643 112.608 247.903 121.789C246.777 127.73 244.534 131.053 241.405 131.418C239.555 131.633 238.73 130.98 236.774 127.751C234.179 123.465 233.807 123.27 231.421 124.959C229.953 125.998 229.911 126.525 230.953 131.028C232.997 139.87 229.522 151.721 222.944 158.336C220.114 161.182 217.729 162.188 201.485 167.391C180.447 174.129 165.789 179.462 158.202 183.139L152.896 185.71L138.186 185.039C122.771 184.335 119.118 183.657 112.029 180.185C102.963 175.745 97.5206 168.905 92.2436 155.32C90.6037 151.098 89.8589 150.138 88.2248 150.138C86.6034 150.138 85.9852 150.912 85.0004 154.181C82.9226 161.077 77.28 163.497 70.0729 160.583C59.548 156.327 56.1271 136.723 64.3308 127.68C66.5108 125.277 67.6923 124.687 70.2994 124.702C73.6909 124.722 80.4659 127.262 81.5168 128.908C82.2395 130.04 83.7909 130.115 85.4473 129.099C86.4202 128.503 86.2105 127.196 84.333 122.159C82.5096 117.267 82.0195 114.358 82.0195 108.419C82.0195 94.0736 86.4303 83.4757 96.1989 74.3484C104.579 66.5188 111.529 63.4224 120.729 63.4224C124.388 63.4224 127.624 63.0447 127.919 62.583C128.424 61.7918 115.519 23.7953 113.03 18.7461C112.261 17.1866 111.052 16.3064 109.428 16.1251C106.028 15.7454 106.196 17.5347 110.617 28.7496C112.616 33.8205 115.359 41.4638 116.714 45.7348C118.069 50.0058 119.47 54.3739 119.827 55.4417C120.184 56.5094 120.111 57.3828 119.665 57.3828C119.219 57.3828 117.733 54.5676 116.363 51.1271C111.032 37.7407 102.25 18.0169 100.656 15.8506L99.5975 14.4119C99.4832 14.3943 99.3686 14.3766 99.2544 14.3545C99.0379 14.3014 98.8283 14.2282 98.6102 14.1821C98.421 14.132 98.2334 14.08 98.0389 14.0536C97.7585 14.032 97.4751 14.0139 97.1974 13.9721H96.7059C96.5342 13.9721 96.3629 13.9724 96.1912 13.9724ZM74.9915 14.6343C74.9673 14.6459 74.9462 14.6595 74.9263 14.6771C74.9296 14.6772 74.9363 14.6771 74.9396 14.6771L74.9413 14.678L74.943 14.6788V14.6806L74.9439 14.6823V14.684L74.943 14.6857C74.9397 14.6907 74.9305 14.6974 74.9272 14.7023C74.9189 14.7123 74.9156 14.7172 74.914 14.7194C74.9206 14.716 74.9627 14.6708 74.9915 14.6343Z" fill="black"/>
<path d="M152.673 10.1601C151.32 9.70331 151.205 7.65243 152.489 6.8843C153.452 6.30878 156.017 7.90412 156.017 9.07809C156.017 9.98186 154.04 10.6215 152.673 10.1601Z" fill="black"/>
<path d="M158.412 11.096C157.151 9.87464 157.865 8.20192 159.648 8.20192C160.894 8.20192 161.402 8.67045 161.208 9.64035C160.89 11.2284 159.368 12.0208 158.412 11.096Z" fill="black"/>
<path d="M132.269 11.2243C131.446 9.14927 133.386 7.57039 135.313 8.74679C137.478 10.0687 137.221 12.0336 134.839 12.3609C133.605 12.5305 132.613 12.0918 132.269 11.2243Z" fill="black"/>
<path d="M165.465 12.7444C164.291 11.6081 165.036 9.92768 166.715 9.92768C167.695 9.92768 168.498 10.4686 168.498 11.1296C168.498 12.4312 166.332 13.584 165.465 12.7444Z" fill="black"/>
<path d="M141.31 13.385C140.652 12.3537 143.003 6.89627 144.49 6.00734C144.988 5.70905 145.931 5.89412 146.584 6.41859C147.56 7.20261 147.569 7.94494 146.633 10.5914C145.486 13.8381 142.575 15.3656 141.31 13.385Z" fill="black"/>
<path d="M172.689 14.5593C171.285 13.2006 172.119 11.5408 174.07 11.809C175.173 11.9607 176.076 12.6618 176.076 13.3671C176.076 14.738 173.728 15.5645 172.689 14.5593Z" fill="black"/>
<path d="M150.408 16.2915C150.06 15.9551 149.776 14.9422 149.776 14.0407C149.776 12.7616 150.314 12.4615 152.228 12.6746C153.991 12.871 154.679 13.4321 154.679 14.6732C154.679 16.4068 151.695 17.5374 150.408 16.2915Z" fill="black"/>
<path d="M178.879 16.4117C178.56 15.6069 178.882 14.836 179.657 14.5481C181.505 13.8618 183.876 14.8882 183.435 16.1835C182.879 17.8178 179.503 17.9869 178.879 16.4117Z" fill="black"/>
<path d="M126.559 16.3555C124.96 14.4903 127.397 12.0982 130.063 12.917C132.266 13.5937 132.578 16.4106 130.535 17.1694C128.431 17.9507 127.82 17.8254 126.559 16.3555Z" fill="black"/>
<path d="M158.784 18.6298C157.341 17.7457 158.09 15.0983 159.778 15.1178C160.406 15.1244 161.496 15.4838 162.2 15.9149C163.261 16.5645 163.28 16.9316 162.314 18.0588C160.979 19.6145 160.514 19.6899 158.784 18.6298Z" fill="black"/>
<path d="M135.997 18.9027C134.662 17.6111 134.643 17.3011 135.824 16.1577C137.639 14.4014 140.169 15.4679 139.809 17.8374C139.436 20.2874 137.878 20.7229 135.997 18.9027Z" fill="black"/>
<path d="M187.22 19.4787C187.22 18.1356 187.789 17.693 189.514 17.693C192.44 17.693 192.18 20.5796 189.217 20.9887C187.7 21.1981 187.22 20.835 187.22 19.4787Z" fill="black"/>
<path d="M166.724 21.5868C165.416 20.0611 166.14 17.693 167.915 17.693C169.7 17.693 171.467 20.0206 170.854 21.5649C170.194 23.231 168.143 23.2419 166.724 21.5868Z" fill="black"/>
<path d="M144.468 22.4867C142.849 20.5994 144.003 18.3778 146.429 18.7111C147.899 18.9132 148.439 19.5635 148.439 21.1326C148.439 23.6501 146.138 24.4345 144.468 22.4867Z" fill="black"/>
<path d="M175.25 24.8828C174.937 24.0916 175.052 23.0846 175.506 22.6449C176.912 21.2846 179.627 22.3558 179.927 24.3889C180.156 25.9418 179.781 26.3214 178.016 26.3214C176.789 26.3214 175.569 25.6868 175.25 24.8828Z" fill="black"/>
<path d="M153.664 26.7527C152.958 24.9715 153.916 22.87 155.434 22.87C157.218 22.87 158.985 25.1975 158.373 26.7418C157.705 28.4275 154.331 28.4347 153.664 26.7527Z" fill="black"/>
<path d="M133.333 64.9568C132.57 63.9021 131.945 62.7271 131.945 62.3457C131.945 61.9643 128.736 53.1067 124.813 42.6622C117.674 23.6527 116.712 19.8989 118.795 19.1758C120.196 18.6897 123.03 20.0532 123.03 21.2132C123.03 21.6921 126.642 31.5444 131.057 43.1071C135.471 54.6699 138.839 64.7477 138.539 65.5024C137.754 67.4824 134.948 67.1884 133.333 64.9568Z" fill="black"/>
<path d="M173.296 79.6524C172.491 78.3912 170.876 28.0463 171.618 27.3283C171.91 27.0454 172.832 27.23 173.667 27.7385C174.703 28.3701 175.247 30.0014 175.383 32.885C175.493 35.207 175.994 44.3024 176.498 53.097C177.001 61.8916 177.413 71.6955 177.413 74.8834C177.413 80.0458 177.224 80.6798 175.683 80.6798C174.731 80.6798 173.657 80.2175 173.296 79.6524Z" fill="black"/>
<path d="M166.743 78.7385C166.289 77.6707 165.237 69.2257 164.405 59.9719C162.002 33.2369 161.902 30.2696 163.359 29.0994C164.349 28.3042 165.005 28.3403 166.307 29.2615C167.753 30.2847 167.834 30.7606 166.9 32.7447C166.009 34.6371 166.31 38.8357 168.605 56.531C170.138 68.3495 171.155 78.6178 170.864 79.3495C170.084 81.3182 167.689 80.9631 166.743 78.7385Z" fill="black"/>
<path d="M160.601 79.6641C160.178 78.5618 159.546 75.1362 159.196 72.0515C158.847 68.9669 156.963 59.066 155.01 50.0494C150.537 29.3956 150.684 31.0671 153.342 31.0671C155.54 31.0671 155.636 31.3755 160.22 53.0692C162.778 65.1705 164.784 76.4272 164.678 78.0842C164.444 81.759 161.799 82.7839 160.601 79.6641Z" fill="black"/>
<path d="M177.413 98.0449C177.413 95.5947 179.819 89.5079 181.913 86.6626C185.138 82.2793 189.286 83.7518 191.2 89.9595C191.968 92.4496 189.63 93.4893 187.625 91.549C185.404 89.3999 184.698 89.8323 182.121 94.9165C179.739 99.6175 177.413 101.163 177.413 98.0449Z" fill="black"/>
<path d="M157.089 98.6629C156.254 97.1642 154.473 94.7375 153.132 93.2702C150.33 90.2036 149.437 90.7964 148.522 96.3297C148.219 98.1625 147.737 99.6621 147.451 99.6621C147.165 99.6621 145.733 98.9826 144.269 98.1522C141.845 96.7776 141.655 96.344 142.151 93.316C143.246 86.6203 146.99 82.9121 151.111 84.4425C152.773 85.0598 152.81 83.4494 151.265 77.6599C150.162 73.5276 149.966 73.3275 146.602 72.9143L143.089 72.4829L140.548 65.1489C130.761 36.8995 128.383 27.8385 129.812 24.235C130.969 21.3155 135.74 23.9944 134.903 27.0936C134.435 28.824 147.212 67.8475 147.742 66.3082C147.907 65.8282 146.465 59.2391 144.536 51.6657C141.402 39.3587 140.483 34.2813 140.77 30.8513C140.887 29.4542 143.949 29.4542 145.088 30.8513C145.571 31.4445 145.98 33.0947 145.996 34.5183C146.024 37.001 157.198 79.0399 158.281 80.7352C159.343 82.3989 157.697 84.9939 155.579 84.9939C153.506 84.9939 153.524 85.0704 156.93 90.8181C161.177 97.9861 162.192 101.388 160.084 101.388C159.272 101.388 157.925 100.162 157.089 98.6629Z" fill="black"/>
<path d="M233.262 111.526C232.562 108.933 233.536 103.36 234.878 102.281C235.612 101.692 236.478 101.788 237.599 102.581C239.162 103.687 239.17 103.898 237.749 106.795C236.927 108.473 236.254 110.66 236.254 111.656C236.254 114.078 233.925 113.977 233.262 111.526Z" fill="black"/>
<path d="M200.24 122.329C199.334 121.452 198.586 122.773 199.329 123.937C199.891 124.817 200.101 124.817 200.403 123.94C200.61 123.341 200.536 122.616 200.24 122.329Z" fill="black"/>
<path d="M207.725 125.174C207.725 123.788 204.661 122.556 203.275 123.385C201.89 124.214 202.207 125.378 203.936 125.815C206.864 126.556 207.725 126.41 207.725 125.174Z" fill="black"/>
<path d="M217.122 125.939C215.213 124.542 213.828 124.654 213.278 126.248C213.052 126.906 213.99 127.263 215.897 127.245C218.716 127.219 218.779 127.152 217.122 125.939Z" fill="black"/>
<path d="M185.883 136.148C181.662 135.166 182.574 134.137 187.232 134.626C195.327 135.475 199.724 131.576 197.66 125.378C197.007 123.415 196.096 122.888 191.83 122.002C184.979 120.579 183.819 119.902 183.49 117.135C183.089 113.761 180.607 114.024 180.261 117.478C179.977 120.304 178.458 121.196 173.892 121.221C171.145 121.236 172.52 119.767 175.63 119.365C177.692 119.097 177.925 118.585 178.75 112.502C179.241 108.886 180.193 105.294 180.865 104.52C182.169 103.022 185.149 102.689 187.013 103.834C188.58 104.797 189.894 109.656 189.894 114.482C189.894 119.288 189.22 118.982 203.713 120.738C217.499 122.408 221.098 123.406 221.098 125.557C221.098 126.467 220.26 127.646 219.236 128.176C217.919 128.858 217.517 129.689 217.862 131.018C218.683 134.182 217.323 135.169 212.542 134.875C208.832 134.647 208.129 134.322 207.894 132.724C207.712 131.489 208.291 130.492 209.574 129.827C212.209 128.462 210.321 127.296 205.496 127.308C202.196 127.316 201.805 127.58 200.251 130.838C197.908 135.751 192.601 137.712 185.883 136.148Z" fill="black"/>
<path d="M216.04 132.881C215.759 131.304 213.381 130.462 210.905 131.064C208.846 131.564 208.636 131.864 209.576 132.961C210.803 134.391 216.298 134.323 216.04 132.881Z" fill="white"/>
<path d="M140.016 135.525C137.675 132.795 143.74 128.172 148.186 129.297C149.518 129.634 150.842 129.193 152.2 127.958C153.315 126.945 154.517 126.397 154.873 126.741C155.228 127.085 154.978 127.69 154.316 128.086C152.776 129.007 153.845 130.724 155.96 130.724C158.156 130.724 159.748 128.693 159.01 126.833C158.582 125.753 158.771 125.429 159.663 125.717C160.361 125.942 160.92 127.241 160.92 128.639C160.92 130.838 160.49 131.258 157.511 131.97C155.125 132.541 153.602 132.483 152.437 131.779C151.056 130.944 150.681 131.048 150.241 132.391C149.703 134.032 144.802 136.764 142.395 136.764C141.671 136.764 140.601 136.206 140.016 135.525Z" fill="black"/>
<path d="M146.903 133.695C147.993 132.956 148.884 131.985 148.884 131.538C148.884 130.088 143.856 130.677 142.334 132.304C139.749 135.069 143.287 136.146 146.903 133.695Z" fill="white"/>
<path d="M118.376 135.483C122.034 132.889 136.687 126.558 144.427 124.228C148.595 122.973 152.557 121.779 153.232 121.574C154.17 121.291 154.318 120.172 153.859 116.823C153.12 111.434 154.442 107.21 157.337 105.711C161.62 103.492 166.332 108.787 167.33 116.942C167.822 120.964 167.722 121.233 165.424 122.078C162.401 123.191 161.734 122.801 161.057 119.525C160.443 116.554 157.8 115.885 157.8 118.701C157.8 121.463 156.135 123.821 154.186 123.821C151.254 123.821 132.793 129.879 126.596 132.874C123.409 134.414 119.798 135.956 118.573 136.299L116.344 136.923L118.376 135.483Z" fill="black"/>
<path d="M126.69 139.03C123.835 135.7 132.126 130.673 136.276 133.218C138.089 134.33 136.693 137.437 133.71 138.93C130.507 140.533 128.009 140.569 126.69 139.03Z" fill="black"/>
<path d="M133.53 137.146C136.22 135.323 136.021 134.175 133.015 134.175C130.351 134.175 128.379 135.533 128.379 137.368C128.379 138.898 131.12 138.78 133.53 137.146Z" fill="white"/>
<path d="M74.2526 142.629C73.7438 142.013 72.6654 140.247 71.856 138.705C70.3579 135.85 68.267 135.031 67.4545 136.979C67.2072 137.573 66.9732 137.05 66.9345 135.819C66.837 132.72 69.7098 130.362 72.6991 131.088C77.3555 132.219 81.5828 138.809 79.6086 141.858C78.4592 143.634 75.4409 144.069 74.2526 142.629Z" fill="black"/>
<path d="M135.105 143.022C134.356 141.134 138.304 137.626 141.178 137.626C143.372 137.626 145.318 139.098 145.318 140.757C145.318 144.235 136.372 146.218 135.105 143.022Z" fill="black"/>
<path d="M141.811 142.773C144.216 141.527 144.004 139.352 141.477 139.352C138.83 139.352 135.944 141.386 136.765 142.673C137.553 143.906 139.547 143.946 141.811 142.773Z" fill="white"/>
<path d="M179.374 159.888C177.648 158.217 178.138 155.891 180.538 154.37C183.233 152.661 185.437 153.896 185.437 157.116C185.437 160.119 181.482 161.928 179.374 159.888Z" fill="black"/>
<path d="M106.994 42.1025C105.207 35.8594 99.6834 22.9264 97.5012 19.8739C96.8319 18.9379 96.2844 17.2877 96.2844 16.2069C96.2844 14.6074 95.7965 14.2417 93.6624 14.2417C92.2204 14.2417 90.8204 14.5865 90.5513 15.0077C90.2823 15.429 92.3648 19.4357 95.1792 23.9112C97.9936 28.3868 102.058 35.8177 104.21 40.4246C106.363 45.0314 108.263 48.6663 108.433 48.5021C108.602 48.3378 107.955 45.4581 106.994 42.1025Z" fill="white"/>
<path d="M284.269 181.393C288.526 178.133 291.295 174.728 289.691 174.728C289.115 174.728 287.32 175.796 285.702 177.101C284.084 178.406 281.716 180.178 280.44 181.038C279.163 181.898 278.351 182.965 278.635 183.41C279.465 184.709 280.358 184.389 284.269 181.393Z" fill="white"/>
<path d="M136.102 194.968C141.823 191.723 141.192 190.529 133.506 190.056C129.951 189.838 126.695 189.955 126.27 190.317C125.394 191.065 129.878 197.162 131.304 197.162C131.816 197.162 133.975 196.175 136.102 194.968Z" fill="white"/>
<path d="M84.2085 219.38C85.3999 216.888 86.8993 214.252 87.5405 213.521C89.9975 210.719 95.3985 207.385 100.798 205.337C107.187 202.914 109.995 200.692 112.398 196.156C113.32 194.416 115.292 192.154 116.78 191.129C118.268 190.103 119.288 188.956 119.048 188.58C118.807 188.203 116.207 187.025 113.27 185.962C110.332 184.899 107.466 183.489 106.901 182.83C105.339 181.009 98.285 181.408 92.6968 183.633C83.3915 187.338 75.1022 194.126 68.5109 203.439C64.9292 208.5 59.7339 218.374 59.7326 220.124C59.7322 220.705 62.6575 221.314 67.1456 221.666C71.2232 221.986 75.7365 222.589 77.1753 223.005C81.5623 224.274 81.9686 224.064 84.2085 219.38Z" fill="white"/>
<path d="M238.735 224.289C240.468 223.114 243.386 218.843 243.386 217.481C243.386 216.529 241.267 217.056 236.142 219.282C232.595 220.823 230.905 222.053 230.905 223.093C230.905 225.773 235.508 226.476 238.735 224.289Z" fill="white"/>
<path d="M185.998 196.602C192.377 193.817 192.387 193.81 190.76 192.814C188.809 191.62 185.391 191.815 180.469 193.401C174.392 195.361 173.243 196.326 175.274 197.764C177.622 199.425 180.163 199.15 185.998 196.602Z" fill="black"/>
<path d="M197.027 203.133L202.822 200.478L199.91 197.957C196.28 194.814 192.874 194.713 186.551 197.562C183.977 198.722 181.871 199.889 181.871 200.154C181.871 201.326 187.836 205.742 189.449 205.764C190.429 205.778 193.839 204.594 197.027 203.133Z" fill="black"/>
<path d="M170.715 204.457C176.137 201.382 177.094 200.108 174.855 198.948C171.827 197.38 168.237 197.945 163.693 200.706L159.334 203.355L161.91 204.998C165.257 207.133 166.086 207.082 170.715 204.457Z" fill="black"/>
<path d="M179.003 211.467C181.316 210.319 184.01 208.768 184.991 208.021C186.745 206.685 186.727 206.621 183.863 204.069C182.261 202.643 180.304 201.476 179.513 201.476C177.985 201.476 168.849 206.269 168.079 207.474C167.587 208.243 172.799 213.556 174.046 213.556C174.459 213.556 176.69 212.616 179.003 211.467Z" fill="black"/>
<path d="M170.849 213.686C170.028 212.809 166.759 210.382 163.583 208.294C160.191 206.063 157.903 203.962 158.037 203.202C158.357 201.375 177.731 192.158 183.806 190.943C188.708 189.962 189.035 190.017 194.573 192.737C197.714 194.28 201.392 196.538 202.747 197.754C205.982 200.657 205.458 201.115 192.569 206.657C186.93 209.082 180.64 212.014 178.592 213.173C174.127 215.7 172.813 215.787 170.849 213.686Z" fill="black"/>
<path d="M155.841 226.048C164.819 224.399 181.135 219.742 189.894 216.326C220.94 204.222 271.661 180.031 280.994 172.877L284.599 170.114L280.263 168.917C270.219 166.146 259.878 166.64 237.145 170.978C209.607 176.234 188.427 183.244 163.075 195.493C151.468 201.101 147.849 203.687 146.192 207.556C145.116 210.07 145.21 210.36 147.86 212.702C151.32 215.761 151.497 218.811 148.439 222.692C144.412 227.801 144.954 228.046 155.841 226.048Z" fill="white"/>
<path d="M142.315 227.563C144.547 226.161 149.776 219.33 149.776 217.817C149.776 216.929 148.416 214.886 146.755 213.278C144.409 211.007 143.834 209.843 144.184 208.072C144.748 205.217 143.457 205.158 140.731 207.912C138.913 209.75 138.621 210.934 138.549 216.756C138.504 220.453 138.156 224.546 137.776 225.851C137.163 227.961 137.32 228.222 139.197 228.211C140.357 228.204 141.76 227.912 142.315 227.563Z" fill="white"/>
<path d="M136.414 224.751C137.945 221.847 138.095 220.753 137.33 218.064C136.827 216.296 136.312 213.759 136.186 212.426L135.957 210.002L129.271 214.442C122.457 218.967 116.789 223.719 116.789 224.908C116.789 226.026 125.082 227.797 131.704 228.094C134.222 228.207 134.813 227.788 136.414 224.751Z" fill="white"/>
<path d="M194.217 241.265C194.878 240.86 195.264 239.798 195.074 238.906C194.815 237.688 194.052 237.333 192.015 237.483C188.29 237.757 182.572 240.17 183.225 241.192C183.882 242.222 192.563 242.28 194.217 241.265Z" fill="white"/>
<path d="M264.25 248.162C265.09 247.263 266.061 245.502 266.407 244.248C267.038 241.966 266.384 230.531 265.183 222.848C264.642 219.386 264.786 218.677 266.13 218.178C268.302 217.371 269.938 219.762 270.574 224.673C270.858 226.863 271.299 230.301 271.555 232.312C272.113 236.694 273.829 238.578 277.263 238.578C282.916 238.578 285.464 230.93 283.262 220.571C281.861 213.98 282.651 210.997 285.517 212.062C287.021 212.62 288.845 219.448 288.867 224.599C288.888 229.486 289.949 230.584 292.864 228.736C297.496 225.798 298.895 218.409 296.764 208.137C296.211 205.473 296.04 202.593 296.384 201.738C296.96 200.306 297.146 200.343 298.715 202.205C299.653 203.318 300.842 205.744 301.358 207.598C301.873 209.451 302.673 210.967 303.135 210.967C306.722 210.967 302.314 194.89 297.323 189.768L294.259 186.624L291.779 188.469C284.839 193.632 275.55 199.241 263.891 205.307C248.545 213.292 248.484 213.334 249.107 215.734C249.374 216.765 250.216 223.347 250.977 230.361C252.337 242.895 252.96 245.273 255.674 248.285C257.492 250.302 262.313 250.233 264.25 248.162Z" fill="white"/>
<path d="M45.0518 261.749C58.1353 255.081 60.8319 253.212 57.2802 253.273C54.4297 253.322 30.7868 265.665 30.4749 267.267C30.3132 268.097 30.4244 268.777 30.722 268.777C31.0196 268.777 37.468 265.614 45.0518 261.749Z" fill="white"/>
<path d="M190.34 271.48L199.255 270.934L199.235 263.436C199.223 259.312 198.891 255.625 198.495 255.242C198.099 254.859 191.845 254.672 184.596 254.826C169.511 255.146 170.318 255.612 170.293 246.559C170.287 244.067 169.88 242.029 169.389 242.029C168.899 242.029 168.498 242.456 168.498 242.977C168.498 243.499 167.842 245.263 167.04 246.898C165.462 250.118 162.671 251.845 155.902 253.79L151.559 255.038V272.228L166.492 272.127C174.705 272.071 185.437 271.78 190.34 271.48Z" fill="white"/>
<path d="M113.325 271.678C114.375 270.453 114.242 270.083 112.32 268.886C108.591 266.565 99.8505 258.232 99.8505 256.997C99.8505 254.763 103.082 255.862 106.513 259.262C114.359 267.038 125.199 268.443 131.722 262.529C134.165 260.315 134.377 257.56 132.104 257.56C126.136 257.56 113.282 249.488 115.589 247.19C116.777 246.005 120.608 246.269 135.677 248.572C144.452 249.913 147.044 250.007 152.111 249.167C161.345 247.636 164.873 244.273 161.881 239.853C160.006 237.084 150.927 234.537 140.415 233.833C136.002 233.537 125.393 232.106 116.839 230.652L101.287 228.008L99.3302 230.383C97.0649 233.132 95.3929 232.618 95.3929 229.172C95.3929 227.348 96.0899 226.406 98.2903 225.256C99.8839 224.424 102.582 221.782 104.287 219.385C106.935 215.661 110.841 212.054 121.916 203.108C124.243 201.228 124.607 197.06 122.584 195.436C120.842 194.037 119.091 195.384 116.66 199.996C115.109 202.939 113.758 203.882 106.249 207.26C101.504 209.396 96.3141 212.096 94.716 213.262C91.1715 215.847 88.6385 220.451 87.8067 225.819C87.4636 228.033 86.5028 230.441 85.6716 231.169C82.347 234.081 71.3217 236.421 71.3217 234.215C71.3217 233.714 73.127 232.531 75.3336 231.586C77.5401 230.642 79.3454 229.561 79.3454 229.185C79.3454 227.988 75.204 226.618 69.7981 226.027C64.7526 225.474 64.5223 225.536 63.4878 227.734C60.7767 233.492 61.4544 245.46 64.8592 251.952C68.8264 259.515 76.0008 264.57 84.6014 265.861C88.3971 266.431 88.5048 266.384 88.0349 264.377C87.7681 263.238 87.0258 261.059 86.3853 259.534C85.7449 258.01 85.5229 256.471 85.892 256.114C86.7624 255.271 89.217 256.785 90.4299 258.912C90.953 259.829 92.7737 262.432 94.4758 264.696C99.5158 271.4 110.177 275.349 113.325 271.678Z" fill="white"/>
<path d="M151.99 330.138C156.033 319.319 157.627 313.995 157.005 313.392C155.569 312.003 153.901 313.884 150.85 320.33C148.357 325.599 143.535 343.17 143.535 346.986C143.535 350.812 146.394 345.115 151.99 330.138Z" fill="black"/>
<path d="M271.727 358.467C283.481 357.235 293.89 354.489 295.562 352.179C297.238 349.864 297.233 345.527 295.547 339.264C292.232 326.946 285.43 318.941 273.388 313.19C264.345 308.87 257.802 307.304 242.341 305.759C218.616 303.389 192.994 309.962 179.592 321.857C169.71 330.628 167.478 326.368 174.586 312.302C179.408 302.761 182.517 299.553 188.374 298.076C205.465 293.766 211.134 291.289 216.252 285.895C224.054 277.672 226.94 269.853 226.217 258.899C225.677 250.718 220.3 228.205 218.749 227.629C217.798 227.275 200.115 233.68 197.249 235.416C196.636 235.787 196.135 237.427 196.135 239.06C196.135 240.879 195.444 242.698 194.352 243.755C190.941 247.056 192.552 251.864 197.362 252.737C199.044 253.043 200.66 253.896 200.952 254.634C201.245 255.372 201.484 259.397 201.484 263.578C201.484 271.842 201.242 272.228 196.062 272.228C194.027 272.228 193.46 272.616 193.46 274.01C193.46 274.991 193.045 276.544 192.537 277.462C191.723 278.934 190.593 279.133 182.953 279.149C178.19 279.159 168.676 279.729 161.811 280.417C154.946 281.105 147.825 281.68 145.987 281.694L142.643 281.719L142.63 273.738C142.611 262.904 142.257 262.521 135.801 266.375C132.945 268.081 128.248 270.072 125.364 270.8C122.48 271.528 119.07 273.09 117.786 274.272C116.502 275.453 114.437 276.662 113.196 276.958C111.232 277.427 105.457 276.608 100.519 275.158C99.2336 274.781 98.959 275.25 98.959 277.821C98.959 284.435 105.335 292.458 113.739 296.42C118.511 298.67 121.178 299.302 128.014 299.802C135.142 300.324 136.767 300.731 138.686 302.477C140.633 304.247 140.872 305.022 140.392 308.011C140.085 309.923 137.851 315.467 135.428 320.331L131.022 329.175H127.64C124.564 329.175 123.825 328.668 119.468 323.571C113.597 316.702 104.228 310.61 92.9441 306.326C82.2274 302.256 76.1749 301.34 67.2307 302.434C49.5592 304.597 31.1013 314.573 19.6095 328.173C15.5109 333.023 6.24045 349.915 6.24045 352.532C6.24045 354.604 9.9874 355.698 22.6806 357.331C35.8107 359.021 77.8445 358.459 92.2726 356.4C103.857 354.747 126.643 350.267 132.615 348.468C137.888 346.879 137.296 348.012 141.254 331.941C145.113 316.268 151.227 306.741 157.426 306.741C164.43 306.741 164.34 312.6 157.034 332.258C154.023 340.36 151.559 347.238 151.559 347.543C151.559 348.705 155.097 349.814 165.848 352.019C176.181 354.138 206.276 358.059 217.532 358.753C229.304 359.478 263.814 359.296 271.727 358.467Z" fill="white"/>
<path d="M71.3218 117.31C68.5719 117.02 67.8282 116.955 67.0435 116.939L66.5123 116.927L66.5426 116.792C66.7771 115.742 66.4349 114.632 65.5916 113.706C65.5152 113.623 65.4734 113.562 65.4987 113.571C65.524 113.58 66.0014 113.815 66.5596 114.093C67.3805 114.501 69.3893 115.416 74.0307 117.495L74.2112 117.575H74.0081C73.8964 117.575 72.6875 117.455 71.3218 117.312L71.3218 117.31Z" fill="white"/>
<path d="M75.4753 112.18C74.9484 112.107 73.3347 111.633 71.8184 111.105C69.519 110.305 68.7247 110.05 67.6845 109.782C65.9313 109.328 64.2171 109.112 63.2887 109.227C63.067 109.255 62.8774 109.269 62.8675 109.259C62.8022 109.194 61.5692 104.684 61.6064 104.647C61.6119 104.641 61.8803 104.79 62.2027 104.978C63.4316 105.692 64.9623 106.492 67.7326 107.867C73.0715 110.517 75.8074 111.995 75.6993 112.17C75.6849 112.193 75.6591 112.209 75.642 112.205C75.6248 112.201 75.5498 112.19 75.4753 112.18Z" fill="white"/>
<path d="M74.4176 104.739C73.1883 104.542 71.4009 103.972 68.2067 102.758C64.5012 101.35 62.5965 100.88 61.6225 101.133C61.4795 101.171 61.3555 101.201 61.3469 101.201C61.3383 101.201 61.3175 101.013 61.3005 100.784C61.2573 100.197 60.9825 97.4675 60.8327 96.1355C60.7635 95.5212 60.7155 95.0186 60.7258 95.0186C60.7362 95.0186 60.9202 95.147 61.1348 95.3038C64.5133 97.7728 72.0121 102.112 74.7943 103.208C75.0901 103.324 75.3786 103.45 75.4354 103.487C75.6682 103.64 75.8011 104.196 75.6805 104.512C75.5791 104.779 75.1482 104.857 74.4176 104.739Z" fill="white"/>
<path d="M75.6559 97.3892C74.3469 97.0449 72.3461 96.2296 69.6739 94.9514C66.2151 93.2969 63.8714 92.4493 62.0495 92.1938C61.4936 92.1159 60.5932 92.1263 60.3687 92.2131L60.2509 92.2588L60.1342 91.529C60.0699 91.1276 60.0062 90.6875 59.9926 90.551C59.979 90.4145 59.8742 89.5146 59.7598 88.5512C59.6454 87.5878 59.5609 86.7906 59.5719 86.7795C59.583 86.7685 59.8035 86.8983 60.0618 87.0681C61.1539 87.7858 63.1765 88.9356 65.7913 90.3251C72.4542 93.8658 74.9619 95.3374 76.0882 96.3671C76.4636 96.7104 76.7024 97.0923 76.6438 97.256C76.5445 97.534 76.3209 97.5641 75.6559 97.3892Z" fill="white"/>
<path d="M78.0487 90.1143C76.8132 89.839 72.96 88.3014 68.9064 86.4663C65.2577 84.8143 63.7871 84.1795 62.4344 83.6724C61.7017 83.3977 60.6819 83.0848 60.3642 83.0371C60.0189 82.9854 60.0238 83.0178 60.2326 82.1734C60.3721 81.609 60.454 81.1243 60.5502 80.2934C60.6215 79.6777 60.6872 79.1667 60.6961 79.1579C60.705 79.1491 60.9662 79.3033 61.2766 79.5008C62.525 80.2947 64.1765 81.1875 67.1908 82.6978C73.6318 85.9251 78.7034 89.1198 78.7034 89.9498C78.7034 90.1135 78.3938 90.1912 78.0487 90.1143Z" fill="white"/>
<path d="M79.7192 82.9392C78.8036 82.7345 75.6709 81.4178 71.5124 79.4897C68.5562 78.1191 67.0437 77.4633 65.5656 76.9112C63.613 76.182 62.0856 75.7957 61.1524 75.795L60.8251 75.7947L60.8247 75.5352C60.8243 75.3925 60.7933 74.636 60.7556 73.8542C60.689 72.4728 60.6899 72.3893 60.7882 70.894L60.8893 69.3553L61.1808 69.6024C62.0998 70.3817 63.3903 71.2382 65.4077 72.4077C67.6875 73.7293 68.9789 74.5252 70.9565 75.8276C75.4185 78.7662 79.323 81.7733 79.8622 82.6864C80.01 82.9367 79.976 82.9966 79.7192 82.9392Z" fill="white"/>
<path d="M83.8727 77.7616C83.0465 77.443 81.2918 76.4437 79.2451 75.1258C78.6864 74.766 77.7722 74.1771 77.2135 73.817C69.4453 68.8107 63.9229 66.0923 61.5206 66.0923H61.137L61.1627 65.9457C61.1769 65.865 61.3709 64.4907 61.5939 62.8918C61.817 61.2928 62.008 59.9762 62.0184 59.9658C62.0288 59.9552 62.1963 60.0772 62.3906 60.2366C62.9328 60.6813 63.6737 61.2289 65.5203 62.5496C67.5344 63.9901 68.889 64.9861 70.4189 66.1511C77.4317 71.4915 84.2964 77.2698 84.3013 77.8366C84.3018 77.8955 84.1523 77.8695 83.8727 77.7616Z" fill="white"/>
<path d="M84.8583 70.089C84.2733 69.9061 82.6458 68.8764 81.1865 67.7658C77.4773 64.9431 75.2065 63.3039 72.2699 61.329C68.2036 58.5945 65.0292 56.7447 63.4677 56.2C63.2215 56.1141 63.1794 56.0843 63.1965 56.0074C63.2076 55.9573 63.3711 54.7893 63.5598 53.4118C63.7485 52.0343 63.9066 50.9036 63.911 50.899C63.9154 50.8947 64.0896 51.1031 64.2981 51.3624C64.7738 51.9542 65.9111 53.0673 66.6497 53.6642C66.9598 53.9147 67.6502 54.4402 68.1841 54.832C72.6973 58.144 79.7393 64.207 83.4443 67.9706C84.7837 69.3313 85.3221 70.0065 85.1529 70.1136C85.0789 70.1606 85.0906 70.1615 84.8583 70.089Z" fill="white"/>
<path d="M90.065 65.624C89.1514 65.148 87.5344 63.9252 85.4303 62.1192C79.5421 57.0652 72.42 51.7975 67.9 49.1532C66.765 48.4893 65.526 47.9064 65.2495 47.9064C65.1109 47.9064 65.1112 47.8485 65.2517 47.4866C65.3253 47.2971 65.4171 47.0043 65.4556 46.8361C65.4941 46.6677 65.6483 46.1848 65.7983 45.7629C66.0607 45.0244 67.5502 41.0378 67.5734 41.012C67.5797 41.005 67.8466 41.2615 68.1665 41.5818C68.522 41.9377 68.9855 42.3398 69.3578 42.6153C69.693 42.8634 70.1502 43.2228 70.3736 43.4141C71.6098 44.4724 74.4541 47.315 77.3972 50.4335C84.0436 57.4763 90.2597 64.6778 90.5532 65.6751C90.5785 65.7612 90.566 65.7766 90.4704 65.7766C90.4085 65.7766 90.2261 65.7079 90.065 65.624Z" fill="white"/>
<path d="M92.2184 57.6557C91.2636 57.0127 88.0233 53.892 84.0404 49.7792C78.964 44.5372 75.022 40.8295 72.8202 39.226C71.849 38.5187 70.5389 37.9955 69.328 37.8315L68.9144 37.7754L69.3293 36.8504C69.9958 35.3641 71.4762 32.3286 71.6148 32.1641L71.742 32.0131L71.9796 32.3671C72.5418 33.2054 73.8564 34.8496 74.9324 36.0606C75.175 36.3336 75.9058 37.1256 76.5562 37.8206C80.9969 42.5648 86.1559 48.7035 89.9058 53.7052C91.7172 56.1212 92.7158 57.6897 92.5198 57.8108C92.4995 57.8235 92.3638 57.7536 92.2184 57.6557Z" fill="white"/>
<path d="M92.8229 47.6615C92.4159 47.5163 91.833 46.9596 91.1404 46.0546C90.0612 44.6447 88.0261 42.3297 85.2513 39.3557C81.5529 35.3918 77.3217 31.1332 75.9043 29.948C75.4688 29.584 74.9455 29.3056 74.4821 29.1914C74.3083 29.1488 74.1588 29.1092 74.1499 29.1037C74.141 29.0984 74.1739 29.0367 74.223 28.9671C74.2721 28.8974 74.8962 27.8961 75.6099 26.742C76.3316 25.5748 77.1083 24.3777 77.3601 24.0443C77.609 23.7147 77.8179 23.4507 77.8242 23.4577C77.8304 23.4647 77.9109 23.6531 78.003 23.8765C78.3604 24.7437 79.0799 26.0797 79.9594 27.5091C81.3226 29.7251 82.7479 31.8056 86.2501 36.6924C89.6899 41.4921 92.4923 45.7714 93.0914 47.1393C93.2634 47.532 93.273 47.6152 93.1534 47.6792C93.0455 47.7369 93.0324 47.7361 92.8229 47.6615Z" fill="white"/>
<path d="M102.175 50.2821C101.644 49.8769 100.686 48.4945 99.8097 46.8685C98.5604 44.5514 95.7824 40.4939 91.6232 34.9116C86.3569 27.8432 81.688 22.1966 80.6898 21.6886C80.5459 21.6154 79.7834 21.3585 79.5961 21.3202C79.5448 21.3097 79.9814 20.9343 80.8745 20.2211C82.1782 19.1801 82.324 19.0785 84.6319 17.6011C87.3222 15.8789 87.1505 15.9512 86.9635 16.6176C86.7846 17.2547 86.8502 17.8684 87.2137 18.9588C87.7466 20.5574 88.7135 22.4671 90.8802 26.2005C96.9712 36.6958 101.809 46.3075 102.567 49.4181C102.794 50.3514 102.658 50.6508 102.175 50.2821Z" fill="white"/>
<path d="M140.637 185.054C123.88 184.246 120.027 183.637 113.735 180.804C103.86 176.357 98.216 169.698 92.6187 155.887C90.8392 151.496 90.0642 150.319 88.7962 150.081C86.9604 149.737 85.937 150.73 84.9622 153.799C83.8127 157.419 81.4961 160.214 78.8992 161.115C76.2242 162.043 72.189 161.552 68.9624 159.907C67.505 159.163 64.808 156.516 63.665 154.707C59.2572 147.731 58.6864 138.123 62.2583 131.029C63.249 129.061 65.8377 126.164 67.2487 125.445C70.0176 124.033 77.8763 125.893 80.999 128.699C82.051 129.645 82.3873 129.803 83.3393 129.802C83.9966 129.802 84.7903 129.595 85.281 129.296C86.4663 128.573 86.3847 127.658 84.7001 122.783C82.6242 116.774 82.2523 114.646 82.2504 108.761C82.2469 97.7394 84.289 90.1844 89.2924 82.7104C93.9587 75.7401 102.112 68.6444 108.525 65.9719C112.645 64.2547 114.942 63.8274 122.121 63.4416C127.666 63.1437 127.995 63.0773 127.995 62.2581C127.995 60.3842 117.025 27.9169 113.711 19.9844C112.681 17.5174 111.465 16.3242 109.714 16.0618C109.049 15.9621 108.207 15.9869 107.843 16.1168C107.213 16.3416 107.182 16.4393 107.205 18.1302C107.231 20.089 107.624 21.3967 110.12 27.8484C114.31 38.6744 119.833 55.094 119.815 56.667C119.807 57.4085 119.794 57.4166 119.411 56.9223C118.653 55.9457 117.307 53.0478 115.019 47.4714C108.467 31.4999 101.775 16.8751 100.07 14.8018L99.4401 14.0361L92.6235 13.8424L94.0282 13.3553C94.8007 13.0874 96.9843 12.4752 98.8806 11.9949C100.777 11.5146 103.01 10.8861 103.842 10.5985C106.925 9.53371 111.28 8.76498 121.866 7.41717C130.991 6.25533 133.625 6.01161 138.402 5.8868C141.528 5.80519 144.085 5.79038 144.085 5.8539C144.085 5.91742 143.732 6.49173 143.301 7.13016C142.36 8.5241 141.348 10.9383 141.128 12.317C140.986 13.2014 141.05 13.3842 141.667 13.8692C142.528 14.5467 143.208 14.5625 144.247 13.9292C145.37 13.2448 146.297 11.9402 146.894 10.2065C147.508 8.42243 147.546 7.19373 147.004 6.6514C146.528 6.17579 146.549 6.17444 149.11 6.51861C151.908 6.89447 152.055 6.9507 151.746 7.52692C150.942 9.02881 151.866 10.3346 153.733 10.3346C155.381 10.3346 156.191 9.76444 155.988 8.74852L155.837 7.99293L156.92 8.1718C158.208 8.38441 158.32 8.46129 157.923 8.85827C157.142 9.63911 158.136 11.611 159.311 11.611C159.931 11.611 160.802 10.8997 161.343 9.9505C161.61 9.48161 161.662 9.48102 163.311 9.92682C164.968 10.3753 165.001 10.4006 164.856 11.1226C164.762 11.5935 164.861 12.0919 165.129 12.5013C165.723 13.4068 166.813 13.3526 167.942 12.3614C168.816 11.595 168.86 11.5854 170.297 11.8508C171.102 11.9997 171.797 12.1214 171.842 12.1214C171.886 12.1214 171.922 12.5287 171.922 13.0265C171.922 14.3732 172.926 15.2949 174.176 15.096C174.716 15.0101 175.347 14.68 175.661 14.3189L176.207 13.6912L179.254 14.5073L178.848 15.2148C178.467 15.8777 178.475 15.9666 178.966 16.6247C179.255 17.011 179.826 17.4166 180.236 17.5261C181.215 17.7878 182.791 17.3478 183.257 16.6823C183.597 16.1973 183.711 16.1792 184.607 16.4689C186.429 17.0581 187.554 17.7412 187.394 18.1601C187.026 19.1165 186.98 19.7199 187.225 20.364C187.461 20.9834 187.617 21.0559 188.708 21.0551C189.463 21.0551 190.236 20.8659 190.739 20.5596L191.55 20.0651L193.357 21.333C194.917 22.4282 195.163 22.7062 195.163 23.3729C195.163 24.1951 195.651 25.2974 196.568 26.5444C196.877 26.9656 197.205 27.5212 197.296 27.7791C197.514 28.3932 197.014 30.4807 195.451 35.4791C193.831 40.6628 192.194 46.4013 189.443 56.5392C188.242 60.9619 186.914 65.6143 186.491 66.8779L185.722 69.1753L185.836 63.5593C185.946 58.1453 186.404 51.4006 187.496 39.1128C187.78 35.9165 188.012 32.2734 188.012 31.0168C188.012 28.8339 187.977 28.6926 187.233 27.8453C186.297 26.7798 184.958 26.2565 184.202 26.6608C183.446 27.0655 182.986 28.9485 182.532 33.4977C179.586 63.0553 178.959 70.6166 179.129 74.5361C179.255 77.412 179.484 78.0284 180.6 78.4906C181.807 78.9902 183.366 78.6795 184.911 77.6312C185.664 77.1208 186.756 76.6273 187.337 76.5346C188.025 76.4251 188.635 76.1101 189.079 75.6357C189.855 74.8061 191.009 71.502 192.601 65.5491C193.829 60.9545 194.993 57.7936 195.686 57.1668C196.129 56.7652 196.308 56.7508 197.271 57.0388C198.844 57.5097 201.365 58.837 203.819 60.4866C212.515 66.3311 218.266 73.8142 221.296 83.2261C222.362 86.5372 222.867 88.9351 224.28 97.3832C224.87 100.913 225.498 103.9 225.72 104.241C226.08 104.79 226.254 104.834 227.669 104.732C229.111 104.627 229.289 104.544 230.134 103.575C230.666 102.965 231.561 101.301 232.285 99.5752C234.289 94.7997 235.294 93.8078 238.124 93.8108C241.074 93.8152 242.488 94.7589 243.989 97.7297C246.574 102.849 248.093 109.969 248.082 116.912C248.076 120.158 247.978 121.115 247.437 123.197C246.333 127.441 244.906 129.802 242.841 130.801C240.28 132.041 239.202 131.41 236.555 127.123C234.475 123.753 233.798 123.393 231.775 124.578C229.938 125.654 229.787 126.474 230.707 130.38C231.512 133.795 231.508 139.136 230.697 142.801C229.388 148.724 226.864 153.822 223.366 157.608C220.158 161.08 219.219 161.473 195.801 169.124C176.46 175.444 166.132 179.278 157.569 183.32L153.047 185.453L150.29 185.42C148.773 185.401 144.43 185.236 140.637 185.054ZM183.856 160.145C184.323 159.857 184.874 159.293 185.081 158.893C185.526 158.033 185.579 155.788 185.173 154.995C184.207 153.107 181.652 153.07 179.624 154.914C178.248 156.164 177.935 157.908 178.824 159.366C179.805 160.974 181.972 161.309 183.856 160.145ZM141.275 144.322C144.9 143.513 146.491 140.837 144.52 138.866C143.714 138.061 142.271 137.466 141.116 137.463C139.432 137.459 136.69 139.149 135.55 140.895C134.74 142.134 134.718 142.85 135.465 143.715C136.371 144.763 138.365 144.971 141.275 144.322ZM78.0106 143.238C78.4626 143.046 79.1197 142.576 79.4709 142.196C80.0111 141.61 80.1079 141.261 80.1 139.929C80.0878 137.867 79.2361 136.022 77.3615 133.998C74.8135 131.247 72.0247 130.254 69.7166 131.274C67.7971 132.123 66.5567 134.331 66.8802 136.323C67.051 137.375 67.1985 137.41 67.9306 136.568C68.2359 136.217 68.5727 135.93 68.6789 135.931C69.33 135.935 70.6936 137.18 71.5039 138.511C74.4733 143.391 74.614 143.538 76.3506 143.572C76.8116 143.581 77.5586 143.431 78.0106 143.238ZM132.924 139.414C134.786 138.585 135.599 137.951 136.487 136.637C137.797 134.699 137.275 133.185 135.096 132.597C131.592 131.653 125.952 134.653 125.952 137.462C125.952 138.355 126.644 139.402 127.535 139.859C128.7 140.455 131.017 140.264 132.924 139.414ZM118.035 136.592C119.73 136.072 122.59 134.893 126.335 133.172C133.445 129.904 149.34 124.577 153.606 124.033C154.339 123.939 155.25 123.705 155.631 123.513C156.648 123 157.571 121.234 157.849 119.27C157.982 118.334 158.164 117.449 158.254 117.304C158.824 116.381 160.49 117.851 160.934 119.668C161.079 120.258 161.398 121.143 161.643 121.634C162.03 122.409 162.229 122.538 163.132 122.604C164.461 122.702 166.973 121.782 167.362 121.056C167.822 120.196 167.452 115.984 166.684 113.344C165.815 110.358 164.963 108.807 163.24 107.074C161.254 105.076 159.505 104.603 157.491 105.518C154.401 106.921 153.079 111.083 153.776 117.214C154.212 121.049 154.153 121.164 151.313 122.009C139.761 125.448 131.184 128.716 123.074 132.77C120.155 134.229 116.247 136.569 116.247 136.857C116.247 137.038 116.897 136.942 118.035 136.592ZM145.254 136.156C147.218 135.421 149.677 133.684 150.239 132.634C150.96 131.286 151.074 131.242 152.28 131.857C153.249 132.351 153.655 132.404 155.567 132.283C158.073 132.124 160.012 131.526 160.561 130.743C161.058 130.033 161.058 127.451 160.56 126.49C160.149 125.696 159.254 125.261 158.853 125.661C158.692 125.822 158.705 126.279 158.888 126.959C159.2 128.118 158.909 128.997 157.912 129.898C157.246 130.501 155.398 130.697 154.556 130.255C153.639 129.773 153.577 128.725 154.43 128.166C154.878 127.873 155.072 127.545 155.018 127.173C154.899 126.34 154.305 126.378 152.92 127.307C149.85 129.366 150.03 129.303 147.66 129.137C145.82 129.008 145.27 129.068 144.048 129.53C141.26 130.584 139.491 132.356 139.489 134.096C139.487 135.26 139.851 135.837 140.964 136.439C142.069 137.037 143.077 136.97 145.254 136.156ZM194.194 136.19C197.25 135.246 198.575 133.978 201.125 129.555C201.568 128.786 202.218 128.013 202.569 127.836C203.314 127.46 207.562 127.403 209.054 127.749C209.6 127.875 210.218 128.15 210.427 128.358C210.762 128.693 210.658 128.843 209.527 129.656C207.941 130.795 207.489 131.744 207.894 133.093C208.272 134.354 209.001 134.679 211.896 134.878C215.015 135.093 216.749 134.856 217.558 134.105C218.17 133.537 218.197 133.404 218.05 131.634C217.873 129.489 218.037 129.049 219.288 128.311C220.281 127.725 221.21 126.397 221.212 125.562C221.216 123.361 217.651 122.359 203.591 120.61C192.645 119.249 191.225 118.94 190.488 117.763C190.237 117.363 190.068 116.117 189.972 113.976C189.737 108.752 188.611 104.873 186.99 103.714C185.519 102.662 182.529 102.922 181.113 104.225C180.157 105.104 179.308 107.992 178.572 112.863C177.99 116.717 177.672 117.964 177.109 118.609C176.908 118.841 175.992 119.172 175.074 119.345C174.08 119.532 173.137 119.89 172.743 120.229L172.08 120.799L172.685 121.122C173.114 121.352 173.886 121.396 175.351 121.274C178.695 120.997 179.979 120.043 180.374 117.542C180.632 115.91 181.199 114.997 181.955 114.997C182.682 114.997 183.029 115.563 183.402 117.358C183.566 118.149 183.926 119.082 184.202 119.433C184.849 120.256 186.817 120.984 190.949 121.933C194.548 122.758 196.066 123.325 196.752 124.099C197.442 124.876 197.972 126.671 197.972 128.223C197.972 130.866 196.529 132.797 193.715 133.919C192.355 134.461 191.883 134.508 188.267 134.46C186.09 134.432 184.05 134.465 183.734 134.536C182.261 134.863 183.769 135.897 186.48 136.419C188.694 136.845 192.432 136.734 194.194 136.19ZM235.911 113.19C236.005 113.038 236.248 112.109 236.452 111.125C236.655 110.142 237.279 108.284 237.839 106.998C239.147 103.987 239.104 103.39 237.504 102.404C235.532 101.188 234.375 101.842 233.596 104.612C233.092 106.405 232.81 109.902 233.061 111.24C233.304 112.533 234.119 113.466 235.007 113.466C235.41 113.466 235.817 113.342 235.911 113.19ZM160.942 101.083C161.799 100.051 160.353 96.3748 156.479 89.7379C155.422 87.9272 154.528 86.1831 154.492 85.8619C154.435 85.3437 154.572 85.2568 155.705 85.0896C157.433 84.8348 158.642 83.5854 158.642 82.054C158.642 81.4811 158.516 80.7763 158.361 80.4879C157.119 78.1676 146.788 39.1997 146.127 34.3389C145.757 31.6162 145.349 30.6401 144.373 30.1355C143.407 29.6363 141.788 29.6188 141.133 30.1C140.694 30.4227 140.644 30.7433 140.698 32.8928C140.777 36.0029 141.558 40.0052 144.218 50.9232C148.505 68.5197 148.488 69.3425 144.098 56.7945C139.552 43.8027 135.146 29.2199 135.146 27.1683C135.146 26.4652 134.987 25.5085 134.792 25.0426C134.058 23.2876 131.395 22.2523 130.337 23.3105C128.155 25.4918 129.358 31.9406 135.322 50.0298C138.63 60.0629 142.804 72.2011 143.017 72.4058C143.113 72.4978 144.445 72.7551 145.977 72.9777C147.51 73.2003 149.023 73.5523 149.34 73.7598C149.657 73.9673 150.167 74.8012 150.473 75.613C151.234 77.6313 152.303 82.4505 152.208 83.433L152.13 84.2366L150.063 84.1468C148.36 84.0728 147.815 84.1512 146.962 84.5847C144.434 85.8741 142.505 89.5532 141.895 94.2527C141.6 96.5252 142.208 97.316 145.558 99.0124C147.815 100.156 147.814 100.156 148.781 95.7429C149.481 92.5484 149.941 91.512 150.657 91.512C151.362 91.512 154.328 94.7606 156.281 97.6726C157.283 99.1656 158.412 100.63 158.79 100.927C159.595 101.561 160.492 101.626 160.942 101.083ZM179.825 98.6754C180.336 98.1224 181.495 96.3294 182.4 94.6908C184.961 90.0571 185.344 89.8103 187.376 91.4882C188.04 92.0366 188.885 92.5443 189.255 92.6166C190.174 92.7962 191.136 92.2838 191.342 91.5053C191.759 89.9314 190.075 86.3149 188.285 84.9388C186.263 83.3839 183.669 84.0471 181.81 86.5946C179.289 90.0485 176.852 96.9 177.387 99.0292C177.644 100.054 178.692 99.9018 179.825 98.6754ZM163.489 81.3041C164.35 80.8436 164.864 78.9505 164.687 76.8917C164.162 70.7731 157.444 37.9758 155.71 33.0668C155.087 31.3045 154.703 31.012 153.014 31.012C151.669 31.012 151.541 31.062 151.433 31.6293C151.254 32.5638 151.613 34.7569 153.033 41.4137C156.748 58.8244 158.314 66.827 159.14 72.6218C159.897 77.9288 160.38 79.9268 161.12 80.8054C161.778 81.5868 162.627 81.7654 163.489 81.3041ZM169.982 80.5001C170.333 80.3404 170.72 79.9097 170.843 79.5429C171.246 78.3359 170.594 71.5073 168.354 53.4762C166.339 37.2569 166.23 35.4468 167.102 32.7677C167.776 30.699 167.637 30.0208 166.359 29.1354C165.085 28.2536 164.158 28.2669 163.245 29.1803C162.261 30.1639 162.097 31.9636 162.464 37.7768C162.873 44.2629 164.405 61.7238 165.163 68.5374C166.257 78.3796 166.579 79.6781 168.116 80.4678C168.881 80.8607 169.179 80.8658 169.982 80.5001ZM176.729 80.5688C177.588 80.0247 177.721 76.6163 177.279 66.4916C176.703 53.298 175.496 32.3127 175.216 30.6336C174.845 28.4057 173.823 27.1829 172.331 27.1829H171.412L171.412 34.9049C171.413 48.1416 172.485 76.3441 173.101 79.3457C173.327 80.4441 175.676 81.2362 176.729 80.5688ZM137.709 66.6181C138.121 66.4049 138.523 65.974 138.602 65.6605C138.911 64.4286 136.033 55.9279 128.686 36.3726C126.655 30.9672 124.491 25.1086 123.877 23.3536C122.77 20.1913 122.749 20.1575 121.62 19.5882C119.291 18.4144 117.78 18.9967 117.78 21.0677C117.78 23.6082 119.36 28.4387 126.214 46.8389C128.07 51.8231 130.195 57.6433 130.936 59.7726C132.48 64.2104 133.444 65.816 134.985 66.5154C136.273 67.1003 136.742 67.118 137.709 66.6181ZM158.067 27.2915C158.749 26.5227 158.788 25.9075 158.227 24.7273C157.688 23.5913 156.612 22.8431 155.519 22.8431C153.135 22.8431 152.45 26.8566 154.663 27.8535C155.778 28.3555 157.355 28.0953 158.067 27.2915ZM179.601 26.1527C179.959 25.961 180.095 25.6159 180.095 24.8958C180.095 22.4844 176.636 20.8595 175.364 22.6737C174.921 23.3068 174.874 24.4525 175.263 25.178C175.809 26.1989 178.419 26.7852 179.601 26.1527ZM147.896 22.9918C148.704 22.1324 148.713 19.8632 147.912 19.2145C147.187 18.6278 145.898 18.4094 145.053 18.7303C143.317 19.3902 143.16 21.437 144.74 22.8236C145.871 23.8159 147.062 23.8794 147.896 22.9918ZM170.65 22.1411C172.091 20.3099 169.455 16.8799 167.25 17.7177C165.475 18.3923 165.67 21.4374 167.553 22.4609C168.697 23.082 170.017 22.9456 170.65 22.1411ZM139.35 19.4473C140.242 18.0871 140.039 16.0084 138.959 15.4303C137.783 14.8012 135.679 15.5725 135.099 16.8457C134.253 18.7013 138.24 21.1411 139.35 19.4473ZM161.696 18.8559C162.134 18.4882 162.663 17.8545 162.874 17.4477C163.236 16.7477 163.222 16.6766 162.619 16.1173C161.824 15.3815 160.152 14.8614 159.281 15.0798C158.607 15.2491 157.876 16.3291 157.876 17.1575C157.876 17.8641 158.614 18.7699 159.505 19.1576C160.613 19.6396 160.794 19.6147 161.696 18.8559ZM130.28 17.381C130.763 17.2063 131.388 16.7577 131.667 16.3842C132.088 15.8196 132.134 15.5443 131.936 14.7515C131.392 12.5684 128.22 11.8897 126.67 13.6244C125.664 14.7488 125.719 15.7009 126.854 16.8355C127.845 17.826 128.679 17.9589 130.28 17.381ZM153.126 16.6158C154.68 15.9666 155.251 14.4957 154.364 13.4263C153.757 12.6941 151.431 12.2558 150.503 12.6985C149.977 12.9492 149.813 13.2329 149.75 14.0069C149.554 16.391 150.996 17.5053 153.126 16.6158ZM122.444 15.2265C123.311 14.6552 123.89 13.9168 123.901 13.3685C123.912 12.8045 122.94 11.6136 122.559 11.7231C122.388 11.772 121.488 12.0054 120.557 12.2417C119.227 12.5797 118.803 12.8066 118.577 13.3045C117.808 14.9916 120.654 16.4062 122.444 15.2265ZM136.168 11.8794C137.335 11.0613 137.076 9.70385 135.577 8.79021C133.803 7.70932 132.081 8.44601 132.081 10.2858C132.081 11.4748 132.48 12.0621 133.486 12.3536C134.428 12.6266 135.328 12.4676 136.168 11.8794Z" fill="white"/>
</g>
<defs>
<clipPath id="clip0_668_846">
<rect width="311" height="365" fill="white"/>
</clipPath>
</defs>
</svg>
