<svg width="423" height="471" viewBox="0 0 423 471" fill="none" xmlns="http://www.w3.org/2000/svg">
<g clip-path="url(#clip0_667_469)">
<path d="M286.743 470.381C263.762 469.237 261.395 468.699 249.273 461.872C234.761 453.699 229.214 447.71 219.386 429.599C215.657 422.728 209.102 414.518 204.82 411.354C197.044 405.61 197.033 405.576 196.395 386.537C195.962 373.583 194.867 367.197 192.98 366.611C190.885 365.96 190.202 370.772 190.199 386.222L190.195 406.696L180.758 412.202C163.925 422.024 143.974 430.574 123.088 436.92C105.033 442.405 99.5132 443.133 76.0025 443.133C53.71 443.133 46.3071 442.258 30.5791 437.761C7.05462 431.036 -2.00715 423.747 0.366094 413.459C5.19471 392.526 23.7445 371.422 46.6348 360.819C69.6571 350.154 87.4711 347.692 109.371 352.146C128.202 355.976 152.903 365.917 160.76 372.828C163.505 375.241 166.282 376.718 166.931 376.109C170.012 373.221 162.51 363.728 146.318 350.025C135.085 340.519 126.825 331.539 123.841 325.59C120.683 319.294 116.734 315.136 111.9 313.016C107.927 311.274 100.678 307.561 95.7911 304.765C90.9038 301.97 84.6564 298.72 81.9079 297.545C69.4117 292.2 64.0024 271.506 72.4656 261.422C74.9093 258.51 76.9086 255.711 76.9086 255.202C76.9086 254.693 70.67 249.687 63.0451 244.079C41.6228 228.322 19.1504 207.729 19.1504 203.855C19.1504 200.147 23.2166 195.363 26.3681 195.363C27.4056 195.363 39.1552 205.12 52.4784 217.045C65.8017 228.971 80.1928 241.223 84.4586 244.272C94.0773 251.149 102.18 250.705 103.094 243.251C103.445 240.388 105.331 234.565 107.284 230.311C110.253 223.844 110.378 221.544 108.047 216.27C105.678 210.91 105.818 209.163 108.977 204.645C114.28 197.058 124.926 191.581 139.665 188.855C146.69 187.555 152.438 185.78 152.438 184.909C152.438 184.037 150.461 179.24 148.044 174.248C145.628 169.256 143.628 162.003 143.601 158.131C143.536 148.746 151.258 137.373 158.731 135.845C169.37 133.67 170.21 133.091 170.21 127.937C170.21 125.135 174.199 115.788 179.073 107.164C184.043 98.3718 187.35 90.0535 186.601 88.2248C185.631 85.8551 186.244 85.3157 188.845 86.2513C192.717 87.6437 193.851 84.0006 190.203 81.8879C186.434 79.7041 187.754 76.7354 191.87 78.1421C195.572 79.4076 195.572 79.2728 191.87 75.3102C185.991 69.0183 187.214 66.9521 193.527 72.5107C201.42 79.4605 203.378 75.8101 195.757 68.3543C192.27 64.9427 190.08 61.5301 190.89 60.7707C192.149 59.59 198.701 65.8849 203.967 73.3346C204.817 74.5371 206.163 74.9113 206.958 74.1661C207.753 73.4208 205.478 68.7632 201.903 63.8158C192.775 51.1843 191.91 49.6153 194.072 49.6153C195.123 49.6153 198.894 53.9334 202.453 59.2112C211.327 72.3681 212.247 66.8911 203.582 52.4999C199.729 46.1012 197.088 40.3865 197.713 39.8006C199.061 38.537 206.532 49.5617 211.771 60.5463C215.302 67.9512 219.083 70.8756 219.083 66.2029C219.083 63.3328 208.523 43.8127 203.005 36.4823C200.585 33.2671 199.282 30.0019 200.11 29.226C202.474 27.0102 209.385 36.802 217.073 53.259C220.952 61.5614 225.058 68.3543 226.197 68.3543C229.122 68.3543 226.718 61.8447 215.521 39.4465C204.611 17.6234 204.88 18.3837 208.089 18.3837C209.373 18.3837 211.974 21.8973 213.868 26.1917C222.286 45.2705 228.796 56.6778 229.546 53.66C229.988 51.8766 227.236 43.4441 223.43 34.9211C219.623 26.3982 215.915 17.5509 215.189 15.2606C214.027 11.596 214.311 11.4357 217.549 13.9247C219.573 15.4803 222.928 21.8046 225.004 27.9789C227.081 34.1531 229.597 39.2048 230.596 39.2048C233.028 39.2048 232.899 37.9697 229.079 24.63C225.288 11.3922 224.938 7.25887 227.745 8.885C229.701 10.0182 230.867 14.0735 238.16 45.1339C243.585 68.2405 246.379 60.2786 241.243 36.3475C236.329 13.4504 235.723 6.07975 239.007 9.1584C240.62 10.6696 247.962 50.4556 247.962 57.6815C247.962 58.2838 248.927 57.8715 250.108 56.7652C251.488 55.4716 251.409 47.4724 249.888 34.346C248.586 23.1217 248.12 13.3768 248.852 12.6907C252.24 9.5154 253.573 16.5631 254.294 41.4585C254.722 56.2512 255.972 68.3543 257.071 68.3543C258.17 68.3543 259.069 56.5871 259.069 42.205C259.069 25.3025 259.855 16.5109 261.291 17.3427C262.586 18.0933 263.512 29.857 263.512 45.574C263.512 60.3935 264.413 72.5185 265.514 72.5185C266.616 72.5185 268.238 61.7038 269.119 48.4858C270.211 32.0973 271.518 24.7156 273.226 25.2782C274.603 25.7319 275.561 27.4113 275.355 29.0103C275.149 30.6092 273.78 42.9265 272.313 56.3821C270.846 69.8377 274.72 91.3782 274.513 91.3782C274.307 91.3782 264.973 78.973 260.18 76.6827C255.387 74.3924 248.356 72.5185 244.556 72.5185C235.653 72.5185 218.014 78.1197 207.517 84.2803C192.92 92.8475 174.653 119.837 174.653 132.839C174.653 134.807 176.653 138.114 179.096 140.187C181.54 142.26 183.539 145.391 183.539 147.145C183.539 149.439 181.788 148.763 177.309 144.741C164.845 133.549 147.996 141.098 147.996 157.873C147.996 175.489 159.438 187.415 173.227 184.171C177.841 183.086 178.341 183.552 177.417 188.081C172.538 212.006 206.6 240.632 248.252 247.608C269.921 251.238 305.1 247.811 322.407 240.384C339.472 233.062 360.762 212.723 369.01 195.862C374.17 185.314 376.167 183.06 379.48 184.046C382.692 185.001 384.48 183.322 387.775 176.259C394.255 162.366 394.801 147.474 388.83 147.474C385.95 147.474 385.576 148.991 386.79 155.728C387.865 161.689 387.302 165.288 384.764 168.684C381.364 173.233 381.25 173.247 381.25 169.106C381.25 166.751 380.5 164.122 379.584 163.263C378.667 162.403 377.916 153.483 377.914 143.44C377.911 126.671 377.276 124.019 370.139 110.972C365.865 103.157 361.346 96.455 360.097 96.0775C358.849 95.7001 352.351 101.472 345.658 108.905C334.484 121.312 324.195 121.946 319.374 119.593C317.037 118.453 354.243 74.6006 357.053 74.6006C361.264 74.6006 358.506 80.3224 348.033 93.3175C335.081 109.39 335.603 113.371 348.733 98.6515C365.936 79.3665 372.007 73.5718 373.522 74.9914C374.354 75.7712 372.349 79.7084 369.068 83.7408L363.101 91.0723L368.775 98.0438C375.776 106.647 380.549 117.137 383.672 130.788C385.152 137.257 387.239 141.228 389.158 141.228C395.179 141.228 399.647 151.055 398.539 161.863C397.266 174.28 387.316 191.198 381.287 191.198C378.399 191.198 374.819 195.153 369.941 203.731C360.112 221.014 347.216 232.211 324.202 243.445C311.303 249.741 304.912 254.009 305.496 255.937C305.984 257.549 306.836 261.372 307.39 264.435L308.396 270.002L332.05 269.892C358.853 269.767 370.383 272.863 391.09 285.746C407.802 296.142 418.109 308.069 421.361 320.774C427.077 343.108 417.392 387.618 399.35 421.925C390.432 438.884 386.703 443.636 375.908 451.799C353.537 468.717 334.211 472.744 286.743 470.381Z" fill="black"/>
<path d="M244.63 5.89107C243.874 4.74593 244.315 3.80897 245.609 3.80897C246.903 3.80897 247.962 4.74593 247.962 5.89107C247.962 7.03622 247.521 7.97318 246.982 7.97318C246.443 7.97318 245.385 7.03622 244.63 5.89107Z" fill="black"/>
<path d="M295.723 7.97317C294.968 6.82802 295.409 5.89107 296.703 5.89107C297.997 5.89107 299.055 6.82802 299.055 7.97317C299.055 9.11832 298.615 10.0553 298.076 10.0553C297.537 10.0553 296.478 9.11832 295.723 7.97317Z" fill="black"/>
<path d="M283.505 7.85027C283.505 6.63753 284.505 6.22439 285.727 6.93214C286.948 7.63986 287.948 8.63213 287.948 9.13712C287.948 9.64214 286.948 10.0552 285.727 10.0552C284.505 10.0552 283.505 9.06301 283.505 7.85027Z" fill="black"/>
<path d="M253.515 7.97317C254.27 6.82802 255.329 5.89107 255.868 5.89107C256.407 5.89107 256.847 6.82802 256.847 7.97317C256.847 9.11832 255.789 10.0553 254.495 10.0553C253.201 10.0553 252.76 9.11832 253.515 7.97317Z" fill="black"/>
<path d="M285.727 16.1788C285.727 14.966 286.726 14.5528 287.948 15.2606C289.17 15.9684 290.17 16.9606 290.17 17.4656C290.17 17.9706 289.17 18.3837 287.948 18.3837C286.726 18.3837 285.727 17.3915 285.727 16.1788Z" fill="black"/>
<path d="M296.834 24.63C296.834 23.4849 297.834 22.5479 299.055 22.5479C300.277 22.5479 301.277 23.4849 301.277 24.63C301.277 25.7752 300.277 26.7121 299.055 26.7121C297.834 26.7121 296.834 25.7752 296.834 24.63Z" fill="black"/>
<path d="M308.002 15.7941C308.002 14.6489 309.001 13.712 310.223 13.712C311.445 13.712 312.445 14.6489 312.445 15.7941C312.445 16.9392 311.445 17.8762 310.223 17.8762C309.001 17.8762 308.002 16.9392 308.002 15.7941Z" fill="black"/>
<path d="M261.886 10.8242C261.886 11.9693 262.886 12.9063 264.108 12.9063C265.329 12.9063 266.329 11.9693 266.329 10.8242C266.329 9.679 265.329 8.74208 264.108 8.74208C262.886 8.74208 261.886 9.679 261.886 10.8242Z" fill="black"/>
<path d="M267.011 3.42514C267.011 4.57029 268.011 5.50725 269.233 5.50725C270.455 5.50725 271.454 4.57029 271.454 3.42514C271.454 2.27996 270.455 1.34304 269.233 1.34304C268.011 1.34304 267.011 2.27996 267.011 3.42514Z" fill="black"/>
<path d="M330.14 39.6552C330.14 38.5101 331.14 37.5731 332.361 37.5731C333.583 37.5731 334.583 38.5101 334.583 39.6552C334.583 40.8004 333.583 41.7374 332.361 41.7374C331.14 41.7374 330.14 40.8004 330.14 39.6552Z" fill="black"/>
<path d="M323.756 50.6486C323.756 49.5035 324.756 48.5665 325.978 48.5665C327.2 48.5665 328.199 49.5035 328.199 50.6486C328.199 51.7938 327.2 52.7307 325.978 52.7307C324.756 52.7307 323.756 51.7938 323.756 50.6486Z" fill="black"/>
<path d="M320.83 22.2537C320.83 21.1086 321.829 20.1716 323.051 20.1716C324.273 20.1716 325.273 21.1086 325.273 22.2537C325.273 23.3989 324.273 24.3358 323.051 24.3358C321.829 24.3358 320.83 23.3989 320.83 22.2537Z" fill="black"/>
<path d="M272.847 17.6915C272.847 16.5464 273.846 15.6094 275.068 15.6094C276.29 15.6094 277.29 16.5464 277.29 17.6915C277.29 18.8367 276.29 19.7736 275.068 19.7736C273.846 19.7736 272.847 18.8367 272.847 17.6915Z" fill="black"/>
<path d="M281.284 24.63C281.284 23.4849 282.283 22.5479 283.505 22.5479C284.727 22.5479 285.727 23.4849 285.727 24.63C285.727 25.7752 284.727 26.7121 283.505 26.7121C282.283 26.7121 281.284 25.7752 281.284 24.63Z" fill="black"/>
<path d="M335.71 28.7942C334.955 27.6491 335.396 26.7121 336.689 26.7121C337.983 26.7121 339.042 27.6491 339.042 28.7942C339.042 29.9394 338.601 30.8763 338.062 30.8763C337.523 30.8763 336.465 29.9394 335.71 28.7942Z" fill="black"/>
<path d="M290.17 30.7535C290.17 29.5407 291.169 29.1275 292.391 29.8353C293.613 30.543 294.613 31.5352 294.613 32.0403C294.613 32.5452 293.613 32.9584 292.391 32.9584C291.169 32.9584 290.17 31.9662 290.17 30.7535Z" fill="black"/>
<path d="M307.941 31.7945C307.941 30.0092 308.957 29.137 310.199 29.8563C311.441 30.5756 311.882 32.0363 311.179 33.1023C309.274 35.9903 307.941 35.4518 307.941 31.7945Z" fill="black"/>
<path d="M321.27 32.9584C321.27 31.8133 322.27 30.8763 323.492 30.8763C324.713 30.8763 325.713 31.8133 325.713 32.9584C325.713 34.1036 324.713 35.0405 323.492 35.0405C322.27 35.0405 321.27 34.1036 321.27 32.9584Z" fill="black"/>
<path d="M297.945 37.1226C298.7 35.9775 299.758 35.0405 300.297 35.0405C300.836 35.0405 301.277 35.9775 301.277 37.1226C301.277 38.2678 300.218 39.2048 298.924 39.2048C297.63 39.2048 297.19 38.2678 297.945 37.1226Z" fill="black"/>
<path d="M350.149 43.369C350.149 42.2238 351.149 41.2869 352.371 41.2869C353.592 41.2869 354.592 42.2238 354.592 43.369C354.592 44.5141 353.592 45.4511 352.371 45.4511C351.149 45.4511 350.149 44.5141 350.149 43.369Z" fill="black"/>
<path d="M318.308 44.0631C317.494 43.2996 316.827 41.7068 316.827 40.5234C316.827 39.2188 317.862 39.3417 319.456 40.8356C320.902 42.1907 321.568 43.7835 320.937 44.3752C320.306 44.9668 319.123 44.8263 318.308 44.0631Z" fill="black"/>
<path d="M303.498 45.4511C303.498 44.3059 304.498 43.369 305.72 43.369C306.942 43.369 307.941 44.3059 307.941 45.4511C307.941 46.5962 306.942 47.5332 305.72 47.5332C304.498 47.5332 303.498 46.5962 303.498 45.4511Z" fill="black"/>
<path d="M356.814 49.4924C356.814 48.2797 357.813 47.8665 359.035 48.5743C360.257 49.282 361.257 50.2742 361.257 50.7792C361.257 51.2842 360.257 51.6974 359.035 51.6974C357.813 51.6974 356.814 50.7052 356.814 49.4924Z" fill="black"/>
<path d="M339.042 49.6153C339.042 48.4702 340.042 47.5332 341.263 47.5332C342.485 47.5332 343.485 48.4702 343.485 49.6153C343.485 50.7604 342.485 51.6974 341.263 51.6974C340.042 51.6974 339.042 50.7604 339.042 49.6153Z" fill="black"/>
<path d="M312.384 55.7387C312.384 54.5259 313.384 54.1128 314.606 54.8205C315.827 55.5283 316.827 56.5205 316.827 57.0255C316.827 57.5305 315.827 57.9437 314.606 57.9437C313.384 57.9437 312.384 56.9514 312.384 55.7387Z" fill="black"/>
<path d="M332.377 59.9029C332.377 58.6902 333.377 58.277 334.599 58.9848C335.821 59.6925 336.82 60.6848 336.82 61.1898C336.82 61.6948 335.821 62.108 334.599 62.108C333.377 62.108 332.377 61.1157 332.377 59.9029Z" fill="black"/>
<path d="M345.706 60.0259C345.706 58.8807 346.706 57.9438 347.928 57.9438C349.149 57.9438 350.149 58.8807 350.149 60.0259C350.149 61.171 349.149 62.108 347.928 62.108C346.706 62.108 345.706 61.171 345.706 60.0259Z" fill="black"/>
<path d="M316.827 64.1901C316.827 63.0449 317.827 62.108 319.049 62.108C320.27 62.108 321.27 63.0449 321.27 64.1901C321.27 65.3352 320.27 66.2722 319.049 66.2722C317.827 66.2722 316.827 65.3352 316.827 64.1901Z" fill="black"/>
<path d="M366.81 68.3543C366.055 67.2091 366.496 66.2722 367.79 66.2722C369.084 66.2722 370.143 67.2091 370.143 68.3543C370.143 69.4994 369.702 70.4364 369.163 70.4364C368.624 70.4364 367.566 69.4994 366.81 68.3543Z" fill="black"/>
<path d="M352.371 68.3543C352.371 67.2091 353.37 66.2722 354.592 66.2722C355.814 66.2722 356.814 67.2091 356.814 68.3543C356.814 69.4994 355.814 70.4364 354.592 70.4364C353.37 70.4364 352.371 69.4994 352.371 68.3543Z" fill="black"/>
<path d="M336.82 72.5185C336.82 71.3733 337.82 70.4364 339.042 70.4364C340.264 70.4364 341.263 71.3733 341.263 72.5185C341.263 73.6636 340.264 74.6006 339.042 74.6006C337.82 74.6006 336.82 73.6636 336.82 72.5185Z" fill="black"/>
<path d="M312.251 119.846C310.519 119.775 336.501 83.2085 342.48 77.0034C343.965 75.462 345.747 75.0602 346.44 76.1103C347.132 77.1605 340.789 87.6787 332.344 99.4842C314.759 124.067 321.057 120.212 312.251 119.846Z" fill="black"/>
<path d="M296.834 118.978C296.834 117.047 302.332 106.365 309.052 95.2416C315.772 84.1178 321.27 73.986 321.27 72.7264C321.27 71.4669 322.378 70.4364 323.732 70.4364C327.535 70.4364 324.084 80.4019 315.801 93.3395C311.768 99.6379 306.696 108.07 304.529 112.078C300.86 118.867 300.853 119.162 304.428 116.382C306.539 114.741 310.244 109.765 312.661 105.324C320.557 90.8171 333.135 73.6073 334.021 76.098C335.106 79.1507 332.488 83.8061 317.592 105.312C309.249 117.356 314.606 119.856 311.5 119.856C308.826 119.856 296.834 121.097 296.834 118.978Z" fill="black"/>
<path d="M287.248 115.802C285.498 111.877 281.422 104.738 278.189 99.9385L272.311 91.2119L276.531 64.0701C280.602 37.886 282.029 32.9632 284.799 35.5593C285.922 36.6118 281.363 68.8574 277.734 85.5316C275.823 94.3119 280.796 92.426 283.225 83.4495C284.386 79.1552 285.981 69.5214 286.767 62.0413C288.17 48.7099 290.876 41.2549 293.441 43.6587C294.676 44.8164 290.009 75.6421 286.786 87.6137C285.798 91.2851 286.128 93.3395 287.707 93.3395C289.061 93.3395 290.17 92.8315 290.17 92.2107C290.17 87.527 297.594 58.5841 299.191 57.0415C303.868 52.5236 303.48 58.7992 297.89 78.056C294.619 89.3248 291.408 100.419 290.754 102.709C289.919 105.635 290.284 106.253 291.982 104.788C293.311 103.64 297.195 95.2753 300.614 86.1985C304.033 77.1216 308.08 69.3153 309.607 68.8512C312.917 67.8455 313.261 73.1978 310.213 78.2725C309.019 80.261 304.479 90.75 300.124 101.581C295.769 112.413 298.797 119.315 298.309 119.773C297.82 120.231 288.998 119.727 287.248 115.802Z" fill="black"/>
<path d="M314.606 148.664C314.606 145.017 320.596 139.146 324.317 139.146C328.297 139.146 332.378 143.573 332.378 147.891C332.378 151.941 329.052 152.935 326.82 149.551C325.9 148.155 324.064 148.155 321.281 149.551C315.725 152.338 314.606 152.189 314.606 148.664Z" fill="black"/>
<path d="M327.934 144.474C327.934 142.276 323.671 141.353 322.403 143.276C321.636 144.44 322.566 145.392 324.471 145.392C326.376 145.392 327.934 144.979 327.934 144.474Z" fill="white"/>
<path d="M279.062 149.153C279.062 140.727 292.531 135.222 295.486 142.439C298.209 149.092 296.802 150.669 287.948 150.886C283.061 151.006 279.062 150.226 279.062 149.153Z" fill="black"/>
<path d="M291.184 143.164C289.833 141.115 283.505 142.973 283.505 145.42C283.505 146.335 285.493 146.597 287.923 146.002C290.353 145.406 291.82 144.129 291.184 143.164Z" fill="white"/>
<path d="M159.174 158.405C159.119 153.218 160.049 151.638 163.159 151.638C167.71 151.638 178.426 161.289 176.195 163.38C175.405 164.121 174.127 163.188 173.357 161.306C171.524 156.828 165.911 156.94 162.195 161.529C159.547 164.798 159.237 164.477 159.174 158.405Z" fill="black"/>
<path d="M281.113 214.262C275.2 208.72 272.708 203.691 275.873 203.691C276.563 203.691 279.651 206.502 282.735 209.937C289.962 217.987 291.865 217.806 293.648 208.896C295.195 201.168 298.94 199.585 303.498 204.732C307.497 209.248 316.249 208.679 317.903 203.795C319.351 199.518 314.802 189.424 309.602 185.38C306.413 182.899 298.12 181.833 287.121 182.489C281.995 182.795 281.236 183.43 283.26 185.717C286.768 189.678 281.21 193.72 273.088 193.117C262.048 192.296 259.393 193.185 258.668 197.944C257.895 203.024 251.113 205.395 247.375 201.892C245.742 200.362 245.975 198.647 248.149 196.192C250.95 193.029 250.748 192.832 246.122 194.208C242.031 195.425 240.738 194.85 239.771 191.385C239.104 188.992 237.175 187.034 235.484 187.034C233.794 187.034 232.411 186.097 232.411 184.952C232.411 183.807 234.875 182.87 237.885 182.87C240.896 182.87 253.41 181.799 265.694 180.49C285.924 178.334 287.606 177.832 283.545 175.166C281.08 173.548 279.093 170.637 279.13 168.698C279.192 165.459 279.381 165.468 281.462 168.816C284.067 173.008 290.298 173.589 294.131 169.996C295.577 168.64 297.324 168.06 298.013 168.707C298.703 169.353 297.72 171.332 295.829 173.104C290.514 178.085 291.487 178.706 304.609 178.706C316.293 178.706 320.576 176.335 313.495 173.789C311.662 173.129 310.195 170.921 310.233 168.881C310.301 165.356 310.451 165.353 313.255 168.816C316.921 173.342 318.729 173.376 323.872 169.014C327.556 165.889 327.934 165.88 327.934 168.91C327.934 170.749 326.185 173.208 324.047 174.375C321.174 175.943 324.909 176.514 338.355 176.56C356.186 176.623 365.917 179.881 352.134 181.174L345.148 181.829L351.178 187.455C357.276 193.146 357.165 197.445 350.921 197.445C349.046 197.445 347.013 195.658 346.404 193.473C345.13 188.906 338.235 186.541 335.01 189.564C331.326 193.017 322.928 189.281 324.191 184.751C325.324 180.691 322.428 179.703 316.079 181.987C313.303 182.985 313.644 184.425 318.119 190.606C324.547 199.483 324.873 203.956 319.429 208.574C314.812 212.49 309.514 212.955 303.559 209.968C300.145 208.255 299.085 208.945 297.156 214.132C294.234 221.988 289.398 222.027 281.113 214.262Z" fill="black"/>
<path d="M256.848 198.486C256.848 196.768 255.348 195.363 253.515 195.363C251.683 195.363 250.183 196.768 250.183 198.486C250.183 200.204 251.683 201.609 253.515 201.609C255.348 201.609 256.848 200.204 256.848 198.486Z" fill="white"/>
<path d="M353.481 193.281C352.726 192.135 351.109 191.198 349.887 191.198C348.665 191.198 348.283 192.135 349.038 193.281C349.794 194.426 351.411 195.363 352.633 195.363C353.855 195.363 354.236 194.426 353.481 193.281Z" fill="white"/>
<path d="M246.851 191.198C247.606 190.053 246.665 189.116 244.761 189.116C242.856 189.116 241.297 190.053 241.297 191.198C241.297 192.344 242.238 193.281 243.388 193.281C244.537 193.281 246.096 192.344 246.851 191.198Z" fill="white"/>
<path d="M254.626 189.116C254.626 186.826 253.626 184.952 252.405 184.952C251.183 184.952 250.183 186.826 250.183 189.116C250.183 191.407 251.183 193.281 252.405 193.281C253.626 193.281 254.626 191.407 254.626 189.116Z" fill="white"/>
<path d="M265.733 189.116C265.733 187.971 263.734 187.034 261.291 187.034C258.847 187.034 256.848 187.971 256.848 189.116C256.848 190.262 258.847 191.198 261.291 191.198C263.734 191.198 265.733 190.262 265.733 189.116Z" fill="white"/>
<path d="M282.394 189.116C283.173 187.936 281.307 187.034 278.083 187.034C274.956 187.034 272.398 187.971 272.398 189.116C272.398 190.262 274.338 191.198 276.71 191.198C279.081 191.198 281.639 190.262 282.394 189.116Z" fill="white"/>
<path d="M333.393 187.178C335.036 184.687 330.857 182.218 327.898 183.932C325.414 185.371 327.045 189.116 330.156 189.116C331.234 189.116 332.69 188.244 333.393 187.178Z" fill="white"/>
<path d="M273.508 184.952C274.264 183.807 273.323 182.87 271.418 182.87C269.513 182.87 267.955 183.807 267.955 184.952C267.955 186.097 268.896 187.034 270.045 187.034C271.195 187.034 272.753 186.097 273.508 184.952Z" fill="white"/>
<path d="M347.326 185.776C346.588 185.084 344.672 185.01 343.068 185.612C341.296 186.277 341.823 186.77 344.41 186.87C346.752 186.96 348.064 186.468 347.326 185.776Z" fill="white"/>
<path d="M339.042 182.87C339.042 181.725 337.983 180.788 336.689 180.788C335.395 180.788 334.955 181.725 335.71 182.87C336.465 184.015 337.524 184.952 338.062 184.952C338.601 184.952 339.042 184.015 339.042 182.87Z" fill="white"/>
<path d="M158.843 236.258C163.155 231.387 170.21 209.653 170.21 201.238C170.21 190.257 164.459 187.787 145.986 190.837C127.092 193.956 117.162 198.861 112.94 207.159C109.59 213.744 109.642 214.456 113.879 219.844C124.505 233.358 152.395 243.539 158.843 236.258Z" fill="white"/>
<path d="M85.6572 249.795C85.5816 249.059 78.3754 242.835 69.6433 235.964C60.9112 229.093 48.2745 218.084 41.5618 211.499C28.4569 198.644 23.5933 196.702 23.5933 204.324C23.5933 209.984 30.5284 216.517 58.9883 237.666C76.8999 250.976 86.2125 255.212 85.6572 249.795Z" fill="white"/>
<path d="M270.172 279.044C270.169 276.06 272.15 275.629 283.162 276.213C297.278 276.962 303.498 273.798 303.498 265.869C303.498 256.818 299.498 253.662 288.031 253.662C278.936 253.662 276.412 254.557 272.559 259.148C270.027 262.165 267.955 266.749 267.955 269.335C267.955 271.921 266.455 274.576 264.623 275.235C260.584 276.688 260.215 282.103 264.067 283.398C267.982 284.714 270.177 283.148 270.172 279.044Z" fill="white"/>
<path d="M171.146 280.208C172.938 277.632 176.554 270.247 179.18 263.797C183.038 254.324 184.756 252.268 188.127 253.094C191.071 253.815 193.089 252.492 194.981 248.6C197.13 244.179 198.796 243.293 203.374 244.137C206.516 244.717 213.085 245.716 217.972 246.357L226.858 247.524L215.362 242.451C201.681 236.414 185.963 223.348 180.094 213.134C175.38 204.931 172.432 203.678 172.432 209.878C172.432 217.197 162.173 235.714 152.419 245.999L142.902 256.034L149.892 262.018C155.532 266.847 156.881 269.632 156.881 276.447C156.881 284.047 157.433 284.893 162.384 284.893C165.644 284.893 169.215 282.984 171.146 280.208Z" fill="white"/>
<path d="M218.858 294.846C238.215 293.838 243.519 291.223 243.519 282.685C243.519 279.895 241.198 279.142 231.998 278.948C220.107 278.697 214.274 276.023 218.083 272.569C219.244 271.516 226.696 270.345 234.644 269.966L249.095 269.277L250.307 266.412C251.865 260.099 255.067 256.213 252.578 252.263C250.867 250.231 249.46 251.571 236.854 250.736C226.469 250.048 213.857 248.933 208.828 248.258C199.764 247.042 199.642 247.113 194.783 256.52C192.088 261.739 190.04 266.639 190.233 267.41C190.425 268.181 189.637 269.385 188.482 270.086C185.874 271.666 179.096 283.868 179.096 286.98C179.096 288.242 182.095 290.254 185.761 291.451C189.426 292.649 192.425 294.976 192.425 296.622C192.425 298.807 193.474 299.102 196.313 297.716C198.451 296.672 208.596 295.381 218.858 294.846Z" fill="#CF4E49"/>
<path d="M134.261 306.107C134.81 300.762 133.706 298.318 129.263 295.042C122.69 290.197 122.087 285.708 127.106 278.992C131.299 273.381 139.787 273.618 140.959 279.379C141.599 282.522 141.016 282.853 137.804 281.168C135.012 279.704 133.01 279.902 130.933 281.849C126.616 285.895 127.361 290.671 132.728 293.363C138.62 296.319 142.528 291.987 138.427 287.045C136.182 284.34 136.304 284.236 139.225 286.368C141.122 287.751 144.87 288.345 147.556 287.686C151.606 286.693 152.438 285.001 152.438 277.752C152.438 270.829 151.101 267.814 145.995 263.229C139.702 257.579 139.637 257.303 143.208 251.471C147.491 244.475 147.131 244.093 126.823 234.128C111.965 226.837 108.009 228.589 108.009 242.465C108.009 251.231 107.751 251.579 101.256 251.579C91.7974 251.579 78.2859 258.542 75.1248 265.044C71.5807 272.335 71.7732 277.599 75.8548 284.997C80.1125 292.713 83.2094 292.919 82.1439 285.414C81.5554 281.268 82.6365 282.417 86.0615 289.578C91.3467 300.627 96.1835 302.399 97.4333 293.742L98.2601 288.016L100.094 294.263C102.23 301.537 109.672 309.878 114.028 309.878C116.39 309.878 116.517 308.942 114.608 305.599C113.264 303.245 112.561 300.202 113.046 298.837C113.532 297.473 115.225 298.696 116.808 301.556C124.566 315.567 133.061 317.782 134.261 306.107Z" fill="white"/>
<path d="M145.774 307.796C145.774 294.594 144.76 293.046 139.981 298.947C136.423 303.34 136.163 307.821 139.055 314.948C142.779 324.129 145.774 320.941 145.774 307.796Z" fill="white"/>
<path d="M229.869 333.081C237.06 327.897 235.4 321.861 226.303 320.117C222.347 319.358 217.541 317.518 215.624 316.026C212.464 313.568 212.463 313.144 215.612 311.493C217.522 310.491 219.084 308.781 219.084 307.693C219.084 304.184 214.361 305.585 209.962 310.399C200.561 320.686 200.644 321.501 211.89 329.413C217.68 333.487 222.916 336.827 223.527 336.836C224.138 336.844 226.991 335.156 229.869 333.081Z" fill="white"/>
<path d="M219.042 339.548C218.999 337.851 202.408 324.453 200.349 324.453C197.026 324.453 199.798 329.28 206.309 334.832C213.194 340.702 219.128 342.9 219.042 339.548Z" fill="black"/>
<path d="M201.311 350.53C201.311 349.985 199.315 346.471 196.876 342.722C190.747 333.3 191.237 329.462 200.334 315.649C211.883 298.112 207.642 294.452 189.908 306.65C182.373 311.833 179.014 315.862 177.365 321.694L175.112 329.658L174.883 321.923C174.708 316.048 176.316 312.412 181.569 306.805C187.195 300.799 187.982 298.854 185.789 296.377C179.593 289.379 163.546 304.302 163.546 317.062C163.546 319.982 162.546 322.371 161.324 322.371C156.968 322.371 159.125 308.348 164.657 300.707C171.535 291.208 171.613 289.057 165.081 289.057C152.581 289.057 146.844 301.958 150.37 322.134C151.494 328.563 152.419 334.077 152.426 334.388C152.434 334.7 158.592 338.682 166.112 343.237C177.259 349.99 181.773 351.52 190.548 351.52C196.468 351.52 201.311 351.075 201.311 350.53Z" fill="white"/>
<path d="M212.418 406.794C212.418 406.276 211.488 403.699 210.35 401.068C209.213 398.438 207.695 393.709 206.976 390.56C206.257 387.411 204.553 384.834 203.188 384.834C199.824 384.834 202.637 403.835 206.326 406.031C209.399 407.86 212.418 408.238 212.418 406.794Z" fill="white"/>
<path d="M115.677 432.751C133.502 427.974 173.455 410.138 180.702 403.722C185.109 399.822 185.597 397.502 185.229 382.198C184.783 363.585 185.995 359.849 192.478 359.849C197.76 359.849 201.311 365.82 201.311 374.703C201.311 379.468 202.011 380.846 203.652 379.309C205.092 377.959 205.422 373.08 204.509 366.633L203.026 356.151L190.345 355.291C173.627 354.158 159.845 346.475 146.318 330.75C139.311 322.603 134.102 318.447 130.779 318.351C121.165 318.074 125.746 325.052 149.106 346.267C168.693 364.056 172.432 368.47 172.432 373.806C172.432 377.301 170.896 381.355 169.019 382.815C166.176 385.026 164.601 384.605 159.578 380.287C150.155 372.188 135.021 364.866 117.244 359.805C74.6757 347.687 29.5254 365.861 11.0967 402.532C2.32086 419.995 2.83212 420.713 31.3685 431.025C45.049 435.968 50.1249 436.658 73.5834 436.765C93.8308 436.857 103.961 435.892 115.677 432.751Z" fill="white"/>
<path d="M350.149 459.874C375.703 449.315 387.203 436.532 401.9 402.35C414.082 374.019 417.777 359.103 417.844 337.987C417.898 321.15 417.272 318.239 411.672 309.311C404.742 298.261 392.501 289.636 382.361 288.659C376.373 288.082 375.706 288.604 375.788 293.798C375.86 298.268 375.104 299.247 372.456 298.114C365.854 295.286 347.095 294.878 338.223 297.37C333.296 298.753 325.735 302.134 321.42 304.882C312.121 310.804 309.74 311.12 310.621 306.318C311.613 300.905 300.775 297.072 283.38 296.686C265.811 296.296 263.262 294.136 277.937 292.074C289.794 290.407 299.558 291.877 310.163 296.926C317.803 300.563 318.15 300.538 330.156 295.482C338.363 292.026 346.563 290.298 355.135 290.218C362.153 290.152 367.901 289.265 367.908 288.246C367.916 287.227 369.638 285.217 371.736 283.778C375.151 281.438 374.626 280.776 366.738 277.475C361.605 275.327 350.378 273.413 339.854 272.89C325.072 272.156 319.921 272.765 311.549 276.236C304.091 279.328 301.674 281.358 302.64 283.718C303.785 286.513 302.12 286.776 290.495 285.637C265.26 283.165 239.844 290.996 228.245 304.816C221.697 312.619 222.216 316.125 229.918 316.125C238.803 316.125 242.157 320.658 240.492 330.418L239.123 338.443L264.091 331.441C277.823 327.59 290.558 324.75 292.391 325.129C294.224 325.508 291.225 326.957 285.727 328.348C257.943 335.379 245.74 339.36 245.74 341.393C245.74 342.705 247.355 343.024 249.628 342.161C258.326 338.858 301.934 328.476 304.173 329.175C305.498 329.589 297.094 332.394 285.498 335.409C255.061 343.323 251.124 344.907 254.357 347.937C256.21 349.673 257.516 349.763 258.606 348.228C260.781 345.164 265.746 343.558 290.867 337.788C315.886 332.042 314.606 332.213 314.606 334.625C314.606 335.639 303.644 339.018 290.246 342.133C276.849 345.248 264.611 349.239 263.051 351C260.629 353.735 260.862 354.019 264.64 352.947C274.938 350.022 321.404 339.028 323.465 339.028C324.701 339.028 325.713 339.751 325.713 340.635C325.713 341.518 314.292 344.933 300.332 348.223C274.164 354.391 268.144 356.556 270.645 358.9C271.443 359.648 285.277 356.888 301.389 352.767C331.487 345.068 339.356 343.784 335.599 347.184C333.917 348.705 284.153 361.931 280.11 361.931C279.534 361.931 279.062 362.969 279.062 364.239C279.062 365.739 281.201 366.012 285.171 365.018C308.589 359.16 348.019 352.304 347.342 354.208C346.496 356.587 306.578 365.825 296.41 365.995C291.041 366.085 286.181 369.297 288.344 371.325C288.807 371.758 305.437 369.028 325.3 365.258C345.162 361.487 361.908 359.153 362.513 360.07C363.784 361.998 352.949 364.887 332.378 368.106C310.198 371.577 296.834 374.683 296.834 376.366C296.834 379.451 299.629 380.374 303.183 378.462C307.293 376.251 366.3 366.108 367.736 367.366C369.917 369.278 364.783 370.863 344.459 374.552C323.861 378.291 319.389 379.642 321.455 381.504C321.964 381.962 333.377 380.565 346.817 378.399C374.978 373.86 378.56 373.613 375.571 376.415C373.642 378.223 345.69 383.36 321.775 386.301C316.554 386.943 311.746 388.281 311.091 389.274C309.392 391.852 321.227 391.407 346.817 387.932C373.434 384.317 379.517 384.083 374.436 386.87C372.521 387.92 358.135 390.26 342.467 392.07C326.799 393.881 313.163 395.834 312.166 396.412C311.168 396.99 308.795 394.641 306.892 391.191C303.377 384.821 294.852 378.246 257.483 353.082C238.185 340.087 226.297 335.368 228.506 341.58C229.005 342.984 244.833 355.1 263.679 368.504L297.945 392.875L298.128 401.868C298.58 424.114 299.149 428.75 301.277 427.517C302.499 426.809 303.661 419.961 303.86 412.299L304.222 398.368L305.72 409.819C306.543 416.118 307.39 419.866 307.601 418.148C307.9 415.713 311.776 414.931 325.179 414.602C334.636 414.369 350.121 413.602 359.59 412.897C371.178 412.034 376.807 412.343 376.807 413.84C376.807 415.14 371.494 416.142 364.033 416.248C357.008 416.349 346.262 417.094 340.153 417.906C329.152 419.367 329.23 419.397 348.386 421.026C359.023 421.93 368.7 422.106 369.891 421.416C371.082 420.726 372.725 421.176 373.542 422.415C374.587 424 365.061 424.538 341.413 424.231C309.327 423.815 307.556 424.007 302.5 428.459C298.954 431.582 296.148 432.541 294.01 431.361C288.861 428.52 273.765 416.623 243.236 391.349C217.539 370.074 214.669 367.012 214.932 361.158L215.224 354.644L216.598 361.298C217.653 366.408 223.396 372.448 241.346 387.324C283.026 421.867 292.321 428.845 294.765 427.429C297.664 425.749 295.235 395.555 291.886 391.639C290.68 390.229 274.48 378.328 255.886 365.193C229.329 346.433 221.014 341.571 217.12 342.525C213.567 343.396 210.309 342.077 205.625 337.872C195.904 329.142 197.461 336.208 207.42 346.013C212.001 350.524 214.565 353.59 213.116 352.827C208.344 350.314 207.221 368.645 211.067 386.26C216.572 411.475 218.38 416.266 228.251 431.784C239.881 450.068 242.374 452.747 254.626 460.129L264.622 466.151L301.277 465.537C334.414 464.982 339.104 464.439 350.149 459.874Z" fill="white"/>
<path d="M310.163 402.562C310.163 401.238 320.909 399.15 336.265 397.489C350.621 395.936 366.116 394.229 370.698 393.695C375.411 393.146 379.028 393.62 379.028 394.786C379.028 396.884 355.387 400.723 326.269 403.355C315.255 404.351 310.163 404.1 310.163 402.562Z" fill="black"/>
<path d="M310.163 410.265C310.163 408.63 359.888 403.512 374.586 403.635C389.96 403.763 375.828 407.157 350.019 409.536C319.775 412.322 310.163 412.498 310.163 410.265Z" fill="black"/>
<path d="M311.13 382.534C309.191 379.594 305.72 380.36 305.72 383.728C305.72 385.585 307.023 386.317 309.039 385.592C310.865 384.935 311.806 383.559 311.13 382.534Z" fill="#28170B"/>
<path d="M257.087 248.628C235.948 246.833 213.966 238.512 198.153 226.318C193.53 222.753 187.121 216.314 184.391 212.492C178.442 204.163 176.161 196.31 177.409 188.454C178.101 184.099 177.897 183.526 175.737 183.749C174.928 183.833 173.036 184.103 171.532 184.349C164.526 185.497 157.74 182.404 153.3 176.041C149.836 171.076 148.229 165.475 148.203 158.274C148.188 154.165 148.282 153.438 149.14 151.055C150.912 146.129 153.824 142.847 158.137 140.91C160.111 140.025 161.025 139.829 163.74 139.715C169.252 139.483 172.465 140.77 178.109 145.472C181.238 148.079 182.23 148.653 183.071 148.344C184.608 147.779 182.842 144.072 179.261 140.344C175.985 136.934 174.796 134.79 174.796 132.296C174.796 122.824 186.278 103.168 198.777 91.2428C204.379 85.8982 208.66 83.2 217.21 79.6254C229.532 74.4734 241.578 71.8682 248.069 72.9517C251.211 73.4763 256.662 75.1552 259.465 76.4621C262.002 77.6444 265.79 81.0964 270.019 86.0777C272.341 88.8137 272.637 89.3152 272.438 90.1825C272.246 91.02 272.612 91.7618 274.839 95.0501C280.002 102.672 283.606 108.684 287.269 115.783C288.182 117.552 290.458 118.87 293.798 119.561C295.862 119.989 298.737 120.117 307.005 120.151C316.737 120.191 317.639 120.145 318.392 119.578C318.842 119.238 319.21 119.118 319.21 119.311C319.21 119.821 322.595 120.702 324.553 120.702C327.228 120.702 329.739 120.067 333.157 118.525C338.166 116.266 340.454 114.343 350.325 104.096C354.244 100.027 358.456 96.4801 359.607 96.2794C361.093 96.02 366.262 103.658 371.78 114.271C374.934 120.337 376.448 124.265 377.131 128.149C377.344 129.359 377.656 135.985 377.824 142.873C378.172 157.155 378.543 161.018 379.815 163.631C380.744 165.536 381.349 168.325 381.352 170.714C381.352 171.505 381.509 172.152 381.699 172.152C382.299 172.152 384.951 168.682 386.031 166.482C387.38 163.737 387.641 160.384 386.861 155.824C385.73 149.211 386.286 147.137 389.074 147.562C390.624 147.799 391.758 148.954 392.368 150.918C393.058 153.138 392.868 159.556 391.994 163.559C390.517 170.328 386.593 179.652 384 182.557C382.574 184.153 381.512 184.496 379.555 183.991C378.371 183.685 377.919 183.726 376.836 184.235C374.951 185.121 373.437 187.275 369.806 194.231C364.273 204.833 358.627 212.233 349.057 221.422C340.747 229.402 332.727 235.286 324.946 239.111C316.025 243.496 302.386 246.612 284.607 248.327C279.539 248.815 261.608 249.012 257.087 248.628ZM293.875 219.138C295.041 218.348 296.16 216.544 297.671 213.024C299.44 208.903 300.394 208.503 304.159 210.308C306.732 211.54 310.198 212.142 312.583 211.77C317.268 211.039 321.945 207.345 322.966 203.569C323.848 200.31 322.648 197.154 317.865 190.163C313.404 183.643 313.35 182.815 317.311 181.642C320.025 180.838 322.672 180.751 323.645 181.434C324.231 181.845 324.316 182.262 324.229 184.336C324.147 186.286 324.267 186.971 324.838 187.858C325.68 189.165 328.421 190.674 330.156 190.787C332.482 190.938 333.183 190.768 335.099 189.584C337.483 188.112 339.653 187.995 342.338 189.195C344.477 190.151 344.821 190.524 346.398 193.589C348.016 196.733 349.375 197.682 351.866 197.408C354.327 197.136 355.374 196.308 355.512 194.523C355.67 192.466 354.419 190.641 349.64 185.953C347.055 183.419 345.769 181.931 346.083 181.836C346.354 181.755 348.477 181.516 350.803 181.306C355.565 180.876 357.847 180.411 358.416 179.753C359.838 178.111 349.961 176.567 337.924 176.55C331.474 176.541 324.47 176.079 323.586 175.605C323.108 175.349 323.093 175.235 323.495 174.921C325.975 172.984 326.678 172.26 327.329 170.971C328.219 169.209 328.192 166.972 327.279 166.806C326.959 166.748 325.53 167.639 324.101 168.786C321.252 171.073 319.319 172.153 318.076 172.151C316.764 172.149 315.151 170.988 313.172 168.62C312.15 167.398 311.125 166.398 310.894 166.398C310.313 166.398 310.024 168.431 310.387 169.974C310.829 171.852 311.761 172.856 314.297 174.187C319.697 177.02 315.823 178.563 303.32 178.557C296.361 178.554 294.05 178.304 293.168 177.459C292.671 176.982 292.677 176.846 293.238 176.025C293.579 175.527 294.721 174.218 295.777 173.117C297.797 171.012 298.492 169.788 298.153 168.94C297.774 167.992 295.293 168.62 294.137 169.956C293.105 171.147 290.359 172.152 288.135 172.152C284.864 172.152 282.743 170.864 280.75 167.667C279.798 166.14 279.44 166.077 279.14 167.385C278.623 169.641 280.257 172.558 283.493 175.155C284.494 175.958 285.313 176.762 285.313 176.94C285.313 177.476 283.158 178.172 279.815 178.717C273.611 179.729 251.058 182.005 240.823 182.653C234.524 183.052 232.616 183.56 232.418 184.891C232.283 185.799 233.853 187.045 235.133 187.047C235.641 187.048 236.534 187.327 237.117 187.668C238.19 188.296 238.665 189.033 240.25 192.534C241.383 195.036 242.012 195.203 246.374 194.153C248.176 193.719 249.732 193.442 249.832 193.538C249.931 193.633 249.234 194.723 248.282 195.958C246.155 198.721 245.881 199.618 246.731 201.038C247.505 202.331 250.034 203.632 251.775 203.632C253.429 203.632 256.37 202.212 257.352 200.938C257.778 200.385 258.348 199.127 258.618 198.143C259.413 195.246 259.881 194.558 261.622 193.736C263.159 193.01 263.655 192.969 271.013 192.969C278.441 192.969 278.862 192.934 280.643 192.163C284.325 190.567 285.132 188.434 283.144 185.556C281.61 183.336 281.991 183.039 286.938 182.585C294.308 181.909 303.518 182.704 307.542 184.364C312.735 186.505 319.051 197.821 318.004 203.107C317.667 204.808 315.634 206.809 313.729 207.316C309.886 208.339 306.456 207.383 303.194 204.381C298.098 199.691 295.445 201.148 293.393 209.762C292.519 213.435 291.622 215.34 290.624 215.643C289.281 216.052 287.52 214.748 282.188 209.395C279.239 206.434 276.493 203.911 276.087 203.787C275.622 203.646 275.143 203.758 274.797 204.09C272.457 206.333 283.966 218.583 289.642 219.891C291.125 220.233 292.662 219.96 293.875 219.138ZM161.976 161.804C163.892 159.676 165.411 158.664 167.314 158.247C169.948 157.671 172.205 158.943 173.573 161.776C174.265 163.207 175.62 164.051 176.254 163.444C177.793 161.968 171.98 155.49 166.596 152.681C164.038 151.346 161.764 151.321 160.416 152.612C159.467 153.522 159.433 153.68 159.312 157.781C159.185 162.067 159.361 163.69 159.953 163.69C160.132 163.69 161.042 162.842 161.976 161.804ZM320.433 150.019C321.925 149.359 323.68 148.722 324.334 148.604C325.409 148.411 325.676 148.54 327.102 149.947C329.005 151.825 330.379 152.031 331.543 150.613C333.315 148.453 331.998 143.68 328.912 141.075C325.344 138.065 322.056 138.589 317.866 142.835C315.012 145.729 313.89 148.888 315.007 150.889C315.523 151.812 316.877 151.595 320.433 150.019ZM293.122 150.449C295.623 149.935 296.612 148.941 296.612 146.942C296.612 144.916 295.454 141.811 294.25 140.605C290.103 136.456 280.229 141.315 279.103 148.059C278.906 149.245 278.98 149.461 279.712 149.839C280.171 150.075 281.023 150.378 281.606 150.513C283.303 150.906 291.112 150.862 293.122 150.449Z" fill="white"/>
<path d="M214.512 47.9647C210.2 39.376 206.408 33.3416 203.542 30.5086C203.219 30.1894 202.968 29.9283 202.985 29.9283C203.002 29.9283 203.213 29.9887 203.455 30.0627C204.177 30.2839 204.572 30.3491 205.212 30.3529C206.175 30.3585 206.738 30.1526 207.305 29.587C207.896 28.9969 208.188 28.1953 208.278 26.9126C208.316 26.3756 208.28 25.2018 208.212 24.8075C208.184 24.6422 208.232 24.7362 209.662 27.6751C210.271 28.9269 212.253 32.9211 214.066 36.5511C217.058 42.5414 218.745 45.9527 220.14 48.8331L220.641 49.8651H215.467L214.512 47.9647Z" fill="white"/>
<path d="M189.954 86.5267C189.561 86.4707 189.279 86.3967 188.694 86.197C188.274 86.0534 187.931 85.9531 187.68 85.9005L187.509 85.8646L187.588 85.8349C188.541 85.4762 189.489 84.3066 189.739 83.1809C189.868 82.5995 189.815 82.0697 189.58 81.6025C189.541 81.5233 189.511 81.456 189.514 81.4529C189.517 81.4496 189.609 81.5081 189.718 81.5825C189.827 81.6569 190.055 81.8016 190.224 81.9041C190.765 82.2329 191.055 82.452 191.397 82.7924C191.918 83.3105 192.243 83.8594 192.372 84.4392C192.4 84.566 192.407 84.6458 192.406 84.8686C192.406 85.1126 192.401 85.1595 192.363 85.3031C192.197 85.9262 191.706 86.3545 190.986 86.505C190.784 86.5473 190.187 86.5599 189.954 86.5267Z" fill="white"/>
<path d="M194.11 78.8178C193.761 78.7565 193.452 78.6653 192.34 78.2967C191.302 77.9522 190.935 77.858 190.437 77.8076C190.335 77.7973 190.219 77.7849 190.18 77.7802L190.108 77.7715L190.239 77.7059C190.599 77.5245 190.989 77.0853 191.251 76.5657C191.547 75.9788 191.627 75.4313 191.48 74.9939C191.457 74.9245 191.44 74.8654 191.443 74.8626C191.45 74.8557 192.759 76.2658 193.293 76.8551C194.215 77.8718 194.64 78.4472 194.64 78.6765C194.64 78.8459 194.493 78.8852 194.11 78.8178Z" fill="white"/>
<path d="M196.391 74.7575C195.497 74.1532 194.709 73.5339 193.512 72.4945C192.682 71.7746 192.117 71.3118 191.532 70.8724C190.63 70.1956 189.825 69.6987 189.256 69.4661L189.075 69.3925L189.158 69.3812C190.204 69.2378 191.189 68.3179 191.714 66.9943C192.092 66.0427 192.162 64.9744 191.91 64.0103C191.883 63.9046 191.86 63.8144 191.86 63.8099C191.86 63.8056 191.934 63.9071 192.023 64.0359C192.689 64.9937 193.459 65.9364 194.471 67.0361C194.642 67.2219 195.219 67.8142 195.752 68.3523C196.71 69.3182 196.983 69.6021 197.413 70.0813C198.927 71.7647 199.98 73.3222 200.385 74.4756C200.437 74.6229 200.52 74.9263 200.521 74.969C200.521 74.9858 200.131 74.9901 198.628 74.9901H196.736L196.391 74.7575Z" fill="white"/>
<path d="M199.534 76.2089C199.391 76.1913 199.228 76.1622 199.107 76.1327C198.547 75.9956 197.805 75.6495 196.977 75.1396L196.76 75.0055L198.477 74.9975C199.422 74.9932 200.269 74.9874 200.359 74.9848C200.475 74.9815 200.524 74.9837 200.527 74.9938C200.546 75.0426 200.561 75.2606 200.555 75.4082C200.546 75.6762 200.491 75.8263 200.348 75.9777C200.207 76.1275 200.012 76.2009 199.731 76.2093C199.646 76.212 199.557 76.2115 199.534 76.2089Z" fill="white"/>
<path d="M225.532 67.8944C224.828 67.301 222.969 64.4905 221.265 61.4433C219.989 59.1604 215.987 51.1041 215.736 50.3134C215.605 49.8999 215.621 49.8971 218.109 49.8971H220.613L221.914 52.6247C226.027 61.25 227.935 66.8856 227.087 67.9085C226.677 68.4027 226.13 68.3978 225.532 67.8944Z" fill="white"/>
<path d="M201.783 70.3977C198.623 66.3648 195.328 62.9643 193.089 61.424C192.866 61.2708 192.504 61.0489 192.376 60.9864C192.333 60.9655 192.3 60.9429 192.302 60.9361C192.305 60.9293 192.508 60.7859 192.753 60.6173C193.252 60.2753 193.762 59.8962 193.992 59.6982C194.674 59.109 194.999 58.6127 195.13 57.9572C195.176 57.7285 195.193 57.1636 195.164 56.843C195.097 56.1089 194.882 55.0896 194.437 53.3921C194.381 53.18 194.339 53.0031 194.343 52.999C194.347 52.9947 194.368 53.0204 194.389 53.0557C195.259 54.4956 197.399 57.5745 201.024 62.6001C201.446 63.1846 201.914 63.8357 202.066 64.047L202.34 64.4313V70.7055H202.024L201.783 70.3977Z" fill="white"/>
<path d="M205.397 74.4243C205.194 74.352 204.876 74.1844 204.69 74.0518C204.235 73.7275 202.062 70.8054 202.245 70.764C202.36 70.738 202.382 70.2434 202.383 67.6151L202.385 64.4969L203.39 66.0237C206.181 70.2627 207.56 73.4621 206.906 74.1848C206.744 74.3651 206.205 74.567 205.908 74.5594C205.829 74.5573 205.599 74.4966 205.397 74.4243Z" fill="white"/>
<path d="M225.968 68.1327C225.336 67.8569 224.046 66.0877 222.134 62.8747C220.752 60.5507 215.725 50.5654 215.725 50.143C215.725 50.0952 215.843 50.013 215.987 49.9603C216.24 49.8678 216.236 49.8642 215.866 49.8569L215.484 49.8493L214.834 48.5373C210.795 40.383 206.939 34.1346 203.927 30.8648C203.47 30.3688 203.182 29.996 203.287 30.0362C203.751 30.2147 204.668 30.3802 205.2 30.3815C205.999 30.3834 206.702 30.1538 207.158 29.7414C207.989 28.9895 208.287 28.0534 208.289 26.1863L208.291 24.9956L212.754 33.9634C220.766 50.0641 223.373 55.5481 225.255 60.2577C226.446 63.2408 227.258 65.9924 227.258 67.0502C227.258 67.5608 227.074 67.9716 226.776 68.1259C226.449 68.2951 226.343 68.296 225.968 68.1327Z" fill="white"/>
<path d="M225.876 68.0866C224.758 67.3876 222.423 63.7087 219.661 58.2943C217.883 54.8088 215.858 50.6535 215.774 50.3198C215.726 50.1243 215.758 50.0531 215.934 49.9684C216.141 49.8683 216.135 49.8618 215.819 49.8557C215.486 49.8493 215.479 49.8412 214.88 48.6326C214.549 47.9635 213.782 46.4713 213.177 45.3167C209.654 38.5952 206.722 34.0032 204.043 31.0102C203.53 30.4368 203.182 29.9954 203.27 30.0293C203.359 30.0632 203.782 30.1621 204.21 30.2491C205.712 30.5537 206.834 30.235 207.533 29.3051C208.061 28.604 208.22 27.9746 208.271 26.3905L208.315 25.0224L212.931 34.3107C219.553 47.6339 221.712 52.0971 223.706 56.5767C226.301 62.4077 227.609 66.615 227.163 67.6935C227.038 67.994 226.644 68.2664 226.333 68.2657C226.239 68.2655 226.033 68.1849 225.876 68.0866Z" fill="white"/>
<path d="M208.577 66.4847C208.089 66.252 206.187 64.2904 205.168 62.9694C204.683 62.34 203.739 61.0352 203.071 60.07C200.292 56.0523 198.504 53.7092 196.765 51.8055C196.009 50.9777 195.915 50.8386 196.057 50.7558C197.42 49.9638 198.322 47.5984 198.532 44.272L198.598 43.2273L199.376 44.8445C200.342 46.8508 201.629 49.2094 203.382 52.1872C207.193 58.6573 209.16 62.8563 209.547 65.3469C209.721 66.4712 209.382 66.8692 208.577 66.4847Z" fill="white"/>
<path d="M217.275 68.2129C216.961 68.0563 216.484 67.6532 215.945 67.0889C214.55 65.6277 213.229 63.5234 211.593 60.1551C208.015 52.7905 203.254 44.9673 200.255 41.5238L199.652 40.8318L200.059 40.8228C200.839 40.8054 201.43 40.0642 201.726 38.7325C201.879 38.0454 201.884 35.6763 201.734 35.0612C201.677 34.8265 201.642 34.6219 201.658 34.6065C201.673 34.5912 201.848 34.8262 202.047 35.1288C202.246 35.4314 202.738 36.1298 203.142 36.6809C208.066 43.4069 216.742 59.0371 218.742 64.7832C219.235 66.1994 219.058 67.9699 218.39 68.3159C218.014 68.5107 217.839 68.4946 217.275 68.2129Z" fill="white"/>
<path d="M228.735 53.9676C226.656 52.6945 221.393 42.9758 214.766 28.1706C213.332 24.9658 212.887 24.0612 212.062 22.6746C211.195 21.2172 210.563 20.3499 209.743 19.4908L209.028 18.7412H210.026C212.219 18.7412 213.617 18.0335 214.246 16.6061C214.481 16.0731 214.772 14.8974 214.772 14.4839C214.772 14.0783 214.865 14.2627 215.247 15.422C216.066 17.9076 218.839 24.5579 222.776 33.4772C225.327 39.2562 226.615 42.4879 227.877 46.271C229.295 50.5251 229.844 53.2919 229.397 53.9313C229.217 54.1887 229.106 54.1948 228.735 53.9676Z" fill="white"/>
<path d="M230.174 38.9612C229.845 38.7023 229.133 37.639 228.518 36.49C227.537 34.657 226.232 31.4892 225.019 27.9973C222.75 21.4669 219.559 15.4474 217.554 13.9142L217.111 13.576L217.586 13.6269C218.871 13.7648 219.28 13.7739 220.201 13.6851C221.755 13.5353 223.074 13.094 224.141 12.367C224.533 12.1 225.345 11.3031 225.64 10.8972L225.896 10.544L225.957 11.3448C226.137 13.6787 227.04 17.4648 229.46 26.0226C232.391 36.3881 232.734 38.4712 231.596 39.0114C231.138 39.2292 230.485 39.2062 230.174 38.9612Z" fill="white"/>
<path d="M301.934 117.579C301.934 116.582 306.798 107.912 312.624 98.5214C318.051 89.7746 319.778 86.8413 321.406 83.6017C325.535 75.3865 326.382 70.8074 323.817 70.5605C322.566 70.4401 321.693 71.1045 321.33 72.4533C320.695 74.8128 315.993 83.539 309.214 94.9374C304.686 102.551 303.097 105.375 300.407 110.592L297.902 115.45L297.896 112.793C297.888 108.768 298.664 105.485 301.025 99.5562C304.07 91.9106 307.678 83.5229 309.746 79.2833C312.214 74.2206 312.703 72.4612 312.179 70.5148C311.835 69.2362 310.875 68.4847 309.899 68.73C308.227 69.1502 304.787 75.6398 300.442 86.5705C295.754 98.365 293.273 103.549 291.668 104.901C290.788 105.642 290.342 105.612 290.342 104.812C290.342 104.546 291.197 101.365 292.241 97.7433C300.75 68.2395 301.983 63.5348 302.353 59.1758C302.638 55.8076 301.967 54.9963 300.002 56.3333C299.246 56.8475 298.865 57.4172 298.334 58.8299C296.1 64.7648 291.379 83.3541 290.329 90.3491C289.958 92.8206 289.661 93.1831 288.009 93.1831C285.92 93.1831 285.814 91.9114 287.358 85.3836C290.04 74.0452 293.171 54.53 293.499 47.1129L293.657 43.5519L292.901 43.362C291.945 43.1217 291.44 43.4401 290.681 44.762C288.999 47.6921 287.956 52.2927 286.701 62.3237C284.319 81.3664 282.446 88.4919 279.2 90.8695L278.436 91.4287L277.919 90.7916C277.147 89.8402 277.258 88.0605 278.459 82.0914C281.349 67.7241 284.941 43.0766 284.948 37.5582C284.95 36.1745 284.841 35.6787 284.458 35.3315C282.34 33.4127 280.85 37.7327 278.234 53.3843C277.639 56.9407 276.358 64.9516 275.387 71.1863C274.415 77.421 273.582 82.6435 273.534 82.792C273.447 83.0637 273.098 80.1372 272.503 74.1552C272.326 72.3738 272.182 67.7586 272.183 63.899C272.184 57.0673 272.228 56.5041 273.82 42.6147C275.027 32.0819 275.391 28.1129 275.208 27.4502C274.98 26.6246 273.627 25.1684 273.088 25.1684C272.962 25.1684 272.615 25.4777 272.318 25.8557C271.159 27.3311 270.225 33.6559 269.189 47.0303C268.153 60.4116 267.215 67.9235 266.182 71.1188C265.953 71.8239 265.66 72.4008 265.529 72.4008C264.593 72.4008 263.667 61.5004 263.649 50.2691C263.628 37.8188 263.02 24.4701 262.279 20.2206C261.457 15.5098 260.227 16.7961 259.61 23.0093C259.456 24.5679 259.216 32.4625 259.077 40.5527C258.78 57.8454 258.319 65.3967 257.417 67.7731C256.256 70.83 254.939 58.7292 254.219 38.3935C253.535 19.0683 252.52 12.3231 250.249 11.9943C249.92 11.9466 249.411 12.1684 249.073 12.5066C248.485 13.0955 248.479 13.1757 248.642 18.7984C248.733 21.9308 249.116 27.4086 249.494 30.9713C251.016 45.3067 251.35 52.0365 250.693 55.1077C250.406 56.4457 249.267 57.8263 248.451 57.8263C248.219 57.8263 247.977 56.5624 247.664 53.7103C246.53 43.4002 241.803 17.7185 239.88 11.4219C239.096 8.85229 237.898 7.73261 237.244 8.95674C236.331 10.6639 237.271 17.2388 241.103 35.9644C243.415 47.261 244.385 55.32 243.725 57.7588C243.361 59.1004 243.12 59.1752 242.416 58.1637C241.041 56.1868 239.854 52.0794 236.156 36.5042C231.712 17.7854 230.076 11.9117 228.771 9.98744L228.132 9.04334L230.354 8.19802C232.785 7.27376 236.115 6.51503 241.044 5.76254L244.234 5.2755L244.68 5.95794C245.366 7.0062 246.424 7.89489 246.985 7.89489C247.629 7.89489 248.107 6.69641 247.923 5.54205C247.795 4.73761 247.848 4.66315 248.643 4.531C252.133 3.95059 263.157 2.4727 265.101 2.32458L267.492 2.14243L267.168 2.749C266.777 3.47949 267.215 4.79283 267.986 5.20621C269.929 6.24701 272.174 4.3149 271.181 2.45707C270.902 1.9358 270.95 1.91921 272.326 2.06218C273.116 2.14427 274.733 2.28003 275.92 2.36386C280.969 2.72072 283.153 3.10865 287.422 4.40599C291.797 5.73598 295.369 7.31855 295.851 8.14025C295.989 8.37642 296.447 8.91604 296.868 9.33941C297.463 9.93648 297.789 10.0704 298.322 9.9365C298.881 9.79592 299.832 10.2801 303.433 12.5405C306.508 14.4706 307.858 15.4674 307.861 15.8102C307.863 16.0814 308.225 16.6635 308.664 17.1037C309.334 17.7743 309.651 17.8935 310.619 17.839C311.671 17.7797 312.157 18.0197 316.057 20.5265C318.413 22.0405 320.506 23.2792 320.708 23.2792C320.91 23.2792 321.317 23.5221 321.614 23.819C321.91 24.1158 322.446 24.3588 322.803 24.3588C323.523 24.3588 325.395 25.725 328.398 28.4407C329.486 29.424 331.042 30.5615 331.858 30.9687C338.187 34.1286 342.664 37.3662 350.382 44.3676C350.71 44.6654 351.438 45.2207 351.999 45.6018C353.547 46.6521 356.929 49.7521 356.929 50.1202C356.929 50.2988 357.232 50.7301 357.603 51.0788C357.974 51.4274 358.277 51.6413 358.277 51.554C358.277 51.4668 359.005 52.1543 359.894 53.0818C360.784 54.0094 361.512 54.9643 361.512 55.2038C361.512 55.4434 362.649 57.3764 364.038 59.4993C365.427 61.6223 366.879 63.9847 367.264 64.7492L367.964 66.1392L367.317 66.3018C366.961 66.3912 366.592 66.7088 366.498 67.0076C366.13 68.1667 368.64 70.9265 369.45 70.2537C369.927 69.8576 369.966 69.9325 370.782 72.8125L371.468 75.2348L370.739 75.7746C367.819 77.936 361.213 84.7189 351.681 95.3423C344.656 103.171 339.929 107.758 338.886 107.758C337.521 107.758 341.313 101.867 348.671 92.5583C357.248 81.707 360.25 76.2772 358.415 74.9335C357.462 74.2362 356.756 74.5103 354.726 76.366C349.768 80.8984 336.406 96.0728 327.972 106.749C326.947 108.047 326.057 109.057 325.994 108.994C325.853 108.853 326.921 107.264 332.632 99.1209C341.265 86.8106 346.414 78.3626 346.415 76.5081C346.416 75.2181 344.63 75.2122 343.073 76.4971C340.068 78.9771 322.644 102.585 315.358 114.049C314.276 115.75 313.247 117.369 313.07 117.646C312.793 118.08 312.747 117.99 312.733 116.986C312.688 113.673 314.599 109.764 320.411 101.28C331.799 84.6553 334.949 78.9722 334.158 76.476C333.856 75.5254 333.17 75.8286 331.317 77.7314C327.177 81.9829 319.574 93.0813 313.52 103.709C309.356 111.02 305.443 116.077 302.804 117.557C301.989 118.013 301.934 118.015 301.934 117.579ZM340.632 73.8975C340.995 73.5332 341.293 72.9204 341.293 72.5358C341.293 70.2482 337.427 69.7728 336.87 71.992C336.686 72.7258 337.269 74.1452 337.85 74.3794C338.763 74.7468 339.997 74.5329 340.632 73.8975ZM356.141 69.7226C356.574 69.2887 356.929 68.6721 356.929 68.3523C356.929 67.6024 355.523 66.1932 354.775 66.1932C352.35 66.1932 351.495 69.0001 353.559 70.1855C354.462 70.7037 355.314 70.551 356.141 69.7226ZM320.682 65.5307C321.046 65.1663 321.344 64.5535 321.344 64.1689C321.344 63.133 320.225 62.1447 319.053 62.1447C317.88 62.1447 316.761 63.133 316.761 64.1689C316.761 65.2048 317.88 66.1932 319.053 66.1932C319.721 66.1932 320.226 65.9881 320.682 65.5307ZM336.038 61.8743C337.061 61.4848 336.825 60.6047 335.409 59.5252C333.659 58.1914 332.397 58.4119 332.397 60.0517C332.397 61.6658 334.206 62.5715 336.038 61.8743ZM349.092 61.7498C350.369 61.0885 350.551 59.896 349.55 58.732C349.064 58.1656 348.67 57.9882 347.898 57.9882C347.126 57.9882 346.732 58.1656 346.246 58.732C345.401 59.7154 345.44 60.3996 346.395 61.3557C347.273 62.235 347.961 62.3355 349.092 61.7498ZM316.02 57.7113C317.092 57.4725 316.962 56.6912 315.668 55.5817C313.863 54.0353 312.448 54.1174 312.448 55.7684C312.448 56.9826 313.787 58.1932 314.874 57.9623C315.097 57.9151 315.612 57.8021 316.02 57.7113ZM327.474 52.0909C328.84 50.6173 328.004 48.6497 326.012 48.6497C324.003 48.6497 323.063 50.6647 324.432 52.0357C325.3 52.9044 326.697 52.9298 327.474 52.0909ZM342.826 51.0317C344.188 49.7503 343.169 47.5701 341.207 47.5701C339.429 47.5701 338.439 49.8403 339.676 51.0788C340.419 51.8224 342.011 51.7987 342.826 51.0317ZM307.155 47.0107C308.384 46.0423 308.045 44.1551 306.527 43.5259C304.342 42.6196 302.548 45.2407 304.213 46.9076C305.032 47.7271 306.193 47.7678 307.155 47.0107ZM320.553 44.5917C321.305 44.1889 321.209 42.9856 320.333 41.8298C319.013 40.0872 317.56 39.2396 317.017 39.8947C316.339 40.7123 317.452 43.5629 318.762 44.3622C319.725 44.9503 319.853 44.9667 320.553 44.5917ZM333.947 41.0082C335.206 39.8679 334.204 37.5838 332.446 37.5838C330.153 37.5838 329.337 40.625 331.397 41.4921C332.361 41.8976 333.126 41.7525 333.947 41.0082ZM300.399 38.6564C301.308 37.9411 301.504 37.2473 301.124 36.0951C300.685 34.7625 299.831 34.8256 298.585 36.2829C297.593 37.4441 297.378 38.3125 297.944 38.8793C298.438 39.3738 299.625 39.266 300.399 38.6564ZM324.56 34.7599C325.854 34.0897 326.058 32.5627 324.996 31.4988C323.694 30.1958 321.344 31.0517 321.344 32.8286C321.344 33.7731 321.709 34.3784 322.557 34.8431C323.284 35.2412 323.66 35.2256 324.56 34.7599ZM310.343 34.1426C311.866 32.5072 311.915 31.344 310.511 30.1608C309.49 29.301 309.12 29.313 308.395 30.2291C307.897 30.8588 307.829 31.208 307.947 32.5333C308.163 34.9648 309.032 35.5491 310.343 34.1426ZM293.969 32.6823C294.873 32.2701 294.835 31.9221 293.779 30.9217C292.19 29.416 290.858 29.0613 290.352 30.0089C289.902 30.8496 290.022 31.3671 290.861 32.2066C291.717 33.0642 292.776 33.2263 293.969 32.6823ZM284.497 26.4739C286.622 25.3407 285.785 22.4695 283.33 22.4695C282.582 22.4695 281.176 23.8787 281.176 24.6287C281.176 25.3786 282.582 26.7878 283.33 26.7878C283.648 26.7878 284.173 26.6466 284.497 26.4739ZM300.607 25.9989C301.04 25.565 301.395 24.9484 301.395 24.6287C301.395 23.8787 299.989 22.4695 299.241 22.4695C296.816 22.4695 295.961 25.2764 298.025 26.4619C298.928 26.98 299.78 26.8273 300.607 25.9989ZM276.522 19.2398C277.283 18.5296 277.473 17.832 277.142 16.96C276.827 16.132 275.514 15.4756 274.543 15.6614C273.721 15.8187 272.819 16.9349 272.819 17.7949C272.819 19.4261 275.289 20.3898 276.522 19.2398ZM289.4 18.1506C290.423 17.7611 290.188 16.881 288.771 15.8015C287.021 14.4677 285.759 14.6882 285.759 16.328C285.759 17.9421 287.568 18.8478 289.4 18.1506ZM265.743 12.1462C267.02 10.953 266.001 8.70459 264.184 8.70459C262.962 8.70459 261.644 10.0681 261.895 11.0715C262.376 12.9888 264.274 13.519 265.743 12.1462ZM255.67 9.74917C257.108 9.0934 257.268 6.25226 255.878 6.05221C255.16 5.94879 253.508 7.54188 253.245 8.5919C252.928 9.85635 254.153 10.4411 255.67 9.74917ZM287.718 9.55025C288.168 9.09977 287.519 8.10785 286.224 7.26721C284.492 6.14259 283.603 6.4129 283.603 8.06423C283.603 9.35098 284.709 10.1488 286.254 9.97596C286.898 9.90405 287.556 9.71247 287.718 9.55025Z" fill="white"/>
</g>
<defs>
<clipPath id="clip0_667_469">
<rect width="423" height="471" fill="white"/>
</clipPath>
</defs>
</svg>
