<svg width="478" height="434" viewBox="0 0 478 434" fill="none" xmlns="http://www.w3.org/2000/svg">
<g clip-path="url(#clip0_668_921)">
<path d="M223.444 290.35C232.588 284.28 238.6 283.782 249.41 288.201C256.228 290.987 257.793 290.975 263.499 288.088C275.246 282.146 286.792 268.945 288.297 259.735C289.712 251.078 292.599 248.731 294.832 254.422C296.427 258.487 304.871 258.481 312.921 254.409C317.225 252.231 320.035 248.537 321.82 242.71C324.146 235.115 323.957 233.574 320.069 228.457C315.027 221.821 306.21 219.982 302.185 224.726C297.577 230.158 296.66 228.594 296.471 214.987C296.298 202.554 295.892 201.608 287.393 193.853C278.948 186.147 277.778 185.735 264.316 185.735C255.266 185.735 245.661 187.343 237.768 190.179C230.965 192.624 223.212 195.112 220.538 195.709C217.21 196.453 215.677 198.344 215.677 201.707C215.677 204.409 214.697 207.212 213.5 207.936C212.165 208.743 212.668 210.568 214.802 212.655C217.149 214.951 217.918 218.248 217.165 222.788L216.048 229.518L232.606 230.794C253.588 232.41 263.207 234.326 263.207 236.889C263.207 238.031 260.394 238.302 256.725 237.514C251.686 236.431 250.244 236.855 250.244 239.416C250.244 241.229 246.22 244.72 241.301 247.174L232.358 251.638L227.341 245.632C221.334 238.442 221.774 235.4 228.82 235.4C232.466 235.4 233.95 236.516 233.741 239.099C233.361 243.774 236.376 243.927 238.181 239.325C240.145 234.318 238.707 233.653 223.733 232.64C206.825 231.496 204.104 229.474 205.526 219.109C206.303 213.441 205.813 211.096 203.854 211.096C202.33 211.096 199.873 209.669 198.394 207.926C194.747 203.627 192.634 203.942 191.286 208.983C190.462 212.068 188.34 213.209 183.427 213.209C174.171 213.209 170.199 205.289 175.493 197.386C180.094 190.516 178.412 187.848 169.477 187.848C158.109 187.848 148.704 200.668 148.704 216.165C148.704 225.407 146.996 226.545 140.562 221.594C133.372 216.061 130.45 216.346 125.012 223.109C121.598 227.355 120.803 230.413 121.855 235.262C124.167 245.923 129.005 249.718 138.413 248.246L146.543 246.974V257.234C146.543 271.774 153.933 284.575 165.901 290.766C173.771 294.837 178.592 295.632 195.397 295.632C213.262 295.632 216.366 295.048 223.444 290.35Z" fill="white"/>
<path d="M253.024 118.506C291.58 115.98 293.256 115.117 289.222 99.8747C286.008 87.7303 275.724 77.4845 263.007 73.7573C250.841 70.1916 241.455 74.6231 233.678 87.6047C228.231 96.6963 223.562 99.534 220.923 95.3564C220.275 94.3306 221.675 91.0897 224.036 88.1544C229.451 81.4195 229.488 76.8437 224.148 74.0483C217.636 70.6388 213.019 71.4109 204.21 77.3829C194.83 83.7416 185.119 100.968 185.119 111.246C185.119 117.641 185.661 118.144 193.22 118.756C214.782 120.502 223.093 120.467 253.024 118.506Z" fill="white"/>
<path d="M272.076 133.986C280.096 128.629 286.659 123.403 286.659 122.374C286.659 120.604 255.723 121.187 205.103 123.911L182.958 125.102V133.353C182.958 143.054 185.503 143.732 197 137.096C203.506 133.341 207.115 132.771 218.644 133.676C226.574 134.299 235.973 136.613 240.665 139.098C252.498 145.365 255.858 144.818 272.076 133.986Z" fill="white"/>
<path d="M224.123 167.262C229.406 163.938 236.014 158.782 238.808 155.803L243.887 150.386L237.071 146.938C226.162 141.42 210.393 140.465 199.203 144.645C189.373 148.318 178.641 159.58 182.152 162.538C197.575 175.531 208.945 176.811 224.123 167.262Z" fill="white"/>
<path d="M210.359 204.666C211.094 203.504 210.122 202.553 208.199 202.553C206.276 202.553 205.304 201.602 206.038 200.44C206.773 199.277 206.402 198.326 205.213 198.326C202.206 198.326 200.112 202.124 201.718 204.666C202.452 205.829 204.396 206.78 206.038 206.78C207.681 206.78 209.625 205.829 210.359 204.666Z" fill="white"/>
<path d="M186.503 209.039C187.186 207.957 186.742 206.465 185.515 205.723C181.303 203.177 185.685 200.578 192.08 201.83C201.16 203.606 200.187 199.206 190.832 196.186C181.818 193.276 176.873 195.935 176.873 203.692C176.873 209.596 183.741 213.41 186.503 209.039Z" fill="white"/>
<path d="M211.44 219.038C211.44 215.624 210.801 215.013 209.035 216.74C207.713 218.034 207.284 220.126 208.083 221.39C210.317 224.927 211.44 224.14 211.44 219.038Z" fill="white"/>
<path d="M230.884 239.662C230.884 239.15 229.912 238.143 228.723 237.424C227.535 236.706 226.563 237.125 226.563 238.356C226.563 239.587 227.535 240.594 228.723 240.594C229.912 240.594 230.884 240.175 230.884 239.662Z" fill="white"/>
<path d="M247.087 240.594C247.821 239.432 246.964 238.481 245.181 238.481C243.399 238.481 241.34 239.432 240.605 240.594C239.871 241.757 240.728 242.708 242.511 242.708C244.293 242.708 246.352 241.757 247.087 240.594Z" fill="white"/>
<path d="M116.333 241.028C116.333 238.925 114.894 235.359 113.134 233.103C110.364 229.552 109.643 229.426 107.766 232.17C106.573 233.914 105.583 237.48 105.564 240.096C105.539 243.767 106.762 244.851 110.932 244.851C114.703 244.851 116.333 243.697 116.333 241.028Z" fill="white"/>
<path d="M337.429 249.602C365.824 233.606 381.58 210.651 383.421 182.597C385.088 157.173 374.219 132.649 357.547 124.219C346.019 118.391 328.661 117.17 314.516 121.193C302.039 124.741 273.919 140.365 255.547 153.958C235.402 168.863 218.107 177.986 207.854 179.117C199.19 180.072 196.604 179.284 186.167 172.504C179.649 168.271 174.316 164.028 174.316 163.074C174.316 162.121 166.296 153.278 156.493 143.423C141.883 128.735 136.8 124.996 128.302 122.683C120.048 120.437 116.173 120.378 109.295 122.394C96.8817 126.032 92.2379 134.422 92.2298 153.227C92.2222 169.278 97.6299 183.406 111.993 204.869C118.958 215.277 119.109 215.362 128.276 214.133C133.908 213.378 138.698 213.842 140.517 215.319C142.971 217.311 143.763 215.85 144.943 207.146C146.061 198.9 148.058 194.905 153.939 189.152C162.975 180.313 169.045 179.82 179.923 187.041C191.63 194.813 211.758 194.436 236.234 185.985C258.762 178.206 272.356 177.739 282.36 184.4C291.671 190.599 297.536 198.518 299.378 207.378C300.538 212.958 302.357 214.994 307.715 216.708C319.575 220.502 325.546 227.723 325.546 238.271C325.546 243.375 324.54 249.391 323.31 251.639C320.077 257.548 324.442 256.918 337.429 249.602Z" fill="white"/>
<path d="M273.987 293.842C273.987 292.866 276.572 290.916 279.732 289.507C284.316 287.464 285.826 287.499 287.203 289.679C288.578 291.855 289.476 291.877 291.612 289.787C293.749 287.697 293.547 287.163 290.622 287.163C288.602 287.163 286.949 286.212 286.949 285.049C286.949 283.887 285.363 282.936 283.423 282.936C278.365 282.936 265.088 291.387 266.539 293.684C268.071 296.108 273.987 296.234 273.987 293.842Z" fill="white"/>
<path d="M265.432 297.694C265.432 296.532 264.46 295.581 263.272 295.581C262.083 295.581 261.111 296.532 261.111 297.694C261.111 298.857 262.083 299.808 263.272 299.808C264.46 299.808 265.432 298.857 265.432 297.694Z" fill="white"/>
<path d="M132.424 293.898C133.823 289.375 133.599 289.215 129.427 291.765C124.863 294.552 123.696 297.945 126.393 300.583C128.314 302.462 130.538 299.996 132.424 293.898Z" fill="white"/>
<path d="M314.637 299.225C318.736 295.99 324.247 284.902 322.57 283.268C321.785 282.504 319.283 284.124 317.009 286.868C314.735 289.613 312.874 290.801 312.874 289.51C312.874 288.219 311.416 287.163 309.634 287.163C305.727 287.163 305.457 289.629 308.986 293.08C311.002 295.053 310.762 295.616 307.905 295.616C305.885 295.616 304.233 296.567 304.233 297.73C304.233 298.892 303.26 299.843 302.072 299.843C300.884 299.843 299.912 298.417 299.912 296.673C299.912 294.929 301.078 293.503 302.504 293.503C304.505 293.503 304.511 292.93 302.533 290.995C300.555 289.06 298.82 289.542 294.94 293.108C289.033 298.537 286.949 298.916 286.949 294.56C286.949 291.058 281.463 290.218 279.446 293.41C277.651 296.253 287.802 302.315 291.827 300.804C293.657 300.117 295.831 300.626 296.658 301.936C298.349 304.613 310.046 302.849 314.637 299.225Z" fill="white"/>
<path d="M197.291 304.07C198.026 302.908 197.111 301.957 195.258 301.957C193.406 301.957 191.89 302.908 191.89 304.07C191.89 305.232 192.805 306.183 193.923 306.183C195.041 306.183 196.557 305.232 197.291 304.07Z" fill="white"/>
<path d="M96.0571 303.203C91.4834 299.544 90.6041 297.826 92.6668 296.579C94.4492 295.501 96.5727 296.546 98.5655 299.482C101.923 304.428 111.954 305.843 111.954 301.37C111.954 298.085 106.069 289.192 101.504 285.578C98.503 283.203 98.5122 282.936 101.596 282.936C103.482 282.936 108.013 286.264 111.665 290.333C115.316 294.401 118.819 297.73 119.45 297.73C120.08 297.73 120.596 294.833 120.596 291.293C120.596 284.937 114.042 276.289 107.511 274.027C102.677 272.353 106.735 269.692 111.748 271.248C114.189 272.006 118.525 276.46 121.381 281.147C124.617 286.454 127.154 288.751 128.11 287.238C130.785 283.004 127.265 274.807 119.519 267.23C109.565 257.492 113.652 255.438 123.994 264.98C132.942 273.235 134.424 273.305 132.389 265.377C130.394 257.598 124.374 253.158 113.975 251.794C94.9231 249.294 81.7084 262.722 81.7084 284.582C81.7084 296.249 82.2833 297.827 88.3555 302.825C92.0113 305.835 96.6293 308.263 98.6175 308.221C101.301 308.164 100.641 306.872 96.0571 303.203Z" fill="white"/>
<path d="M155.856 304.466L161.678 298.521L149.67 293.653C143.066 290.975 137.37 289.132 137.012 289.558C135.323 291.567 131.493 304.867 132.359 305.714C133.147 306.486 142.914 309.144 148.818 310.194C149.486 310.313 152.654 307.735 155.856 304.466Z" fill="white"/>
<path d="M211.045 304.07C212.392 304.07 213.495 303.119 213.495 301.957C213.495 299.545 211.053 299.27 206.11 301.126C204.23 301.832 202.693 303.734 202.693 305.353C202.693 306.972 201.234 308.297 199.452 308.297C196.045 308.297 195.172 310.802 197.711 313.287C198.536 314.094 201.323 312.35 203.904 309.412C206.485 306.474 209.698 304.07 211.045 304.07Z" fill="white"/>
<path d="M270.36 317.552C271.988 315.959 265.677 306.171 263.022 306.171C261.971 306.171 261.11 309.024 261.11 312.511C261.11 317.25 262.11 318.851 265.071 318.851C267.249 318.851 269.629 318.267 270.36 317.552Z" fill="white"/>
<path d="M167.845 324.676C169.168 316.249 170.858 307.214 171.6 304.598C172.55 301.254 172.026 299.843 169.834 299.843C165.54 299.843 159.04 307.056 149.849 322.016C142.666 333.707 142.355 334.882 145.789 337.338C147.834 338.801 153.092 339.998 157.474 339.998H165.44L167.845 324.676Z" fill="white"/>
<path d="M257.296 340.827C258.398 339.748 257.543 337.532 252.992 329.675C252.251 328.396 239.42 334.003 239.42 335.605C239.42 340.551 253.403 344.635 257.296 340.827Z" fill="white"/>
<path d="M315.402 348.995C312.561 341.016 311.745 335.91 313.096 334.555C315.879 331.764 319.25 337.074 319.293 344.317C319.327 349.994 323.986 355.692 326.546 353.188C327.328 352.423 327.968 348.51 327.968 344.494C327.968 338.065 328.378 337.523 331.395 339.972C333.698 341.842 334.424 344.699 333.609 348.685C332.108 356.026 336.014 356.617 337.883 349.331C339.569 342.76 342.512 342.49 343.641 348.803C344.38 352.935 344.711 353.079 346.166 349.903C348.698 344.374 340.054 329.005 331.061 323.049C324.747 318.867 320.685 317.926 309.408 318.029C296.099 318.152 295.184 317.82 287.157 309.968C281.677 304.607 276.823 301.78 273.1 301.78H267.415L273.133 310.233C276.279 314.883 280.181 318.687 281.806 318.687C283.43 318.687 284.759 319.696 284.759 320.93C284.759 322.391 281.364 322.675 275.018 321.744C264.331 320.176 258.834 322.79 258.834 329.438C258.834 336.033 265.553 337.821 278.135 334.574C291.85 331.035 294.428 331.817 297.683 340.501C302.651 353.755 306.868 360.53 311.438 362.603C318.956 366.011 320.083 362.142 315.402 348.995Z" fill="white"/>
<path d="M336.072 422.829C342.372 421.477 347.233 419.565 346.874 418.58C345.126 413.786 309.166 388.852 298.168 384.81C274.827 376.229 241.932 380.548 235.068 393.095C230.417 401.596 228.277 397.816 228.924 382.245L229.558 366.97L243.166 363.496C257.699 359.786 267.366 352.87 267.366 346.183C267.366 342.941 266.345 342.358 262.505 343.41C259.831 344.143 253.508 345.335 248.453 346.059C239.632 347.322 239.166 347.108 236.899 340.747C235.6 337.101 233.076 334.118 231.291 334.118C226.437 334.118 213.355 320.399 213.355 315.308C213.355 309.323 210.4 309.709 206.874 316.154C203.691 321.972 198.752 323.109 196.923 318.445C195.549 314.944 179.191 303.432 177.684 304.906C175.949 306.603 172.307 327.896 172.307 336.344C172.307 340.816 171.129 344.717 169.632 345.205C163.812 347.103 171.88 356.85 184.117 362.707C190.781 365.896 197.089 370.07 198.135 371.982C199.181 373.894 199.498 385.032 198.839 396.734C197.697 416.995 197.854 418.065 202.132 419.159C204.602 419.791 207.166 419.777 207.829 419.129C208.492 418.48 209.034 409.044 209.034 398.158C209.034 382.27 209.692 378.12 212.368 377.115C217.784 375.082 218.699 377.798 219.836 399.281C220.697 415.562 221.575 419.711 224.157 419.711C226.425 419.711 227.597 417.015 228.062 410.729C228.795 400.823 230.399 399.616 234.433 405.935C238.114 411.701 256.713 420.568 272.555 424.11C287.271 427.4 317.633 426.788 336.072 422.829Z" fill="white"/>
<path d="M165.373 419.977C172.322 417.259 182.336 411.161 187.627 406.426C196.801 398.215 197.091 397.603 193.878 393.206C189.353 387.014 169.082 379.852 156.078 379.852C139.356 379.852 126.75 386.496 106.83 405.806C97.0267 415.309 89.0062 423.922 89.0062 424.946C89.0062 425.978 103.205 426.387 120.872 425.863C147.774 425.065 154.707 424.148 165.373 419.977Z" fill="white"/>
<path d="M91.3246 433.143C83.4954 431.212 79.6309 429.113 79.6309 426.791C79.6309 425.873 87.8485 416.595 97.8923 406.174C122.352 380.794 133.679 375.169 158.239 376.203C170.597 376.723 178.479 378.264 184.952 381.426L194.134 385.912V378.753C194.134 372.134 193.264 371.219 182.59 366.601C172.133 362.077 161.727 352.159 161.727 346.715C161.727 343.636 156.132 342.06 145.202 342.06C136.147 342.06 135.609 341.748 137.014 337.305C137.84 334.69 140.336 329.022 142.561 324.709C144.785 320.396 146.604 316.393 146.604 315.812C146.604 315.231 142.732 313.621 138 312.234C129.422 309.72 129.361 309.743 118.016 319.941C111.757 325.567 104.753 333.171 102.452 336.838C98.796 342.665 98.6165 344.33 101.03 350.029C104.196 357.507 109.092 360.122 113.391 356.632C115.699 354.758 116.358 354.985 116.358 357.652C116.358 360.047 114.419 361.081 109.932 361.081C105.002 361.081 102.74 359.63 100.21 354.846C93.6086 342.357 97.2131 333.028 113.986 319.193C120.044 314.196 125 309.183 125 308.054C125 303.423 118.353 303.998 112.709 309.118C105.389 315.758 95.3835 316.285 87.7762 310.431C79.8159 304.306 76.8146 295.298 77.8897 280.758C78.7854 268.646 78.6217 268.13 74.369 269.658C71.916 270.54 65.048 271.258 59.1068 271.254C47.3805 271.246 37.7859 265.966 20.0228 249.744C2.62904 233.86 -5.12792 197.091 3.61238 171.957C6.61251 163.329 7.32727 158.494 5.8583 156.762C-1.41417 148.19 11.234 134.119 28.6625 131.393C35.6558 130.299 40.7585 126.959 53.6783 115.016C113.739 59.5005 185.093 24.0122 268.181 8.33177C320.885 -1.61444 389.731 -2.84806 416.691 5.67065C433.617 11.0188 454.593 23.108 466.356 34.2942C488.723 55.5627 478.611 78.032 438.223 96.8075C420.463 105.064 378.092 115.836 363.112 115.903C358.539 115.924 358.734 116.405 365.768 122.447C376.195 131.402 386.5 152.607 387.932 168.056C390.939 200.504 372.394 236.3 344.283 252.302C336.333 256.828 304.068 265.96 295.917 265.991C294.001 265.999 290.848 268.73 288.912 272.061C285.401 278.098 285.413 278.128 292.766 281.558C306.793 288.101 315.832 285.602 322.361 273.375L325.747 267.034L326.082 274.431C326.927 293.068 322.719 300.682 307.942 307.253L296.754 312.229L310.681 312.351C322.144 312.451 326.085 313.475 332.962 318.136C351.386 330.627 358.741 358.67 343.942 360.004C334.284 360.875 325.8 363.779 324.068 366.807C322.451 369.634 320.301 369.763 308.544 367.737C294.995 365.402 289.632 361.919 293.603 358.034C298.404 353.338 294.209 337.834 288.138 337.834C282.546 337.834 274.069 342.692 274.069 345.897C274.069 351.522 257.884 364.581 249.205 365.958C239.767 367.457 233.021 372.702 233.021 378.542C233.021 381.674 233.932 382.281 236.802 381.061C254.466 373.553 265.207 371.256 278.39 372.166C295.925 373.378 307.707 379.047 333.994 398.921C344.903 407.168 355.813 413.916 358.238 413.916C364.628 413.916 363.655 419.638 356.662 423.176C339.711 431.751 286.189 433.725 262.955 426.632C255.403 424.327 246.065 420.536 242.203 418.209L235.182 413.979V426.597H190.68L192.455 411.724L176.551 420.049C167.804 424.628 156.758 429.32 152.005 430.477C140.13 433.367 99.4783 435.153 91.3246 433.143ZM164.639 420.226C171.588 417.508 181.602 411.41 186.893 406.675C196.068 398.464 196.357 397.852 193.144 393.456C188.619 387.263 168.348 380.102 155.344 380.102C138.623 380.102 126.017 386.745 106.096 406.056C96.2932 415.559 88.2726 424.171 88.2726 425.196C88.2726 426.228 102.472 426.636 120.139 426.112C147.041 425.315 153.973 424.398 164.639 420.226ZM336.294 422.318C342.594 420.966 347.455 419.054 347.096 418.069C345.349 413.275 309.388 388.341 298.391 384.299C275.049 375.718 242.154 380.037 235.291 392.584C230.64 401.085 228.499 397.305 229.146 381.734L229.781 366.459L243.388 362.986C257.921 359.276 267.588 352.359 267.588 345.672C267.588 342.43 266.567 341.847 262.727 342.899C260.054 343.632 253.73 344.824 248.675 345.548C239.854 346.811 239.388 346.597 237.121 340.236C235.822 336.59 233.299 333.607 231.514 333.607C226.659 333.607 213.577 319.888 213.577 314.797C213.577 308.812 210.622 309.198 207.096 315.643C203.913 321.461 198.975 322.598 197.145 317.934C195.772 314.433 179.413 302.921 177.907 304.395C176.171 306.092 172.529 327.385 172.529 335.832C172.529 340.305 171.352 344.206 169.854 344.694C164.035 346.592 172.102 356.339 184.34 362.196C191.004 365.385 197.312 369.559 198.358 371.471C199.404 373.383 199.72 384.521 199.061 396.223C197.92 416.484 198.077 417.554 202.354 418.648C204.825 419.28 207.388 419.266 208.051 418.618C208.714 417.969 209.257 408.533 209.257 397.647C209.257 381.759 209.914 377.609 212.59 376.604C218.006 374.571 218.921 377.287 220.058 398.77C220.919 415.051 221.797 419.2 224.38 419.2C226.648 419.2 227.82 416.504 228.285 410.218C229.017 400.312 230.622 399.105 234.656 405.424C238.336 411.19 256.935 420.057 272.777 423.599C287.494 426.889 317.855 426.277 336.294 422.318ZM194.493 360.448C193.211 358.937 191.51 353.707 190.712 348.824L189.261 339.947H228.7V363.194H212.762C202.322 363.194 196.019 362.247 194.493 360.448ZM223.299 343.117H209.257C195.469 343.117 195.201 343.225 194.518 349.057C193.403 358.566 197.43 361.361 211.222 360.648L223.299 360.024V343.117ZM199.996 355.545C199.148 354.715 198.454 352.293 198.454 350.162C198.454 346.914 200.227 346.287 209.407 346.287C219.529 346.287 220.307 346.648 219.669 351.042C219.102 354.948 217.42 355.91 210.258 356.425C205.462 356.771 200.844 356.375 199.996 355.545ZM215.738 350.514C215.738 349.352 212.821 348.401 209.257 348.401C205.692 348.401 202.775 349.352 202.775 350.514C202.775 351.676 205.692 352.628 209.257 352.628C212.821 352.628 215.738 351.676 215.738 350.514ZM215.105 385.938C214.589 383.309 214.146 384.963 214.122 389.612C214.099 394.262 214.521 396.413 215.062 394.392C215.603 392.371 215.622 388.567 215.105 385.938ZM315.514 349.121C312.673 341.142 311.858 336.036 313.208 334.681C315.991 331.89 319.362 337.2 319.405 344.443C319.439 350.12 324.099 355.818 326.659 353.314C327.441 352.549 328.08 348.636 328.08 344.62C328.08 338.191 328.491 337.649 331.507 340.098C333.81 341.968 334.536 344.825 333.722 348.811C332.221 356.152 336.126 356.743 337.995 349.457C339.681 342.886 342.624 342.616 343.753 348.929C344.492 353.061 344.823 353.205 346.278 350.029C348.811 344.5 340.166 329.131 331.174 323.175C324.859 318.993 320.797 318.052 309.521 318.155C296.211 318.278 295.296 317.947 287.27 310.094C281.789 304.734 276.935 301.906 273.213 301.906H267.527L273.246 310.359C276.391 315.009 280.294 318.813 281.918 318.813C283.543 318.813 284.872 319.822 284.872 321.056C284.872 322.517 281.477 322.801 275.13 321.87C264.444 320.302 258.946 322.916 258.946 329.564C258.946 336.159 265.666 337.947 278.248 334.7C291.962 331.161 294.541 331.943 297.796 340.627C302.763 353.881 306.98 360.656 311.551 362.729C319.068 366.137 320.195 362.268 315.514 349.121ZM257.379 340.776C258.481 339.698 257.626 337.481 253.075 329.624C252.334 328.345 239.503 333.952 239.503 335.554C239.503 340.5 253.486 344.585 257.379 340.776ZM167.928 324.625C169.251 316.198 170.941 307.163 171.683 304.547C172.633 301.204 172.108 299.792 169.917 299.792C165.623 299.792 159.122 307.005 149.932 321.965C142.749 333.656 142.438 334.831 145.872 337.287C147.917 338.75 153.175 339.947 157.557 339.947H165.523L167.928 324.625ZM270.356 317.514C271.985 315.921 265.674 306.133 263.019 306.133C261.967 306.133 261.107 308.986 261.107 312.473C261.107 317.212 262.107 318.813 265.068 318.813C267.246 318.813 269.626 318.228 270.356 317.514ZM211.128 304.019C212.475 304.019 213.577 303.068 213.577 301.906C213.577 299.494 211.136 299.219 206.193 301.075C204.313 301.781 202.775 303.683 202.775 305.302C202.775 306.921 201.317 308.246 199.535 308.246C196.128 308.246 195.254 310.751 197.794 313.236C198.619 314.043 201.406 312.299 203.987 309.361C206.568 306.423 209.781 304.019 211.128 304.019ZM155.939 304.415L161.761 298.47L149.753 293.602C143.149 290.924 137.452 289.082 137.094 289.507C135.406 291.516 131.576 304.816 132.442 305.664C133.23 306.435 142.997 309.093 148.9 310.143C149.569 310.262 152.736 307.684 155.939 304.415ZM96.14 303.153C91.5663 299.493 90.687 297.775 92.7496 296.528C94.532 295.45 96.6556 296.495 98.6484 299.432C102.006 304.378 112.037 305.792 112.037 301.319C112.037 298.034 106.152 289.141 101.586 285.527C98.5858 283.152 98.5951 282.885 101.679 282.885C103.565 282.885 108.096 286.214 111.747 290.282C115.399 294.35 118.902 297.679 119.533 297.679C120.163 297.679 120.679 294.782 120.679 291.242C120.679 284.886 114.125 276.238 107.594 273.976C102.76 272.302 106.818 269.641 111.831 271.197C114.272 271.955 118.608 276.41 121.464 281.096C124.699 286.403 127.237 288.7 128.193 287.187C130.868 282.953 127.348 274.756 119.602 267.179C109.648 257.441 113.735 255.387 124.077 264.929C133.025 273.185 134.506 273.255 132.472 265.326C130.476 257.547 124.457 253.107 114.058 251.743C95.0059 249.243 81.7913 262.671 81.7913 284.532C81.7913 296.198 82.3662 297.776 88.4383 302.774C92.0942 305.784 96.7121 308.212 98.7003 308.17C101.384 308.113 100.724 306.821 96.14 303.153ZM197.374 304.019C198.109 302.857 197.194 301.906 195.341 301.906C193.489 301.906 191.973 302.857 191.973 304.019C191.973 305.181 192.888 306.133 194.006 306.133C195.124 306.133 196.64 305.181 197.374 304.019ZM314.72 299.174C318.819 295.939 324.33 284.852 322.652 283.217C321.868 282.453 319.366 284.073 317.092 286.818C314.818 289.562 312.957 290.75 312.957 289.459C312.957 288.168 311.499 287.112 309.717 287.112C305.81 287.112 305.54 289.578 309.068 293.029C311.085 295.002 310.845 295.565 307.988 295.565C305.968 295.565 304.315 296.517 304.315 297.679C304.315 298.841 303.343 299.792 302.155 299.792C300.967 299.792 299.995 298.366 299.995 296.622C299.995 294.878 301.161 293.452 302.587 293.452C304.587 293.452 304.594 292.879 302.616 290.944C300.638 289.009 298.903 289.492 295.023 293.057C289.116 298.486 287.032 298.865 287.032 294.509C287.032 291.007 281.546 290.167 279.529 293.359C277.734 296.202 287.885 302.264 291.91 300.753C293.74 300.066 295.914 300.575 296.741 301.885C298.432 304.561 310.129 302.797 314.72 299.174ZM132.507 293.847C133.906 289.324 133.682 289.165 129.51 291.714C124.946 294.502 123.779 297.894 126.476 300.532C128.397 302.411 130.621 299.945 132.507 293.847ZM265.428 297.679C265.428 296.517 264.456 295.565 263.267 295.565C262.079 295.565 261.107 296.517 261.107 297.679C261.107 298.841 262.079 299.792 263.267 299.792C264.456 299.792 265.428 298.841 265.428 297.679ZM223.505 290.282C232.649 284.212 238.66 283.714 249.471 288.133C256.288 290.919 257.854 290.907 263.559 288.021C275.307 282.078 286.852 268.877 288.358 259.667C289.773 251.01 292.66 248.663 294.892 254.354C296.487 258.419 304.932 258.414 312.982 254.341C317.286 252.163 320.096 248.469 321.881 242.643C324.207 235.048 324.018 233.506 320.13 228.389C315.087 221.753 306.271 219.914 302.246 224.659C297.638 230.09 296.72 228.526 296.531 214.919C296.359 202.486 295.952 201.54 287.454 193.785C279.009 186.079 277.839 185.667 264.377 185.667C255.327 185.667 245.722 187.275 237.828 190.111C231.026 192.556 223.272 195.044 220.599 195.641C217.27 196.385 215.738 198.276 215.738 201.64C215.738 204.341 214.758 207.144 213.561 207.868C212.226 208.675 212.729 210.5 214.863 212.588C217.21 214.884 217.978 218.18 217.225 222.721L216.109 229.45L232.667 230.726C253.649 232.343 263.267 234.258 263.267 236.821C263.267 237.963 260.455 238.234 256.786 237.446C251.747 236.363 250.305 236.787 250.305 239.348C250.305 241.161 246.28 244.652 241.362 247.107L232.419 251.57L227.402 245.565C221.395 238.375 221.835 235.332 228.88 235.332C232.527 235.332 234.011 236.448 233.801 239.031C233.422 243.706 236.437 243.859 238.242 239.257C240.206 234.25 238.768 233.585 223.794 232.572C206.886 231.428 204.165 229.406 205.586 219.041C206.364 213.373 205.874 211.028 203.914 211.028C202.391 211.028 199.934 209.602 198.454 207.858C194.808 203.56 192.695 203.874 191.347 208.915C190.522 212 188.4 213.142 183.487 213.142C174.231 213.142 170.26 205.221 175.553 197.318C180.155 190.448 178.473 187.781 169.538 187.781C158.169 187.781 148.765 200.6 148.765 216.097C148.765 225.339 147.057 226.477 140.622 221.526C133.432 215.993 130.511 216.278 125.073 223.042C121.659 227.287 120.864 230.345 121.915 235.194C124.227 245.856 129.065 249.65 138.473 248.178L146.604 246.906V257.166C146.604 271.706 153.994 284.507 165.962 290.698C173.832 294.769 178.653 295.565 195.458 295.565C213.323 295.565 216.427 294.981 223.505 290.282ZM195.215 274.059C194.628 272.52 193.335 266.933 192.34 261.643C190.533 252.033 182.66 240.617 177.84 240.617C176.287 240.617 175.691 242.674 176.316 245.874C177.772 253.322 172.118 254.689 164.036 248.843C155.567 242.719 155.664 239.647 164.428 236.472C168.289 235.072 172.907 233.033 174.69 231.94C189.391 222.923 191.973 220.705 191.973 217.094C191.973 212.004 198.206 209.386 200.856 213.363C201.936 214.985 202.567 219.166 202.258 222.653C201.722 228.692 201.276 228.963 192.866 228.361C181.814 227.569 176.198 232.431 181.817 237.927C184.696 240.744 186.324 240.924 190.813 238.923C197.126 236.11 198.047 237.76 192.513 241.97C188.965 244.669 189.049 245.108 193.88 249.109L199.027 253.372L206.444 247.837C210.524 244.794 214.498 242.927 215.277 243.688C216.056 244.45 215.731 245.735 214.554 246.543C213.378 247.352 210.436 254.193 208.015 261.745C203.748 275.059 197.783 280.798 195.215 274.059ZM204.86 257.663C208.132 251.682 207.741 251.313 200.833 253.864C197.066 255.254 195.005 257.288 195.663 258.964C197.272 263.065 202.293 262.355 204.86 257.663ZM170.369 241.673C172.612 239.03 172.318 238.503 168.6 238.503C163.869 238.503 160.922 241.238 163.226 243.492C165.403 245.622 167.465 245.097 170.369 241.673ZM198.454 219.483C198.454 218.32 197.482 217.369 196.294 217.369C195.106 217.369 194.134 218.32 194.134 219.483C194.134 220.645 195.106 221.596 196.294 221.596C197.482 221.596 198.454 220.645 198.454 219.483ZM302.166 235.795C302.161 232.562 303.581 229.382 305.324 228.727C311.633 226.359 312.498 229.124 307.391 235.333L302.176 241.673L302.166 235.795ZM136.882 230.05C136.128 227.725 133.924 225.823 131.984 225.823C129.433 225.823 129.11 225.184 130.817 223.514C134.203 220.202 142.283 224.86 142.283 230.124C142.283 235.532 138.645 235.481 136.882 230.05ZM274.069 293.791C274.069 292.815 276.655 290.865 279.815 289.456C284.398 287.413 285.909 287.448 287.286 289.628C288.661 291.804 289.559 291.826 291.695 289.736C293.831 287.646 293.63 287.112 290.705 287.112C288.685 287.112 287.032 286.161 287.032 284.999C287.032 283.836 285.445 282.885 283.506 282.885C278.448 282.885 265.171 291.336 266.622 293.633C268.154 296.057 274.069 296.183 274.069 293.791ZM147.756 283.413C146.124 280.217 143.805 275.224 142.602 272.318C140.534 267.322 140.407 267.46 140.269 274.84C140.161 280.612 141.373 283.502 144.924 285.935C151.195 290.232 151.224 290.205 147.756 283.413ZM73.6527 265.714C81.7283 261.486 102.334 244.129 101.691 242.096C101.348 241.011 102.152 236.905 103.479 232.973C105.337 227.465 107.094 225.823 111.125 225.823C114.003 225.823 116.358 224.901 116.358 223.775C116.358 222.649 111.878 214.953 106.403 206.673C94.2071 188.231 88.0093 171.591 87.5856 156.152C87.1075 138.734 89.7714 129.578 97.523 121.995L104.449 115.22L83.3595 116.575C55.7312 118.351 55.0928 118.688 38.0535 140.498C31.1765 149.3 25.2372 154.503 19.5048 156.747C12.9585 159.309 10.2832 161.977 7.54412 168.674C1.02734 184.606 3.86926 217.914 13.2317 235.333C17.4446 243.172 35.2621 260.128 43.9838 264.599C51.6055 268.506 67.1998 269.093 73.6527 265.714ZM140.325 256.877C138.615 255.204 137.962 255.752 137.962 258.862C137.962 264.45 140.984 267.415 141.946 262.773C142.354 260.801 141.625 258.148 140.325 256.877ZM337.802 249.286C366.197 233.29 381.954 210.334 383.794 182.28C385.462 156.857 374.592 132.332 357.92 123.903C346.393 118.074 329.035 116.853 314.889 120.876C302.412 124.424 274.292 140.049 255.921 153.641C235.776 168.546 218.48 177.669 208.227 178.8C199.563 179.755 196.978 178.967 186.54 172.188C180.022 167.954 174.69 163.711 174.69 162.758C174.69 161.804 166.669 152.961 156.866 143.106C142.256 128.418 137.173 124.679 128.675 122.366C120.421 120.12 116.546 120.061 109.668 122.077C97.2551 125.715 92.6113 134.106 92.6032 152.91C92.5956 168.961 98.0033 183.09 112.367 204.553C119.332 214.96 119.482 215.046 128.649 213.817C134.281 213.061 139.072 213.525 140.891 215.002C143.345 216.995 144.136 215.533 145.316 206.829C146.435 198.583 148.432 194.588 154.312 188.835C163.348 179.996 169.418 179.503 180.296 186.725C192.004 194.497 212.131 194.119 236.607 185.668C259.135 177.89 272.729 177.423 282.733 184.083C292.044 190.282 297.909 198.201 299.751 207.062C300.911 212.642 302.73 214.677 308.088 216.391C319.948 220.185 325.92 227.406 325.92 237.954C325.92 243.058 324.913 249.074 323.683 251.323C320.451 257.231 324.815 256.602 337.802 249.286ZM116.358 241.021C116.358 238.918 114.918 235.352 113.159 233.095C110.389 229.544 109.667 229.419 107.791 232.163C106.598 233.907 105.607 237.473 105.589 240.088C105.564 243.76 106.786 244.844 110.957 244.844C114.728 244.844 116.358 243.69 116.358 241.021ZM247.064 240.617C247.798 239.454 246.941 238.503 245.159 238.503C243.376 238.503 241.317 239.454 240.583 240.617C239.848 241.779 240.706 242.73 242.488 242.73C244.271 242.73 246.33 241.779 247.064 240.617ZM230.861 239.685C230.861 239.172 229.889 238.165 228.7 237.447C227.512 236.728 226.54 237.148 226.54 238.379C226.54 239.609 227.512 240.617 228.7 240.617C229.889 240.617 230.861 240.197 230.861 239.685ZM211.417 219.06C211.417 215.646 210.778 215.035 209.013 216.762C207.69 218.056 207.262 220.148 208.06 221.412C210.295 224.949 211.417 224.163 211.417 219.06ZM186.48 209.062C187.163 207.98 186.719 206.487 185.492 205.745C181.28 203.199 185.662 200.601 192.057 201.852C201.137 203.629 200.165 199.228 190.809 196.208C181.796 193.298 176.85 195.958 176.85 203.715C176.85 209.619 183.719 213.432 186.48 209.062ZM210.337 204.689C211.071 203.526 210.099 202.575 208.176 202.575C206.254 202.575 205.282 201.624 206.016 200.462C206.75 199.3 206.379 198.349 205.191 198.349C202.183 198.349 200.089 202.147 201.695 204.689C202.429 205.851 204.374 206.802 206.016 206.802C207.658 206.802 209.602 205.851 210.337 204.689ZM224.497 166.945C229.779 163.622 236.387 158.465 239.181 155.486L244.26 150.07L237.444 146.622C226.536 141.103 210.766 140.148 199.577 144.328C189.747 148.001 179.014 159.263 182.526 162.222C197.948 175.214 209.318 176.494 224.497 166.945ZM20.1053 144.457C27.4085 137.312 28.8459 134.946 25.8828 134.946C19.6827 134.946 7.32801 144.117 6.56611 149.284C5.52548 156.343 9.3482 154.98 20.1053 144.457ZM28.5294 146.468C32.8705 142.344 36.4223 138.036 36.4223 136.895C36.4223 133.976 24.0611 143.244 20.1349 149.106C15.2954 156.331 19.5577 154.992 28.5294 146.468ZM175.811 138.114C175.844 127.266 175.163 124.356 172.571 124.271C170.766 124.211 162.873 123.463 155.032 122.609L140.775 121.056L157.192 136.369C166.222 144.791 174.096 151.719 174.69 151.765C175.284 151.811 175.789 145.668 175.811 138.114ZM272.449 133.67C280.47 128.312 287.032 123.087 287.032 122.057C287.032 120.288 256.096 120.871 205.476 123.594L183.331 124.786V133.036C183.331 142.737 185.876 143.416 197.374 136.78C203.88 133.025 207.488 132.454 219.017 133.36C226.947 133.982 236.347 136.297 241.039 138.781C252.872 145.048 256.231 144.502 272.449 133.67ZM253.397 118.19C291.953 115.663 293.629 114.801 289.596 99.558C286.382 87.4137 276.097 77.1678 263.38 73.4406C251.214 69.8749 241.828 74.3064 234.051 87.288C228.604 96.3797 223.935 99.2173 221.296 95.0398C220.648 94.014 222.049 90.7731 224.409 87.8378C229.825 81.1029 229.861 76.527 224.522 73.7317C218.009 70.3222 213.393 71.0943 204.583 77.0663C195.204 83.425 185.492 100.651 185.492 110.929C185.492 117.324 186.035 117.828 193.593 118.44C215.156 120.185 223.466 120.151 253.397 118.19ZM72.7882 113.654C87.2987 110.473 117.893 111.038 132.475 114.756C139.557 116.562 152.817 118.039 161.941 118.039H178.53L180.021 110.265C185.236 83.0708 210.416 60.4706 224.641 70.217C230.222 74.0414 238.547 74.7659 240.547 71.6013C242.723 68.1571 259.188 64.7775 266.898 66.1925C282.146 68.9908 297.685 88.9506 297.787 105.869L297.834 113.776L324.3 112.625C401.514 109.265 436.443 100.402 463.169 77.389C473.719 68.305 476.517 60.2846 472.889 49.53C467.68 34.0899 438.323 15.2949 405.856 6.61305C394.686 3.62627 384.078 2.90562 354.005 3.09072C249.944 3.73127 146.176 40.2622 72.6095 102.154C55.7214 116.362 52.8685 119.616 59.4742 117.137C61.4587 116.392 67.45 114.825 72.7882 113.654Z" fill="black"/>
<path d="M256.05 310.611C256.05 300.786 252.503 296.03 245.172 296.03C238.858 296.03 238.767 296.194 238.767 307.507C238.767 317.767 239.282 319.067 243.628 319.771C251.508 321.048 256.05 317.699 256.05 310.611Z" fill="#9B100D"/>
<path d="M244.571 307.854C244.204 302.194 244.552 298.533 249.446 301.314C250.855 302.114 252.123 304.885 252.123 307.654C252.123 310.423 250.896 313.48 249.202 313.694C245.407 314.173 244.865 312.407 244.571 307.854Z" fill="black"/>
<path d="M227.986 317.609C227.986 315.478 229.687 313.088 231.767 312.299C235.29 310.963 235.36 309.86 229.974 307.947C225.17 306.241 230.388 304.856 234.113 301.724C236.996 299.301 231.828 298.321 229.237 298.354L218.787 298.487L220.276 309.461C221.094 315.497 222.259 321.219 222.864 322.176C224.593 324.914 227.986 321.89 227.986 317.609Z" fill="#9B100D"/>
</g>
<defs>
<clipPath id="clip0_668_921">
<rect width="478" height="434" fill="white"/>
</clipPath>
</defs>
</svg>
