<svg width="301" height="465" viewBox="0 0 301 465" fill="none" xmlns="http://www.w3.org/2000/svg">
<g clip-path="url(#clip0_668_955)">
<path d="M143.33 27.4937C142.561 23.6796 142.939 21.0869 144.266 21.0869C145.492 21.0869 145.89 20.1185 145.152 18.9349C144.325 17.6096 142.511 18.07 140.429 20.1334C137.727 22.8099 137.529 24.5316 139.442 28.6922C142.748 35.8824 144.89 35.2222 143.33 27.4937Z" fill="#FEFEFE"/>
<path d="M218.415 69.6997C221.627 70.3722 227.199 64.2895 225.192 62.3012C224.418 61.5344 222.371 62.7589 220.643 65.0223C218.863 67.3536 217.471 67.9803 217.432 66.4681C217.315 61.8852 213.876 63.5395 210.774 69.6715C205.976 79.1566 206.026 80.1377 211.02 74.4766C213.611 71.5401 216.938 69.3905 218.415 69.6997Z" fill="#FEFEFE"/>
<path d="M204.456 76.0783C209.007 68.6821 209.734 65.9241 207.126 65.9507C206.237 65.9598 203.299 69.8038 200.596 74.493C194.746 84.6431 198.29 86.0985 204.456 76.0783Z" fill="#FEFEFE"/>
<path d="M195.586 77.6799C199.801 71.491 201.108 68.0698 199.258 68.0698C196.783 68.0698 185.035 83.0261 185.035 86.1765C185.035 89.913 189.949 85.9557 195.586 77.6799Z" fill="#FEFEFE"/>
<path d="M184.91 81.6804C187.447 77.4205 189.151 72.8556 188.696 71.5363C187.988 69.48 178.569 85.0463 178.569 88.2728C178.569 91.025 180.609 88.9043 184.91 81.6804Z" fill="#FEFEFE"/>
<path d="M177.027 85.3589C181.268 78.2446 181.566 76.6122 178.624 76.6122C176.752 76.6122 169.948 87.4143 169.948 90.3874C169.948 93.5726 173.733 90.8838 177.027 85.3589Z" fill="#FEFEFE"/>
<path d="M141.869 80.3494C139.316 73.704 138.767 70.6597 140.522 72.8749C148.623 83.102 148.059 72.54 139.794 59.2298C136.249 53.5206 133.838 48.8495 134.438 48.8495C135.037 48.8495 137.345 51.8124 139.568 55.4337C145.268 64.7203 147.012 59.8232 141.581 49.7826C138.163 43.4641 137.927 42.173 140.59 44.3626C143.556 46.802 144.085 46.7388 144.085 43.9451C144.085 39.9347 137.17 27.5259 134.925 27.5072C132.569 27.4875 132.945 31.3705 135.817 36.7103C138.096 40.9494 137.993 41.1037 134.687 38.4012C129.842 34.4406 127.378 37.246 130.855 42.7634C132.379 45.182 132.585 46.5231 131.312 45.7436C129.86 44.8541 128.998 46.712 128.998 50.733C128.998 54.2568 129.963 57.7305 131.142 58.4526C132.321 59.1746 134.288 61.8741 135.514 64.4515C137.715 69.0783 137.698 69.0768 134.185 64.3325C132.228 61.6898 129.91 59.5275 129.034 59.5275C126.699 59.5275 129.113 70.7406 132.252 74.4766C133.733 76.2384 136.541 80.8033 138.492 84.6206C144.161 95.7095 146.59 92.6369 141.869 80.3494Z" fill="#FEFEFE"/>
<path d="M167.317 89.2584C167.9 84.2502 167.815 84.2177 164.623 88.2322C160.632 93.2519 160.355 96.5056 164.021 95.3092C165.503 94.8257 166.986 92.1028 167.317 89.2584Z" fill="#FEFEFE"/>
<path d="M155.496 89.7269C162.727 80.3309 163.482 78.0957 163.482 66.0781C163.482 48.7224 149.51 6.16897 148.043 19.0581C147.745 21.6798 147.136 100.068 147.414 100.094C147.466 100.099 151.103 95.4341 155.496 89.7269Z" fill="#FEFEFE"/>
<path d="M144.085 99.95C144.085 98.6909 141.487 93.1651 138.313 87.6704C131.178 75.3196 131.427 75.6288 129.854 77.1872C127.999 79.0257 139.078 102.239 141.81 102.239C143.061 102.239 144.085 101.209 144.085 99.95Z" fill="#FEFEFE"/>
<path d="M202.277 101.242C214.039 95.3961 230.295 76.5781 230.295 68.8091V63.3016L221.771 70.9322C211.755 79.8986 201.081 85.5876 185.913 90.0429C172.53 93.9739 157.016 101.619 157.016 104.283C157.016 109.945 189.103 107.789 202.277 101.242Z" fill="#FEFEFE"/>
<path d="M197.72 114.902C194.261 112.784 192.687 113.907 194.667 117.081C195.46 118.353 197.115 118.777 198.345 118.024C199.794 117.137 199.573 116.037 197.72 114.902Z" fill="#FEFEFE"/>
<path d="M117.728 126.131C119.021 122.287 114.566 123.095 113.062 126.977C112.257 129.057 112.739 130.033 114.314 129.513C115.722 129.048 117.258 127.526 117.728 126.131Z" fill="#FEFEFE"/>
<path d="M165.637 128.808C165.637 126.977 164.652 126.082 163.447 126.82C162.242 127.558 161.815 129.056 162.497 130.149C164.344 133.112 165.637 132.559 165.637 128.808Z" fill="#FEFEFE"/>
<path d="M103.135 125.445C103.135 124.478 100.71 124.781 97.7465 126.119C92.2456 128.603 91.2405 130.318 93.7998 132.854C95.3816 134.421 103.135 128.268 103.135 125.445Z" fill="#FEFEFE"/>
<path d="M92.3583 136.231C92.3583 131.026 87.3219 131.762 86.2733 137.119C85.8608 139.227 86.9603 140.68 88.9674 140.68C90.9667 140.68 92.3583 138.854 92.3583 136.231Z" fill="#FEFEFE"/>
<path d="M176.414 147.213C176.414 140.387 172.283 135.841 171.82 142.155C171.663 144.28 170.821 142.655 169.948 138.544L168.36 131.07L168.076 140.272C167.902 145.925 168.624 148.965 169.948 148.154C171.133 147.428 172.103 148.333 172.103 150.164C172.103 151.995 173.073 153.493 174.258 153.493C175.444 153.493 176.414 150.667 176.414 147.213Z" fill="#FEFEFE"/>
<path d="M211.998 147.188C210.192 139.041 201.736 128.803 193.199 124.429C185.424 120.445 182.32 122.377 189.023 127.028C196.562 132.261 202.29 138.916 206.926 147.827C211.803 157.205 214.153 156.908 211.998 147.188Z" fill="#FEFEFE"/>
<path d="M186.173 141.607C182.384 131.778 167.965 117.188 162.039 117.188C159.486 117.188 160.754 119.468 166.438 125.1C170.83 129.452 177.538 139.298 181.345 146.981C186.953 158.297 188.405 159.986 188.993 155.877C189.392 153.088 188.123 146.666 186.173 141.607Z" fill="#FEFEFE"/>
<path d="M182.847 158.298C182.828 157.417 181.873 155.255 180.724 153.493C179.035 150.903 178.629 151.209 178.602 155.095C178.584 157.738 179.539 159.9 180.724 159.9C181.91 159.9 182.865 159.179 182.847 158.298Z" fill="#FEFEFE"/>
<path d="M81.582 156.331C81.582 154.368 83.2664 150.918 85.3251 148.663C88.7098 144.958 88.7433 144.328 85.6747 142.089C83.8083 140.726 82.7347 138.277 83.2888 136.645C83.9294 134.759 83.3559 134.254 81.7146 135.26C80.2947 136.129 79.6534 138.185 80.2897 139.828C80.9261 141.471 80.8572 144.337 80.1368 146.198C79.0805 148.925 78.4676 149.029 76.9716 146.732C75.4531 144.4 74.7309 144.465 72.9939 147.087C70.3389 151.094 70.1853 154.125 72.7159 152.576C73.7665 151.932 75.1305 153.317 75.747 155.653C77.1059 160.802 81.582 161.322 81.582 156.331Z" fill="#FEFEFE"/>
<path d="M210.898 160.842C210.898 159.011 209.928 158.106 208.743 158.832C207.516 159.584 206.587 157.745 206.587 154.561C206.587 151.378 205.659 149.538 204.432 150.29C203.247 151.016 202.277 149.622 202.277 147.193C202.277 144.764 199.367 139.76 195.811 136.072C191.105 131.193 189.345 130.326 189.345 132.888C189.345 134.825 190.315 136.409 191.501 136.409C192.686 136.409 193.656 139.348 193.656 142.941C193.656 146.753 194.554 148.924 195.811 148.154C196.997 147.428 197.966 148.333 197.966 150.164C197.966 151.995 198.936 153.493 200.122 153.493C201.307 153.493 202.277 154.589 202.277 155.927C202.277 157.266 203.974 159.638 206.049 161.198C210.854 164.813 210.898 164.81 210.898 160.842Z" fill="#FEFEFE"/>
<path d="M91.1661 160.494C92.3889 157.336 92.8843 157.261 94.6705 159.96C96.4508 162.65 97.2011 162.519 99.8737 159.052C101.591 156.823 102.485 154.18 101.861 153.179C101.236 152.177 101.565 151.358 102.593 151.358C105.576 151.358 111.963 135.156 110.484 131.338C108.883 127.205 107.061 126.965 103.566 130.429C99.9521 134.01 100.337 137.11 104.212 135.636C106.217 134.874 107.445 135.647 107.445 137.669C107.445 139.464 106.475 140.338 105.29 139.612C104.105 138.886 103.12 139.55 103.102 141.088C103.076 143.306 102.713 143.327 101.344 141.191C100.061 139.189 98.3147 139.874 94.5353 143.86C89.1481 149.542 89.9483 150.65 96.8105 147.011C101.739 144.398 102.411 147.522 97.7465 151.358C95.9684 152.82 94.5136 153.269 94.5136 152.356C94.5136 151.443 92.5739 152.435 90.2031 154.561C85.7823 158.525 84.3806 164.171 87.8172 164.171C88.8758 164.171 90.3828 162.516 91.1661 160.494Z" fill="#FEFEFE"/>
<path d="M122.377 162.814C124.834 159.719 127.814 153.472 128.999 148.933C130.184 144.394 132.19 136.742 133.458 131.93C135.536 124.04 134.096 116.568 131.752 123.074C131.22 124.55 129.965 125.255 128.963 124.641C127.96 124.028 126.531 124.502 125.787 125.696C125.042 126.89 125.517 127.866 126.843 127.866C128.168 127.866 128.653 128.827 127.92 130.002C127.188 131.176 124.706 132.137 122.405 132.137C120.104 132.137 118.222 132.539 118.222 133.031C118.222 133.522 117.629 135.455 116.904 137.326C115.94 139.816 116.517 140.374 119.059 139.408C120.969 138.681 122.532 139.151 122.532 140.451C122.532 141.752 121.196 142.815 119.563 142.815C117.93 142.815 115.387 144.257 113.911 146.019C110.731 149.816 114.051 150.364 117.79 146.659C119.477 144.988 120.377 144.898 120.377 146.399C120.377 147.665 118.195 150.155 115.527 151.932C112.86 153.708 111.458 155.96 112.412 156.935C113.365 157.911 115.048 157.295 116.15 155.567C117.845 152.912 118.161 152.988 118.188 156.057C118.207 158.054 116.524 160.667 114.45 161.865C112.122 163.208 111.758 164.066 113.499 164.106C115.051 164.142 115.721 165.132 114.989 166.307C112.075 170.978 118.191 168.087 122.377 162.814Z" fill="#FEFEFE"/>
<path d="M79.4267 165.314C79.4267 160.58 70.9662 156.699 67.8802 160.017C65.9822 162.057 66.2337 162.381 68.9768 161.43C71.3301 160.614 72.9049 161.593 73.6244 164.319C74.8939 169.129 79.4267 169.906 79.4267 165.314Z" fill="#FEFEFE"/>
<path d="M234.391 162.57C234.199 155.422 233.991 155.135 232.451 159.9C229.983 167.534 229.983 170.578 232.451 170.578C233.636 170.578 234.509 166.974 234.391 162.57Z" fill="white"/>
<path d="M144.655 148.864C146.703 145.425 146.724 144.179 144.745 143.466C143.329 142.956 142.704 141.165 143.354 139.486C145.196 134.73 148.395 138.132 148.395 144.848C148.395 148.232 146.983 151.438 145.194 152.118C142.499 153.143 142.414 152.628 144.655 148.864Z" fill="#FEFEFE"/>
<path d="M145.461 156.697C146.143 154.935 147.082 153.493 147.548 153.493C148.014 153.493 148.395 154.935 148.395 156.697C148.395 158.459 147.456 159.9 146.308 159.9C145.159 159.9 144.778 158.459 145.461 156.697Z" fill="#FEFEFE"/>
<path d="M152.6 166.503C157.747 156.974 154.046 119.324 147.962 119.324C147.015 119.324 146.24 122.585 146.24 126.57C146.24 131.318 145.021 134.28 142.702 135.161C139.961 136.204 139.695 135.872 141.524 133.69C144.084 130.633 144.145 121.459 141.605 121.459C139.795 121.459 139.616 123.415 139.473 144.7C139.415 153.372 140.257 161.06 141.344 161.785C142.432 162.51 143.948 164.785 144.713 166.841C146.534 171.732 149.852 171.59 152.6 166.503Z" fill="white"/>
<path d="M241.984 155.025C236.927 139.791 226.519 124.524 216.871 118.192C206.806 111.585 202.218 111.342 203.411 117.477C204.636 123.783 206.461 125.104 208.827 121.398C210.526 118.736 210.837 118.806 210.865 121.854C210.921 127.946 215.084 136.737 217.277 135.394C218.601 134.583 218.562 132.057 217.169 128.427C215.098 123.028 215.186 122.914 218.868 126.223C224.134 130.958 231.027 142.815 228.513 142.815C227.399 142.815 225.921 140.67 225.229 138.047C224.275 134.431 223.367 133.877 221.472 135.755C219.961 137.252 219.566 140.572 220.472 144.149C221.677 148.907 222.4 149.461 224.159 146.975C225.755 144.72 226.023 145.756 225.147 150.8C224.487 154.605 224.507 159.164 225.192 160.932C227.377 166.574 230.29 162.084 230.448 152.833L230.6 143.883L234.693 153.014C237.392 159.035 238.344 164.491 237.488 169.031L236.189 175.917L240.935 171.042C245.624 166.227 245.636 166.03 241.984 155.025Z" fill="white"/>
<path d="M96.6688 167.806C96.6688 164.952 95.6373 164.106 93.2597 165.011C91.3846 165.723 88.9599 166.307 87.8715 166.307C86.7831 166.307 85.8925 167.748 85.8925 169.51C85.8925 171.272 86.8624 172.714 88.0478 172.714C89.2332 172.714 90.2339 174.395 90.2716 176.451C90.3336 179.832 90.6413 179.794 93.5045 176.043C95.2449 173.763 96.6688 170.056 96.6688 167.806Z" fill="white"/>
<path d="M75.9647 181.126C76.7344 176.357 76.8735 171.668 76.2738 170.706C74.1173 167.249 66.7824 166.756 65.5322 169.984C64.7242 172.07 65.2939 172.808 67.1641 172.097C68.7444 171.496 71.094 172.681 72.3855 174.73C74.4397 177.989 74.0154 178.325 68.998 177.41C63.4338 176.395 63.375 176.49 67.0339 180.58C69.1083 182.898 70.8056 185.921 70.8056 187.297C70.8056 193.567 74.7108 188.897 75.9647 181.126Z" fill="white"/>
<path d="M61.9252 285.366C62.9092 282.723 64.3477 276.5 65.1218 271.536C66.501 262.694 66.3585 262.426 58.0373 258.22C53.3668 255.859 48.9375 252.952 48.1944 251.761C47.4513 250.569 45.018 249.595 42.7872 249.595C38.1647 249.595 37.483 248.732 35.4477 240.309C34.364 235.825 34.7102 234.467 36.7662 235.138C38.2996 235.638 39.8642 238.135 40.243 240.686C41.0427 246.071 42.6054 246.42 48.0979 242.44C51.2027 240.191 51.7966 237.844 50.8005 231.762C49.291 222.545 52.5602 221.379 56.1879 229.841L58.7056 235.713L59.536 229.58C59.9927 226.207 59.3206 222.411 58.0425 221.145C56.7645 219.878 55.7188 217.425 55.7188 215.694C55.7188 213.417 57.2113 213.935 61.1069 217.561C66.4381 222.524 66.4951 222.529 66.4951 218.054C66.4951 215.567 64.3933 212.073 61.8244 210.29L57.1536 207.049L63.0588 204.824C66.9901 203.343 68.7048 201.352 68.1886 198.868C67.5801 195.94 65.4441 195.226 58.2651 195.548C45.9538 196.101 32.5126 203.856 24.6624 214.935C16.3797 226.625 14.3142 246.926 20.2467 258.337C28.7253 274.646 38.6225 283.859 52.4859 288.349C59.4403 290.601 60.0471 290.41 61.9252 285.366Z" fill="white"/>
<path d="M54.5805 294.787C49.8553 293.814 48.4141 295.61 50.2183 300.223C51.6272 303.825 51.9053 303.799 54.9031 299.781C57.7454 295.972 57.7105 295.432 54.5805 294.787Z" fill="white"/>
<path d="M67.6755 293.349C73.5811 280.117 77.4538 256.453 73.297 258.999C71.9268 259.838 70.8057 263.177 70.8057 266.418C70.8057 274.057 64.8759 293.782 60.6652 300.149C58.4411 303.513 58.1937 305.12 59.9 305.12C61.287 305.12 64.786 299.823 67.6755 293.349Z" fill="white"/>
<path d="M219.552 296.044C219.57 289.877 220.436 283.501 221.475 281.874C222.638 280.055 222.937 282.684 222.252 288.708C221.203 297.927 221.475 298.582 226.909 299.934C230.083 300.723 237.72 300.708 243.881 299.9C274.619 295.87 293.883 275.885 296.467 245.344C297.966 227.629 293.614 217.028 279.011 202.828C271.097 195.132 268.476 193.759 263.877 194.903C257.908 196.387 256.198 200.476 261.547 200.476C266.924 200.476 265.172 204.187 259.08 205.702C254.9 206.741 254.018 207.752 255.775 209.492C257.531 211.232 256.608 213.319 252.315 217.319L246.46 222.772L252.926 223.992C259.343 225.203 259.355 225.233 254.542 227.869C248.064 231.417 247.958 241.742 254.355 246.181C260.498 250.445 263.35 248.386 261.818 240.793C260.62 234.861 263.117 232.388 265.861 236.787C268.409 240.872 264.207 258.559 259.363 264.138C255.325 268.79 252.126 269.942 240.578 270.902C227.481 271.991 226.713 271.806 227.572 267.768C229.315 259.569 217.683 274.659 215.191 283.83C212.776 292.714 214.274 307.256 217.604 307.256C218.657 307.256 219.534 302.21 219.552 296.044Z" fill="white"/>
<path d="M234.2 306.697C234.735 303.947 233.484 302.984 229.376 302.984C223.325 302.984 223.199 303.143 225.178 308.254C226.896 312.687 233.249 311.591 234.2 306.697Z" fill="white"/>
<path d="M143.67 324.874C144.277 316.555 144.827 315.798 150.262 315.798C157.989 315.798 164.568 311.004 162.867 306.613C161.871 304.04 159.701 303.514 153.914 304.445C144.694 305.927 139.774 302.536 139.774 294.699C139.774 289.341 140.237 289.109 149.473 289.837C159.073 290.593 159.172 290.533 159.172 283.893V277.185L123.757 278.425L120 294.442C116.104 311.05 115.086 325.731 117.413 331.739C118.479 334.493 121.277 335.084 130.883 334.583L143.007 333.95L143.67 324.874Z" fill="#D14D48"/>
<path d="M151.111 391.077C157.42 384.55 163.482 371.708 163.482 364.868C163.482 360.883 162.397 360.48 153.245 361.062L143.007 361.713L142.381 379.332C142.037 389.022 142.583 396.95 143.594 396.95C144.606 396.95 147.988 394.307 151.111 391.077Z" fill="white"/>
<path d="M139.774 378.672C139.774 365.799 139.004 360.578 137.08 360.411C119.695 358.9 120.547 358.64 119.175 365.891C118.377 370.103 119.209 376.006 121.322 381.122C124.85 389.667 134.904 399.681 138.032 397.765C138.99 397.178 139.774 388.586 139.774 378.672Z" fill="white"/>
<path d="M146.563 186.595C146.563 185.479 145.521 184.222 144.246 183.801C142.972 183.38 141.929 184.637 141.929 186.595C141.929 188.553 142.972 189.81 144.246 189.389C145.521 188.968 146.563 187.711 146.563 186.595Z" fill="black"/>
<path d="M139.165 196.847C136.408 182.561 147.369 175.612 151.29 189.159C153.87 198.072 151.91 202.612 145.481 202.612C141.539 202.612 140.007 201.214 139.165 196.847Z" fill="black"/>
<path d="M169.409 184.993C168.915 183.525 167.218 182.324 165.637 182.324C164.057 182.324 162.36 183.525 161.866 184.993C161.331 186.581 162.859 187.663 165.637 187.663C168.415 187.663 169.943 186.581 169.409 184.993Z" fill="black"/>
<path d="M150.551 206.883C151.819 204.534 154.217 202.612 155.879 202.612C158.105 202.612 158.591 200.721 157.725 195.43C156.313 186.809 159.97 179.12 165.483 179.12C170.335 179.12 172.174 183.308 171.888 193.71C171.695 200.765 171.502 201.013 169.948 196.205L168.222 190.866L168.008 195.871C167.874 198.988 166.149 201.302 163.437 202.005C160.014 202.892 159.609 203.764 161.545 206.076C164.535 209.645 161.058 210.033 157.518 206.526C155.601 204.626 154.675 204.88 153.624 207.594C152.865 209.552 151.344 211.154 150.244 211.154C149.116 211.154 149.249 209.292 150.551 206.883Z" fill="black"/>
<path d="M201.07 213.498C201.731 212.438 199.385 210.573 195.856 209.354C192.328 208.135 189.018 207.815 188.502 208.642C187.152 210.808 167.793 208.962 167.793 206.668C167.793 205.612 175.915 204.747 185.843 204.747C203.66 204.747 203.893 204.816 203.893 210.086C203.893 213.023 202.988 215.425 201.88 215.425C200.773 215.425 200.408 214.558 201.07 213.498Z" fill="black"/>
<path d="M185.574 216.816C178.625 213.372 179.538 212.246 189.436 212.048C196.244 211.911 198.001 212.605 197.491 215.227C196.687 219.364 191.981 219.991 185.574 216.816Z" fill="black"/>
<path d="M116.605 221.063C110.162 217.901 110.48 216.229 117.498 216.374C120.657 216.44 123.647 215.292 124.144 213.824C125.175 210.774 118.96 210.102 117.862 213.144C117.452 214.282 113.913 214.446 109.6 213.528L102.057 211.922L111.756 210.555C117.09 209.804 127.274 208.685 134.386 208.07C145.244 207.13 146.194 207.298 140.313 209.113C136.46 210.303 133.308 212.69 133.308 214.419C133.308 216.147 131.823 217.561 130.008 217.561C128.193 217.561 126.149 219.002 125.467 220.764C124.068 224.376 123.402 224.399 116.605 221.063Z" fill="black"/>
<path d="M162.343 229.615C168.862 224.892 165.045 219.697 155.056 219.697C144.904 219.697 143.114 221.645 147.53 227.891C151.269 233.18 156.571 233.797 162.343 229.615Z" fill="black"/>
<path d="M148.832 242.642C147.597 241.167 145.89 237.083 145.038 233.566C142.968 225.015 140.163 221.818 136.09 223.367C133.802 224.237 133.074 223.682 133.823 221.638C134.429 219.983 136.077 218.889 137.486 219.208C138.895 219.526 143.623 218.753 147.993 217.489C157.236 214.817 183.512 218.001 174.92 220.753C171.9 221.72 169.685 224.693 168.782 228.99C168.005 232.688 165.988 237.876 164.298 240.518C160.93 245.789 152.444 246.954 148.832 242.642Z" fill="black"/>
<path d="M186.112 343.561C186.845 342.386 187.872 341.425 188.395 341.425C188.918 341.425 189.345 342.386 189.345 343.561C189.345 344.735 188.318 345.696 187.063 345.696C185.808 345.696 185.38 344.735 186.112 343.561Z" fill="black"/>
<path d="M94.5136 343.561C94.5136 342.386 95.4834 341.425 96.6688 341.425C97.8542 341.425 98.8241 342.386 98.8241 343.561C98.8241 344.735 97.8542 345.696 96.6688 345.696C95.4834 345.696 94.5136 344.735 94.5136 343.561Z" fill="black"/>
<path d="M248.815 455.651C250.373 449.498 246.696 443.933 241.072 443.933C238.991 443.933 236.167 442.593 234.796 440.956C232.682 438.432 233.423 438.361 239.669 440.489C243.721 441.869 248.362 444.037 249.981 445.307C254.124 448.555 263.801 450.578 267.841 449.042C273.119 447.035 271.881 442.616 264.795 438.17C261.248 435.945 253.03 427.739 246.535 419.936C231.79 402.223 216.474 394.856 194.335 394.827C182.411 394.81 177.022 397.052 166.919 406.231C162.29 410.436 157.573 413.308 156.436 412.611C155.299 411.915 154.888 407.511 155.522 402.824C156.498 395.614 158.996 392.203 171.74 380.678C188.868 365.189 196.046 352.669 197.114 336.421C197.924 324.086 196.326 307.266 193.987 303.516C191.826 300.05 165.637 305.012 165.637 308.887C165.637 314.445 158.658 322.205 153.66 322.205C149.299 322.205 148.556 323.391 147.98 331.281L147.318 340.357L133.308 340.908C125.603 341.211 117.859 340.534 116.098 339.404C111.809 336.65 112.325 316.419 117.282 293.016L121.051 275.222H163.482V283.062C163.482 291.716 158.515 298.713 152.372 298.713C150.185 298.713 148.395 299.618 148.395 300.725C148.395 304.538 179.168 300.758 185.809 296.129C190.874 292.598 192.907 292.256 197.226 294.206C206.494 298.39 207.979 297.155 211.712 282.167C215.086 268.621 215.08 267.597 211.61 265.083C206.542 261.411 197.748 261.729 191.888 265.797C188.502 268.146 186.199 268.523 184.376 267.024C182.93 265.835 177.955 264.55 173.32 264.169C159.862 263.062 160.917 258.141 174.618 258.114C199.537 258.064 224.13 246.232 235.55 228.797C239.772 222.351 243.227 216.157 243.227 215.034C243.227 210.896 256.689 193.764 261.307 192.024C263.93 191.036 268.694 190.724 271.893 191.33C279.457 192.762 279.334 189.529 271.494 180.835C265.817 174.539 264.782 174.163 259.596 176.504C256.473 177.914 252.99 181.482 251.858 184.433C248.976 191.943 250.788 192.743 229.936 174.763C220.55 166.67 219.785 166.383 218.476 170.47C216.628 176.24 214.286 175.998 205.152 169.095L197.539 163.341L193.695 168.39C190.181 173.007 189.291 173.209 183.3 170.75C179.696 169.271 173.322 164.666 169.134 160.517L161.521 152.974L159.127 162.31C154.453 180.532 147.537 183.514 140.234 170.455C132.52 156.66 132.172 156.464 127.949 163.548C124.51 169.316 112.445 178.552 110.821 176.659C110.471 176.251 108.951 173.573 107.444 170.709C104.703 165.5 104.703 165.5 99.6422 175.367C93.8794 186.603 90.8634 189.171 87.429 185.768C83.5154 181.89 82.3571 182.884 78.3788 193.536C76.2949 199.115 73.1564 204.817 71.4043 206.207C69.6523 207.597 68.8994 209.826 69.7314 211.159C70.5633 212.493 71.625 217.505 72.0908 222.297C72.5569 227.091 75.2491 234.012 78.0783 237.687C84.9745 246.646 103.286 256.221 116.668 257.865C123.097 258.655 127.977 260.427 128.566 262.184C129.357 264.541 127.514 264.934 119.732 264.064C114.324 263.46 108.931 263.925 107.748 265.098C106.317 266.516 103.646 265.708 99.7649 262.683C93.6599 257.925 88.8032 257.049 84.2847 259.892C81.1722 261.851 72.948 292.046 75.1584 293.4C75.9732 293.899 79.5312 293.226 83.0652 291.904C88.5252 289.862 91.1497 290.273 100.535 294.641C106.609 297.468 111.619 300.502 111.667 301.383C111.796 303.706 103.534 303.347 98.773 300.822C93.3891 297.967 90.7521 302.842 88.3785 320.04C86.8754 330.93 87.1414 333.387 90.0093 335.103C93.0982 336.952 93.0642 337.375 89.6643 339.395C80.6327 344.763 88.0076 361.607 107.558 380.262C120.492 392.604 122.532 395.57 122.532 402.031C122.532 406.145 121.716 410.011 120.718 410.622C119.721 411.233 115.599 408.29 111.558 404.081C107.518 399.872 100.333 394.645 95.5913 392.465C84.9788 387.586 64.3988 387.166 54.8948 391.635C47.1217 395.29 5.44094 432.617 4.37321 436.88C3.43809 440.613 10.0986 440.378 17.7835 436.407C21.2197 434.632 24.4619 433.606 24.9884 434.127C26.3475 435.474 13.5125 441.798 9.41998 441.798C4.45031 441.798 2.85525 447.993 6.8148 451.916C9.92706 455 12.555 454.984 36.7445 451.729C51.3293 449.767 76.3375 446.694 92.3183 444.901C108.299 443.108 123.433 440.304 125.949 438.671C129.077 436.64 130.965 432.518 131.916 425.637C134.477 407.126 133.728 403.267 125.908 394.691C118.138 386.169 113.943 375.107 113.923 363.088C113.915 357.956 112.349 354.703 108.409 351.633C101.529 346.27 103.247 343.879 110.567 348.631C113.543 350.563 122.535 353.651 130.549 355.492C147.194 359.317 160.091 358.175 172.8 351.75C183.548 346.318 185.892 348.669 177.042 356.004C173.254 359.144 169.509 364.596 168.719 368.12C166.713 377.068 158.628 390.455 150.743 397.884C144.288 403.965 144.085 404.728 144.085 422.917V441.678L155.657 445.012C182.477 452.737 221.533 460.608 234.026 460.806C246.65 461.005 247.537 460.696 248.815 455.651Z" fill="#FEFEFE"/>
<path d="M185.972 456.111C164.635 451.047 145.48 446.193 143.405 445.325C140.213 443.988 139.634 440.809 139.634 424.627C139.634 412.426 138.854 405.987 137.479 406.829C136.293 407.555 135.323 413.922 135.323 420.977C135.323 428.032 134.337 435.631 133.131 437.863C130.464 442.801 120.385 445.507 97.606 447.402C88.1229 448.191 66.8448 450.677 50.3214 452.926C13.2562 457.972 7.5315 458.015 3.47205 453.278C1.71029 451.223 0.159594 445.532 0.026045 440.632C-0.177206 433.175 0.729478 431.11 5.58928 427.962C8.78262 425.893 18.7351 417.277 27.7058 408.816C47.7709 389.891 58.0224 384.402 73.2734 384.418C89.589 384.435 99.5677 387.776 108.648 396.262C113.015 400.343 117.013 403.261 117.531 402.747C120.059 400.243 114.878 392.927 106.212 386.76C100.911 382.987 93.4269 375.389 89.5812 369.874C83.6537 361.373 82.4698 357.57 81.8068 344.895C81.1088 331.554 83.0534 315.39 86.9973 301.75C88.271 297.345 87.8253 297.122 80.0506 298.281C75.4155 298.972 69.5605 301.761 66.8063 304.59C57.8416 313.797 44.802 309.332 44.802 297.055C44.802 292.901 43.1558 290.289 39.225 288.204C33.3089 285.067 19.2418 269.326 14.6939 260.754C13.1979 257.934 11.8437 249.285 11.6846 241.534C11.3069 223.133 17.9828 209.402 32.2617 199.213C37.8111 195.252 42.6866 191.017 43.0959 189.8C43.5053 188.583 47.2087 186.905 51.3257 186.072C58.6949 184.581 58.8346 184.349 60.3151 171.133C62.0479 155.663 68.3429 141.443 77.4546 132.414C85.4369 124.505 107.49 114.074 120.236 112.18C138.449 109.473 137.965 110.276 130.317 95.473C123.896 83.0455 123.472 80.8236 123.509 59.7964C123.541 41.9514 124.408 35.6285 127.757 28.8304C131.978 20.2642 150.646 0 154.318 0C155.395 0 156.834 4.67475 157.517 10.3883C158.2 16.1019 161.357 26.9133 164.532 34.4137C168.58 43.9758 170.352 52.0175 170.46 61.3258L170.616 74.6008L181.721 68.3052C187.828 64.8426 199.043 60.6927 206.641 59.0832C214.239 57.4737 224.229 54.5662 228.839 52.6221L237.222 49.0874L236.064 61.7492C234.78 75.7719 227.139 89.1129 214.538 99.3289C210.681 102.456 208.589 105.443 209.889 105.966C216.635 108.68 230.991 121.096 236.396 128.89C241.955 136.905 247.485 151.768 250.542 166.908C251.592 172.107 252.37 172.488 259.885 171.489C266.588 170.598 269.341 171.449 274.982 176.152C280.738 180.952 281.881 183.398 281.881 190.922C281.881 196.857 283.293 201.442 286.012 204.333C288.284 206.75 292.764 213.852 295.968 220.116C300.777 229.521 301.595 233.398 300.661 242.368C299.206 256.335 289.938 278.914 282.385 286.892C274.995 294.698 257.122 303.205 248.053 303.232C242.673 303.249 240.548 304.538 238.34 309.126C234.189 317.75 224.154 318.182 214.742 310.14C210.772 306.749 205.758 303.335 203.599 302.554C199.97 301.242 199.806 302.063 201.427 313.406C203.536 328.159 202.911 344.614 199.897 353.68C196.392 364.224 181.32 382.674 171.027 389.023C160.184 395.71 157.658 398.848 160.695 401.858C162.126 403.276 165.887 402.088 171.93 398.308C179.167 393.781 183.707 392.612 194.269 392.555C219.61 392.42 238.838 401.759 252.762 420.963C257.017 426.831 263.854 433.594 267.957 435.992C280.303 443.21 276.109 452.744 260.588 452.744C255.631 452.744 253.429 454.132 251.268 458.617C246.862 467.758 232.773 467.218 185.972 456.111ZM248.674 455.92C250.233 449.767 246.556 444.202 240.931 444.202C238.851 444.202 236.026 442.862 234.655 441.225C232.541 438.701 233.283 438.63 239.529 440.758C243.581 442.138 248.221 444.306 249.841 445.576C253.983 448.823 263.66 450.847 267.701 449.311C272.979 447.304 271.741 442.885 264.655 438.439C261.107 436.214 252.89 428.008 246.394 420.205C231.649 402.492 216.333 395.125 194.195 395.096C182.27 395.079 176.881 397.321 166.779 406.5C162.15 410.705 157.432 413.577 156.295 412.88C155.158 412.184 154.747 407.78 155.382 403.093C156.357 395.883 158.856 392.472 171.599 380.947C188.727 365.458 195.905 352.938 196.973 336.69C197.784 324.355 196.186 307.535 193.847 303.785C191.685 300.319 165.497 305.281 165.497 309.156C165.497 314.714 158.518 322.474 153.519 322.474C149.158 322.474 148.416 323.66 147.84 331.55L147.177 340.626L133.168 341.177C125.463 341.48 117.718 340.803 115.958 339.673C111.669 336.919 112.185 316.688 117.141 293.285L120.91 275.491H163.342V283.331C163.342 291.985 158.375 298.982 152.231 298.982C150.044 298.982 148.255 299.887 148.255 300.994C148.255 304.807 179.028 301.027 185.669 296.398C190.734 292.867 192.767 292.525 197.085 294.475C206.353 298.659 207.839 297.424 211.572 282.436C214.945 268.89 214.939 267.866 211.47 265.352C206.402 261.68 197.608 261.998 191.747 266.066C188.362 268.415 186.058 268.792 184.236 267.293C182.79 266.104 177.815 264.819 173.18 264.438C159.722 263.331 160.776 258.41 174.477 258.383C199.397 258.333 223.989 246.501 235.409 229.066C239.632 222.62 243.087 216.426 243.087 215.303C243.087 211.165 256.548 194.033 261.167 192.293C263.789 191.305 268.553 190.993 271.753 191.599C279.317 193.031 279.193 189.798 271.353 181.104C265.676 174.808 264.641 174.432 259.456 176.773C256.332 178.183 252.85 181.751 251.718 184.702C248.836 192.212 250.648 193.012 229.796 175.032C220.409 166.939 219.645 166.652 218.336 170.739C216.488 176.509 214.145 176.267 205.012 169.364L197.399 163.61L193.555 168.659C190.041 173.276 189.15 173.478 183.159 171.019C179.556 169.54 173.181 164.935 168.994 160.786L161.381 153.243L158.986 162.579C154.313 180.801 147.397 183.783 140.094 170.724C132.379 156.929 132.031 156.733 127.809 163.817C124.37 169.585 112.304 178.821 110.68 176.928C110.33 176.52 108.811 173.842 107.303 170.978C104.562 165.769 104.562 165.769 99.5018 175.636C93.739 186.872 90.7229 189.44 87.2885 186.037C83.3749 182.159 82.2166 183.153 78.2383 193.805C76.1544 199.384 73.0159 205.086 71.2639 206.476C69.5118 207.866 68.759 210.095 69.5909 211.428C70.4228 212.762 71.4845 217.774 71.9503 222.566C72.4164 227.36 75.1087 234.281 77.9379 237.956C84.834 246.915 103.145 256.49 116.527 258.134C122.957 258.924 127.837 260.696 128.426 262.453C129.217 264.81 127.374 265.203 119.592 264.333C114.184 263.729 108.791 264.194 107.608 265.367C106.177 266.785 103.505 265.977 99.6244 262.952C93.5194 258.194 88.6627 257.318 84.1442 260.161C81.0317 262.12 72.8075 292.315 75.0179 293.669C75.8327 294.168 79.3908 293.495 82.9247 292.173C88.3848 290.131 91.0092 290.542 100.394 294.91C106.469 297.737 111.478 300.771 111.527 301.652C111.655 303.975 103.394 303.616 98.6325 301.091C93.2487 298.236 90.6117 303.111 88.238 320.309C86.735 331.199 87.001 333.656 89.8688 335.372C92.9577 337.221 92.9237 337.644 89.5238 339.664C80.4922 345.032 87.8672 361.876 107.418 380.531C120.352 392.873 122.392 395.839 122.392 402.3C122.392 406.414 121.575 410.28 120.578 410.891C119.58 411.502 115.458 408.559 111.418 404.35C107.378 400.141 100.192 394.914 95.4508 392.734C84.8383 387.855 64.2583 387.435 54.7543 391.904C46.9812 395.559 5.30047 432.886 4.23274 437.149C3.29762 440.882 9.95813 440.647 17.6431 436.676C21.0793 434.901 24.3215 433.875 24.848 434.396C26.2071 435.743 13.372 442.067 9.27951 442.067C4.30984 442.067 2.7148 448.262 6.67436 452.185C9.78662 455.269 12.4145 455.253 36.604 451.998C51.1888 450.036 76.197 446.963 92.1779 445.17C108.159 443.377 123.293 440.573 125.809 438.94C128.937 436.909 130.824 432.787 131.776 425.906C134.337 407.395 133.588 403.536 125.768 394.96C117.998 386.438 113.803 375.376 113.783 363.357C113.774 358.225 112.208 354.972 108.269 351.902C101.388 346.539 103.107 344.148 110.426 348.9C113.403 350.832 122.395 353.92 130.409 355.761C147.054 359.586 159.95 358.444 172.66 352.019C183.407 346.587 185.752 348.938 176.902 356.273C173.114 359.413 169.368 364.865 168.578 368.389C166.573 377.337 158.488 390.724 150.602 398.153C144.147 404.234 143.944 404.997 143.944 423.186V441.947L155.516 445.281C182.337 453.006 221.392 460.877 233.886 461.075C246.509 461.274 247.397 460.965 248.674 455.92ZM94.3731 343.83C94.3731 342.655 95.343 341.694 96.5284 341.694C97.7138 341.694 98.6837 342.655 98.6837 343.83C98.6837 345.004 97.7138 345.965 96.5284 345.965C95.343 345.965 94.3731 345.004 94.3731 343.83ZM185.972 343.83C186.705 342.655 187.732 341.694 188.254 341.694C188.777 341.694 189.205 342.655 189.205 343.83C189.205 345.004 188.178 345.965 186.922 345.965C185.667 345.965 185.239 345.004 185.972 343.83ZM148.692 242.911C147.457 241.436 145.749 237.352 144.898 233.835C142.828 225.284 140.023 222.087 135.949 223.636C133.661 224.506 132.934 223.951 133.682 221.907C134.288 220.252 135.937 219.158 137.346 219.477C138.755 219.795 143.483 219.022 147.853 217.758C157.096 215.086 183.372 218.27 174.78 221.022C171.759 221.989 169.544 224.962 168.641 229.259C167.865 232.957 165.847 238.145 164.158 240.787C160.79 246.058 152.303 247.223 148.692 242.911ZM162.202 229.884C168.721 225.161 164.904 219.965 154.915 219.965C144.763 219.965 142.974 221.914 147.389 228.16C151.128 233.449 156.43 234.066 162.202 229.884ZM116.465 221.332C110.021 218.17 110.34 216.498 117.358 216.643C120.516 216.709 123.507 215.561 124.003 214.093C125.034 211.043 118.82 210.371 117.722 213.413C117.311 214.551 113.772 214.715 109.46 213.797L101.917 212.191L111.615 210.824C116.95 210.073 127.133 208.954 134.246 208.339C145.103 207.399 146.054 207.567 140.173 209.382C136.32 210.572 133.168 212.959 133.168 214.688C133.168 216.416 131.683 217.83 129.867 217.83C128.052 217.83 126.009 219.271 125.326 221.033C123.927 224.645 123.261 224.668 116.465 221.332ZM185.433 217.085C178.485 213.641 179.397 212.515 189.295 212.317C196.103 212.18 197.86 212.874 197.351 215.495C196.546 219.633 191.841 220.26 185.433 217.085ZM200.929 213.767C201.59 212.707 199.244 210.842 195.716 209.623C192.187 208.404 188.878 208.084 188.362 208.911C187.011 211.077 167.652 209.231 167.652 206.937C167.652 205.881 175.775 205.016 185.703 205.016C203.519 205.016 203.753 205.085 203.753 210.355C203.753 213.292 202.847 215.694 201.74 215.694C200.633 215.694 200.268 214.827 200.929 213.767ZM150.41 207.152C151.679 204.803 154.077 202.881 155.739 202.881C157.965 202.881 158.45 200.99 157.584 195.699C156.172 187.078 159.829 179.389 165.342 179.389C170.195 179.389 172.033 183.577 171.748 193.979C171.554 201.034 171.361 201.282 169.808 196.474L168.082 191.135L167.867 196.14C167.733 199.257 166.009 201.571 163.296 202.274C159.874 203.161 159.468 204.033 161.405 206.345C164.394 209.914 160.917 210.302 157.378 206.795C155.46 204.895 154.534 205.149 153.483 207.863C152.725 209.821 151.204 211.423 150.104 211.423C148.975 211.423 149.109 209.561 150.41 207.152ZM169.269 185.262C168.775 183.794 167.078 182.593 165.497 182.593C163.916 182.593 162.219 183.794 161.725 185.262C161.191 186.85 162.719 187.932 165.497 187.932C168.275 187.932 169.803 186.85 169.269 185.262ZM139.024 197.116C136.268 182.83 147.228 175.881 151.15 189.428C153.729 198.341 151.769 202.881 145.341 202.881C141.398 202.881 139.867 201.483 139.024 197.116ZM146.423 186.864C146.423 185.748 145.38 184.491 144.106 184.07C142.832 183.649 141.789 184.906 141.789 186.864C141.789 188.821 142.832 190.079 144.106 189.658C145.38 189.237 146.423 187.98 146.423 186.864ZM139.634 378.941C139.634 366.068 138.863 360.847 136.94 360.68C119.555 359.169 120.407 358.909 119.034 366.16C118.237 370.372 119.069 376.275 121.181 381.391C124.709 389.936 134.764 399.95 137.892 398.034C138.85 397.447 139.634 388.855 139.634 378.941ZM150.97 391.346C157.28 384.819 163.342 371.977 163.342 365.137C163.342 361.152 162.257 360.749 153.104 361.331L142.867 361.982L142.241 379.601C141.896 389.291 142.442 397.219 143.454 397.219C144.465 397.219 147.848 394.576 150.97 391.346ZM143.529 325.143C144.137 316.824 144.686 316.067 150.122 316.067C157.849 316.067 164.427 311.273 162.727 306.882C161.73 304.309 159.561 303.783 153.774 304.714C144.554 306.196 139.634 302.805 139.634 294.968C139.634 289.61 140.097 289.378 149.332 290.106C158.932 290.862 159.031 290.802 159.031 284.162V277.454L123.616 278.694L119.859 294.711C115.964 311.319 114.945 326 117.272 332.008C118.339 334.762 121.136 335.353 130.743 334.852L142.867 334.219L143.529 325.143ZM234.06 306.966C234.594 304.216 233.343 303.253 229.235 303.253C223.185 303.253 223.059 303.412 225.038 308.522C226.755 312.956 233.109 311.86 234.06 306.966ZM219.412 296.313C219.43 290.146 220.295 283.77 221.335 282.143C222.498 280.324 222.797 282.953 222.111 288.977C221.063 298.196 221.335 298.851 226.769 300.203C229.943 300.992 237.58 300.977 243.74 300.169C274.479 296.139 293.743 276.153 296.327 245.613C297.826 227.898 293.473 217.297 278.871 203.097C270.957 195.401 268.335 194.028 263.736 195.172C257.767 196.656 256.058 200.745 261.406 200.745C266.783 200.745 265.032 204.456 258.939 205.971C254.759 207.01 253.878 208.021 255.634 209.761C257.39 211.501 256.467 213.588 252.174 217.588L246.319 223.041L252.785 224.261C259.202 225.472 259.215 225.502 254.402 228.138C247.923 231.686 247.817 242.011 254.214 246.45C260.357 250.714 263.21 248.655 261.677 241.062C260.48 235.13 262.977 232.657 265.721 237.056C268.268 241.141 264.066 258.828 259.223 264.407C255.185 269.059 251.986 270.211 240.437 271.171C227.34 272.26 226.573 272.075 227.431 268.037C229.174 259.838 217.542 274.928 215.05 284.099C212.636 292.983 214.134 307.525 217.463 307.525C218.517 307.525 219.393 302.479 219.412 296.313ZM67.5351 293.618C73.4407 280.386 77.3133 256.722 73.1566 259.268C71.7863 260.107 70.6652 263.446 70.6652 266.687C70.6652 274.326 64.7355 294.051 60.5247 300.418C58.3007 303.782 58.0533 305.389 59.7596 305.389C61.1466 305.389 64.6455 300.092 67.5351 293.618ZM54.44 295.056C49.7148 294.083 48.2736 295.879 50.0778 300.492C51.4867 304.094 51.7648 304.068 54.7626 300.05C57.6049 296.241 57.57 295.701 54.44 295.056ZM61.7847 285.635C62.7688 282.992 64.2072 276.769 64.9813 271.805C66.3605 262.963 66.218 262.695 57.8969 258.489C53.2264 256.128 48.797 253.221 48.0539 252.03C47.3109 250.838 44.8776 249.864 42.6467 249.864C38.0242 249.864 37.3426 249.001 35.3073 240.578C34.2236 236.094 34.5698 234.736 36.6257 235.407C38.1592 235.907 39.7237 238.404 40.1025 240.955C40.9022 246.34 42.465 246.689 47.9574 242.709C51.0623 240.46 51.6562 238.113 50.6601 232.031C49.1505 222.814 52.4198 221.648 56.0475 230.109L58.5652 235.982L59.3955 229.849C59.8522 226.476 59.1802 222.68 57.9021 221.414C56.624 220.147 55.5783 217.694 55.5783 215.963C55.5783 213.686 57.0708 214.204 60.9665 217.83C66.2977 222.793 66.3546 222.798 66.3546 218.323C66.3546 215.836 64.2528 212.342 61.6839 210.559L57.0132 207.318L62.9184 205.093C66.8496 203.612 68.5644 201.621 68.0481 199.137C67.4396 196.209 65.3037 195.495 58.1247 195.817C45.8134 196.37 32.3721 204.125 24.522 215.204C16.2392 226.894 14.1738 247.195 20.1062 258.606C28.5848 274.915 38.4821 284.128 52.3454 288.618C59.2999 290.87 59.9066 290.679 61.7847 285.635ZM255.155 261.592C260.573 256.222 260.492 251.999 254.97 251.999C251.053 251.999 243.087 241.784 243.087 236.762C243.087 231.261 241.53 231.746 235.177 239.228C232.165 242.774 225.438 248.151 220.229 251.176C215.02 254.201 210.758 257.2 210.758 257.84C210.758 261.334 218.966 264.175 226.263 263.205C231.579 262.498 234.465 262.965 234.465 264.532C234.465 269.339 249.491 267.203 255.155 261.592ZM84.4797 254.447C85.1052 253.444 81.4598 248.325 76.3789 243.07L67.1409 233.517L58.9007 240.575C48.4999 249.484 50.8624 253.57 67.069 254.702C73.1958 255.13 79.3637 255.658 80.7755 255.875C82.1873 256.093 83.8542 255.45 84.4797 254.447ZM75.8243 181.395C76.594 176.626 76.7331 171.937 76.1333 170.975C73.9769 167.518 66.642 167.025 65.3918 170.253C64.5838 172.339 65.1535 173.077 67.0237 172.366C68.604 171.765 70.9536 172.95 72.2451 174.999C74.2992 178.258 73.8749 178.594 68.8575 177.678C63.2933 176.664 63.2346 176.758 66.8935 180.848C68.9679 183.167 70.6652 186.19 70.6652 187.566C70.6652 193.836 74.5703 189.165 75.8243 181.395ZM96.5284 168.075C96.5284 165.221 95.4969 164.375 93.1192 165.279C91.2442 165.992 88.8195 166.576 87.7311 166.576C86.6426 166.576 85.7521 168.017 85.7521 169.779C85.7521 171.541 86.722 172.983 87.9073 172.983C89.0927 172.983 90.0934 174.664 90.1311 176.72C90.1931 180.101 90.5008 180.063 93.364 176.312C95.1044 174.032 96.5284 170.325 96.5284 168.075ZM241.843 155.294C236.787 140.06 226.379 124.793 216.731 118.461C206.666 111.854 202.078 111.611 203.27 117.746C204.496 124.052 206.321 125.373 208.686 121.667C210.385 119.005 210.697 119.075 210.725 122.123C210.78 128.215 214.944 137.006 217.137 135.663C218.461 134.852 218.422 132.326 217.029 128.696C214.957 123.297 215.046 123.183 218.728 126.492C223.994 131.227 230.887 143.084 228.373 143.084C227.259 143.084 225.781 140.939 225.089 138.316C224.134 134.7 223.227 134.146 221.331 136.024C219.821 137.521 219.425 140.841 220.331 144.418C221.536 149.176 222.259 149.73 224.019 147.244C225.615 144.989 225.882 146.025 225.007 151.069C224.347 154.874 224.367 159.433 225.051 161.201C227.236 166.843 230.15 162.353 230.307 153.102L230.46 144.152L234.553 153.283C237.252 159.304 238.204 164.76 237.347 169.3L236.048 176.186L240.795 171.311C245.483 166.496 245.496 166.299 241.843 155.294ZM152.459 166.772C157.606 157.243 153.906 119.593 147.822 119.593C146.875 119.593 146.1 122.854 146.1 126.839C146.1 131.587 144.88 134.549 142.562 135.43C139.82 136.473 139.555 136.141 141.383 133.959C143.944 130.902 144.005 121.728 141.464 121.728C139.655 121.728 139.475 123.684 139.333 144.969C139.275 153.641 140.117 161.329 141.204 162.054C142.291 162.779 143.807 165.054 144.573 167.11C146.394 172.001 149.712 171.859 152.459 166.772ZM145.32 156.966C146.002 155.204 146.942 153.762 147.408 153.762C147.874 153.762 148.255 155.204 148.255 156.966C148.255 158.727 147.315 160.169 146.167 160.169C145.019 160.169 144.638 158.727 145.32 156.966ZM144.515 149.133C146.562 145.694 146.583 144.448 144.604 143.735C143.189 143.225 142.563 141.434 143.214 139.755C145.056 134.999 148.255 138.401 148.255 145.117C148.255 148.501 146.843 151.707 145.053 152.387C142.359 153.412 142.273 152.897 144.515 149.133ZM234.251 162.839C234.059 155.691 233.85 155.404 232.31 160.169C229.843 167.803 229.843 170.847 232.31 170.847C233.496 170.847 234.369 167.243 234.251 162.839ZM79.2863 165.583C79.2863 160.849 70.8257 156.968 67.7397 160.285C65.8417 162.326 66.0932 162.65 68.8364 161.699C71.1897 160.883 72.7644 161.862 73.4839 164.588C74.7534 169.398 79.2863 170.175 79.2863 165.583ZM122.236 163.083C124.693 159.988 127.673 153.741 128.858 149.202C130.043 144.663 132.05 137.011 133.317 132.198C135.395 124.309 133.955 116.837 131.611 123.343C131.08 124.819 129.825 125.524 128.822 124.91C127.82 124.297 126.391 124.771 125.646 125.965C124.902 127.159 125.377 128.135 126.702 128.135C128.027 128.135 128.512 129.096 127.78 130.271C127.047 131.445 124.565 132.406 122.264 132.406C119.964 132.406 118.081 132.808 118.081 133.3C118.081 133.791 117.488 135.724 116.763 137.595C115.799 140.085 116.377 140.643 118.919 139.677C120.829 138.95 122.392 139.42 122.392 140.72C122.392 142.02 121.056 143.084 119.423 143.084C117.79 143.084 115.246 144.526 113.771 146.288C110.59 150.085 113.911 150.633 117.65 146.928C119.336 145.257 120.236 145.167 120.236 146.668C120.236 147.934 118.054 150.424 115.387 152.201C112.72 153.977 111.318 156.229 112.271 157.204C113.225 158.18 114.907 157.564 116.01 155.836C117.705 153.181 118.02 153.257 118.048 156.326C118.066 158.323 116.384 160.936 114.309 162.134C111.982 163.477 111.618 164.335 113.359 164.375C114.911 164.411 115.581 165.401 114.848 166.576C111.934 171.247 118.05 168.356 122.236 163.083ZM91.0256 160.763C92.2484 157.605 92.7438 157.53 94.53 160.229C96.3103 162.919 97.0607 162.788 99.7332 159.32C101.451 157.092 102.345 154.449 101.72 153.448C101.096 152.446 101.425 151.627 102.452 151.627C105.436 151.627 111.822 135.425 110.343 131.607C108.743 127.474 106.921 127.234 103.425 130.698C99.8116 134.279 100.197 137.379 104.072 135.905C106.076 135.143 107.305 135.916 107.305 137.938C107.305 139.733 106.335 140.607 105.149 139.881C103.964 139.155 102.979 139.819 102.961 141.357C102.935 143.575 102.572 143.596 101.203 141.46C99.9209 139.458 98.1742 140.143 94.3948 144.129C89.0077 149.811 89.8078 150.919 96.6701 147.28C101.598 144.667 102.271 147.791 97.606 151.627C95.8279 153.089 94.3731 153.538 94.3731 152.625C94.3731 151.712 92.4334 152.704 90.0626 154.83C85.6418 158.794 84.2401 164.44 87.6768 164.44C88.7353 164.44 90.2423 162.785 91.0256 160.763ZM210.758 161.111C210.758 159.28 209.788 158.375 208.602 159.101C207.375 159.853 206.447 158.014 206.447 154.83C206.447 151.646 205.519 149.807 204.292 150.559C203.106 151.285 202.136 149.891 202.136 147.462C202.136 145.033 199.227 140.029 195.671 136.341C190.964 131.462 189.205 130.595 189.205 133.157C189.205 135.094 190.175 136.678 191.36 136.678C192.546 136.678 193.515 139.617 193.515 143.21C193.515 147.022 194.413 149.193 195.671 148.423C196.856 147.697 197.826 148.602 197.826 150.433C197.826 152.264 198.796 153.762 199.981 153.762C201.167 153.762 202.136 154.858 202.136 156.196C202.136 157.535 203.834 159.907 205.908 161.467C210.714 165.082 210.758 165.079 210.758 161.111ZM81.4415 156.6C81.4415 154.637 83.1259 151.187 85.1846 148.932C88.5694 145.227 88.6028 144.597 85.5343 142.358C83.6679 140.995 82.5942 138.546 83.1484 136.914C83.7889 135.028 83.2154 134.523 81.5742 135.529C80.1542 136.398 79.513 138.454 80.1493 140.097C80.7856 141.74 80.7168 144.606 79.9964 146.467C78.9401 149.194 78.3271 149.298 76.8311 147.001C75.3126 144.669 74.5905 144.734 72.8535 147.355C70.1985 151.363 70.0449 154.394 72.5755 152.845C73.6261 152.201 74.9901 153.586 75.6066 155.922C76.9654 161.071 81.4415 161.591 81.4415 156.6ZM182.706 158.567C182.688 157.686 181.733 155.524 180.584 153.762C178.894 151.172 178.488 151.478 178.462 155.364C178.443 158.007 179.398 160.169 180.584 160.169C181.769 160.169 182.724 159.448 182.706 158.567ZM186.033 141.876C182.244 132.047 167.825 117.457 161.899 117.457C159.346 117.457 160.613 119.737 166.298 125.369C170.689 129.721 177.398 139.567 181.205 147.25C186.813 158.566 188.265 160.255 188.852 156.146C189.251 153.357 187.982 146.935 186.033 141.876ZM211.858 147.457C210.052 139.31 201.595 129.072 193.058 124.698C185.283 120.714 182.18 122.646 188.882 127.297C196.421 132.53 202.15 139.185 206.785 148.096C211.663 157.473 214.012 157.177 211.858 147.457ZM176.273 147.482C176.273 140.656 172.143 136.11 171.679 142.424C171.523 144.549 170.681 142.924 169.808 138.813L168.22 131.339L167.936 140.541C167.762 146.194 168.483 149.234 169.808 148.423C170.993 147.697 171.963 148.602 171.963 150.433C171.963 152.264 172.933 153.762 174.118 153.762C175.303 153.762 176.273 150.936 176.273 147.482ZM92.2179 136.5C92.2179 131.295 87.1815 132.031 86.1329 137.388C85.7204 139.496 86.8199 140.949 88.8269 140.949C90.8262 140.949 92.2179 139.123 92.2179 136.5ZM102.994 125.714C102.994 124.747 100.57 125.05 97.606 126.388C92.1051 128.872 91.1 130.587 93.6594 133.123C95.2412 134.69 102.994 128.537 102.994 125.714ZM165.497 129.077C165.497 127.246 164.511 126.351 163.307 127.089C162.102 127.827 161.674 129.325 162.356 130.418C164.204 133.381 165.497 132.828 165.497 129.077ZM117.587 126.4C118.88 122.556 114.425 123.364 112.922 127.246C112.117 129.326 112.598 130.302 114.173 129.782C115.582 129.317 117.118 127.795 117.587 126.4ZM197.58 115.171C194.121 113.053 192.547 114.176 194.526 117.35C195.32 118.622 196.975 119.046 198.205 118.293C199.653 117.406 199.433 116.306 197.58 115.171ZM202.136 101.511C213.898 95.6651 230.155 76.8471 230.155 69.0781V63.5706L221.631 71.2012C211.615 80.1676 200.94 85.8566 185.773 90.3119C172.39 94.2428 156.876 101.888 156.876 104.552C156.876 110.214 188.962 108.058 202.136 101.511ZM143.944 100.219C143.944 98.9599 141.347 93.4341 138.173 87.9393C131.037 75.5885 131.287 75.8978 129.714 77.4562C127.858 79.2946 138.937 102.508 141.67 102.508C142.921 102.508 143.944 101.478 143.944 100.219ZM155.355 89.9959C162.587 80.5999 163.342 78.3647 163.342 66.3471C163.342 48.9913 149.369 6.43795 147.902 19.3271C147.604 21.9487 146.995 100.337 147.273 100.363C147.326 100.368 150.963 95.7031 155.355 89.9959ZM167.177 89.5274C167.76 84.5191 167.675 84.4867 164.483 88.5011C160.491 93.5208 160.214 96.7745 163.881 95.5782C165.362 95.0947 166.846 92.3718 167.177 89.5274ZM141.729 80.6184C139.176 73.973 138.627 70.9287 140.382 73.1439C148.482 83.371 147.919 72.809 139.654 59.4987C136.108 53.7896 133.698 49.1185 134.297 49.1185C134.896 49.1185 137.205 52.0814 139.428 55.7027C145.127 64.9893 146.871 60.0922 141.44 50.0516C138.023 43.7331 137.786 42.442 140.449 44.6316C143.415 47.071 143.944 47.0078 143.944 44.2141C143.944 40.2037 137.03 27.7949 134.784 27.7761C132.429 27.7565 132.805 31.6395 135.676 36.9793C137.955 41.2184 137.852 41.3726 134.546 38.6701C129.701 34.7096 127.237 37.515 130.715 43.0323C132.239 45.451 132.445 46.7921 131.172 46.0126C129.719 45.123 128.857 46.981 128.857 51.002C128.857 54.5257 129.822 57.9995 131.001 58.7215C132.18 59.4436 134.148 62.1431 135.374 64.7204C137.575 69.3473 137.558 69.3458 134.045 64.6015C132.088 61.9587 129.77 59.7964 128.893 59.7964C126.559 59.7964 128.973 71.0095 132.112 74.7455C133.592 76.5074 136.4 81.0722 138.352 84.8896C144.02 95.9784 146.45 92.9059 141.729 80.6184ZM176.886 85.6279C181.128 78.5135 181.426 76.8811 178.484 76.8811C176.611 76.8811 169.808 87.6833 169.808 90.6564C169.808 93.8416 173.593 91.1528 176.886 85.6279ZM184.77 81.9494C187.307 77.6894 189.01 73.1246 188.556 71.8053C187.848 69.7489 178.429 85.3153 178.429 88.5418C178.429 91.294 180.469 89.1733 184.77 81.9494ZM195.445 77.9489C199.66 71.76 200.968 68.3388 199.117 68.3388C196.642 68.3388 184.894 83.2951 184.894 86.4455C184.894 90.182 189.808 86.2247 195.445 77.9489ZM204.315 76.3472C208.867 68.951 209.594 66.1931 206.986 66.2196C206.097 66.2287 203.158 70.0727 200.456 74.762C194.606 84.912 198.15 86.3675 204.315 76.3472ZM218.274 69.9687C221.486 70.6412 227.058 64.5585 225.052 62.5702C224.278 61.8034 222.231 63.0279 220.503 65.2913C218.723 67.6225 217.331 68.2493 217.292 66.7371C217.174 62.1541 213.736 63.8084 210.634 69.9405C205.836 79.4256 205.886 80.4067 210.88 74.7455C213.47 71.8091 216.798 69.6595 218.274 69.9687ZM143.19 27.7626C142.42 23.9485 142.799 21.3559 144.125 21.3559C145.351 21.3559 145.75 20.3875 145.012 19.2039C144.185 17.8786 142.371 18.3389 140.288 20.4024C137.587 23.0788 137.389 24.8006 139.302 28.9611C142.608 36.1514 144.75 35.4911 143.19 27.7626Z" fill="black"/>
</g>
<defs>
<clipPath id="clip0_668_955">
<rect width="301" height="465" fill="white"/>
</clipPath>
</defs>
</svg>
