<svg width="473" height="628" viewBox="0 0 473 628" fill="none" xmlns="http://www.w3.org/2000/svg">
<g clip-path="url(#clip0_667_369)">
<path d="M407.808 616.968C422.496 613.729 423.748 611.154 418.446 595.083C408.98 566.39 394.045 548.628 368.58 535.777C346.282 524.523 314.943 527.038 289.504 542.123C282.914 546.031 276.757 549.228 275.823 549.228C274.888 549.228 272.265 544.937 269.995 539.693C266.063 530.612 254 494.515 254 491.83C254 491.129 267.537 490.536 284.083 490.512C300.63 490.489 315.326 489.478 316.742 488.271C318.636 486.655 317.814 479.99 313.629 463.033L307.941 439.991L291.363 441.414C282.245 442.197 270.393 444.935 265.025 447.499C259.657 450.063 254.734 451.445 254.085 450.571C251.79 447.479 277.159 420.005 290.165 411.497C305.244 401.633 308.698 393.485 308.698 367.78C308.698 351.409 312.368 345.807 318.571 352.71C323.399 358.082 322.571 365.663 315.261 383.029C304.056 409.651 308.141 431.187 326.678 443.219C337.202 450.05 358.279 451.794 365.727 446.45C371.714 442.154 370.979 438.304 364.489 439.968C361.296 440.786 359.02 440.001 359.02 438.094C359.02 436.293 360.364 434.818 362.006 434.818C366.976 434.818 376.523 423.042 376.523 416.912C376.523 409.084 371.673 407.203 362.245 411.375C357.903 413.297 353.678 413.896 352.856 412.708C352.034 411.519 352.346 410.063 353.55 409.47C354.753 408.878 359.078 405.663 363.16 402.327C369.632 397.037 370.178 395.718 367.421 392.022C364.873 388.605 362.882 388.427 357.152 391.105C353.243 392.932 349.358 393.506 348.519 392.381C347.058 390.422 352.777 383.338 357.536 381.211C358.785 380.653 359.138 377.859 358.321 375.004C356.512 368.682 347.215 370.635 335.683 379.757C325.58 387.75 323.636 383.846 332.678 373.724C339.377 366.227 339.846 364.63 338.397 354.276C336.843 343.17 330.26 332.134 319.801 323.101C312.84 317.089 314.973 308.675 323.458 308.675C332.322 308.675 339.329 301.09 339.329 291.494C339.329 281.675 335.737 276.406 329.045 276.406C326.278 276.406 324.013 275.957 324.013 275.408C324.013 274.859 326 263.993 328.429 251.261C330.858 238.529 332.385 226.506 331.823 224.543C330.351 219.399 320.512 213.161 297.333 202.675C278.204 194.021 274.573 193.381 237.279 192.083C189.364 190.415 191.301 189.028 183.994 230.257C177.719 265.666 176.882 267.58 170.865 260.278C164.853 252.983 159.091 257.309 158.156 269.819C157.426 279.566 164.33 289.063 170.016 286.138C173.986 284.095 173.88 286.923 168.558 324.977C165.291 348.334 163.95 371.094 163.635 408.531C163.083 473.985 162.689 472.934 191.108 481.739L211.482 488.052L215.117 506.172C219.731 529.175 221.791 546.294 219.945 546.294C219.156 546.294 211.48 541.687 202.889 536.056C179.325 520.612 162.856 516.013 136.698 517.573C116.068 518.804 113.278 519.735 96.1629 531.103C76.2989 544.297 63.4431 558.914 57.1654 575.444C53.2521 585.749 53.2622 585.962 57.8766 590.502C66.7349 599.217 82.2849 607.43 99.3068 612.384C113.873 616.623 120.132 616.899 142.147 614.271C169.441 611.012 181.623 606.086 215.711 584.523L233.215 573.451V534.203C233.215 501.319 233.746 494.956 236.488 494.956C241.021 494.956 251.144 520.978 254.178 540.426C258.65 569.099 261.941 576.665 274.307 586.71C291.029 600.294 310.816 610.337 330.038 614.997C348.684 619.518 391.342 620.599 407.808 616.968Z" fill="#FEFEFE"/>
<path d="M292.498 434.895C298.967 434.895 304.817 433.686 305.499 432.208C307.552 427.754 302.686 414.361 299.015 414.361C292.651 414.361 269.512 433.654 269.512 438.96C269.512 439.872 272.037 439.33 275.124 437.756C278.21 436.183 286.029 434.895 292.498 434.895Z" fill="#FDFDFD"/>
<path d="M404.396 406.386C412.232 400.013 427.143 389.034 437.533 381.988C455.133 370.052 459.717 362.75 451.037 360.477C448.066 359.699 408.294 390.738 391.948 406.59C386.707 411.673 384.71 417.998 388.351 417.981C389.341 417.977 396.561 412.759 404.396 406.386Z" fill="white"/>
<path d="M415.943 382.518C433.184 367.797 447.29 354.405 447.29 352.76C447.29 348.042 445.96 348.869 428.02 364.746C408.344 382.159 381.007 409.285 383.134 409.285C383.939 409.285 398.702 397.24 415.943 382.518Z" fill="white"/>
<path d="M412.415 375.799C429.349 359.767 443.203 344.418 443.203 341.688C443.203 338.959 442.217 336.726 441.012 336.726C439.32 336.726 379.835 397.098 375.178 403.543C374.62 404.315 375.842 404.947 377.895 404.947C379.948 404.947 395.482 391.83 412.415 375.799Z" fill="white"/>
<path d="M394.261 379.757C420.246 355.497 440.617 331.291 438.031 327.749C435.423 324.177 375.173 387.358 375.173 393.666C375.173 397.241 376.815 396.045 394.261 379.757Z" fill="white"/>
<path d="M398.642 361.051C428.774 328.326 432.439 323.391 430.222 318.523C428.317 314.336 415.034 327.545 392.934 355.603C386.382 363.922 378.7 372.936 375.862 375.634C370.706 380.538 368.915 387.019 372.717 387.019C373.825 387.019 385.491 375.334 398.642 361.051Z" fill="white"/>
<path d="M398.057 346.045C427.752 311.771 426.828 313.063 424.793 308.692C423.603 306.136 417.556 311.594 407.343 324.444C398.748 335.259 386.284 350.345 379.647 357.969C373.01 365.594 367.579 373.724 367.579 376.036C367.579 381.096 368.336 380.351 398.057 346.045Z" fill="white"/>
<path d="M378.85 355.629C411.324 316.894 425.156 294.884 416.975 294.962C414.588 294.984 362.913 362.982 362.913 366.099C362.913 371.607 368.573 367.888 378.85 355.629Z" fill="white"/>
<path d="M364.71 342.752C373.377 330.379 386.67 311.648 394.25 301.125C403.771 287.909 407.249 280.924 405.5 278.535C403.75 276.146 394.158 288.464 374.477 318.376C358.807 342.19 345.986 362.478 345.986 363.461C345.986 368.137 350.167 363.505 364.71 342.752Z" fill="white"/>
<path d="M385.804 330.572C408.804 299.631 415.693 287.017 409.591 287.017C408.5 287.017 397.676 301.201 385.539 318.536C357.005 359.288 353.376 365.238 357.053 365.238C358.693 365.238 371.631 349.638 385.804 330.572Z" fill="white"/>
<path d="M47.4893 237.598C67.1586 219.447 83.2877 203.606 83.3319 202.395C83.5312 196.939 76.5148 202.295 43.3607 232.936C2.08375 271.079 2.53601 270.601 7.74955 270.601C9.93719 270.601 27.8201 255.75 47.4893 237.598Z" fill="white"/>
<path d="M153.524 261.813C153.524 260.123 156.204 255.41 159.479 251.34L165.434 243.94L159.643 230.211C152.982 214.419 144.629 210.279 140.466 220.708C138.641 225.281 135.901 226.751 129.197 226.751C118.426 226.751 118.419 233.594 129.189 235.015C134.971 235.778 137.439 238.553 142.883 250.416C149.136 264.042 153.524 268.742 153.524 261.813Z" fill="white"/>
<path d="M113.514 230.615C114.732 227.697 114.776 222.089 113.623 216.7C111.179 205.273 111.2 203.233 113.761 203.233C114.898 203.233 117.121 206.863 118.699 211.3C120.812 217.241 123.439 219.61 128.664 220.287C135.04 221.113 135.759 220.425 135.759 213.494C135.759 209.252 134.711 203.154 133.429 199.944C129.014 188.882 132.725 187.625 137.535 198.554C141.177 206.831 143.551 209.275 147.261 208.568C151.44 207.772 152.148 205.892 152.029 195.899C151.955 189.445 151.109 181.855 150.154 179.031C147.092 169.974 152 173.622 157.112 184.201C159.934 190.044 163.86 194.432 166.263 194.432C173.586 194.432 173.757 183.816 166.756 163.758C159.907 144.135 159.885 139.894 166.658 144.754C173.774 149.861 188.269 136.088 188.269 124.22C188.269 119.034 183.838 120.636 172.649 129.867C166.8 134.692 162.014 137.561 162.014 136.243C162.014 134.018 207.164 92.9866 270.799 37.382C297.512 14.0391 302.461 7.84216 296.739 4.8981C293.762 3.36626 279.963 15.4086 195.97 92.8408C170.073 116.715 147.839 134.84 136.897 140.997C111.481 155.298 109.838 156.548 100.491 168.71C94.2764 176.797 92.0009 182.163 92.0009 188.73C92.0009 205.059 96.7463 223.732 102.416 229.711C109.109 236.771 110.885 236.915 113.514 230.615Z" fill="white"/>
<path d="M167.934 213.244C169.466 207.892 165.019 203.068 160.634 205.324C159.021 206.155 157.701 209.333 157.701 212.387C157.701 219.318 165.997 220.012 167.934 213.244Z" fill="white"/>
<path d="M299.245 184.105C289.961 172.65 282.5 167.56 282.5 172.68C282.5 181.685 297.255 197.494 305.473 197.295C308.952 197.207 307.676 194.509 299.245 184.105Z" fill="white"/>
<path d="M284.688 186.68C284.688 183.518 275.677 167.892 273.854 167.892C272.873 167.892 271.585 171.296 270.992 175.455C270.172 181.209 271.025 183.62 274.566 185.537C280.157 188.564 284.688 189.076 284.688 186.68Z" fill="#FEFEFE"/>
<path d="M252.244 177.706C257.43 171.413 257.541 164.509 252.416 167.018C245.302 170.5 238.44 178.984 241.432 180.598C246.25 183.198 248.132 182.695 252.244 177.706Z" fill="#FEFEFE"/>
<path d="M233.77 176.837C244.838 170.101 245.834 166.732 235.958 169.442C222.398 173.162 212.438 177.698 212.438 180.155C212.438 184.503 224.175 182.677 233.77 176.837Z" fill="#FEFEFE"/>
<path d="M266.741 174.688C267.51 167.434 263.189 165.753 258.822 171.608C254.456 177.463 255.709 183.256 261.119 182.226C264.283 181.624 266.292 178.93 266.741 174.688Z" fill="#FEFEFE"/>
<path d="M288.096 160.291C290.198 152.948 284.436 148.586 269.583 146.275C255.496 144.083 252.11 145.438 252.11 153.272C252.11 157.351 255.014 159.084 265.785 161.433C285.924 165.825 286.521 165.795 288.096 160.291Z" fill="#FEFEFE"/>
<path d="M292.014 132.749C301.871 123.829 304.393 119.034 304.393 109.208C304.393 101.27 300.722 99.4797 295.159 104.705C292.482 107.219 287.131 109.275 283.269 109.275C278.147 109.275 275.866 110.877 274.845 115.191C274.075 118.445 269.46 123.833 264.591 127.163C254.239 134.245 255.63 137.788 269.387 139.38C274.802 140.006 279.921 140.75 280.763 141.032C281.606 141.314 286.668 137.587 292.014 132.749Z" fill="#FEFEFE"/>
<path d="M465.573 499.63C470.889 505.546 469.244 493.106 463.42 483.346C458.923 475.81 457.741 475.164 454.679 478.571C452.732 480.738 451.139 486.218 451.139 490.748C451.139 497.057 452.291 499.206 456.061 499.926C458.769 500.442 461.326 499.815 461.744 498.54C462.162 497.262 463.885 497.752 465.573 499.63Z" fill="white"/>
<path d="M345.987 626.496C324.804 623.483 303.816 615.518 285.82 603.66C255.743 583.842 254.897 582.533 247.985 545.11C240.793 506.166 235.357 499.088 238.019 532.135C241.41 574.228 241.133 576.075 230.223 584.179C224.915 588.122 208.177 598.705 193.028 607.697L165.484 624.046L132.374 623.533C108.789 623.167 95.57 621.592 86.4274 618.062C70.3083 611.836 55.185 601.727 49.6041 593.447C45.3234 587.096 45.3275 587.021 50.6981 573.329C70.7788 522.131 127.425 493.26 173.142 510.921C182.167 514.408 194.225 520.077 199.938 523.519C205.65 526.961 210.966 528.916 211.751 527.864C212.536 526.812 211.801 519.108 210.116 510.744L207.055 495.537L186.394 488.753C175.03 485.021 164.331 480.09 162.619 477.794C155.002 467.581 153.243 398.773 159.224 345.04L162.86 312.377L147.999 279.684C139.825 261.703 132.201 246.215 131.056 245.266C129.911 244.317 123.897 243.552 117.692 243.567C101.345 243.611 99.6362 242.473 91.8974 226.46C88.0425 218.484 84.1736 211.957 83.2997 211.957C82.4258 211.957 66.2491 226.431 47.3514 244.121C12.5654 276.683 6.48296 281.276 2.50436 277.979C-4.07782 272.524 1.51994 264.337 28.8562 239.438C81.4803 191.504 80.7624 192.279 85.2866 178.565C92.3 157.307 114.398 137.736 148.317 122.742C160.955 117.156 173.077 108.544 189.888 93.2096C267.436 22.4725 291.815 0.860521 294.904 0.112337C300.064 -1.13733 303.907 8.27002 300.853 14.6752C297.989 20.6811 302.001 29.9747 315.901 49.535C321.218 57.0167 323.608 62.4134 322.143 63.6275C319.599 65.7356 314.099 59.0969 302.849 40.342C293.002 23.9247 293.971 34.2334 303.924 51.7743C308.407 59.6746 313.024 67.8621 314.185 69.9685C316.737 74.599 314.465 78.4338 310.914 75.4909C309.513 74.3304 303.854 64.0259 298.338 52.5921C292.821 41.1583 287.934 33.3056 287.478 35.1414C286.486 39.1291 291.684 53.2239 300.56 70.6191C304.117 77.5897 306.344 84.1901 305.509 85.2868C303.423 88.0253 293.112 71.0223 287.148 55.0125C282.902 43.613 278.162 37.6608 278.162 43.7287C278.162 48.7467 293.869 82.3678 299.687 89.8023C311.459 104.847 310.702 122.672 297.799 134.233C293.521 138.066 291.747 141.603 292.657 144.485C293.421 146.905 293.891 153.121 293.7 158.297C293.381 166.959 295.276 169.741 317.514 193.25C344.579 221.862 343.541 218.483 335.878 253.027C333.675 262.958 333.585 266.518 335.516 267.395C341.067 269.919 348.176 282.494 348.176 289.789C348.176 297.35 340.695 309.473 331.682 316.52C327.556 319.745 327.654 320.254 334.233 329.721C337.996 335.137 341.976 343.365 343.077 348.008L345.079 356.448L363.345 328.94C373.392 313.81 385.088 296.292 389.337 290.012L397.063 278.594L404.891 290.133C416.048 306.581 447.127 357.92 450.941 366.204C453.004 370.684 453.396 374.159 452.035 375.897C448.405 380.533 391.723 420.24 388.735 420.24C384.883 420.24 382.059 425.515 378.924 438.566C377.472 444.611 374.171 451.542 371.589 453.967C365.683 459.514 346.434 459.723 331.149 454.407C323.165 451.63 319.751 451.409 319.792 453.674C319.825 455.454 322.665 465.753 326.104 476.561C329.543 487.368 331.814 496.94 331.15 497.83C330.486 498.72 315.503 499.448 297.854 499.448C280.204 499.448 265.227 500.168 264.57 501.048C263.641 502.294 274.045 531.732 277.374 537.279C277.758 537.917 284.03 534.855 291.312 530.473C309.681 519.42 339.099 514.589 357.461 519.611C379.6 525.665 395.166 536.55 407.443 554.561C420.56 573.805 425.999 587.302 428.06 605.723C429.8 621.286 431.664 619.701 404.882 625.439C391.235 628.363 362.716 628.874 345.987 626.496ZM407.903 617.057C422.591 613.818 423.843 611.243 418.541 595.173C409.075 566.479 394.141 548.718 368.676 535.866C346.377 524.613 315.039 527.128 289.6 542.212C283.01 546.12 276.853 549.317 275.918 549.317C274.983 549.317 272.361 545.026 270.09 539.783C266.158 530.701 254.095 494.604 254.095 491.919C254.095 491.218 267.633 490.625 284.179 490.601C300.725 490.579 315.421 489.567 316.837 488.36C318.732 486.745 317.909 480.079 313.724 463.122L308.036 440.08L291.458 441.504C282.34 442.286 270.488 445.024 265.12 447.588C259.752 450.152 254.829 451.534 254.18 450.66C251.885 447.568 277.254 420.094 290.26 411.586C305.339 401.722 308.793 393.575 308.793 367.869C308.793 351.498 312.463 345.896 318.666 352.799C323.494 358.171 322.667 365.752 315.357 383.119C304.151 409.74 308.236 431.276 326.773 443.308C337.298 450.14 358.375 451.883 365.823 446.539C371.81 442.243 371.075 438.393 364.585 440.057C361.392 440.875 359.115 440.09 359.115 438.184C359.115 436.382 360.459 434.908 362.102 434.908C367.071 434.908 376.618 423.131 376.618 417.001C376.618 409.173 371.769 407.292 362.34 411.464C357.998 413.386 353.773 413.985 352.952 412.797C352.13 411.608 352.441 410.152 353.645 409.559C354.849 408.967 359.173 405.753 363.256 402.417C369.727 397.127 370.273 395.807 367.516 392.111C364.968 388.694 362.977 388.516 357.248 391.194C353.338 393.021 349.453 393.595 348.614 392.47C347.154 390.511 352.873 383.427 357.631 381.3C358.88 380.742 359.234 377.948 358.417 375.093C356.607 368.771 347.31 370.724 335.779 379.846C325.675 387.839 323.731 383.935 332.774 373.813C339.472 366.316 339.941 364.719 338.493 354.365C336.939 343.259 330.356 332.223 319.897 323.19C312.936 317.178 315.069 308.764 323.553 308.764C332.417 308.764 339.424 301.179 339.424 291.584C339.424 281.764 335.833 276.495 329.141 276.495C326.373 276.495 324.109 276.046 324.109 275.497C324.109 274.948 326.096 264.082 328.524 251.35C330.953 238.618 332.481 226.595 331.919 224.632C330.447 219.488 320.608 213.25 297.429 202.764C278.3 194.11 274.668 193.47 237.374 192.172C189.46 190.504 191.396 189.117 184.089 230.347C177.814 265.755 176.978 267.669 170.96 260.367C164.949 253.072 159.187 257.398 158.251 269.908C157.522 279.655 164.425 289.153 170.112 286.227C174.081 284.185 173.975 287.012 168.653 325.066C165.386 348.423 164.045 371.184 163.73 408.621C163.179 474.074 162.785 473.023 191.204 481.828L211.577 488.141L215.212 506.261C219.827 529.265 221.886 546.383 220.04 546.383C219.251 546.383 211.576 541.776 202.985 536.145C179.42 520.701 162.952 516.103 136.794 517.662C116.164 518.893 113.374 519.824 96.2583 531.192C76.3943 544.386 63.5385 559.003 57.2608 575.533C53.3474 585.838 53.3575 586.051 57.972 590.591C66.8303 599.306 82.3802 607.519 99.4021 612.473C113.968 616.712 120.227 616.988 142.242 614.36C169.537 611.101 181.718 606.176 215.807 584.612L233.31 573.54V534.292C233.31 501.408 233.841 495.045 236.583 495.045C241.116 495.045 251.24 521.067 254.273 540.515C258.746 569.188 262.036 576.754 274.403 586.799C291.125 600.383 310.911 610.426 330.133 615.086C348.779 619.607 391.437 620.688 407.903 617.057ZM197.705 478.178C192.539 469.677 190.698 450.291 192.095 419.115L193.527 387.189L209.042 388.966C230.626 391.439 246.369 398.266 251.787 407.501C263.403 427.3 249.912 458.376 229.701 458.376C226.877 458.376 225.652 460.523 225.652 465.47C225.652 479.603 223.71 481.845 211.465 481.845C204.886 481.845 198.976 480.27 197.705 478.178ZM225.652 424.64C225.652 422.22 224.726 420.24 223.593 420.24C220.834 420.24 218.858 424.821 220.606 427.165C223.07 430.469 225.652 429.177 225.652 424.64ZM221.708 377.048C217.658 372.431 217.06 368.067 216.471 338.83C215.871 309.011 216.176 305.824 219.635 305.827C222.193 305.83 223.464 308.116 223.464 312.71C223.464 316.494 225.265 321.775 227.465 324.445C233.649 331.948 240.22 330.435 244.597 320.499C248.804 310.95 253.166 308.529 251.204 316.832C244.477 345.303 234.706 374.81 230.889 378.185C226.864 381.744 225.702 381.6 221.708 377.048ZM237.738 343.746C239.501 336.298 239.581 336.389 229.481 334.299C220.836 332.511 219.667 334.453 223.541 344.16C226.628 351.894 235.873 351.624 237.738 343.746ZM292.316 317.418C290.237 312.908 293.085 309.997 295.893 313.763C297.464 315.869 297.502 317.51 296.007 318.749C294.782 319.763 293.121 319.165 292.316 317.418ZM259.018 307.966C247.476 304.991 243.266 299.903 252.454 300.034C260.122 300.145 274.07 305.038 276.679 308.536C279.525 312.352 275.532 312.223 259.018 307.966ZM230.061 300.33C230.155 295.206 234.375 290.521 237.465 292.111C243.042 294.98 241.636 302.164 235.498 302.164C232.489 302.164 230.043 301.339 230.061 300.33ZM179.706 297.031C179.706 295.417 180.69 294.097 181.894 294.097C183.097 294.097 184.082 295.417 184.082 297.031C184.082 298.644 183.097 299.964 181.894 299.964C180.69 299.964 179.706 298.644 179.706 297.031ZM193.927 297.031C193.071 295.174 198.645 294.097 209.114 294.097C218.681 294.097 225.652 295.333 225.652 297.031C225.652 298.704 219.131 299.964 210.466 299.964C202.113 299.964 194.671 298.644 193.927 297.031ZM245.781 284.709C244.337 282.773 243.155 279.179 243.155 276.723C243.155 273.603 242.129 274.222 239.75 278.776C237.876 282.362 234.486 285.296 232.216 285.296C227.854 285.296 221.276 275.028 221.276 268.219C221.276 260.587 228.137 244.806 232.051 243.434C238.11 241.31 243.138 246.633 243.328 255.373L243.501 263.294L245.665 255.361C248.174 246.163 255.085 242.175 259.67 247.277C264.399 252.539 263.627 271.441 258.312 280.5C253.357 288.946 249.825 290.132 245.781 284.709ZM258.471 261.655C258.471 255.534 255.252 254.01 252.936 259.034C250.952 263.34 253.595 271.388 256.267 269.174C257.479 268.17 258.471 264.786 258.471 261.655ZM238.78 257.183C238.78 247.993 233.641 248.998 232.611 258.39C232.146 262.621 233.065 264.761 235.346 264.761C237.579 264.761 238.78 262.113 238.78 257.183ZM259.065 235.559C251.72 230.844 250.03 224.448 254.533 218.411C260.819 209.982 269.41 217.903 269.41 232.126C269.41 240.173 267.328 240.864 259.065 235.559ZM262.126 221.747C261.48 220.88 259.795 221.128 258.383 222.297C256.479 223.875 256.583 225.064 258.785 226.897C261.702 229.328 264.53 224.97 262.126 221.747ZM233.857 230.391C226.987 228.995 227.148 229.448 229.974 219.482C231.476 214.185 233.721 211.957 237.555 211.957C243.465 211.957 248.68 221.314 246.674 228.32C245.473 232.519 244.84 232.621 233.857 230.391ZM240.967 220.758C240.967 219.144 239.491 217.824 237.686 217.824C235.881 217.824 234.404 219.144 234.404 220.758C234.404 222.371 235.881 223.691 237.686 223.691C239.491 223.691 240.967 222.371 240.967 220.758ZM292.397 434.908C298.866 434.908 304.716 433.698 305.398 432.22C307.451 427.766 302.585 414.373 298.914 414.373C292.55 414.373 269.41 433.666 269.41 438.973C269.41 439.884 271.936 439.343 275.023 437.769C278.109 436.195 285.928 434.908 292.397 434.908ZM403.838 406.783C410.987 401.003 424.592 391.046 434.071 384.655C450.129 373.83 454.311 367.209 446.392 365.147C443.681 364.442 407.394 392.591 392.481 406.967C387.699 411.577 385.876 417.314 389.199 417.299C390.101 417.295 396.689 412.563 403.838 406.783ZM413.617 384.758C429.368 371.697 442.256 359.815 442.256 358.355C442.256 354.17 441.041 354.904 424.651 368.99C406.675 384.439 381.699 408.506 383.642 408.506C384.378 408.506 397.866 397.819 413.617 384.758ZM410.236 377.57C425.44 363.783 437.88 350.582 437.88 348.235C437.88 345.888 436.995 343.968 435.913 343.968C434.393 343.968 380.982 395.888 376.801 401.431C376.299 402.095 377.397 402.638 379.241 402.638C381.084 402.638 395.032 391.358 410.236 377.57ZM392.661 380.153C414.502 360.191 431.624 340.274 429.451 337.359C427.258 334.42 376.618 386.408 376.618 391.598C376.618 394.54 377.998 393.555 392.661 380.153ZM396.411 362.853C422.477 334.896 425.647 330.681 423.73 326.522C422.082 322.945 410.591 334.229 391.474 358.199C385.806 365.306 379.16 373.006 376.705 375.312C372.245 379.501 370.696 385.037 373.985 385.037C374.943 385.037 385.035 375.054 396.411 362.853ZM394.114 350.148C419.686 320.338 418.89 321.461 417.138 317.659C416.113 315.436 410.905 320.184 402.111 331.359C394.708 340.766 383.975 353.888 378.259 360.519C372.543 367.15 367.867 374.222 367.867 376.233C367.867 380.634 368.518 379.986 394.114 350.148ZM377.159 356.607C405.009 324.196 416.871 305.78 409.855 305.846C407.808 305.868 363.491 362.759 363.491 365.368C363.491 369.976 368.345 366.864 377.159 356.607ZM362.77 344.701C370.538 333.81 382.454 317.321 389.248 308.058C397.782 296.425 400.9 290.277 399.331 288.174C397.763 286.071 389.166 296.914 371.524 323.244C357.479 344.206 345.987 362.064 345.987 362.93C345.987 367.045 349.734 362.973 362.77 344.701ZM382.205 334.6C402.604 307.911 408.714 297.031 403.302 297.031C402.334 297.031 392.735 309.265 381.97 324.218C356.663 359.37 353.444 364.502 356.705 364.502C358.159 364.502 369.634 351.046 382.205 334.6ZM47.5148 237.625C67.184 219.474 83.3132 203.633 83.3574 202.423C83.5566 196.966 76.5403 202.323 43.3862 232.964C2.10923 271.107 2.56146 270.628 7.77499 270.628C9.96263 270.628 27.8455 255.777 47.5148 237.625ZM153.451 261.687C153.451 259.997 156.131 255.283 159.406 251.213L165.362 243.813L159.571 230.085C152.909 214.293 144.556 210.153 140.394 220.582C138.568 225.156 135.828 226.625 129.125 226.625C118.353 226.625 118.346 233.468 129.116 234.889C134.898 235.652 137.366 238.428 142.81 250.29C149.063 263.917 153.451 268.616 153.451 261.687ZM179.812 220.954C186.9 186.661 187.932 184.997 208.524 174.64C218.546 169.599 230.93 163.843 236.045 161.849C244.231 158.658 245.343 157.204 245.343 149.698C245.343 141.156 254.178 128.04 263.073 123.374C265.215 122.251 268.49 118.216 270.351 114.408C273.494 107.976 273.292 106.074 267.5 87.6672C264.07 76.7683 260.144 66.3482 258.774 64.5113C254.725 59.083 255.766 65.915 261.753 84.0657C264.761 93.1865 267.222 102.214 267.222 104.127C267.222 110.687 261.441 99.3151 257.555 85.1105C253.17 69.0869 248.204 62.459 250.61 75.8421C251.451 80.5198 254.028 89.5551 256.336 95.9209C258.644 102.287 260.134 108.03 259.647 108.683C257.484 111.583 254.155 105.172 250.809 91.6633C248.817 83.6243 245.718 75.9435 243.92 74.5949C241.453 72.7432 245.244 68.0047 259.407 55.2378C269.722 45.9398 278.162 37.6872 278.162 36.8985C278.162 34.4773 245.862 62.0972 215.806 90.2188C206.18 99.2263 196.967 107.696 195.334 109.04C193.268 110.74 192.828 114.306 193.887 120.769C195.747 132.122 191.777 141.256 181.16 150.054L173.639 156.286L177.767 167.14C180.037 173.11 181.894 180.4 181.894 183.339C181.894 189.451 172.06 216.845 167.214 224.232C164.339 228.615 164.418 230.183 167.923 238.137C170.095 243.068 172.662 246.044 173.626 244.751C174.591 243.457 177.375 232.749 179.812 220.954ZM231.476 118.104C229.294 107.581 226.076 99.0537 223.459 96.8629C221.055 94.8499 219.088 92.3259 219.088 91.2539C219.088 89.1201 238.877 72.9458 239.52 74.5543C242.244 81.3727 254.095 115.618 254.095 116.672C254.095 117.448 253.239 118.083 252.193 118.083C251.147 118.083 247.729 110.162 244.598 100.481C241.467 90.8007 237.892 82.8801 236.654 82.8801C233.488 82.8801 233.634 83.5898 240.984 103.933C244.603 113.951 246.734 123.259 245.72 124.618C244.707 125.977 241.143 118.462 237.8 107.918C234.458 97.3742 230.405 88.7473 228.793 88.7473C226.664 88.7473 227.29 92.562 231.078 102.682C236.97 118.423 240.133 135.684 237.124 135.684C236.023 135.684 233.481 127.773 231.476 118.104ZM113.703 230.538C114.921 227.621 114.964 222.013 113.812 216.623C111.368 205.196 111.389 203.156 113.949 203.156C115.087 203.156 117.309 206.787 118.887 211.224C121 217.164 123.627 219.533 128.852 220.21C135.229 221.036 135.948 220.348 135.948 213.417C135.948 209.175 134.899 203.077 133.618 199.867C129.203 188.805 132.913 187.548 137.723 198.477C141.365 206.754 143.739 209.198 147.449 208.491C151.629 207.695 152.337 205.815 152.218 195.822C152.144 189.369 151.298 181.778 150.343 178.954C147.281 169.897 152.189 173.545 157.3 184.124C160.123 189.967 164.048 194.356 166.451 194.356C173.774 194.356 173.945 183.739 166.944 163.681C160.095 144.058 160.074 139.817 166.847 144.677C173.963 149.783 188.458 136.011 188.458 124.143C188.458 118.957 184.027 120.559 172.837 129.79C166.988 134.616 162.203 137.485 162.203 136.166C162.203 133.941 207.353 92.9099 270.987 37.3052C297.701 13.9623 302.65 7.76506 296.928 4.821C293.95 3.28915 280.152 15.3315 196.159 92.7636C170.262 116.638 148.028 134.763 137.085 140.92C111.669 155.221 110.027 156.471 100.68 168.633C94.465 176.721 92.1895 182.086 92.1895 188.653C92.1895 204.983 96.9348 223.655 102.604 229.635C109.298 236.694 111.073 236.839 113.703 230.538ZM168.06 213.128C169.592 207.776 165.145 202.952 160.76 205.208C159.147 206.039 157.827 209.217 157.827 212.271C157.827 219.202 166.123 219.896 168.06 213.128ZM299.283 183.971C289.999 172.516 282.538 167.426 282.538 172.547C282.538 181.551 297.293 197.36 305.511 197.162C308.99 197.073 307.714 194.375 299.283 183.971ZM284.726 186.741C284.726 183.579 275.716 167.953 273.892 167.953C272.911 167.953 271.623 171.357 271.03 175.516C270.21 181.271 271.063 183.681 274.604 185.598C280.195 188.625 284.726 189.137 284.726 186.741ZM233.857 176.833C244.924 170.098 245.921 166.729 236.045 169.438C222.484 173.158 212.525 177.695 212.525 180.152C212.525 184.499 224.261 182.674 233.857 176.833ZM252.282 177.767C257.468 171.474 257.579 164.57 252.454 167.079C245.34 170.561 238.478 179.045 241.47 180.659C246.289 183.259 248.17 182.756 252.282 177.767ZM266.828 174.555C267.596 167.3 263.275 165.619 258.908 171.474C254.542 177.329 255.796 183.122 261.206 182.092C264.369 181.49 266.378 178.796 266.828 174.555ZM287.893 159.964C289.994 152.621 284.233 148.259 269.379 145.947C255.292 143.755 251.907 145.11 251.907 152.944C251.907 157.023 254.811 158.757 265.582 161.106C285.721 165.498 286.318 165.467 287.893 159.964ZM292.038 132.757C301.895 123.837 304.417 119.041 304.417 109.216C304.417 101.277 300.746 99.4871 295.182 104.712C292.506 107.226 287.155 109.283 283.293 109.283C278.171 109.283 275.89 110.885 274.869 115.199C274.099 118.453 269.484 123.84 264.615 127.171C254.263 134.252 255.654 137.795 269.41 139.387C274.826 140.014 279.945 140.757 280.787 141.039C281.629 141.321 286.692 137.594 292.038 132.757ZM293.354 98.7608C296.096 95.2666 295.913 93.8574 291.96 88.075C289.457 84.4114 284.249 73.8232 280.388 64.5458C270.636 41.1125 268.399 45.989 277.361 71.1436C285.559 94.1528 285.659 94.6148 282.446 94.6148C281.193 94.6148 277.296 86.0341 273.786 75.5467C270.277 65.0592 266.38 56.4786 265.126 56.4786C261.87 56.4786 262.265 60.0392 267.253 75.6404C274.383 97.943 279.991 106.878 285.48 104.677C288.074 103.637 291.617 100.975 293.354 98.7608ZM455.383 510.028C455.383 507.781 453.906 505.182 452.101 504.253C448.431 502.364 447.463 481.973 450.822 477.298C451.924 475.766 453.227 471.211 453.719 467.178C454.482 460.918 454.866 460.6 456.336 465.01C457.283 467.852 461.395 474.651 465.472 480.118C475.678 493.802 475.506 503.768 464.961 509.675C455.305 515.085 455.383 515.081 455.383 510.028ZM465.441 499.684C470.757 505.599 469.113 493.158 463.289 483.398C458.792 475.863 457.61 475.217 454.548 478.624C452.601 480.791 451.007 486.27 451.007 490.801C451.007 497.11 452.16 499.259 455.93 499.978C458.638 500.495 461.195 499.867 461.613 498.593C462.03 497.314 463.754 497.806 465.441 499.684ZM451.007 451.043C451.007 448.354 452.066 446.627 453.359 447.205C454.653 447.783 455.711 449.51 455.711 451.043C455.711 452.576 454.653 454.303 453.359 454.881C452.066 455.459 451.007 453.732 451.007 451.043ZM453.582 432.951C453.97 430.261 455.442 427.546 456.852 426.917C458.482 426.189 458.986 427.969 458.238 431.807C456.839 438.978 452.558 440.029 453.582 432.951ZM459.759 415.84C459.759 413.42 460.713 411.44 461.878 411.44C463.044 411.44 463.431 413.42 462.738 415.84C462.045 418.26 461.092 420.241 460.619 420.241C460.146 420.241 459.759 418.26 459.759 415.84ZM464.135 398.239C464.135 395.819 465.119 393.838 466.323 393.838C467.526 393.838 468.511 395.819 468.511 398.239C468.511 400.659 467.526 402.639 466.323 402.639C465.119 402.639 464.135 400.659 464.135 398.239ZM464.308 383.327C464.413 379.909 464.931 379.214 465.629 381.554C466.261 383.672 466.184 386.202 465.457 387.177C464.73 388.151 464.213 386.419 464.308 383.327ZM457.571 373.13C457.571 371.422 458.556 370.839 459.759 371.837C460.962 372.833 461.947 374.232 461.947 374.943C461.947 375.655 460.962 376.237 459.759 376.237C458.556 376.237 457.571 374.839 457.571 373.13Z" fill="black"/>
<path d="M199.894 475.192C194.728 466.691 192.887 447.306 194.285 416.13L195.716 384.202L211.232 385.98C232.815 388.453 248.558 395.279 253.976 404.514C265.592 424.314 252.102 455.391 231.891 455.391C229.067 455.391 227.841 457.536 227.841 462.484C227.841 476.617 225.899 478.859 213.654 478.859C207.076 478.859 201.165 477.283 199.894 475.192Z" fill="#CE4F49"/>
<path d="M227.841 421.655C227.841 419.234 226.915 417.254 225.783 417.254C223.024 417.254 221.048 421.835 222.796 424.179C225.26 427.483 227.841 426.191 227.841 421.655Z" fill="black"/>
</g>
<defs>
<clipPath id="clip0_667_369">
<rect width="473" height="628" fill="white"/>
</clipPath>
</defs>
</svg>
