<svg width="300" height="320" viewBox="0 0 300 320" fill="none" xmlns="http://www.w3.org/2000/svg">
<g clip-path="url(#clip0_668_1011)">
<path d="M106.869 73.4524C131.977 63.3483 164.747 48.5742 164.78 47.3432C164.871 43.9889 137.021 51.8087 121.326 59.5446C110.425 64.9175 89.1728 77.9764 89.1728 79.3017C89.1728 80.4819 90.4472 80.0607 106.869 73.4524Z" fill="white"/>
<path d="M123.653 55.4033C129.389 52.739 140.464 48.7865 148.264 46.62L162.446 42.6808L148.953 43.4472C134.521 44.267 119.859 48.9092 108.522 56.2486C99.9346 61.8079 82.8697 76.5136 82.8697 78.3546C82.8697 79.1817 89.6993 75.446 98.0466 70.053C106.394 64.66 117.917 58.0677 123.653 55.4033Z" fill="white"/>
<path d="M98.6274 60.2172C112.212 49.2478 125.909 43.6386 147.254 40.3028L160.87 38.175L141.878 38.4664C123.396 38.75 122.567 38.9192 111.039 44.7625C97.2599 51.7473 86.7258 60.7345 79.8616 71.362C72.7229 82.4143 73.8945 83.3609 83.2636 74.1107C87.8137 69.6185 94.7274 63.3664 98.6274 60.2172Z" fill="white"/>
<path d="M105.024 81.4235C123.954 76.5996 163.234 57.0383 163.234 52.4353C163.234 51.6999 156.32 54.4156 147.87 58.4702C139.42 62.5248 122.579 69.8125 110.446 74.665C81.4396 86.2655 80.2619 87.7338 105.024 81.4235Z" fill="white"/>
<path d="M103.689 87.9862C133.097 82.8407 147.8 76.4217 162.007 62.5252C173.04 51.7323 173.856 48.551 163.628 56.2C152.945 64.1891 131.086 75.9019 119.113 80.0521C113.479 82.0048 101.07 85.2634 91.5365 87.2937C69.7211 91.9394 78.3012 92.4283 103.689 87.9862Z" fill="white"/>
<path d="M217.371 90.8726C213.142 83.7617 189.552 52.4372 188.916 53.0889C186.126 55.9502 212.196 92.8926 217.005 92.8926C217.867 92.8926 218.032 91.9836 217.371 90.8726Z" fill="white"/>
<path d="M227.39 86.8327C225.138 67.4215 208.642 44.4137 196.976 44.4137C195.106 44.4137 196.473 46.7755 201.584 52.3798C210.719 62.3944 224.116 83.304 225.481 89.6767C227.1 97.2393 228.376 95.3387 227.39 86.8327Z" fill="white"/>
<path d="M219.375 82.726C212.338 68.0823 191.598 42.7242 191.598 48.7645C191.598 49.5968 198.058 59.3206 205.954 70.3732C213.849 81.4257 220.716 91.5226 221.213 92.8109C221.868 94.5097 222.295 94.6023 222.768 93.1481C223.126 92.0453 221.599 87.3553 219.375 82.726Z" fill="white"/>
<path d="M93.9415 96.0745C114.213 93.5453 132.877 88.3496 145.113 81.8293C156.384 75.8231 172.689 61.3567 172.689 57.363C172.689 56.1424 170.2 58.1252 167.159 61.7693C155.605 75.611 133.275 85.8716 103.355 91.0863C92.5213 92.9744 80.9567 94.5169 77.6555 94.5139C74.0542 94.5108 72.0429 95.1549 72.6272 96.1245C73.8535 98.1593 77.2962 98.1514 93.9415 96.0745Z" fill="white"/>
<path d="M209.376 88.6658C200.447 79.4021 193.406 70.2961 189.528 62.9972L183.518 51.6855L184.472 58.855C185.958 70.024 189.747 76.6485 201.471 88.5773C210.61 97.8757 221.082 105.201 222.77 103.477C223.015 103.227 216.988 96.5621 209.376 88.6658Z" fill="white"/>
<path d="M240.225 141.371C240.225 139.844 239.725 140.142 238.871 142.179C238.126 143.957 237.517 146.502 237.517 147.835C237.517 149.363 238.018 149.065 238.871 147.027C239.616 145.25 240.225 142.705 240.225 141.371Z" fill="white"/>
<path d="M224.634 165.717C226.862 161.448 226.705 160.759 223.507 160.788C219.191 160.827 216.257 163.418 217.319 166.256C218.647 169.803 222.655 169.508 224.634 165.717Z" fill="white"/>
<path d="M253.069 205.606C261.159 199.96 264.609 194.145 264.609 186.158C264.609 173.246 256.773 162.211 245.962 159.897C242.577 159.173 241.873 159.344 243.481 160.499C245.2 161.733 242.173 163.886 230.595 169.663C215.11 177.39 212.198 180.132 216.022 183.387C217.692 184.807 219.919 184.458 225.584 181.889C233.686 178.213 235.72 177.823 235.72 179.943C235.72 180.716 231.465 183.24 226.265 185.553C221.065 187.866 216.81 190.083 216.81 190.48C216.81 197.183 222.614 197.868 231.937 192.265C240.835 186.918 242.383 189.92 233.782 195.843C221.863 204.052 224.977 209.684 237.457 202.491C240.816 200.555 244.097 199.519 244.75 200.188C245.402 200.857 244.701 202.113 243.191 202.98C241.682 203.846 240.447 205.609 240.447 206.898C240.447 210.437 247.128 209.753 253.069 205.606Z" fill="white"/>
<path d="M54.4045 210.956C56.2114 209.784 56.2777 209.007 54.7338 207.1C51.6842 203.332 44.9248 202.215 42.183 205.027C37.2584 210.077 47.8446 215.213 54.4045 210.956Z" fill="white"/>
<path d="M104.837 208.03C106 204.697 107.283 201.059 107.687 199.946C108.108 198.787 106.159 196.945 103.131 195.639C96.6774 192.856 94.3987 194.369 92.9271 202.414C92.0484 207.217 92.4684 208.686 95.4236 211.139C100.598 215.436 102.467 214.818 104.837 208.03Z" fill="white"/>
<path d="M227.511 213.795L233.356 210.087L228.629 209.253C224.83 208.583 223.799 207.506 223.383 203.772C222.875 199.223 222.707 199.145 215.288 200.047C205.618 201.221 195.761 205.382 197.157 207.699C197.739 208.665 201.159 211.649 204.755 214.331C212.345 219.989 217.958 219.857 227.511 213.795Z" fill="white"/>
<path d="M73.3523 212.096C81.0953 200.826 82.4866 196.45 78.7347 195.169C76.1156 194.275 59.3625 210.575 58.2567 215.093C57.2405 219.245 59.8529 223.786 63.2581 223.786C64.3929 223.786 68.9353 218.525 73.3523 212.096Z" fill="white"/>
<path d="M81.8585 223.826C87.7269 217.165 90.1702 211.006 88.6043 206.822C86.8451 202.12 83.9219 203.932 76.0265 214.618C65.6128 228.712 70.6072 236.598 81.8585 223.826Z" fill="white"/>
<path d="M93.2698 229.603C98.9506 223.777 100.24 217.855 96.1761 216.256C94.5302 215.608 91.2216 218.146 86.1058 223.982C81.9153 228.762 78.8056 233.219 79.1954 233.885C80.991 236.956 88.2552 234.746 93.2698 229.603Z" fill="white"/>
<path d="M93.8545 238.392C95.1294 237.566 95.7627 236.469 95.2619 235.955C94.0205 234.682 89.1728 236.71 89.1728 238.502C89.1728 240.344 90.908 240.303 93.8545 238.392Z" fill="white"/>
<path d="M177.148 243.191C179.986 240.532 183.658 235.229 185.307 231.406C189.133 222.537 191.061 210.858 188.699 210.858C186.285 210.858 175.084 226.422 171.234 235.127C165.37 248.385 167.908 251.845 177.148 243.191Z" fill="white"/>
<path d="M281.417 256.818C281.417 252.87 280.708 249.641 279.841 249.641C278.975 249.641 278.265 253.32 278.265 257.816C278.265 262.855 278.87 265.608 279.841 264.993C280.708 264.443 281.417 260.765 281.417 256.818Z" fill="black"/>
<path d="M165.794 269.437C165.351 267.881 164.515 263.162 163.935 258.949C163.355 254.737 162.21 251.715 161.39 252.235C160.569 252.755 160.294 255.293 160.778 257.875C161.262 260.456 162.069 264.75 162.571 267.417C163.074 270.083 164.185 272.265 165.041 272.265C165.897 272.265 166.236 270.992 165.794 269.437Z" fill="white"/>
<path d="M245.174 257.772C245.174 256.911 246.238 256.625 247.538 257.136C248.838 257.648 249.902 258.352 249.902 258.702C249.902 259.051 248.838 259.337 247.538 259.337C246.238 259.337 245.174 258.632 245.174 257.772Z" fill="black"/>
<path d="M157.805 281.086C155.035 262.382 153.776 257.532 151.987 258.666C151.186 259.174 150.971 262.259 151.509 265.523C152.905 273.999 158.79 296.752 159.42 296.107C159.711 295.808 158.984 289.049 157.805 281.086Z" fill="white"/>
<path d="M49.5765 287.021C53.6911 275.448 64.3544 264.509 75.8232 260.094C80.1321 258.436 84.1786 256.314 84.8153 255.38C86.642 252.699 86.212 246.961 84.0516 245.188C82.9682 244.299 69.4906 243.052 54.1013 242.418L26.1207 241.266L25.1465 246.261C24.2304 250.958 23.0572 251.929 18.8956 251.434C17.296 251.243 15.1419 272.508 15.1197 288.71C15.1102 295.794 15.7447 296.058 33.4157 296.317L46.2047 296.504L49.5765 287.021Z" fill="white"/>
<path d="M168.73 293.012C161.258 281.857 161.091 281.737 162.38 288.424C164.308 298.432 164.882 299.49 169.215 301.021C171.559 301.848 173.709 302.326 173.993 302.082C174.277 301.839 171.909 297.757 168.73 293.012Z" fill="white"/>
<path d="M188.447 303.285C188.447 301.043 177.519 291.012 176.366 292.195C175.762 292.814 177.663 295.855 180.591 298.952C185.78 304.443 188.447 305.914 188.447 303.285Z" fill="white"/>
<path d="M162.85 106.224C163.274 104.902 161.819 104.204 158.638 104.204C152.381 104.204 152.35 101.551 158.59 100.146C164.658 98.7789 163.807 95.479 157.215 94.811C153.204 94.4045 151.884 95.077 150.477 98.2425C147.767 104.343 151.044 109.38 157.308 108.743C160.001 108.468 162.494 107.335 162.85 106.224Z" fill="black"/>
<path d="M150.764 109.192C146.418 104.735 146.61 100.098 151.344 95.243C156.647 89.805 159.207 90.23 166.386 97.7404C169.784 101.296 171.751 104.204 170.758 104.204C169.765 104.204 167.489 105.605 165.699 107.316C160.418 112.369 154.578 113.103 150.764 109.192Z" fill="black"/>
<path d="M63.9368 109.007C62.9962 107.204 61.553 106.157 60.7299 106.678C59.9067 107.2 59.2332 106.47 59.2332 105.057C59.2332 101.593 63.4476 100.14 66.3442 102.605C68.9356 104.811 69.5713 112.284 67.1674 112.284C66.3313 112.284 64.8775 110.809 63.9368 109.007Z" fill="black"/>
<path d="M120.688 118.113C120.688 117.764 121.789 117.045 123.134 116.515C124.536 115.964 125.169 116.234 124.617 117.151C123.691 118.686 120.688 119.422 120.688 118.113Z" fill="black"/>
<path d="M109.471 119.152C109.369 118.485 109.369 117.395 109.471 116.728C109.574 116.061 108.198 115.516 106.413 115.516C104.629 115.516 103.607 116.243 104.143 117.132C104.678 118.021 104.366 118.748 103.448 118.748C102.53 118.748 101.779 118.021 101.779 117.132C101.779 116.243 99.829 115.419 97.4456 115.3C88.8427 114.871 109.091 112.565 122.679 112.426C130.477 112.346 137.813 111.436 139.531 110.336C142.002 108.753 143.107 108.882 145.419 111.025C146.984 112.475 151.101 113.956 154.567 114.317L160.87 114.973L153.464 115.244C147.866 115.45 145.677 114.825 144.501 112.688C143.255 110.423 142.549 110.262 140.956 111.88C139.862 112.991 136.45 113.908 133.373 113.918C124.145 113.947 115.94 115.789 117.024 117.588C117.604 118.551 117.249 118.756 116.179 118.078C115.164 117.435 114.742 116.232 115.24 115.404C115.739 114.577 114.687 113.9 112.902 113.9C109.253 113.9 109.19 117.357 112.809 119.038C114.744 119.937 114.673 120.157 112.415 120.25C110.899 120.313 109.574 119.819 109.471 119.152Z" fill="black"/>
<path d="M148.264 123.596C147.729 122.707 148.438 121.98 149.84 121.98C151.242 121.98 151.951 122.707 151.416 123.596C150.88 124.485 150.171 125.212 149.84 125.212C149.509 125.212 148.8 124.485 148.264 123.596Z" fill="black"/>
<path d="M162.298 124.676C162.813 123.048 163.234 121.434 163.234 121.09C163.234 120.747 164.475 120.942 165.992 121.525C168.42 122.458 168.487 122.255 166.557 119.822C165.161 118.062 163.158 117.404 161.042 118.009C158.392 118.767 158.197 118.616 160.083 117.263C161.383 116.329 164.928 115.653 167.961 115.761C171.65 115.892 172.295 116.189 169.908 116.66C167.945 117.047 166.753 118.05 167.259 118.89C167.765 119.73 168.949 119.929 169.89 119.333C170.91 118.686 171.147 119.001 170.476 120.114C169.739 121.337 170.725 121.98 173.334 121.98C176.227 121.98 177.069 121.317 176.41 119.556C175.725 117.724 176.603 117.186 180.005 117.352C183.757 117.536 183.913 117.689 180.938 118.276C178.975 118.662 177.746 119.604 178.206 120.368C179.503 122.52 176.2 123.919 169.827 123.917C166.634 123.917 163.423 124.753 162.691 125.776C161.875 126.918 161.723 126.493 162.298 124.676Z" fill="black"/>
<path d="M129.749 124.578C126.432 121.996 126.208 120.364 129.171 120.364C130.37 120.364 131.722 121.818 132.175 123.596C132.629 125.373 132.888 126.805 132.753 126.776C132.617 126.748 131.266 125.759 129.749 124.578Z" fill="black"/>
<path d="M165.992 127.374C167.075 126.925 168.848 126.925 169.931 127.374C171.015 127.822 170.128 128.189 167.961 128.189C165.795 128.189 164.908 127.822 165.992 127.374Z" fill="black"/>
<path d="M134.279 141.169C133.738 138.392 133.294 134.667 133.294 132.892C133.294 130.178 133.678 129.991 135.705 131.715C137.548 133.284 139.031 133.339 142.008 131.948C146.718 129.747 147.134 131.985 143.617 140.615C140.612 147.992 135.667 148.285 134.279 141.169Z" fill="black"/>
<path d="M139.991 182.273C141.508 181.866 143.99 181.866 145.507 182.273C147.023 182.679 145.782 183.012 142.749 183.012C139.716 183.012 138.475 182.679 139.991 182.273Z" fill="black"/>
<path d="M156.931 187.2C156.931 186.334 154.981 184.836 152.598 183.87C150.214 182.905 149.37 182.037 150.721 181.942C153.961 181.716 159.617 186.018 158.11 187.564C157.462 188.229 156.931 188.065 156.931 187.2Z" fill="black"/>
<path d="M138.022 201.806C138.022 201.568 138.713 199.507 139.558 197.227C141.69 191.479 148.376 191.424 149.442 197.147C150.034 200.322 149.472 201.359 146.868 201.891C143.384 202.603 138.022 202.551 138.022 201.806Z" fill="black"/>
<path d="M161.242 213.124C160.724 212.593 160.681 211.138 161.148 209.892C161.685 208.457 160.922 207.608 159.069 207.577C156.327 207.531 156.317 207.424 158.901 205.881C160.417 204.975 161.658 203.179 161.658 201.89C161.658 200.601 162.367 199.546 163.234 199.546C165.248 199.546 165.283 202.287 163.286 203.553C162.447 204.085 162.182 206.673 162.695 209.305C163.603 213.959 163.168 215.1 161.242 213.124Z" fill="black"/>
<path d="M136.318 301.264C144.481 299.615 152.059 297.324 153.158 296.173C154.772 294.482 154.573 291.6 152.116 281.152C150.444 274.042 149.071 265.049 149.064 261.168C149.053 254.606 149.314 254.164 152.802 254.847C156.209 255.515 156.643 254.904 157.539 248.168C158.082 244.09 158.959 238.754 159.488 236.309C160.44 231.912 160.366 231.865 152.387 231.865H144.325V225.402C144.325 220.733 143.668 218.938 141.961 218.938C140.653 218.938 139.598 220.372 139.598 222.151C139.598 228.01 134.768 231.865 127.429 231.865H120.688V212.255C120.688 193.141 120.793 192.545 124.845 188.695C128.019 185.678 128.703 185.443 127.739 187.702C127.046 189.328 126.361 198.476 126.217 208.03L125.956 225.402H131.989C137.985 225.402 138.022 225.362 138.022 218.886C138.022 213.632 138.699 212.113 141.518 211.044C146.055 209.322 148.669 212.02 149.329 219.106C149.814 224.31 150.186 224.619 156.537 225.091C161.757 225.478 163.234 225.032 163.234 223.071C163.234 221.686 163.766 220.679 164.416 220.833C165.066 220.986 170.207 216.406 175.84 210.655C183.519 202.816 188.647 199.149 196.325 196.007C202.164 193.618 206.787 190.697 207.078 189.212C208.618 181.357 187.724 171.238 165.992 169.315C160.142 168.798 155.355 167.846 155.355 167.201C155.355 166.556 160.496 165.546 166.78 164.957C185.195 163.23 193.996 160.908 201.528 155.792C209.946 150.074 220.564 135.165 219.067 131.165C217.793 127.76 219.785 127.689 224.363 130.977C230.191 135.163 234.554 133.396 236.597 126.02C240.522 111.847 240.635 110.668 238.074 110.668C236.736 110.668 234.968 112.486 234.144 114.708C232.451 119.273 230.201 119.943 228.833 116.287C227.366 112.367 233.691 106.969 238.347 108.168C241.542 108.99 242.178 108.638 241.743 106.288C240.959 102.05 233.035 101.627 227.864 105.547C223.666 108.73 223.544 108.732 216.907 105.685C209.163 102.129 190.28 83.4294 186.039 75.1169C184.452 72.0062 182.353 65.8783 181.374 61.4994L179.593 53.5378L176.24 59.0755C170.902 67.8925 161.795 76.0519 148.859 83.6088L136.848 90.6256L139.799 94.362C143.715 99.3217 143.52 101.945 138.881 106.702C134.035 111.672 131.01 111.704 126.264 106.837C124.21 104.731 120.519 102.442 118.063 101.753L113.597 100.499L118.719 98.8857C124.371 97.1056 125.907 93.5771 120.385 95.058C118.485 95.5676 108.2 97.2295 97.5294 98.7513L78.1285 101.518L70.335 97.7747C62.9787 94.2414 62.3203 94.18 58.5973 96.6816C53.2842 100.252 51.6718 109.218 55.0402 116.461C57.5896 121.944 61.2165 123.727 68.5575 123.109C71.833 122.833 72.625 123.806 74.2118 130.06C77.1934 141.81 80.5916 146.946 89.5916 153.302C99.0098 159.954 110.225 163.995 119.27 163.995C128.053 163.995 128.242 166.859 119.537 168.035C102.182 170.38 96.5623 173.138 91.7777 181.657C88.8832 186.811 88.8864 186.844 92.3613 187.776C94.2829 188.291 99.4926 190.605 103.938 192.918C111.228 196.71 111.977 197.598 111.569 201.97C109.129 228.081 111.367 235.251 124.189 242.408C128.414 244.766 133.528 249.342 135.587 252.607C139.625 259.008 145.477 274.853 144.263 276.098C143.853 276.519 137.14 273.618 129.345 269.652C110.361 259.994 97.7359 257.792 83.6888 261.692C71.365 265.113 60.9335 273.779 55.2191 285.343C50.2956 295.307 50.3632 297.338 55.6876 299.431C73.6416 306.49 106.717 307.242 136.318 301.264Z" fill="white"/>
<path d="M240.886 305.233C249.292 302.192 260.932 293.284 260.932 289.892C260.932 286.088 249.645 276.4 238.919 270.998C230.972 266.995 228.608 266.609 212.083 266.609C195.1 266.609 193.368 266.913 184.507 271.457C179.307 274.123 174.86 277.395 174.625 278.728C173.925 282.696 188.191 297.933 196.789 302.401C210.431 309.49 226.303 310.509 240.886 305.233Z" fill="white"/>
<path d="M194.749 307.911C194.749 307.075 194.04 305.941 193.174 305.392C192.307 304.843 191.598 305.527 191.598 306.912C191.598 308.298 192.307 309.432 193.174 309.432C194.04 309.432 194.749 308.747 194.749 307.911Z" fill="white"/>
<path d="M263.934 310.859C267.713 309.508 268.861 308.22 268.502 305.734C267.77 300.658 265.457 300.964 258.568 307.048C253.25 311.745 252.783 312.619 255.576 312.64C257.396 312.652 261.158 311.852 263.934 310.859Z" fill="white"/>
<path d="M131.83 110.375C130.229 110.14 128.766 109.206 126.347 106.876C124.503 105.1 122.521 103.697 120.374 102.648C118.979 101.967 119.105 102.008 113.789 100.516C113.755 100.507 114.97 100.108 116.49 99.6301C119.409 98.7117 120.464 98.3241 121.321 97.855C123.603 96.6067 124.529 95.1764 123.315 94.7749C122.852 94.6218 121.566 94.7247 120.374 95.0103C117.048 95.8072 108.723 97.1164 90.1394 99.7652C84.1591 100.618 79.1951 101.331 79.1083 101.351L78.9505 101.386V97.6671L79.2486 97.632C79.4126 97.6128 80.115 97.5612 80.8095 97.5175C83.954 97.3193 92.7362 96.3225 97.891 95.5787C112.603 93.4559 125.919 90.0755 136.8 85.7012L138.705 84.9354L146.446 84.9717L141.635 87.7829C138.989 89.329 136.825 90.61 136.825 90.6295C136.825 90.649 137.601 91.6454 138.549 92.8438C140.988 95.9265 141.784 97.1687 142.266 98.6424C142.439 99.1711 142.462 99.3491 142.466 100.189C142.471 100.998 142.447 101.215 142.307 101.665C141.829 103.192 140.721 104.773 138.698 106.813C136.445 109.086 134.746 110.156 133.036 110.378C132.438 110.456 132.379 110.456 131.83 110.375Z" fill="white"/>
<path d="M206.512 319.055C203.046 318.215 195.6 315.353 189.967 312.695C184.333 310.037 176.778 307.109 173.176 306.189C169.575 305.268 165.012 303.172 163.036 301.531C159.541 298.629 159.212 298.631 150.946 301.611C123.893 311.362 75.2011 311.674 50.511 302.255C47.0443 300.933 39.5987 299.811 33.9653 299.762C17.3232 299.618 11.9531 298.267 12.3521 294.325C12.6274 291.605 11.5602 290.766 6.76587 289.931C-1.86658 288.429 -2.32526 286.781 5.88904 286.781H13.005L14.0224 271.025C14.582 262.36 15.0435 251.452 15.0479 246.786C15.0542 240.448 15.6352 238.302 17.3458 238.302C18.6052 238.302 20.7999 235.786 22.223 232.71C23.6461 229.635 27.9454 224.155 31.777 220.533C37.6964 214.938 38.4946 213.471 37.087 210.773C32.802 202.562 43.3776 196.839 52.9248 202.202L58.6242 205.403L66.1444 198.421C73.6995 191.407 78.9868 189.776 82.4991 193.378C83.5391 194.445 84.3901 196.68 84.3901 198.345C84.3901 200.302 85.3185 201.187 87.0171 200.849C91.4141 199.975 90.9797 197.157 85.9809 194.129C83.3726 192.549 81.2385 190.539 81.2385 189.663C81.2385 186.842 93.3757 171.118 97.9004 168.078L102.282 165.134L95.9859 161.723C84.7433 155.632 77.6918 148.869 73.9168 140.556C71.894 136.101 70.232 131.184 70.2235 129.629C70.2125 127.465 68.8833 126.801 64.5717 126.801C60.443 126.801 57.7032 125.537 54.3292 122.077C44.5002 111.997 50.4888 91.2494 63.2272 91.2494C67.7548 91.2494 68.7319 90.5697 69.6156 86.8055C74.4885 66.05 98.3711 43.603 122.626 36.9811C133.164 34.1042 156.931 34.0496 167.563 36.8779C172.085 38.0809 175.785 38.544 175.785 37.907C175.785 35.506 160.129 21.8508 156.224 20.8456C152.284 19.8314 150.466 16.9151 153.775 16.9151C157.07 16.9151 165.687 21.3981 170.664 25.7016C173.48 28.1373 175.785 29.6657 175.785 29.0982C175.785 24.5642 164.792 11.4173 157.855 7.65569C152.753 4.88891 157.521 4.08101 162.972 6.78859C168.36 9.46449 178.936 22.2155 178.936 26.0352C178.936 27.2406 179.645 28.2268 180.512 28.2268C181.448 28.2268 182.088 22.1939 182.088 13.3599C182.088 2.80702 182.577 -1.00555 183.773 0.220908C184.818 1.29277 185.267 8.16532 184.955 18.3232C184.678 27.3292 184.897 34.6961 185.44 34.6942C185.984 34.6926 187.346 33.558 188.466 32.1736C190.868 29.2066 201.848 22.5615 206.906 21.0139C213.613 18.9622 210.441 23.0052 202.035 27.2226C197.406 29.5452 192.265 33.0087 190.611 34.9192C187.618 38.3754 187.621 38.3833 191.138 36.4908C196.165 33.7858 210.725 33.3672 211.596 35.9026C212.092 37.347 210.008 37.9226 204.28 37.9226C195.445 37.9226 193.54 40.1907 201.077 41.7364C207.639 43.0824 220.214 56.6773 225.505 68.1463C228.088 73.7451 230.085 81.3181 230.552 87.2819C231.323 97.1352 231.334 97.1544 237.312 98.7906L243.3 100.43L247.691 84.3044C250.106 75.4356 253.048 67.189 254.228 65.9787C257.368 62.7588 261.275 63.1675 260.225 66.6059C254.461 85.4743 240.359 137.001 240.827 137.481C241.418 138.088 250.364 108.629 258.303 79.9376C262.168 65.9656 265.908 61.895 266.885 70.5944C267.267 73.9923 249.246 139.746 244.338 152.863C243.614 154.799 244.627 155.706 248.366 156.473C256.55 158.152 264.864 168.079 267.253 179.024C269.143 187.686 269.04 189.034 265.906 196.642L262.512 204.88L268.92 212.009C272.444 215.93 277.572 223.995 280.314 229.932C284.773 239.583 285.299 242.266 285.278 255.27C285.253 270.692 282.714 279.063 274.245 291.644C267.276 301.997 271.332 306.01 289.043 306.286C293.052 306.349 297.75 307.073 299.483 307.896C301.522 308.863 297.491 309.048 288.059 308.418C278.083 307.752 273.483 307.996 273.483 309.191C273.483 312.767 262.938 316.336 248.341 317.702C220.067 320.347 212.812 320.581 206.512 319.055ZM263.878 310.832C267.658 309.481 268.806 308.193 268.447 305.706C267.714 300.631 265.401 300.937 258.513 307.021C253.195 311.718 252.727 312.592 255.52 312.612C257.341 312.625 261.102 311.824 263.878 310.832ZM194.694 307.884C194.694 307.047 193.985 305.914 193.118 305.365C192.252 304.815 191.543 305.5 191.543 306.885C191.543 308.271 192.252 309.404 193.118 309.404C193.985 309.404 194.694 308.72 194.694 307.884ZM240.83 305.206C249.236 302.164 260.877 293.256 260.877 289.865C260.877 286.06 249.59 276.373 238.864 270.971C230.917 266.968 228.552 266.581 212.028 266.581C195.044 266.581 193.312 266.886 184.452 271.429C179.251 274.096 174.805 277.368 174.569 278.701C173.869 282.669 188.135 297.905 196.734 302.374C210.375 309.463 226.248 310.482 240.83 305.206ZM136.263 301.236C144.426 299.588 152.004 297.297 153.103 296.146C154.717 294.454 154.517 291.573 152.061 281.125C150.389 274.015 149.016 265.022 149.009 261.141C148.998 254.578 149.259 254.136 152.747 254.82C156.154 255.488 156.587 254.877 157.484 248.141C158.027 244.063 158.904 238.726 159.433 236.282C160.384 231.885 160.31 231.838 152.332 231.838H144.269V225.374C144.269 220.706 143.613 218.91 141.906 218.91C140.597 218.91 139.542 220.345 139.542 222.124C139.542 227.983 134.713 231.838 127.374 231.838H120.633V212.228C120.633 193.113 120.738 192.518 124.789 188.668C127.963 185.651 128.647 185.416 127.684 187.674C126.99 189.301 126.305 198.448 126.162 208.003L125.901 225.374H131.934C137.929 225.374 137.966 225.334 137.966 218.858C137.966 213.604 138.643 212.086 141.462 211.016C146 209.295 148.614 211.993 149.274 219.079C149.758 224.283 150.131 224.592 156.482 225.063C161.701 225.451 163.179 225.005 163.179 223.043C163.179 221.659 163.71 220.652 164.36 220.806C165.01 220.959 170.151 216.379 175.785 210.628C183.464 202.788 188.591 199.122 196.27 195.98C202.109 193.591 206.732 190.669 207.023 189.185C208.563 181.329 187.668 171.211 165.936 169.288C160.086 168.77 155.3 167.819 155.3 167.174C155.3 166.529 160.441 165.519 166.724 164.93C185.139 163.202 193.94 160.881 201.472 155.764C209.891 150.046 220.509 135.138 219.012 131.138C217.738 127.732 219.73 127.661 224.308 130.95C230.136 135.136 234.498 133.368 236.541 125.993C240.466 111.82 240.58 110.641 238.019 110.641C236.681 110.641 234.912 112.459 234.088 114.681C232.396 119.246 230.145 119.915 228.778 116.26C227.311 112.34 233.635 106.942 238.292 108.14C241.487 108.963 242.122 108.611 241.687 106.261C240.903 102.022 232.979 101.6 227.809 105.52C223.61 108.703 223.488 108.704 216.852 105.657C209.108 102.102 190.224 83.4021 185.984 75.0896C184.397 71.9789 182.297 65.851 181.318 61.4721L179.538 53.5104L176.185 59.0481C170.846 67.8651 161.74 76.0246 148.804 83.5815L136.793 90.5982L139.743 94.3347C143.659 99.2944 143.464 101.917 138.826 106.674C133.979 111.644 130.955 111.677 126.209 106.81C124.154 104.703 120.464 102.415 118.008 101.725L113.542 100.471L118.663 98.8584C124.315 97.0783 125.852 93.5498 120.33 95.0307C118.429 95.5403 108.144 97.2022 97.4739 98.724L78.073 101.491L70.2796 97.7474C62.9233 94.214 62.2648 94.1527 58.5419 96.6543C53.2288 100.224 51.6164 109.19 54.9848 116.434C57.5341 121.916 61.161 123.7 68.502 123.081C71.7775 122.805 72.5696 123.779 74.1563 130.032C77.138 141.783 80.5362 146.918 89.5362 153.275C98.9544 159.927 110.169 163.968 119.215 163.968C127.998 163.968 128.187 166.831 119.481 168.008C102.127 170.353 96.5069 173.111 91.7223 181.63C88.8279 186.784 88.831 186.817 92.3059 187.749C94.2275 188.264 99.4371 190.578 103.883 192.89C111.173 196.682 111.922 197.571 111.513 201.943C109.073 228.053 111.312 235.224 124.134 242.381C128.358 244.739 133.473 249.315 135.532 252.58C139.57 258.981 145.422 274.826 144.208 276.071C143.798 276.491 137.085 273.591 129.29 269.625C110.306 259.966 97.6805 257.765 83.6333 261.664C71.3096 265.085 60.8781 273.751 55.1637 285.316C50.2402 295.28 50.3078 297.311 55.6322 299.404C73.5861 306.463 106.662 307.214 136.263 301.236ZM161.186 213.097C160.668 212.565 160.626 211.111 161.092 209.865C161.629 208.43 160.867 207.581 159.014 207.55C156.272 207.504 156.261 207.397 158.845 205.853C160.362 204.947 161.603 203.152 161.603 201.863C161.603 200.574 162.312 199.519 163.179 199.519C165.193 199.519 165.228 202.26 163.23 203.526C162.392 204.057 162.126 206.645 162.639 209.277C163.547 213.932 163.113 215.073 161.186 213.097ZM137.966 201.779C137.966 201.54 138.658 199.48 139.503 197.2C141.634 191.452 148.32 191.397 149.387 197.119C149.979 200.295 149.416 201.332 146.813 201.864C143.329 202.576 137.966 202.524 137.966 201.779ZM156.876 187.172C156.876 186.307 154.926 184.809 152.542 183.843C150.159 182.877 149.314 182.01 150.665 181.915C153.906 181.688 159.562 185.991 158.055 187.536C157.406 188.202 156.876 188.038 156.876 187.172ZM139.936 182.245C141.453 181.839 143.935 181.839 145.451 182.245C146.968 182.652 145.727 182.984 142.694 182.984C139.66 182.984 138.419 182.652 139.936 182.245ZM134.224 141.142C133.682 138.365 133.239 134.64 133.239 132.865C133.239 130.151 133.623 129.963 135.649 131.688C137.492 133.257 138.976 133.311 141.952 131.921C146.663 129.72 147.078 131.958 143.562 140.588C140.556 147.965 135.612 148.258 134.224 141.142ZM165.936 127.346C167.02 126.898 168.792 126.898 169.876 127.346C170.959 127.795 170.073 128.161 167.906 128.161C165.739 128.161 164.853 127.795 165.936 127.346ZM129.693 124.551C126.376 121.969 126.153 120.337 129.116 120.337C130.315 120.337 131.666 121.791 132.12 123.569C132.573 125.346 132.833 126.777 132.698 126.749C132.562 126.721 131.21 125.732 129.693 124.551ZM162.242 124.648C162.757 123.02 163.179 121.407 163.179 121.063C163.179 120.719 164.42 120.915 165.936 121.498C168.364 122.431 168.432 122.227 166.502 119.795C165.106 118.035 163.103 117.377 160.986 117.982C158.336 118.74 158.142 118.589 160.027 117.235C161.327 116.302 164.873 115.626 167.906 115.734C171.595 115.864 172.24 116.162 169.852 116.632C167.889 117.019 166.698 118.023 167.204 118.863C167.71 119.702 168.893 119.902 169.834 119.305C170.855 118.658 171.091 118.973 170.42 120.087C169.684 121.309 170.669 121.953 173.279 121.953C176.172 121.953 177.014 121.289 176.355 119.529C175.669 117.697 176.547 117.158 179.95 117.325C183.702 117.508 183.857 117.662 180.883 118.248C178.92 118.635 177.69 119.577 178.151 120.34C179.448 122.493 176.145 123.892 169.771 123.89C166.579 123.889 163.368 124.726 162.636 125.749C161.819 126.89 161.667 126.466 162.242 124.648ZM148.209 123.569C147.673 122.68 148.382 121.953 149.785 121.953C151.187 121.953 151.896 122.68 151.36 123.569C150.825 124.457 150.116 125.185 149.785 125.185C149.454 125.185 148.744 124.457 148.209 123.569ZM109.416 119.125C109.313 118.458 109.313 117.367 109.416 116.701C109.518 116.034 108.142 115.489 106.358 115.489C104.573 115.489 103.552 116.216 104.087 117.105C104.623 117.993 104.31 118.721 103.392 118.721C102.475 118.721 101.724 117.993 101.724 117.105C101.724 116.216 99.7735 115.392 97.3902 115.273C88.7873 114.844 109.035 112.538 122.624 112.398C130.421 112.319 137.758 111.409 139.475 110.309C141.947 108.726 143.051 108.855 145.363 110.997C146.928 112.448 151.045 113.929 154.512 114.29L160.815 114.945L153.408 115.217C147.811 115.422 145.622 114.798 144.446 112.661C143.2 110.396 142.494 110.235 140.901 111.853C139.807 112.964 136.394 113.881 133.318 113.891C124.09 113.92 115.884 115.762 116.968 117.561C117.548 118.523 117.194 118.729 116.123 118.051C115.109 117.408 114.686 116.204 115.185 115.377C115.684 114.55 114.631 113.873 112.847 113.873C109.197 113.873 109.135 117.329 112.754 119.011C114.689 119.91 114.617 120.13 112.36 120.223C110.843 120.286 109.518 119.791 109.416 119.125ZM120.633 118.086C120.633 117.736 121.733 117.017 123.078 116.488C124.481 115.936 125.113 116.207 124.561 117.123C123.636 118.659 120.633 119.394 120.633 118.086ZM63.8814 108.98C62.9408 107.177 61.4976 106.129 60.6744 106.651C59.8512 107.173 59.1777 106.443 59.1777 105.03C59.1777 101.566 63.3922 100.113 66.2888 102.578C68.8802 104.784 69.5158 112.257 67.112 112.257C66.2758 112.257 64.8221 110.782 63.8814 108.98ZM150.709 109.165C146.362 104.707 146.555 100.07 151.289 95.2157C156.592 89.7777 159.152 90.2027 166.33 97.7131C169.728 101.268 171.696 104.177 170.703 104.177C169.71 104.177 167.433 105.577 165.644 107.289C160.362 112.342 154.522 113.075 150.709 109.165ZM162.795 106.197C163.218 104.874 161.764 104.177 158.583 104.177C152.326 104.177 152.294 101.524 158.535 100.118C164.603 98.7516 163.752 95.4517 157.16 94.7837C153.149 94.3772 151.828 95.0497 150.422 98.2152C147.711 104.315 150.989 109.353 157.253 108.715C159.945 108.441 162.439 107.308 162.795 106.197ZM188.391 303.258C188.391 301.016 177.464 290.985 176.31 292.167C175.706 292.787 177.608 295.827 180.535 298.925C185.725 304.416 188.391 305.886 188.391 303.258ZM168.675 292.984C161.202 281.83 161.036 281.71 162.324 288.397C164.252 298.405 164.827 299.463 169.16 300.993C171.504 301.821 173.654 302.299 173.938 302.055C174.222 301.811 171.853 297.73 168.675 292.984ZM49.5211 286.993C53.6357 275.421 64.299 264.481 75.7677 260.067C80.0766 258.408 84.1231 256.287 84.7599 255.353C86.5865 252.672 86.1566 246.934 83.9961 245.161C82.9128 244.271 69.4352 243.025 54.0459 242.391L26.0653 241.239L25.091 246.234C24.175 250.931 23.0017 251.902 18.8402 251.407C17.2405 251.216 15.0865 272.481 15.0643 288.682C15.0548 295.766 15.6893 296.03 33.3602 296.289L46.1493 296.477L49.5211 286.993ZM157.749 281.059C154.979 262.355 153.721 257.505 151.932 258.639C151.131 259.146 150.916 262.232 151.453 265.495C152.849 273.972 158.735 296.725 159.364 296.079C159.655 295.781 158.929 289.022 157.749 281.059ZM270.456 276.801C273.575 269.962 274.264 265.912 274.234 254.582C274.203 242.792 273.55 239.362 269.852 231.577C267.462 226.546 262.776 219.899 259.439 216.807C253.858 211.636 252.755 211.249 245.699 211.991C241.48 212.434 233.837 214.9 228.715 217.47C215.551 224.075 211.017 223.618 200.47 214.62C195.397 210.292 193.118 210.881 193.118 216.521C193.118 225.764 186.469 239.028 177.147 248.381C172.064 253.48 167.91 258.57 167.915 259.693C167.932 263.609 171.268 274.049 172.34 273.54C172.935 273.258 177.089 271.047 181.573 268.628C205.228 255.863 236.791 260.315 258.513 279.482C261.98 282.541 265.227 285.071 265.728 285.104C266.23 285.138 268.358 281.401 270.456 276.801ZM245.119 257.744C245.119 256.883 246.182 256.598 247.482 257.109C248.782 257.621 249.846 258.325 249.846 258.674C249.846 259.024 248.782 259.31 247.482 259.31C246.182 259.31 245.119 258.605 245.119 257.744ZM253.33 255.433C254.447 254.189 255.61 253.413 255.913 253.709C256.848 254.62 254.479 257.694 252.843 257.694C251.993 257.694 252.212 256.676 253.33 255.433ZM243.667 251.903C243.743 250.02 244.116 249.638 244.619 250.927C245.075 252.093 245.019 253.487 244.495 254.024C243.971 254.561 243.599 253.607 243.667 251.903ZM257.725 252.038C257.725 250.704 258.004 249.614 258.344 249.614C258.685 249.614 259.372 250.704 259.871 252.038C260.369 253.371 260.091 254.462 259.251 254.462C258.412 254.462 257.725 253.371 257.725 252.038ZM267.428 247.998C267.428 245.776 267.786 244.867 268.223 245.978C268.66 247.089 268.66 248.907 268.223 250.018C267.786 251.129 267.428 250.22 267.428 247.998ZM242.396 247.02C243.012 246.388 242.635 244.714 241.56 243.299C239.797 240.98 239.915 240.96 242.755 243.097C244.488 244.4 246.115 245.583 246.369 245.725C246.623 245.867 245.581 246.474 244.053 247.076C242.525 247.677 241.78 247.652 242.396 247.02ZM246.695 243.15C243.814 241.241 246.302 241.241 250.634 243.15C252.712 244.066 252.98 244.569 251.422 244.628C250.122 244.676 247.995 244.011 246.695 243.15ZM265.604 242.05C265.604 241.149 264.008 239.623 262.058 238.658C259.424 237.355 259.188 236.877 261.139 236.795C262.584 236.735 264.063 236.141 264.426 235.474C264.79 234.807 264.904 235.082 264.681 236.085C264.457 237.088 265.058 238.712 266.016 239.694C266.974 240.676 267.273 241.977 266.681 242.584C266.088 243.192 265.604 242.951 265.604 242.05ZM250.095 238.302C250.095 236.08 250.453 235.171 250.89 236.282C251.327 237.393 251.327 239.211 250.89 240.322C250.453 241.433 250.095 240.524 250.095 238.302ZM253.98 237.432C252.46 233.368 252.908 232.319 254.766 235.595C255.686 237.217 256.106 238.885 255.7 239.301C255.295 239.717 254.521 238.876 253.98 237.432ZM236.452 233.454C235.21 231.393 236.861 228.599 239.303 228.631C240.537 228.647 240.435 229.139 239.008 230.066C237.813 230.842 237.323 232.285 237.919 233.273C238.514 234.262 238.647 235.07 238.214 235.07C237.78 235.07 236.988 234.343 236.452 233.454ZM248.27 232.055C248.27 230.99 246.675 229.46 244.725 228.657C242.326 227.668 242.009 227.162 243.744 227.093C246.659 226.976 250.819 231.379 249.283 232.954C248.726 233.526 248.27 233.121 248.27 232.055ZM249.846 227.149C249.846 225.471 252.844 223.042 253.731 224.001C254.02 224.312 253.263 225.504 252.051 226.65C250.838 227.796 249.846 228.021 249.846 227.149ZM257.725 223.758C256.305 222.817 256.11 222.182 257.238 222.167C258.27 222.153 259.553 222.87 260.089 223.758C261.298 225.765 260.752 225.765 257.725 223.758ZM165.738 269.409C165.296 267.854 164.46 263.135 163.88 258.922C163.3 254.709 162.154 251.688 161.334 252.208C160.514 252.728 160.239 255.266 160.723 257.847C161.207 260.429 162.014 264.723 162.516 267.389C163.018 270.056 164.13 272.237 164.986 272.237C165.842 272.237 166.181 270.965 165.738 269.409ZM137.966 267.309C137.966 261.839 126.732 246.382 122.757 246.382C121.649 246.382 118.32 244.201 115.36 241.535C109.988 236.699 106.607 227.815 106.322 217.791C106.209 213.842 105.695 214.373 102.348 221.892C100.233 226.642 98.6021 231.369 98.7239 232.395C99.344 237.622 98.1482 240.06 93.8447 242.342C90.0237 244.368 89.1174 245.884 89.1174 250.246V255.643L99.8198 256.429C107.449 256.988 114.123 258.856 123.063 262.934C137.338 269.445 137.966 269.63 137.966 267.309ZM281.362 256.79C281.362 252.843 280.652 249.614 279.786 249.614C278.919 249.614 278.21 253.293 278.21 257.789C278.21 262.828 278.815 265.581 279.786 264.965C280.652 264.416 281.362 260.737 281.362 256.79ZM177.092 243.163C179.931 240.505 183.602 235.202 185.251 231.379C189.077 222.509 191.005 210.831 188.643 210.831C186.229 210.831 175.029 226.395 171.179 235.099C165.314 248.357 167.852 251.818 177.092 243.163ZM280.506 244.878C281.005 244.05 280.692 242.916 279.812 242.358C278.931 241.8 278.21 242.477 278.21 243.863C278.21 246.701 279.156 247.119 280.506 244.878ZM81.2385 239.861C81.2385 238.94 78.15 236.829 74.3751 235.17C70.6001 233.511 67.0769 230.991 66.5456 229.572C66.0144 228.152 64.1908 226.99 62.4931 226.99C60.7954 226.99 58.012 225.172 56.3077 222.95C51.1091 216.173 43.5885 218.625 33.0911 230.522C25.8978 238.673 23.9659 237.808 53.6625 239.735C64.9293 240.467 75.743 241.17 77.693 241.299C79.643 241.428 81.2385 240.781 81.2385 239.861ZM93.7991 238.365C95.074 237.538 95.7073 236.442 95.2064 235.928C93.9651 234.655 89.1174 236.683 89.1174 238.475C89.1174 240.317 90.8526 240.276 93.7991 238.365ZM278.21 235.43C278.21 232.146 273.984 225.374 271.935 225.374C271.181 225.374 271.754 228.276 273.206 231.822C275.995 238.631 278.21 240.228 278.21 235.43ZM93.2144 229.576C98.8952 223.75 100.185 217.828 96.1207 216.228C94.4747 215.581 91.1662 218.119 86.0503 223.955C81.8598 228.735 78.7502 233.192 79.14 233.858C80.9355 236.929 88.1997 234.718 93.2144 229.576ZM81.803 223.799C87.6714 217.138 90.1147 210.979 88.5489 206.794C86.7896 202.093 83.8665 203.905 75.9711 214.59C65.5574 228.684 70.5518 236.57 81.803 223.799ZM73.2969 212.069C81.0398 200.798 82.4311 196.423 78.6792 195.142C76.0601 194.248 59.3071 210.547 58.2013 215.065C57.1851 219.218 59.7975 223.758 63.2027 223.758C64.3375 223.758 68.8799 218.498 73.2969 212.069ZM227.456 213.768L233.301 210.06L228.573 209.226C224.775 208.555 223.744 207.478 223.328 203.745C222.82 199.195 222.652 199.118 215.232 200.019C205.563 201.194 195.705 205.354 197.102 207.672C197.684 208.638 201.103 211.622 204.7 214.304C212.289 219.962 217.902 219.829 227.456 213.768ZM104.781 208.003C105.944 204.67 107.227 201.032 107.632 199.918C108.053 198.76 106.103 196.917 103.076 195.612C96.622 192.829 94.3433 194.342 92.8716 202.387C91.993 207.19 92.4131 208.658 95.3682 211.112C100.542 215.409 102.412 214.791 104.781 208.003ZM54.3491 210.929C56.156 209.757 56.2223 208.98 54.6784 207.072C51.6288 203.304 44.8694 202.188 42.1276 205C37.203 210.05 47.7892 215.186 54.3491 210.929ZM253.014 205.579C261.103 199.933 264.553 194.118 264.553 186.13C264.553 173.218 256.718 162.183 245.907 159.87C242.521 159.146 241.817 159.316 243.426 160.472C245.144 161.706 242.118 163.858 230.54 169.636C215.055 177.362 212.143 180.104 215.967 183.359C217.636 184.78 219.863 184.431 225.528 181.861C233.631 178.186 235.664 177.796 235.664 179.916C235.664 180.689 231.41 183.213 226.21 185.526C221.009 187.838 216.755 190.056 216.755 190.453C216.755 197.156 222.559 197.841 231.882 192.238C240.78 186.89 242.327 189.892 233.726 195.816C221.807 204.025 224.921 209.657 237.402 202.463C240.76 200.528 244.042 199.492 244.694 200.161C245.347 200.83 244.645 202.086 243.136 202.952C241.627 203.819 240.391 205.582 240.391 206.871C240.391 210.409 247.073 209.725 253.014 205.579ZM212.939 184.588C210.575 180.887 210.614 180.352 213.525 176.557C216.25 173.004 216.402 171.833 214.73 167.29C213.037 162.69 213.169 161.826 215.875 159.797C217.557 158.536 220.606 157.504 222.652 157.504C226.394 157.504 229.249 152.845 231.738 142.673C232.612 139.101 232.136 138.366 228.314 137.382C224.701 136.452 223.431 136.941 221.496 140.004C217.082 146.992 206.707 157.735 201.867 160.329C199.222 161.746 193.223 164.133 188.535 165.633L180.013 168.36L186.098 169.531C198.275 171.873 212.028 182.445 212.028 189.462C212.028 191.36 212.504 191.597 213.75 190.319C214.996 189.041 214.772 187.456 212.939 184.588ZM224.578 165.69C226.807 161.42 226.649 160.732 223.452 160.76C219.135 160.799 216.202 163.391 217.264 166.229C218.591 169.776 222.6 169.481 224.578 165.69ZM240.17 141.344C240.17 139.816 239.669 140.115 238.816 142.152C238.071 143.93 237.461 146.475 237.461 147.808C237.461 149.336 237.962 149.037 238.816 147C239.561 145.223 240.17 142.677 240.17 141.344ZM139.574 104.116C142.961 97.6249 136.812 89.8687 130.028 92.0766C125.92 93.4138 126.113 96.7304 130.481 99.8552L134.027 102.392L130.481 102.476C128.531 102.523 126.936 103.167 126.936 103.908C126.936 108.61 137.141 108.778 139.574 104.116ZM209.321 88.6385C200.391 79.3748 193.35 70.2688 189.472 62.9699L183.463 51.6582L184.417 58.8277C185.903 69.9967 189.692 76.6212 201.416 88.55C210.554 97.8484 221.026 105.174 222.715 103.45C222.96 103.2 216.932 96.5347 209.321 88.6385ZM93.886 96.0472C114.158 93.5179 132.822 88.3223 145.057 81.8019C156.328 75.7958 172.633 61.3294 172.633 57.3357C172.633 56.1151 170.145 58.0979 167.103 61.7419C155.55 75.5836 133.219 85.8443 103.299 91.059C92.4659 92.9471 80.9012 94.4895 77.6 94.4866C73.9987 94.4834 71.9874 95.1276 72.5718 96.0972C73.7981 98.132 77.2407 98.124 93.886 96.0472ZM219.32 82.6986C212.283 68.055 191.543 42.6969 191.543 48.7372C191.543 49.5694 198.003 59.2933 205.898 70.3458C213.794 81.3983 220.66 91.4953 221.157 92.7836C221.812 94.4824 222.24 94.575 222.712 93.1207C223.071 92.0179 221.544 87.328 219.32 82.6986ZM227.334 86.8054C225.083 67.3941 208.587 44.3863 196.92 44.3863C195.051 44.3863 196.417 46.7481 201.529 52.3524C210.663 62.3671 224.06 83.2767 225.425 89.6494C227.045 97.212 228.321 95.3114 227.334 86.8054ZM217.315 90.8453C213.087 83.7343 189.496 52.4098 188.861 53.0615C186.071 55.9229 212.14 92.8653 216.95 92.8653C217.812 92.8653 217.976 91.9563 217.315 90.8453ZM103.634 87.9588C133.042 82.8133 147.744 76.3943 161.951 62.4978C172.985 51.705 173.8 48.5237 163.573 56.1726C152.89 64.1618 131.03 75.8746 119.057 80.0248C113.424 81.9774 101.014 85.2361 91.4811 87.2663C69.6657 91.912 78.2457 92.401 103.634 87.9588ZM104.969 81.3961C123.899 76.5723 163.179 57.0109 163.179 52.408C163.179 51.6726 156.265 54.3882 147.815 58.4428C139.365 62.4974 122.524 69.7851 110.39 74.6377C81.3842 86.2382 80.2065 87.7065 104.969 81.3961ZM98.572 60.1898C112.157 49.2205 125.853 43.6113 147.199 40.2755L160.815 38.1477L141.822 38.4391C123.34 38.7226 122.511 38.8918 110.984 44.7352C97.2045 51.72 86.6704 60.7072 79.8061 71.3347C72.6675 82.387 73.8391 83.3335 83.2082 74.0834C87.7583 69.5912 94.672 63.3391 98.572 60.1898ZM123.598 55.376C129.334 52.7117 140.409 48.7592 148.209 46.5927L162.391 42.6535L148.898 43.4199C134.466 44.2397 119.804 48.8819 108.467 56.2213C99.8791 61.7806 82.8143 76.4863 82.8143 78.3273C82.8143 79.1544 89.6439 75.4186 97.9912 70.0256C106.339 64.6327 117.861 58.0403 123.598 55.376ZM106.813 73.4251C131.922 63.321 164.691 48.5469 164.724 47.3159C164.815 43.9616 136.966 51.7814 121.271 59.5173C110.37 64.8901 89.1174 77.9491 89.1174 79.2744C89.1174 80.4546 90.3917 80.0334 106.813 73.4251Z" fill="black"/>
<path d="M126.089 210.369C126.551 201.259 127.203 192.351 127.539 190.574C127.875 188.796 128.204 186.747 128.27 186.021C128.336 185.294 129.809 185.162 131.542 185.726C133.275 186.29 134.693 186.099 134.693 185.301C134.693 184.504 138.627 183.992 143.435 184.164C150.47 184.416 153.284 185.396 157.839 189.177C164.45 194.663 165.88 201.035 161.429 205.166C159.044 207.379 158.855 208.311 160.458 209.955C161.553 211.077 162.618 215.357 162.826 219.464L163.203 226.933H156.039C148.894 226.933 148.875 226.917 148.875 221.242C148.875 216.698 148.059 215.17 144.823 213.658C139.901 211.359 137.906 213.66 137.869 221.681C137.846 226.726 137.597 226.933 131.547 226.933H125.249L126.089 210.369ZM148.573 200.004C149.078 196.373 144.184 193.402 141.011 195.413C139.184 196.57 138.882 201.603 140.538 203.3C142.811 205.631 148.093 203.464 148.573 200.004Z" fill="#FF0000"/>
</g>
<defs>
<clipPath id="clip0_668_1011">
<rect width="300" height="320" fill="white"/>
</clipPath>
</defs>
</svg>
